<svg width="28" height="25" viewBox="0 0 28 25" fill="none" xmlns="http://www.w3.org/2000/svg">
<g clip-path="url(#clip0_1280_360)">
<path d="M8.21134 3.33045C8.24302 2.89209 8.25722 2.54251 8.29326 2.19515C8.4145 1.03876 9.28285 0.0865645 10.4341 0.0588201C12.7278 -0.00554715 15.0216 -0.0221928 17.3153 0.0321864C18.7582 0.0654798 19.5948 0.992147 19.7183 2.45817C19.739 2.71452 19.7423 2.9731 19.7576 3.33045H20.3889C22.5188 3.33045 24.6494 3.33045 26.7808 3.33045C27.7507 3.33045 27.9735 3.55906 27.9735 4.53234C27.9735 10.3587 27.9408 16.185 27.9954 22.0114C28.0107 23.5762 27.1751 25.0244 25.0288 24.9978C20.5506 24.9434 16.0723 24.9811 11.5941 24.9811C8.64497 24.9811 5.69588 24.9878 2.74678 24.9811C1.28425 24.9811 0.336172 24.2587 0.0576465 22.9724C0.0163135 22.7531 -0.00126767 22.5298 0.0052178 22.3066C0.0052178 16.3508 0.0052178 10.3949 0.0052178 4.43912C0.0052178 3.61566 0.268452 3.32934 1.07672 3.32934C3.22628 3.32268 5.37475 3.32934 7.52104 3.32934L8.21134 3.33045ZM1.74081 9.62956H1.63159V10.0735C1.63159 14.1057 1.63159 18.1379 1.63159 22.1701C1.63159 23.0512 1.89155 23.3154 2.77737 23.3165C10.2426 23.3165 17.7063 23.3165 25.1686 23.3165C26.085 23.3165 26.3297 23.0601 26.3297 22.1301C26.3297 18.1157 26.3297 14.102 26.3297 10.089V9.63622C26.223 9.72275 26.1464 9.84178 26.1112 9.97581C25.7836 10.9901 25.4559 12.0056 25.114 13.0188C24.6585 14.3972 23.8765 14.9787 22.4336 14.992C21.195 15.0031 19.9575 14.992 18.7199 14.992C18.5255 14.992 18.3311 15.0087 18.1105 15.0186C18.0952 15.3249 18.0886 15.5802 18.069 15.8343C18.0296 16.3348 17.7566 16.6367 17.2651 16.64C15.0805 16.6534 12.896 16.6534 10.7115 16.64C10.1905 16.64 9.92291 16.3138 9.88905 15.7922C9.87266 15.5414 9.86283 15.2905 9.85191 15.0653C9.80134 15.0391 9.74778 15.0193 9.69244 15.0064C8.34605 14.9983 6.99894 14.9928 5.65109 14.9898C4.06077 14.982 3.32459 14.4349 2.82433 12.9201C2.46753 11.8236 2.10636 10.7268 1.74081 9.62956ZM18.1618 13.3018C19.703 13.3018 21.2278 13.3085 22.7493 13.2963C23.1687 13.2963 23.3861 13.0077 23.5139 12.6204C23.8819 11.4818 24.261 10.3476 24.6334 9.21117C25.0867 7.83393 25.5378 6.45559 25.9987 5.05061H1.9691C2.82106 7.64527 3.65117 10.18 4.48129 12.7136C4.63093 13.1664 4.98045 13.3196 5.41844 13.3207H8.03986H9.83334C9.8541 13.1342 9.87376 13.0277 9.87703 12.9201C9.92072 11.8103 10.0802 11.656 11.1877 11.656H16.4306C17.9455 11.656 17.9455 11.656 18.1083 13.182C18.1235 13.2231 18.1413 13.2631 18.1618 13.3018ZM18.0231 3.30604C18.2186 1.99317 17.9477 1.66911 16.7124 1.66911C14.8555 1.66911 12.9987 1.66911 11.1419 1.66911C10.0136 1.66911 9.65858 2.16629 9.98626 3.30604H18.0231ZM16.4186 13.3784H11.5799V14.9443H16.4186V13.3784Z" fill="#072AC8"/>
</g>
<defs>
<clipPath id="clip0_1280_360">
<rect width="28" height="25" fill="white"/>
</clipPath>
</defs>
</svg>
