<svg viewBox="0 0 42 48" fill="none" xmlns="http://www.w3.org/2000/svg">
<g clip-path="url(#clip0_1698_5152)">
<path d="M23.0052 37.4895C24.0709 38.5003 25.0799 39.4158 26.04 40.378C27.9309 42.2731 27.97 44.9318 26.1671 46.7139C24.4072 48.4669 21.7538 48.4318 19.8786 46.5971C17.7393 44.5072 15.6295 42.3861 13.5215 40.265C13.2894 39.9912 13.0813 39.6979 12.8997 39.3885L12.4793 39.3729C12.2134 39.741 11.9963 40.152 11.6757 40.4734C9.89819 42.1971 7.33271 42.2575 5.52397 40.5669C4.05351 39.1931 2.62737 37.7725 1.24556 36.3052C-0.471283 34.488 -0.402842 31.9111 1.3883 30.1017C4.03982 27.4216 6.75783 24.8039 9.38393 22.0985C13.4121 17.9439 16.0029 13.0064 17.2231 7.36189C17.2755 7.02228 17.2266 6.67482 17.0823 6.3627C16.1379 4.24161 16.6912 2.01925 18.5156 0.755171C20.2442 -0.444634 22.622 -0.203123 24.2215 1.38039C29.6875 6.80808 35.1457 12.2455 40.596 17.6927C42.2268 19.3229 42.4458 21.5648 41.2061 23.3625C39.9664 25.1603 37.7665 25.7232 35.6625 24.8292C35.377 24.7065 35.027 24.5701 34.7435 24.6344C30.681 25.4544 26.8329 27.103 23.4413 29.4765C24.6145 30.6101 25.4514 31.8138 25.3967 33.481C25.3419 35.1483 24.2978 36.2565 23.0052 37.4895ZM32.3227 22.1627L19.7202 9.61542C18.424 14.449 16.0574 18.9321 12.7941 22.7354L19.0983 29.1142C22.9307 25.8435 27.4492 23.4683 32.3227 22.1627ZM10.5278 25.1311C8.18136 27.4684 5.78404 29.8251 3.41409 32.2228C2.75708 32.8889 2.79033 33.6972 3.46103 34.3887C4.74898 35.7144 6.0591 37.0207 7.39138 38.3075C8.20678 39.0866 8.94005 39.0652 9.77501 38.2647C10.4086 37.6589 11.0206 37.0317 11.6424 36.4124L16.744 31.3482C14.6361 29.233 12.6006 27.1996 10.5278 25.1311ZM39.2722 20.8753C38.8674 20.3202 38.6034 19.843 38.2319 19.471C32.9732 14.2108 27.7054 8.95839 22.4284 3.71378C22.2359 3.4952 22.0126 3.30559 21.7655 3.15088C21.0929 2.79445 20.4358 2.8334 19.9137 3.43136C19.4269 3.98841 19.4034 4.6 19.8375 5.20964C19.9979 5.41363 20.1744 5.60447 20.3654 5.78033C25.6359 11.0314 30.9063 16.2812 36.1768 21.5297C36.3841 21.7362 36.5874 22.0381 36.8338 22.0868C37.3109 22.1803 37.8917 22.2815 38.2906 22.0868C38.6895 21.892 38.9065 21.3564 39.2722 20.885V20.8753ZM16.9591 35.4541L14.8962 37.4934C17.2427 39.8306 19.5891 42.1991 21.9786 44.55C22.6552 45.2181 23.4608 45.2317 24.067 44.6727C24.7103 44.0787 24.7358 43.2178 24.0396 42.5166C21.6853 40.1384 19.3037 37.7875 16.9591 35.4541ZM19.157 33.0428L21.1535 35.1463C22.9133 33.5161 22.9133 32.774 20.9579 31.358L19.157 33.0428Z" fill="#072AC8"/>
<path d="M12.1978 31.0549C12.0277 31.5146 12.0022 31.8457 11.8184 32.0288C11.0369 32.8934 10.205 33.7115 9.32726 34.479C8.7289 34.9757 8.0191 34.8121 7.49505 34.2336C6.99838 33.6902 6.92799 33.0027 7.39338 32.4612C8.11743 31.589 8.92779 30.7916 9.8122 30.0811C10.1544 29.8162 10.8916 29.8103 11.3276 29.9837C11.7148 30.1473 11.9377 30.716 12.1978 31.0549Z" fill="#072AC8"/>
</g>
<defs>
<clipPath id="clip0_1698_5152">
<rect width="42" height="48" fill="white"/>
</clipPath>
</defs>
</svg>
