<svg width="16" height="17" viewBox="0 0 16 17" fill="none" xmlns="http://www.w3.org/2000/svg">
<path d="M8.17556 9.63183L11.8326 5.97483C11.8991 5.90174 11.9797 5.84275 12.0694 5.80134C12.1592 5.75994 12.2563 5.73697 12.3551 5.73378C12.4539 5.7306 12.5524 5.74727 12.6446 5.7828C12.7369 5.81834 12.821 5.87202 12.8922 5.94067C12.9633 6.00932 13.0199 6.09155 13.0587 6.18247C13.0975 6.2734 13.1176 6.37118 13.1179 6.47003C13.1183 6.56888 13.0987 6.66679 13.0605 6.75797C13.0223 6.84914 12.9662 6.93172 12.8956 7.00083L12.8776 7.01883L8.69856 11.1988C8.55997 11.3374 8.37203 11.4152 8.17606 11.4152C7.98009 11.4152 7.79214 11.3374 7.65356 11.1988L3.47456 7.01983C3.40476 6.95239 3.34893 6.87187 3.31025 6.78286C3.27157 6.69385 3.2508 6.59809 3.24913 6.50105C3.24746 6.40402 3.26492 6.3076 3.30051 6.21731C3.3361 6.12702 3.38913 6.04462 3.45656 5.97483C3.52399 5.90503 3.60451 5.8492 3.69353 5.81052C3.78254 5.77184 3.87829 5.75107 3.97533 5.7494C4.07237 5.74773 4.16879 5.76519 4.25908 5.80078C4.34937 5.83637 4.43176 5.88939 4.50156 5.95683L4.51956 5.97483L8.17556 9.63183Z" fill="#072AC8" stroke="#072AC8" stroke-width="0.5"/>
</svg>
