<svg width="16" height="17" viewBox="0 0 16 17" fill="none" xmlns="http://www.w3.org/2000/svg">
<path d="M8.17556 9.6328L11.8326 5.9758C11.8991 5.90272 11.9797 5.84372 12.0694 5.80232C12.1592 5.76092 12.2563 5.73794 12.3551 5.73476C12.4539 5.73157 12.5524 5.74824 12.6446 5.78378C12.7369 5.81932 12.821 5.873 12.8922 5.94165C12.9633 6.0103 13.0199 6.09252 13.0587 6.18345C13.0975 6.27438 13.1176 6.37216 13.1179 6.47101C13.1183 6.56986 13.0987 6.66777 13.0605 6.75894C13.0223 6.85012 12.9662 6.9327 12.8956 7.0018L12.8776 7.0198L8.69856 11.1998C8.55997 11.3384 8.37203 11.4162 8.17606 11.4162C7.98009 11.4162 7.79214 11.3384 7.65356 11.1998L3.47456 7.0208C3.40476 6.95337 3.34893 6.87285 3.31025 6.78384C3.27157 6.69483 3.2508 6.59907 3.24913 6.50203C3.24746 6.40499 3.26492 6.30858 3.30051 6.21829C3.3361 6.128 3.38913 6.0456 3.45656 5.9758C3.52399 5.90601 3.60451 5.85017 3.69353 5.81149C3.78254 5.77282 3.87829 5.75205 3.97533 5.75038C4.07237 5.7487 4.16879 5.76616 4.25908 5.80175C4.34937 5.83734 4.43176 5.89037 4.50156 5.9578L4.51956 5.9758L8.17556 9.6328Z" fill="white" stroke="white" stroke-width="0.5"/>
</svg>
