<svg width="28" height="29" viewBox="0 0 28 29" fill="none" xmlns="http://www.w3.org/2000/svg">
<g clip-path="url(#clip0_1280_290)">
<path d="M9.06934 12.7516C9.1076 10.7021 9.64657 9.01091 10.8393 7.67695C12.6431 5.66132 14.4852 3.66152 16.4815 1.85502C18.9861 -0.411575 22.385 -0.568711 24.9311 1.205C28.4185 3.63665 29.0428 8.43211 26.243 11.9366C25.1203 13.3395 23.8095 14.583 22.5632 15.8763C22.116 16.3398 21.4699 16.2991 21.0458 15.8537C20.8428 15.6438 20.7288 15.3591 20.7288 15.0623C20.7288 14.7655 20.8428 14.4809 21.0458 14.271C21.9859 13.2717 22.9513 12.2972 23.8958 11.3035C24.9606 10.1855 25.7139 8.88882 25.7981 7.28807C25.9762 3.917 22.737 1.46275 19.6245 2.57287C18.6939 2.91239 17.8501 3.46635 17.1571 4.19284C15.7964 5.58332 14.4437 6.98247 13.099 8.39028C12.2539 9.27657 11.6231 10.3121 11.3826 11.5443C10.9803 13.6153 11.7489 15.4331 13.5297 16.6314C14.0009 16.948 14.307 17.3301 14.1857 17.9292C14.0294 18.7352 13.1865 19.0755 12.4638 18.6075C10.2992 17.2147 9.16007 15.1912 9.06934 12.7516Z" fill="#072AC8"/>
<path d="M18.93 16.2086C18.9049 18.2548 18.3757 19.9539 17.1808 21.289C15.3551 23.334 13.4879 25.3587 11.4588 27.1878C8.97281 29.425 5.58268 29.5516 3.05184 27.7801C-0.412632 25.3553 -1.04343 20.5847 1.7323 17.0904C2.86161 15.6682 4.1888 14.4146 5.44931 13.1077C5.8866 12.6476 6.54254 12.703 6.96453 13.1563C7.16323 13.3702 7.272 13.6567 7.26709 13.9533C7.26217 14.2498 7.14397 14.5323 6.9383 14.739C5.98499 15.7564 5.00545 16.7377 4.04996 17.7483C3.00374 18.8573 2.27017 20.146 2.19802 21.7276C2.03185 25.3451 5.64718 27.7586 8.89301 26.2031C9.36638 25.977 9.85724 25.708 10.2257 25.3372C11.9891 23.5657 13.7885 21.8237 15.4273 19.9335C17.0475 18.066 17.1765 15.6151 15.8985 13.7951C15.5137 13.2445 14.9758 12.7867 14.4467 12.3684C13.8038 11.8586 13.5961 11.2945 13.9591 10.6942C14.3056 10.1199 14.9714 10.0159 15.6339 10.4556C17.7285 11.8506 18.8327 13.8358 18.93 16.2086Z" fill="#072AC8"/>
</g>
<defs>
<clipPath id="clip0_1280_290">
<rect width="28" height="29" fill="white"/>
</clipPath>
</defs>
</svg>
