<svg width="63" height="62" viewBox="0 0 63 62" fill="none" xmlns="http://www.w3.org/2000/svg">
<g clip-path="url(#clip0_1285_3337)">
<path d="M57.4285 24.7616C57.0144 11.0386 45.5431 0 31.5002 0C17.4572 0 5.98591 11.0386 5.57172 24.7616L3.70605 26.5976V39.0494L5.559 40.873V49.3569C5.559 54.3173 9.65968 58.3529 14.7002 58.3529H16.9954C17.7602 60.4754 19.8199 62 22.2355 62H25.9414C28.3586 62 30.4193 60.4732 31.183 58.3486C31.2888 58.3504 31.3949 58.3529 31.5002 58.3529C40.4484 58.3529 47.9355 52.0781 49.657 43.7647H54.503L59.2943 39.0494V26.5976L57.4285 24.7616ZM31.5002 3.64706C42.4981 3.64706 51.6554 11.5465 53.4249 21.8824H49.657C47.9355 13.569 40.4484 7.29412 31.5002 7.29412C22.552 7.29412 15.0648 13.569 13.3433 21.8824H9.57543C11.345 11.5465 20.5022 3.64706 31.5002 3.64706ZM45.8547 21.8824C39.8648 21.8647 35.634 22.2237 32.1457 17.2056L30.4519 14.769L28.9962 17.3504C26.8752 21.1116 24.0189 21.8824 20.3825 21.8824H17.1457C18.7954 15.5975 24.6056 10.9412 31.5002 10.9412C38.3947 10.9412 44.2049 15.5975 45.8547 21.8824ZM12.9708 40.1176H10.0324L7.41194 37.5388V28.1082L10.0324 25.5294H12.9708V40.1176ZM9.26488 49.3569V43.7647H13.3397C14.0373 47.1656 15.7063 50.2873 18.1789 52.7947C17.6606 53.3397 17.254 53.9883 16.9954 54.7059H14.7002C11.7031 54.7059 9.26488 52.3064 9.26488 49.3569ZM25.9414 58.3529H22.2355C21.2136 58.3529 20.3825 57.535 20.3825 56.5294C20.3825 55.5239 21.2136 54.7059 22.2355 54.7059H25.9414C26.9631 54.7059 27.7943 55.5239 27.7943 56.5294C27.7943 57.535 26.9631 58.3529 25.9414 58.3529ZM46.3237 40.1176C46.3237 48.1616 39.6739 54.7059 31.5002 54.7059C31.3939 54.7059 31.2868 54.7038 31.1799 54.7014C30.4137 52.5812 28.3552 51.0588 25.9414 51.0588C22.1366 51.0671 22.1973 51.0401 21.7231 51.083C18.5061 48.3081 16.6766 44.3557 16.6766 40.1176V25.5294H20.3825C23.6619 25.5294 27.6556 24.9973 30.747 21.2946C34.826 25.5012 39.8106 25.5294 44.2852 25.5294H46.3237V40.1176ZM55.5884 37.5388L52.968 40.1176H50.0296V25.5294H52.968L55.5884 28.1082V37.5388Z" fill="#3A3A3A"/>
</g>
<defs>
<clipPath id="clip0_1285_3337">
<rect width="63" height="62" fill="white"/>
</clipPath>
</defs>
</svg>
