<svg width="14" height="12" viewBox="0 0 14 12" fill="none" xmlns="http://www.w3.org/2000/svg">
<path d="M13.5048 3.22091V4.15153C13.5048 5.95858 13.5048 7.76563 13.5048 9.56665C13.5048 10.671 13.0604 11.1207 11.9666 11.1217C8.48397 11.1217 5.00167 11.1217 1.51971 11.1217C0.477919 11.1217 0.00756127 10.671 0.00355824 9.64696C-0.0044478 7.62407 0.00355824 5.60219 0.00355824 3.5793C0.00355824 3.46485 0.020576 3.3494 0.0335858 3.17773C0.226732 3.26407 0.389855 3.33133 0.546974 3.41064C2.48144 4.37641 4.41889 5.33716 6.34435 6.322C6.46999 6.39644 6.61324 6.43572 6.75916 6.43572C6.90508 6.43572 7.04834 6.39644 7.17398 6.322C9.10944 5.36025 11.0549 4.41456 12.9964 3.46987C13.1375 3.39558 13.2826 3.32732 13.5048 3.22091Z" fill="white"/>
<path d="M6.74837 0.00319571C8.5577 0.00319571 10.367 0.00319571 12.1764 0.00319571C12.8076 0.00319571 13.2489 0.316058 13.4429 0.854521C13.5595 1.17377 13.5313 1.39405 13.1835 1.56963C11.149 2.59974 9.12863 3.66283 7.09414 4.69187C6.89053 4.78619 6.6599 4.79116 6.45284 4.7057C4.39322 3.64155 2.34967 2.55079 0.29307 1.48237C-0.0316038 1.31317 -0.0587339 1.10779 0.0769658 0.80557C0.327256 0.250081 0.744397 -0.00106079 1.32238 3.36708e-06C3.1297 0.00638831 4.93904 0.00319571 6.74837 0.00319571Z" fill="white"/>
</svg>
