<svg width="7" height="16" viewBox="0 0 7 16" fill="none" xmlns="http://www.w3.org/2000/svg">
<path fill-rule="evenodd" clip-rule="evenodd" d="M1.49426 7.89769V15.4929C1.49528 15.5449 1.51547 15.5945 1.55048 15.6309C1.58549 15.6673 1.63254 15.6877 1.68153 15.6876H4.33843C4.38743 15.6877 4.43448 15.6673 4.46949 15.6309C4.5045 15.5945 4.52468 15.5449 4.52571 15.4929V7.77338H6.44913C6.49621 7.77356 6.54162 7.75489 6.57632 7.7211C6.61103 7.68732 6.63248 7.64089 6.6364 7.59106L6.81977 5.26651C6.82193 5.23903 6.81869 5.21137 6.81025 5.1853C6.80182 5.15922 6.78837 5.13529 6.77076 5.11503C6.75315 5.09476 6.73176 5.07862 6.70796 5.0676C6.68416 5.05659 6.65846 5.05095 6.6325 5.05104H4.52571V3.3936C4.52519 3.30149 4.54189 3.21018 4.57484 3.12497C4.60779 3.03977 4.65634 2.96235 4.71767 2.89722C4.779 2.83208 4.85189 2.78052 4.93212 2.74552C5.01235 2.71052 5.09832 2.69279 5.18505 2.69334H6.66761C6.71697 2.69228 6.76402 2.67098 6.79893 2.63391C6.83383 2.59684 6.85388 2.54686 6.85488 2.49445V0.194749C6.85386 0.142721 6.83368 0.0931916 6.79867 0.0567835C6.76366 0.0203754 6.71661 -1.12898e-05 6.66761 4.69046e-09H4.15897C3.45224 4.69046e-09 2.77447 0.29817 2.27474 0.828912C1.77501 1.35965 1.49426 2.07949 1.49426 2.83008V5.07176H0.187272C0.137605 5.07176 0.0899725 5.09271 0.0548525 5.13001C0.0197325 5.16731 0 5.2179 0 5.27065V7.59521C0.000997368 7.64763 0.0210477 7.6976 0.0559538 7.73467C0.09086 7.77174 0.137917 7.79304 0.187272 7.7941H1.51377L1.49426 7.89769Z" fill="#02141F"/>
</svg>
