<svg width="41" height="35" viewBox="0 0 41 35" fill="none" xmlns="http://www.w3.org/2000/svg">
<g clip-path="url(#clip0_1698_4846)">
<path d="M40.533 12.1536C39.9663 11.3443 38.9246 10.916 37.518 10.9128H34.8788V10.2342C34.8788 9.48308 34.8788 8.75403 34.8788 8.0297C34.8788 5.50243 33.7703 4.37343 31.2972 4.37028C30.3657 4.37028 29.4218 4.36241 28.4825 4.35769C25.9985 4.34194 23.4183 4.32619 20.8846 4.39862C19.2327 4.44586 18.2453 3.94828 17.4691 2.68071C16.5857 1.23678 15.1403 0.488833 13.3099 0.506154C12.7215 0.506154 12.1207 0.506154 11.5385 0.506154C10.8213 0.506154 10.0807 0.506154 9.34797 0.506154C7.69767 0.537646 6.46032 1.35645 6.03804 2.69488C5.61577 4.03331 4.96061 4.45374 3.43295 4.41595C3.06152 4.40183 2.69113 4.46432 2.34421 4.59966C1.9973 4.73499 1.68108 4.94034 1.4147 5.20326C1.11877 5.50833 0.886195 5.87051 0.730728 6.26836C0.575261 6.66622 0.500064 7.09167 0.509594 7.51953C0.509594 16.18 0.509594 24.0531 0.509594 31.6113C0.509594 33.8283 1.67242 34.9999 3.86455 35.0014H30.4123C32.651 35.0014 34.354 33.7874 35.0868 31.6727C37.1051 25.8308 38.9448 20.5007 40.7038 15.38C41.1493 14.0668 41.0919 12.952 40.533 12.1536ZM13.785 32.0128H3.93286C3.74759 32.0128 3.61097 32.0081 3.523 31.9986C3.55856 31.858 3.60105 31.7192 3.6503 31.5829C5.89832 25.0656 7.62469 20.063 9.25171 15.3643C9.63052 14.2621 10.1568 13.8983 11.3352 13.8983C20.0571 13.8983 28.779 13.8983 37.501 13.8983C37.6917 13.8949 37.8825 13.9028 38.0723 13.9219C38.0258 14.1191 37.9672 14.3132 37.8968 14.503L32.3653 30.4964C31.9539 31.6853 31.5006 32.0112 30.2555 32.0112H13.785V32.0128ZM15.0643 4.34981C15.159 4.48365 15.2568 4.61592 15.353 4.74819L15.6635 5.17334C16.6804 6.60467 18.0932 7.33057 19.8553 7.33057H19.8832C22.7755 7.31797 25.7175 7.32112 28.5648 7.33057H31.2118C31.3779 7.33057 31.8204 7.33057 31.8949 7.38726C31.9694 7.44395 31.957 7.93365 31.957 8.11001C31.957 8.83276 31.957 9.55709 31.957 10.3035V10.916H11.3973C8.88998 10.916 7.26606 12.0907 6.42927 14.5093C5.47138 17.2901 4.48555 20.1464 3.44537 22.9981C3.44537 17.996 3.44537 12.994 3.44537 7.99191C3.4362 7.78796 3.44922 7.5836 3.48418 7.38254C3.67239 7.33836 3.86557 7.31982 4.05861 7.32742C6.68233 7.28963 7.60451 6.64876 8.53912 4.21439C8.73784 3.69949 9.03436 3.48692 9.55911 3.48692H9.58705C10.7902 3.50267 12.0105 3.49637 13.1919 3.48692H13.3969C13.7242 3.47484 14.0492 3.54776 14.341 3.69877C14.6328 3.84978 14.8818 4.07388 15.0643 4.34981Z" fill="#072AC8"/>
</g>
<defs>
<clipPath id="clip0_1698_4846">
<rect width="40.5" height="34.5" fill="white" transform="translate(0.5 0.5)"/>
</clipPath>
</defs>
</svg>
