<svg width="28" height="28" viewBox="0 0 28 28" fill="none" xmlns="http://www.w3.org/2000/svg">
<g clip-path="url(#clip0_1280_294)">
<path d="M14.0191 28.0001C11.2499 28.0022 8.54236 27.182 6.23924 25.6435C3.93612 24.105 2.14099 21.9173 1.08111 19.3574C0.0212279 16.7974 -0.255734 13.9804 0.285276 11.2629C0.826285 8.54533 2.16094 6.04952 4.12028 4.09141C6.07962 2.1333 8.57553 0.800932 11.292 0.262987C14.0085 -0.274959 16.8235 0.00570743 19.3805 1.06945C21.9375 2.1332 24.1216 3.93219 25.6563 6.23868C27.1909 8.54516 28.0071 11.2554 28.0016 14.0263C27.9993 21.7238 21.7199 27.9989 14.0191 28.0001ZM9.91098 11.0451V16.9014H18.0911V11.0381C16.6626 11.093 15.3461 11.1828 14.0296 11.1828C12.6944 11.1875 11.3604 11.0988 9.91098 11.0451ZM7.99628 17.1907V10.8106L2.78272 9.46293C1.47904 12.2633 1.63413 16.3098 2.81304 18.5279L7.99628 17.1907ZM25.2333 18.5909C26.4367 15.5129 26.4418 12.4694 25.2485 9.4606L20.0011 10.8106V17.2374C20.836 17.4241 21.7071 17.5956 22.5665 17.8208C23.4446 18.0448 24.304 18.3202 25.2368 18.5909H25.2333ZM17.8275 9.05455C17.6724 8.34513 17.5547 7.65437 17.3704 6.98929C16.9471 5.45377 16.4539 3.94158 15.3986 2.69776C14.4482 1.57762 13.5084 1.55311 12.6081 2.72226C12.0795 3.43626 11.6375 4.21062 11.2916 5.02905C10.7382 6.31908 10.3741 7.68241 10.2107 9.07672C11.498 9.42093 16.637 9.41276 17.8275 9.05455ZM17.8124 18.8721C15.2794 18.588 12.7226 18.588 10.1897 18.8721C10.5593 21.0517 11.0794 23.1006 12.2956 24.9045C12.5305 25.237 12.8125 25.5333 13.1329 25.7843C13.7346 26.2685 14.3106 26.3047 14.8657 25.7703C15.3961 25.2652 15.8494 24.685 16.2113 24.0481C17.0859 22.4787 17.5057 20.746 17.8124 18.8756V18.8721ZM17.5034 2.37805C18.7231 4.47831 19.2723 6.63225 19.6921 8.96004L24.4101 7.75005C22.6994 5.09439 20.506 3.36167 17.5034 2.38155V2.37805ZM3.59081 7.76406L8.31811 8.9542C8.72158 6.59958 9.30346 4.46898 10.4882 2.37922C7.49486 3.37217 5.2828 5.09789 3.59081 7.76406ZM10.4987 25.6163C9.2778 23.5102 8.72975 21.3621 8.30996 19.0355L3.59315 20.2466C5.30379 22.9058 7.49719 24.6373 10.4987 25.6233V25.6163ZM17.5057 25.6245C20.52 24.614 22.7286 22.8929 24.4077 20.2326L19.6851 19.0366C19.2793 21.3866 18.7068 23.523 17.5057 25.6233V25.6245Z" fill="#072AC8"/>
</g>
<defs>
<clipPath id="clip0_1280_294">
<rect width="28" height="28" fill="white"/>
</clipPath>
</defs>
</svg>
