<svg viewBox="0 0 37 37" fill="none" xmlns="http://www.w3.org/2000/svg">
<g clip-path="url(#clip0_1698_5167)">
<path d="M3.01182 10.5069H33.9046C33.9386 10.3066 33.9622 10.1046 33.9751 9.90181C33.9751 7.83736 33.961 5.77449 33.9892 3.71005C33.997 3.15671 33.8184 2.9639 33.273 3.00309C32.7778 3.03522 32.281 3.03522 31.7858 3.00309C31.0696 2.96703 30.6747 2.51872 30.6277 1.85409C30.5823 1.22707 30.9114 0.645517 31.568 0.600059C32.8906 0.503118 34.2187 0.507308 35.5406 0.612597C36.3587 0.687839 36.4966 1.4528 36.4966 2.18013C36.4966 5.39358 36.506 8.60702 36.4966 11.8205C36.4966 19.3979 36.4929 26.9743 36.4856 34.5497C36.4856 36.1329 36.1252 36.4966 34.5565 36.4966H2.43042C0.863294 36.4966 0.496582 36.1329 0.496582 34.5529V2.4184C0.496582 0.850865 0.860151 0.496601 2.45078 0.496601C9.81627 0.496601 17.1818 0.496601 24.5472 0.496601C24.9106 0.482929 25.2739 0.526302 25.6239 0.62514C25.8923 0.701973 26.1224 0.876441 26.2688 1.11428C26.4153 1.35211 26.4675 1.63612 26.4153 1.91052C26.3416 2.50148 25.9906 2.91844 25.3496 2.98271C25.0644 3.01092 24.7761 3.00309 24.4877 3.00309C17.619 3.00309 10.7503 3.01406 3.88157 2.99055C3.21241 2.99055 2.9742 3.13006 2.99144 3.84799C3.04316 6.04097 3.01182 8.23552 3.01182 10.5069ZM17.1959 33.9885V13.0808C16.9232 13.0682 16.6928 13.0479 16.464 13.0479C12.261 13.0479 8.05639 13.0651 3.85336 13.029C3.13875 13.029 2.99458 13.2516 2.99772 13.9194C3.02175 20.3181 3.02175 26.7162 2.99772 33.1139C2.99772 33.8788 3.25786 34.0058 3.93799 34.0011C8.08774 33.9744 12.2437 33.9885 16.3904 33.9885H17.1959ZM19.791 33.929C19.9009 33.9546 20.0124 33.9724 20.1248 33.9823C24.5378 33.9823 28.9493 33.9744 33.3623 33.9995C34.019 33.9995 33.9892 33.6437 33.9892 33.2016C33.9892 26.7512 33.9751 20.3008 34.0001 13.8504C34.0001 13.178 33.7839 13.0306 33.1523 13.0337C28.9493 13.0588 24.7463 13.0463 20.5432 13.0463H19.7989L19.791 33.929Z" fill="#072AC8"/>
</g>
<defs>
<clipPath id="clip0_1698_5167">
<rect width="36" height="36" fill="white" transform="translate(0.5 0.5)"/>
</clipPath>
</defs>
</svg>
