<svg width="28" height="28" viewBox="0 0 28 28" fill="none" xmlns="http://www.w3.org/2000/svg">
<g clip-path="url(#clip0_1272_1440)">
<path d="M7.10616 18.8947C7.10616 16.2875 7.10616 13.6803 7.10616 11.0731C7.10616 10.0775 6.82068 9.7915 5.82861 9.7915C4.26157 9.7915 2.6938 9.7915 1.1253 9.7915C0.322453 9.7915 0.000875473 10.1267 0.000875473 10.9435C0.000875473 16.2502 0.000875473 21.557 0.000875473 26.8637C0.000875473 27.6615 0.319168 27.9945 1.08045 27.9967C2.72114 27.9967 4.36183 27.9967 6.00251 27.9967C6.76817 27.9967 7.10288 27.6615 7.10397 26.8793C7.10835 24.2193 7.10908 21.5577 7.10616 18.8947ZM5.27623 26.172C4.2776 26.172 3.35007 26.1475 2.42363 26.1821C1.94127 26.2 1.76735 26.0804 1.76735 25.5441C1.79032 21.1171 1.78048 16.6901 1.78157 12.2631C1.78157 12.081 1.79579 11.8988 1.80563 11.6877H5.27296L5.27623 26.172Z" fill="#072AC8"/>
<path d="M10.4524 21.0702C10.4524 22.9697 10.4524 24.8692 10.4524 26.7688C10.4524 27.7219 10.7302 27.9979 11.6556 27.9979C13.2598 27.9979 14.864 27.9979 16.4682 27.9979C17.2208 27.9979 17.5456 27.6895 17.5467 26.9241C17.5547 23.0334 17.5547 19.1431 17.5467 15.2532C17.5467 14.5236 17.2186 14.1828 16.5131 14.1772C14.8359 14.1623 13.1588 14.1623 11.4816 14.1772C10.7576 14.185 10.4589 14.5314 10.4557 15.3191C10.448 17.2365 10.4524 19.1539 10.4524 21.0702ZM12.2856 26.1397V16.0834H15.7288V26.1397H12.2856Z" fill="#072AC8"/>
<path d="M23.7203 10.9411L23.7135 10.9325C23.5631 10.7762 23.4813 10.5662 23.4855 10.3474C23.4898 10.1287 23.5798 9.91846 23.7364 9.76168L23.8318 9.66627C23.9924 9.5058 24.2088 9.41353 24.4341 9.40949C24.6593 9.40545 24.8753 9.48995 25.035 9.64468L26.0815 10.6614C26.2113 10.7888 26.3321 10.9247 26.4664 11.0541C26.9365 11.502 26.9781 12.0446 26.5254 12.5022C26.026 13.0123 25.5132 13.5093 24.9858 14.022C24.827 14.177 24.6146 14.2648 24.3944 14.2664C24.1743 14.268 23.9642 14.1833 23.8095 14.0307L23.6867 13.9103C23.5373 13.7627 23.4518 13.5624 23.4477 13.3508C23.4437 13.1393 23.5215 12.9326 23.6651 12.7734L23.6721 12.7678C16.5336 12.1961 10.2549 9.71423 4.61371 5.5115C4.51716 5.43938 4.43672 5.34823 4.37724 5.24355C4.31775 5.13887 4.28046 5.02284 4.26763 4.90245C4.25479 4.78206 4.26666 4.65982 4.30253 4.54313C4.33841 4.42643 4.39754 4.31768 4.47635 4.22347L4.49034 4.21236C4.6397 4.03373 4.85136 3.91791 5.08124 3.88902C5.31113 3.86013 5.54151 3.92039 5.72442 4.05725C11.0207 7.99481 16.9151 10.3936 23.7203 10.9411Z" fill="#072AC8"/>
<path d="M27.999 22.9204C27.999 21.5996 27.999 20.28 27.999 18.9593C27.999 18.1772 27.6709 17.8419 26.9052 17.8364C25.2667 17.8319 23.6286 17.8319 21.9908 17.8364C21.2252 17.8364 20.897 18.1772 20.897 18.9593C20.8927 21.5993 20.8927 24.2396 20.897 26.8803C20.897 27.6624 21.2252 27.9977 21.9908 27.9977C23.6286 27.9977 25.2667 27.9977 26.9052 27.9977C27.6709 27.9977 27.999 27.6624 27.999 26.8803C28.0012 25.5607 27.999 24.24 27.999 22.9204ZM22.7248 19.68C23.812 19.68 24.8642 19.6699 25.9154 19.6956C26.0182 19.6956 26.1997 19.9191 26.2008 20.0398C26.2198 21.9564 26.2198 23.8724 26.2008 25.7875C26.2008 25.9138 26.0641 26.1451 25.9821 26.1462C24.8981 26.1708 23.8142 26.1629 22.716 26.1629L22.7248 19.68Z" fill="#072AC8"/>
<path d="M3.02751 1.69848L3.06951 1.74054C3.23445 1.90164 3.32847 2.12168 3.33161 2.35396C3.33475 2.58624 3.24676 2.81247 3.08633 2.98465L3.07234 2.99577C2.9899 3.08412 2.89084 3.15551 2.78101 3.20571C2.67119 3.2559 2.55284 3.2839 2.43293 3.28804C2.31302 3.29217 2.19398 3.27237 2.08286 3.22979C1.97174 3.18722 1.87078 3.12274 1.78595 3.04016L1.74307 2.9988C1.65762 2.91626 1.59005 2.81714 1.54437 2.7073C1.49869 2.59747 1.47584 2.47916 1.47716 2.3594C1.47848 2.23964 1.50394 2.12087 1.55205 2.01012C1.60017 1.89937 1.66995 1.79891 1.75725 1.71469L1.77212 1.70287C1.94282 1.53921 2.16966 1.44715 2.40422 1.44633C2.63879 1.44551 2.86247 1.536 3.02751 1.69848Z" fill="#072AC8"/>
</g>
<defs>
<clipPath id="clip0_1272_1440">
<rect width="28" height="28" fill="white" transform="matrix(-1 0 0 1 28 0)"/>
</clipPath>
</defs>
</svg>
