<svg width="62" height="62" viewBox="0 0 62 62" fill="none" xmlns="http://www.w3.org/2000/svg">
<g clip-path="url(#clip0_1285_3350)">
<path d="M58.6789 21.97C57.8608 19.4367 58.2095 15.634 56.0831 12.6978C53.94 9.73852 50.2126 8.8974 48.1079 7.35806C46.0253 5.83494 44.0878 2.52049 40.5847 1.37736C37.1804 0.266447 33.6992 1.77394 31 1.77394C28.3012 1.77394 24.8202 0.266083 21.4153 1.37724C17.9128 2.52012 15.9737 5.83531 13.8925 7.3577C11.7901 8.89522 8.05988 9.73864 5.91712 12.6974C3.79254 15.6312 4.13777 19.4426 3.32112 21.9698C2.54394 24.3751 0 27.2619 0 31.0003C0 34.741 2.54103 37.6166 3.32112 40.0306C4.13923 42.5639 3.79048 46.3666 5.91688 49.3027C8.05988 52.2622 11.7871 53.1032 13.8921 54.6426C15.9743 56.1655 17.9122 59.4802 21.4153 60.6232C24.8173 61.7334 28.304 60.2266 31 60.2266C33.6923 60.2266 37.187 61.7318 40.5847 60.6233C44.0873 59.4804 46.0252 56.166 48.1075 54.6429C50.2099 53.1053 53.9401 52.2619 56.0829 49.3031C58.2076 46.3693 57.8621 42.5582 58.6789 40.0307C59.4561 37.6253 62 34.7386 62 31.0003C62 27.2598 59.4596 24.3851 58.6789 21.97ZM54.0699 38.5413C53.1163 41.4929 53.3661 44.7962 52.16 46.4618C50.9377 48.1495 47.7264 48.9203 45.2485 50.7329C42.7977 52.5252 41.08 55.3664 39.0822 56.0182C37.1921 56.6351 34.112 55.3826 31.0001 55.3826C27.8655 55.3826 24.8171 56.6378 22.918 56.0182C20.9204 55.3664 19.2051 52.5271 16.7516 50.7327C14.2883 48.9312 11.0588 48.1445 9.83996 46.4615C8.63774 44.8016 8.87811 41.4754 7.93031 38.5414C7.00128 35.6668 4.84375 33.1777 4.84375 31.0003C4.84375 28.8207 6.99934 26.3402 7.93007 23.4593C8.88368 20.5077 8.63386 17.2042 9.83996 15.5388C11.0616 13.8522 14.2753 13.0788 16.7516 11.2677C19.2102 9.46957 20.9171 6.63513 22.9177 5.98231C24.8062 5.36619 27.8964 6.61794 30.9999 6.61794C34.1402 6.61794 37.181 5.36195 39.082 5.98231C41.0794 6.63404 42.7961 9.47442 45.2485 11.2678C47.7114 13.0693 50.9412 13.8561 52.16 15.5389C53.3625 17.1992 53.1208 20.522 54.0697 23.459V23.4592C54.9987 26.3338 57.1562 28.8229 57.1562 31.0003C57.1562 33.1798 55.0007 35.6603 54.0699 38.5413ZM42.1579 23.2267C43.1038 24.1725 43.1038 25.7059 42.1579 26.6517L30.0357 38.7739C29.0899 39.7198 27.5563 39.7196 26.6106 38.7739L19.8422 32.0055C18.8963 31.0596 18.8962 29.5262 19.8421 28.5805C20.7879 27.6347 22.3216 27.6346 23.2671 28.5805L28.3231 33.6364L38.7327 23.2268C39.6785 22.2809 41.2121 22.2809 42.1579 23.2267Z" fill="#3A3A3A"/>
</g>
<defs>
<clipPath id="clip0_1285_3350">
<rect width="62" height="62" fill="white"/>
</clipPath>
</defs>
</svg>
