<svg width="21" height="26" viewBox="0 0 21 26" fill="none" xmlns="http://www.w3.org/2000/svg">
<g clip-path="url(#clip0_1225_1592)">
<path d="M2.57366 24.146C2.62617 23.0932 2.61413 22.1042 2.73447 21.1349C3.11627 18.0622 4.37544 15.5989 7.15742 14.2489C7.38783 14.1501 7.58447 13.9792 7.72124 13.7591C7.85801 13.5389 7.92845 13.2798 7.92321 13.0161C7.92868 12.4206 7.64752 11.9888 7.13336 11.7392C4.39294 10.4078 3.14034 7.97702 2.73994 4.95541C2.60757 3.96523 2.62507 2.95299 2.56928 1.85486C2.08684 1.85486 1.5672 1.85486 1.04756 1.85486C0.391172 1.85486 0.00937348 1.51358 -0.00266028 0.948267C-0.014694 0.35741 0.376949 0.00219727 1.06287 0.00219727C7.35106 0.00219727 13.6396 0.00219727 19.9285 0.00219727C20.6101 0.00219727 21.0072 0.359731 20.9962 0.947105C20.9864 1.51242 20.6002 1.85021 19.9482 1.85486C19.4428 1.85486 18.9363 1.85486 18.4265 1.85486C18.3718 2.92281 18.3882 3.94434 18.2547 4.95309C17.8532 7.97121 16.6039 10.4089 13.8624 11.7392C13.3493 11.9876 13.0638 12.4183 13.0704 13.0161C13.0769 13.6139 13.3734 14.0225 13.8876 14.2733C16.6028 15.6013 17.8467 18.0227 18.2525 21.0188C18.3882 22.0252 18.3707 23.0549 18.4265 24.153C18.9319 24.153 19.4537 24.153 19.9756 24.153C20.6177 24.1588 21.0028 24.5152 20.9962 25.0875C20.9897 25.6598 20.609 26.0045 19.9581 26.0045C13.6516 26.0045 7.34522 26.0045 1.03881 26.0045C0.391171 26.0045 0.00390359 25.6563 -0.00266028 25.0886C-0.00922414 24.521 0.374763 24.16 1.01693 24.153C1.52891 24.1414 2.03761 24.146 2.57366 24.146ZM16.6739 24.146C16.6192 23.0851 16.6455 22.0752 16.4989 21.0943C16.1532 18.7842 15.1861 16.9153 13.0518 15.8915C11.8998 15.3401 11.3124 14.3046 11.32 12.9755C11.3277 11.6707 11.9042 10.6202 13.0474 10.1187C16.0132 8.81745 16.9529 4.97398 16.5481 1.8862H4.3284C4.382 2.91701 4.35465 3.92692 4.50125 4.90433C4.84694 7.21552 5.81402 9.08328 7.94947 10.106C9.08173 10.6457 9.6692 11.6615 9.68014 12.9651C9.69108 14.2942 9.11783 15.3691 7.95275 15.881C4.97494 17.1904 4.05053 21.0385 4.46077 24.1426H16.6739V24.146Z" fill="#072AC8"/>
<path d="M10.5568 2.78607C11.9235 2.78607 13.2895 2.78607 14.6548 2.78607C15.4545 2.78607 15.7685 3.13432 15.7488 3.99333C15.6875 6.67017 13.5357 9.04288 10.9615 9.27389C8.32394 9.50605 5.83186 7.53962 5.36036 4.8442C5.05185 3.08556 5.28487 2.78491 6.95209 2.78491L10.5568 2.78607Z" fill="#072AC8"/>
</g>
<defs>
<clipPath id="clip0_1225_1592">
<rect width="21" height="26" fill="white"/>
</clipPath>
</defs>
</svg>
