<svg width="48" height="59" viewBox="0 0 48 59" fill="none" xmlns="http://www.w3.org/2000/svg">
<path d="M0.213742 29.3731C0.213742 24.8093 0.157159 20.2428 0.242051 15.6815C0.269281 13.8058 0.471657 11.9367 0.846579 10.0983C2.04793 4.35379 5.6494 1.15498 11.6947 0.586415C20.0162 -0.200706 28.3941 -0.196414 36.7148 0.599225C43.4032 1.2395 47.5475 5.46531 47.7455 12.3803C48.0542 23.078 47.9771 33.7834 48.0028 44.4862C47.975 45.9788 47.787 47.4641 47.442 48.9169C46.2046 54.664 42.5903 57.8807 36.5861 58.439C28.4347 59.1937 20.2308 59.2006 12.078 58.4595C4.87508 57.7962 0.908312 53.742 0.501859 46.5171C0.180298 40.8161 0.15972 35.0972 0.00537109 29.386L0.213742 29.3731ZM9.894 5.19127C7.24435 6.02363 5.73688 7.39125 5.16064 9.99588C4.67867 12.1125 4.41321 14.2723 4.36831 16.4422C4.26541 23.9487 4.28856 31.4553 4.31686 38.9645C4.31686 41.3924 4.42747 43.8305 4.60498 46.2457C4.98313 51.4447 7.32153 53.9008 12.554 54.349C20.3679 55.0179 28.2253 55.0119 36.0382 54.331C40.5863 53.9366 42.6906 51.9313 43.4701 47.4468C43.7504 45.8953 43.9019 44.3235 43.9228 42.7472C43.9666 33.9165 43.9923 25.0756 43.9074 16.2578C43.8612 14.1296 43.5923 12.0121 43.1048 9.93955C42.5543 7.48602 40.9336 5.86227 38.3997 5.18614C37.5251 6.37961 36.7019 7.57053 35.8092 8.70765C33.9545 11.069 31.472 12.2727 28.4828 12.3393C25.6145 12.4008 22.741 12.3931 19.8727 12.3393C18.4087 12.3445 16.9642 12.0046 15.6573 11.3477C14.3504 10.6907 13.2182 9.73511 12.3533 8.55911C11.5198 7.48857 10.7455 6.36425 9.894 5.19127ZM33.7487 4.42294H14.5399C15.9754 7.0327 17.9047 8.36447 20.7576 8.27739C23.1114 8.20568 25.4678 8.22361 27.8242 8.26459C30.5871 8.31581 32.3595 6.88415 33.7487 4.4255V4.42294Z" fill="#181818"/>
</svg>
