<svg width="76" height="73" viewBox="0 0 76 73" fill="none" xmlns="http://www.w3.org/2000/svg">
<g clip-path="url(#clip0_2278_1808)">
<path d="M75.9757 51.2403C75.574 50.1755 74.8632 48.7436 73.3224 48.6089C72.1053 48.5037 71.7183 47.8917 71.4359 46.871C71.4043 46.7727 71.3619 46.6782 71.3093 46.5895C71.2866 46.5516 71.2678 46.5114 71.2533 46.4695C71.2395 46.312 71.251 46.1533 71.2874 45.9995C72.8307 44.1882 72.765 42.1344 71.1122 40.5042C70.9556 40.3565 70.834 40.1754 70.7565 39.9741C70.679 39.7729 70.6475 39.5566 70.6643 39.3415C70.6789 29.9638 70.6959 19.3329 70.6643 8.96148C70.6612 7.69699 70.465 6.44047 70.0825 5.23589C69.0699 2.10757 66.385 0.00488281 63.4031 0.00488281C41.8947 0.00488281 24.0521 0.00488281 7.249 0.00488281C6.65366 0.010891 6.06208 0.100701 5.49151 0.271696C2.25892 1.2288 0 4.50154 0 8.23692C0 20.8824 1.78277e-06 35.6036 0.017041 50.2906C0.0298755 51.2611 0.188255 52.2242 0.486836 53.1472C1.43373 56.1776 4.07969 58.4321 6.77677 58.5055C9.06733 58.5691 11.4017 58.5545 13.6485 58.5398H14.6659H41.3397L41.5125 58.9828C41.6988 59.4831 41.9109 59.9734 42.1478 60.4515C42.2939 60.7306 42.2817 60.8016 42.0626 61.0317C40.7068 62.4685 40.6216 64.488 41.8582 65.9469C42.616 66.8494 43.4544 67.6803 44.3629 68.429C44.9275 68.8338 45.5833 69.0912 46.2714 69.178C47.4105 69.3616 48.4475 68.9675 49.4358 67.9712L49.8399 68.145C50.3267 68.358 50.8135 68.5612 51.3004 68.7301C51.5633 68.8206 51.6338 68.8818 51.6509 69.2368C51.7677 71.4104 53.3207 72.8742 55.5164 72.8791H56.9939H58.0942C59.893 72.862 61.373 71.6773 61.541 70.1278C61.6675 68.9308 62.2493 68.5514 63.2108 68.2993C63.369 68.2568 63.5195 68.189 63.6563 68.0985C63.868 67.9541 63.9751 67.9272 64.277 68.2087C65.7837 69.6211 67.8917 69.5966 69.4034 68.1499C69.8342 67.7387 70.2553 67.3103 70.6618 66.8942L71.0756 66.4732C72.7796 64.7597 72.8526 62.8284 71.2899 60.9264C71.239 60.7775 71.2306 60.6172 71.2655 60.4638C71.2932 60.3606 71.335 60.2617 71.3897 60.17C71.4632 60.0414 71.5228 59.9051 71.5674 59.7637C71.857 58.7331 72.1151 58.3244 72.9694 58.4663C73.0522 58.4803 73.1371 58.4683 73.2129 58.4321C74.7926 58.0478 75.518 56.8312 75.9757 55.8129L76.0073 55.7395V51.3015L75.9757 51.2403ZM67.6994 62.6325C68.1449 63.0903 68.4979 63.4501 68.4954 63.6117C68.493 63.7732 68.1352 64.1331 67.6775 64.5908C67.2832 64.9898 66.9473 65.3251 66.8061 65.3251C66.6674 65.3251 66.3193 64.9727 65.8981 64.5639C64.849 63.526 64.2551 63.5578 63.0112 64.1796C61.956 64.701 60.8661 65.1484 59.7494 65.5185C58.5907 65.9126 58.0455 66.3557 58.0236 67.8195V68.3507C58.0384 68.6104 58.0294 68.871 57.9968 69.1291C57.742 69.1729 57.4828 69.1844 57.2252 69.1633H56.6848H56.1979C55.9381 69.1783 55.6774 69.1701 55.419 69.1389C55.4036 68.9531 55.4036 68.7665 55.419 68.5808C55.419 68.3972 55.419 68.1744 55.419 67.9125C55.402 66.5148 55.0003 65.9763 53.6274 65.5063C52.4708 65.0967 51.3386 64.6202 50.2366 64.0792C49.1291 63.548 48.4767 63.641 47.6491 64.4488C47.503 64.5908 47.3594 64.7352 47.2158 64.8821C47.0722 65.029 46.9164 65.1856 46.7655 65.3325C46.7244 65.3707 46.6813 65.4066 46.6365 65.4402C46.5825 65.4079 46.532 65.3701 46.4855 65.3276C46.2421 65.095 46.0133 64.8576 45.7772 64.6202C45.4924 64.3338 45.2101 64.0474 44.9179 63.7659C44.8084 63.6606 44.8035 63.6092 44.8035 63.6092C44.8035 63.6092 44.8035 63.5529 44.9423 63.4305C45.3196 63.078 45.6482 62.7451 45.9476 62.4147C46.5367 61.7636 46.6316 61.0096 46.23 60.1088C45.6214 58.7356 45.1029 57.4799 44.6453 56.2682C44.2729 55.2891 43.6887 54.846 42.698 54.8117H42.5422C41.8923 54.8117 41.3786 54.7946 41.2667 54.6771C41.1547 54.5596 41.1498 54.0529 41.1498 53.3577C41.1498 52.8388 41.1498 52.3468 41.235 52.2611C41.3202 52.1754 41.7949 52.1705 42.3377 52.1681C43.8542 52.1681 44.2851 51.6051 44.7135 50.3591C45.0978 49.2393 45.5548 48.146 46.0815 47.0864C46.6657 45.8625 46.5683 45.2187 45.6774 44.3008C45.2368 43.8479 44.8912 43.4905 44.8887 43.3388C44.8863 43.187 45.2539 42.8247 45.6774 42.4061C45.8429 42.2421 45.9817 42.0977 46.1034 41.9729C46.2538 41.8072 46.4165 41.6534 46.5902 41.5127C46.7503 41.6445 46.9008 41.7876 47.0405 41.9411C47.1623 42.0659 47.3059 42.2152 47.4787 42.3841C48.4402 43.329 49.0901 43.4146 50.3778 42.766C51.429 42.2333 52.5157 41.7745 53.6299 41.3927C54.8178 40.984 55.3168 40.585 55.3338 39.1775C55.3338 38.5435 55.3557 38.0417 55.4628 37.9315C55.5699 37.8214 56.0567 37.8238 56.6799 37.8238C57.2568 37.8238 57.7558 37.8238 57.8532 37.9217C57.9505 38.0196 57.953 38.5067 57.9578 39.0722C57.9578 40.5164 58.5737 40.9962 59.6886 41.3756C60.865 41.7839 62.016 42.2629 63.1354 42.81C64.109 43.2751 64.8393 43.3657 65.7935 42.4526C66.2803 41.9631 66.6479 41.6277 66.8158 41.6277C66.9814 41.6277 67.3246 41.9729 67.7895 42.4526C68.179 42.8443 68.5198 43.187 68.5198 43.3069C68.5198 43.4269 68.179 43.7745 67.8163 44.1392C66.699 45.2701 66.7209 45.8258 67.3757 47.1574C67.9057 48.2712 68.3698 49.4155 68.7656 50.5843C69.1697 51.7152 69.7393 52.1436 70.8614 52.1632C71.5527 52.1632 72.0542 52.1852 72.1735 52.31C72.2927 52.4349 72.2927 52.9465 72.2927 53.6539C72.2927 53.7983 72.2927 53.9281 72.2927 54.048C72.3065 54.2865 72.2983 54.5258 72.2684 54.7628C71.9859 54.8145 71.698 54.8301 71.4116 54.8093H71.1438C69.5007 54.8093 69.1332 55.2181 68.6463 56.7161C68.2855 57.7901 67.8462 58.8357 67.3319 59.8445C66.7793 60.9827 66.6966 61.6191 67.6921 62.6374L67.6994 62.6325ZM37.3598 52.5744V54.8044H32.2334H12.0735C10.5035 54.8044 9.08194 54.8044 7.73583 54.8044C6.31184 54.8191 5.25052 54.1973 4.48132 52.9245C3.9458 52.0383 3.69752 50.998 3.69752 49.6493V23.5016H66.8499V37.6182C66.7087 37.6476 66.5627 37.6745 66.4215 37.699C65.8787 37.7944 65.3164 37.8948 64.961 38.262C64.1455 39.0893 63.4615 38.8274 62.5146 38.333C62.3749 38.2563 62.226 38.1979 62.0716 38.1592C61.7917 38.098 61.6968 38.0466 61.6773 37.6696C61.5702 35.6869 60.2557 34.2794 58.323 34.0835C57.203 33.9839 56.0765 33.9839 54.9565 34.0835C54.3105 34.1153 53.6869 34.3313 53.1585 34.7062C52.63 35.0812 52.2186 35.5996 51.9722 36.2009C51.799 36.6505 51.6781 37.1187 51.6119 37.5962C51.5827 37.7504 51.5559 37.907 51.5243 38.0637L51.1494 38.2204C50.6626 38.426 50.1441 38.6389 49.6378 38.8935C49.4212 39.0012 49.3725 39.0037 49.1631 38.8078C47.5858 37.3391 45.4802 37.3391 43.9272 38.847C43.27 39.4785 42.6201 40.1468 42.048 40.7367C41.6873 41.1048 41.4071 41.5448 41.2256 42.0284C41.044 42.5119 40.9652 43.0283 40.994 43.5444C41.0257 44.7022 41.6172 45.5296 42.2403 46.188C42.1844 46.3276 42.1308 46.4671 42.0772 46.6042C41.863 47.1549 41.661 47.6739 41.4273 48.1781C41.3603 48.2692 41.264 48.3341 41.1547 48.3617C38.6767 48.6138 37.3647 50.0678 37.3598 52.5744ZM66.9059 16.2878C66.8962 17.3975 66.8897 18.5096 66.8864 19.6242H3.71213C3.71213 19.5165 3.71213 19.4137 3.71213 19.3109C3.71213 15.7877 3.71213 12.2652 3.71213 8.74362C3.71213 7.41935 3.99935 6.33496 4.58843 5.43416C4.91727 4.88679 5.38561 4.43773 5.94496 4.13347C6.50432 3.8292 7.13436 3.68077 7.7699 3.70355H7.79425C10.6568 3.71824 13.5681 3.70355 16.382 3.70355H62.4611C65.0827 3.70355 66.7647 5.23099 66.8426 7.69106C66.94 10.5526 66.9254 13.4679 66.9059 16.2878Z" fill="black"/>
<path d="M33.4383 33.9537L32.618 33.0383C31.749 32.0591 30.6414 31.9025 29.7968 32.6368C29.6115 32.786 29.4582 32.9713 29.346 33.1816C29.2339 33.392 29.1653 33.623 29.1444 33.8607C29.1409 34.1631 29.1972 34.4631 29.31 34.7434C29.4228 35.0237 29.5899 35.2787 29.8016 35.4934C30.5757 36.3795 31.3546 37.2608 32.1409 38.1493L32.9928 39.1113L31.9559 40.2912C31.2256 41.1218 30.4954 41.9532 29.7651 42.7855C28.9351 43.7377 28.9351 44.8368 29.7651 45.5834C30.0919 45.8921 30.5217 46.0667 30.97 46.0729C31.2722 46.0605 31.5684 45.9838 31.839 45.8479C32.1096 45.7121 32.3485 45.5201 32.5401 45.2847C33.6111 44.0902 35.0156 42.5138 36.3934 40.9252C37.462 39.7012 37.4523 38.541 36.3666 37.295C35.4051 36.169 34.4071 35.043 33.4383 33.9537Z" fill="black"/>
<path d="M14.1183 37.3466L14.6197 36.7836C15.036 36.3185 15.4668 35.8363 15.8758 35.3492C16.606 34.4778 16.5695 33.3738 15.7784 32.6566C15.5921 32.4878 15.3739 32.3587 15.1368 32.2768C14.8998 32.1949 14.6487 32.162 14.3987 32.1801C14.1486 32.1982 13.9048 32.2668 13.6818 32.3819C13.4588 32.497 13.2612 32.6562 13.1008 32.8499C11.4869 34.6418 10.1798 36.1178 8.99919 37.5008C8.14723 38.4922 8.13019 39.7039 8.95538 40.683C10.0897 42.0146 11.594 43.755 13.1835 45.4269C13.5813 45.7964 14.1025 46.0026 14.6441 46.0046C14.7173 46.0047 14.7905 45.9998 14.8631 45.9899C15.175 45.9563 15.4716 45.8369 15.7203 45.6447C15.9689 45.4525 16.16 45.195 16.2725 44.9006C16.3896 44.5476 16.4098 44.1693 16.3309 43.8057C16.2521 43.4421 16.0772 43.1066 15.8246 42.8346C15.0335 41.9167 14.2473 41.033 13.4148 40.0955L12.5507 39.1164L12.9012 38.7223C13.3077 38.2572 13.7093 37.8019 14.1183 37.3466Z" fill="black"/>
<path d="M24.6582 31.0947C24.4195 31.0358 24.1714 31.0271 23.9292 31.0692C23.6871 31.1113 23.4563 31.2034 23.2512 31.3395C22.8238 31.6316 22.5227 32.0761 22.409 32.583C21.4353 36.6023 20.4616 40.7416 19.488 44.8907C19.4222 45.1614 19.4192 45.4436 19.4791 45.7157C19.539 45.9877 19.6603 46.2423 19.8336 46.4597C20.0121 46.6792 20.2373 46.8556 20.4926 46.9759C20.7479 47.0963 21.0268 47.1574 21.3087 47.1549H21.3452C22.2629 47.1402 22.925 46.5625 23.1611 45.5736C24.2638 40.9399 25.1693 37.0943 26.0116 33.4765C26.2891 32.3358 25.7243 31.3566 24.6582 31.0947Z" fill="black"/>
<path d="M57.5222 6.37406C53.0798 6.35448 48.7031 6.35448 44.5139 6.37406C43.0936 6.37406 41.7315 6.94143 40.7272 7.95136C39.7229 8.96128 39.1587 10.331 39.1587 11.7593C39.1587 13.1875 39.7229 14.5573 40.7272 15.5672C41.7315 16.5771 43.0936 17.1445 44.5139 17.1445C45.3577 17.1445 46.2024 17.1445 47.0479 17.1445H53.0311C54.5281 17.1445 56.0251 17.1445 57.5222 17.1445C60.6136 17.1298 62.9479 14.8215 62.9504 11.7715C62.9521 11.0571 62.8124 10.3494 62.5394 9.68981C62.2664 9.03019 61.8657 8.43179 61.3605 7.92945C60.8553 7.42711 60.2557 7.03089 59.5968 6.76385C58.9378 6.49682 58.2326 6.36432 57.5222 6.37406ZM47.7538 10.1511H50.7235H51.0886H53.0019C54.5378 10.1511 56.1274 10.1511 57.6877 10.1511C58.4788 10.1511 59.0508 10.6651 59.2139 11.5023C59.2688 11.8463 59.2084 12.1988 59.0423 12.5046C58.8762 12.8103 58.6137 13.0518 58.2962 13.1913C57.9756 13.3151 57.6344 13.3766 57.2909 13.3724C53.182 13.3871 48.9611 13.3895 44.7451 13.3724C43.7715 13.3724 43.1288 12.9685 42.9171 12.2415C42.8094 11.9112 42.8154 11.5541 42.9342 11.2277C43.053 10.9013 43.2776 10.6247 43.5719 10.4423C43.9263 10.2614 44.3185 10.1683 44.7159 10.1706C45.7188 10.1535 46.7363 10.1511 47.7538 10.1511Z" fill="black"/>
<path d="M27.0195 6.36914C25.6021 6.38371 24.2466 6.95523 23.2427 7.96153C22.2388 8.96784 21.6662 10.3291 21.6472 11.7544C21.6659 13.1705 22.2311 14.5238 23.2235 15.5287C24.2159 16.5335 25.5579 17.1111 26.9659 17.1396H26.9951C27.6989 17.1434 28.3965 17.0076 29.0481 16.74C29.6997 16.4725 30.2924 16.0784 30.7924 15.5803C31.2886 15.0851 31.6822 14.4959 31.9505 13.8468C32.2187 13.1976 32.3563 12.5014 32.3552 11.7984C32.3629 10.3671 31.8053 8.99126 30.8048 7.97321C29.8043 6.95515 28.4428 6.3782 27.0195 6.36914ZM28.1514 12.9048C27.9969 13.059 27.8132 13.1804 27.6113 13.262C27.4094 13.3435 27.1932 13.3836 26.9756 13.3797C26.7662 13.3798 26.5589 13.3378 26.3659 13.2562C26.1729 13.1746 25.998 13.055 25.8515 12.9045C25.705 12.754 25.5899 12.5756 25.5129 12.3798C25.4359 12.184 25.3986 11.9747 25.4032 11.7642C25.3958 11.5537 25.4313 11.3439 25.5073 11.1477C25.5833 10.9515 25.6982 10.7729 25.8452 10.6228C25.9921 10.4728 26.1679 10.3544 26.3619 10.275C26.5558 10.1955 26.7638 10.1567 26.9732 10.1608C27.1957 10.1573 27.4166 10.1988 27.6227 10.2829C27.8289 10.367 28.0161 10.492 28.1733 10.6504C28.3211 10.7967 28.4383 10.9713 28.5182 11.1638C28.598 11.3563 28.6388 11.5629 28.6382 11.7715C28.6372 11.983 28.5942 12.1921 28.5119 12.3867C28.4296 12.5813 28.3095 12.7575 28.1587 12.9048H28.1514Z" fill="black"/>
<path d="M14.1449 6.36914H14.1181C12.6979 6.36914 11.3357 6.93651 10.3314 7.94644C9.32715 8.95636 8.76294 10.3261 8.76294 11.7544C8.76294 13.1826 9.32715 14.5524 10.3314 15.5623C11.3357 16.5722 12.6979 17.1396 14.1181 17.1396C14.8285 17.1385 15.5314 16.9945 16.1856 16.7162C16.8398 16.438 17.4321 16.0309 17.9276 15.5191C18.4263 15.0229 18.8213 14.4314 19.0893 13.7794C19.3572 13.1274 19.4928 12.428 19.4879 11.7225C19.4671 10.3059 18.8969 8.95343 17.8988 7.95343C16.9007 6.95342 15.5537 6.38494 14.1449 6.36914ZM14.1181 13.3846C13.9021 13.3838 13.6883 13.3401 13.4891 13.2561C13.2899 13.1721 13.1091 13.0494 12.957 12.895C12.8065 12.7441 12.6877 12.5643 12.6079 12.3662C12.528 12.1681 12.4886 11.9558 12.4921 11.7421C12.5004 11.316 12.6761 10.9105 12.9808 10.6142C13.2855 10.3179 13.6943 10.1549 14.1181 10.1608C14.3345 10.1578 14.5493 10.1983 14.7499 10.2798C14.9506 10.3614 15.133 10.4823 15.2865 10.6357C15.4342 10.7889 15.5498 10.9703 15.6267 11.1691C15.7036 11.368 15.7403 11.5803 15.7344 11.7935C15.7255 12.2186 15.5513 12.6233 15.2491 12.9207C14.947 13.2182 14.541 13.3847 14.1181 13.3846Z" fill="black"/>
<path d="M56.6968 43.9849C54.1973 43.9913 51.8015 44.9908 50.0315 46.7657C48.2616 48.5405 47.2608 50.9469 47.2473 53.4604C47.2442 54.7041 47.4872 55.9359 47.9624 57.084C48.4376 58.2322 49.1354 59.2737 50.015 60.1479C50.8914 61.0396 51.9349 61.7477 53.0852 62.2313C54.2354 62.7149 55.4696 62.9644 56.7163 62.9653H56.7334C59.2363 62.9598 61.6345 61.9547 63.4005 60.171C65.1665 58.3873 66.1555 55.9713 66.15 53.4543C66.1445 50.9373 65.1449 48.5257 63.3712 46.7498C61.5975 44.9739 59.1949 43.9794 56.692 43.9849H56.6968ZM56.7212 59.1932H56.692C55.1964 59.1998 53.7587 58.6118 52.6923 57.5573C51.6259 56.5027 51.017 55.0671 50.9984 53.5632C50.979 50.3688 53.4886 47.7521 56.597 47.7301H56.6384C58.1569 47.7175 59.6182 48.3118 60.7011 49.3823C61.5029 50.1784 62.0515 51.196 62.2774 52.3061C62.5034 53.4162 62.3964 54.5687 61.9701 55.6176C61.5437 56.6664 60.8173 57.5643 59.8828 58.1974C58.9483 58.8305 57.8479 59.1703 56.7212 59.1737V59.1932Z" fill="black"/>
</g>
<defs>
<clipPath id="clip0_2278_1808">
<rect width="76" height="72.8767" fill="white"/>
</clipPath>
</defs>
</svg>
