<svg width="67" height="56" viewBox="0 0 67 56" fill="none" xmlns="http://www.w3.org/2000/svg">
<g clip-path="url(#clip0_2096_843)">
<path d="M0.44879 24.1303L2.16545 22.4365C2.32365 22.2821 2.5371 22.1956 2.75959 22.1956C2.98208 22.1956 3.19569 22.2821 3.35389 22.4365C5.30143 24.2906 7.13557 26.2571 8.84688 28.3257C10.0707 30.0227 10.6653 32.0836 10.5307 34.1621C10.396 36.2406 9.54035 38.21 8.10751 39.7394C7.18319 40.8078 6.20603 41.7981 5.28171 42.8404C4.30501 43.8961 3.78811 45.2883 3.84246 46.7167C3.8968 48.1451 4.51801 49.4952 5.57217 50.4756C6.6184 51.4601 8.00869 52.0093 9.4544 52.0093C10.9001 52.0093 12.2902 51.4601 13.3365 50.4756C14.3034 49.6668 14.9949 48.5842 15.3172 47.3746C17.9581 38.3844 20.5991 29.3941 23.0287 20.4039C23.3465 19.3044 24.0851 18.3699 25.0886 17.7981C29.7366 15.1922 34.3582 12.3779 38.9798 9.64171C39.8243 9.12436 40.6121 8.52177 41.3303 7.84366C43.9712 5.2378 46.6121 2.63194 49.0681 0.234543C49.1442 0.158906 49.2347 0.0988839 49.3344 0.0579186C49.4341 0.0169532 49.541 -0.00415039 49.649 -0.00415039C49.7571 -0.00415039 49.864 0.0169532 49.9637 0.0579186C50.0634 0.0988839 50.154 0.158906 50.2301 0.234543L66.7358 16.5212C66.8923 16.6773 66.98 16.888 66.98 17.1075C66.98 17.327 66.8923 17.5377 66.7358 17.6938C64.6759 19.7264 62.5631 21.8371 60.3976 23.9218C58.8058 25.435 57.4765 27.1956 56.4626 29.1336C54.1915 33.329 51.8146 37.4463 49.517 41.6156C49.2329 42.1056 48.8533 42.5352 48.4 42.8796C47.9467 43.224 47.4288 43.4764 46.8761 43.6222C37.7385 46.228 28.6274 48.8339 19.4898 51.4398C18.2229 51.7603 17.0652 52.4079 16.1358 53.316C14.9294 54.6071 13.3653 55.5202 11.6375 55.9418C9.90978 56.3633 8.09452 56.2749 6.41728 55.6873C5.10544 55.3166 3.89726 54.654 2.88548 53.7505C1.8737 52.847 1.08536 51.7267 0.580965 50.4756C-0.102533 48.6639 -0.261976 46.7004 0.120449 44.8044C0.502874 42.9085 1.41196 41.1548 2.74637 39.7394L4.19901 38.1759C5.3691 36.9167 6.00264 35.2611 5.96821 33.5531C5.93379 31.845 5.23403 30.2156 4.01412 29.0033C2.82571 27.8046 1.58442 26.658 0.316777 25.4593C0.224558 25.3694 0.153876 25.2603 0.109811 25.1399C0.0657451 25.0196 0.0494479 24.8911 0.0620989 24.7638C0.07475 24.6364 0.116081 24.5135 0.18299 24.4039C0.2499 24.2943 0.340626 24.2009 0.44879 24.1303ZM20.6254 42.8925L20.9687 43.0749C23.7681 40.2867 26.5147 37.3942 29.4461 34.7101C30.3502 34.0782 31.0552 33.2075 31.4803 32.1981C31.9054 31.1886 32.0333 30.0813 31.8493 29.0033C31.8279 28.7866 31.8279 28.5685 31.8493 28.3518H37.7122C37.9363 28.3518 38.1513 28.4397 38.3097 28.5961C38.4682 28.7524 38.5572 28.9645 38.5572 29.1857V34.9446C37.8969 34.9446 37.2897 34.9446 36.7351 34.9446C36.0443 34.9144 35.3552 35.0341 34.7164 35.2952C34.0775 35.5564 33.5045 35.9526 33.0377 36.456C30.1591 39.4007 27.2013 42.2411 24.2699 45.1336L23.2663 46.202C30.6873 44.0652 37.7913 42.0326 44.869 39.9479C45.4716 39.7282 45.989 39.3271 46.3479 38.8013C48.7511 34.5538 51.128 30.2801 53.4784 26.1108C53.5644 25.9511 53.5955 25.7681 53.5669 25.5895C53.5383 25.4109 53.4516 25.2463 53.32 25.1205L41.4358 13.3942C41.3033 13.2624 41.1301 13.1781 40.9436 13.1545C40.757 13.1309 40.5677 13.1694 40.4058 13.2639C36.1012 15.8697 31.6908 18.4756 27.2013 21.0814C26.7968 21.3939 26.5164 21.8366 26.409 22.3323C25.1942 26.3714 24.0586 30.4104 22.8966 34.4495L20.6254 42.8925ZM57.1229 21.4463L61.0842 17.5635C61.2346 17.4044 61.3183 17.1948 61.3183 16.9772C61.3183 16.7596 61.2346 16.5501 61.0842 16.3909L50.5206 5.96743C50.3593 5.81906 50.147 5.73657 49.9264 5.73657C49.7059 5.73657 49.4935 5.81906 49.3321 5.96743L45.3708 9.90229C45.2204 10.0615 45.1369 10.271 45.1369 10.4886C45.1369 10.7062 45.2204 10.9157 45.3708 11.0749L55.9344 21.4984C56.0145 21.5748 56.1095 21.6343 56.2136 21.6732C56.3177 21.7121 56.4288 21.7297 56.54 21.7248C56.6513 21.7199 56.7604 21.6927 56.8606 21.6448C56.9608 21.5969 57.05 21.5294 57.1229 21.4463Z" fill="#181818"/>
</g>
<defs>
<clipPath id="clip0_2096_843">
<rect width="67" height="56" fill="white"/>
</clipPath>
</defs>
</svg>
