<svg width="21" height="20" viewBox="0 0 21 20" fill="none" xmlns="http://www.w3.org/2000/svg">
<path d="M9.60362 3.48265C9.97045 2.73948 11.0302 2.73948 11.397 3.48265L12.8429 6.41177C12.9884 6.70662 13.2696 6.91108 13.595 6.95863L16.8299 7.43147C17.6498 7.55131 17.9766 8.55915 17.383 9.13731L15.0438 11.4157C14.8079 11.6454 14.7002 11.9766 14.7559 12.3011L15.3078 15.5186C15.4479 16.3356 14.5903 16.9586 13.8567 16.5728L10.9658 15.0525C10.6744 14.8992 10.3263 14.8992 10.0349 15.0525L7.14396 16.5728C6.41033 16.9586 5.55278 16.3356 5.6929 15.5186L6.24475 12.3011C6.30041 11.9766 6.19274 11.6454 5.95687 11.4157L3.61767 9.13731C3.02408 8.55915 3.35086 7.55131 4.17078 7.43147L7.40569 6.95863C7.73105 6.91108 8.01223 6.70662 8.15777 6.41177L9.60362 3.48265Z" fill="#072AC8"/>
</svg>
