<svg width="62" height="62" viewBox="0 0 62 62" fill="none" xmlns="http://www.w3.org/2000/svg">
<g clip-path="url(#clip0_1434_816)">
<path d="M30.948 62.1292C26.8662 62.1292 22.8245 61.3231 19.055 59.7571C15.2854 58.1912 11.8623 55.8962 8.98196 53.0039C6.10165 50.1115 3.821 46.6789 2.27072 42.9029C0.720441 39.1268 -0.0689848 35.0818 -0.051977 31C-0.051977 22.7783 3.21422 14.8933 9.02785 9.07971C14.8415 3.26608 22.7263 0 30.948 0C39.1697 0 47.0549 3.26608 52.8685 9.07971C58.6821 14.8933 61.948 22.7783 61.948 31C61.965 35.0818 61.1758 39.1268 59.6255 42.9029C58.0752 46.6789 55.7946 50.1115 52.9142 53.0039C50.0339 55.8962 46.6106 58.1912 42.8411 59.7571C39.0715 61.3231 35.0299 62.1292 30.948 62.1292ZM40.0673 24.5933H21.9839V37.51H40.0673V24.5933ZM6.04481 20.9508C3.43493 27.405 3.43493 34.6208 6.04481 41.075L17.6698 38.0783V23.9475L6.04481 20.9508ZM44.2523 23.9733V38.0525L55.8773 41.075C58.498 34.6229 58.498 27.4029 55.8773 20.9508L44.2523 23.9733ZM22.5265 41.7983C23.079 46.2629 24.5102 50.5739 26.7373 54.4825C27.403 55.452 28.2032 56.3218 29.114 57.0658C29.3541 57.308 29.6399 57.5002 29.9547 57.6313C30.2695 57.7625 30.607 57.83 30.948 57.83C31.2891 57.83 31.6267 57.7625 31.9415 57.6313C32.2563 57.5002 32.5422 57.308 32.7824 57.0658C33.3402 56.6669 33.8362 56.1882 34.2548 55.645C37.0747 51.4691 38.847 46.6752 39.4214 41.6692C33.8187 41.1069 28.1715 41.1502 22.578 41.7983H22.5265ZM39.4214 20.2275C39.1631 18.8842 38.9822 17.6442 38.698 16.6108C37.987 12.7481 36.3863 9.10409 34.0224 5.96751C31.9557 3.53918 29.9405 3.38418 27.8997 5.96751C24.9118 10.1795 23.0612 15.0911 22.5265 20.2275C28.1589 20.8384 33.8408 20.8384 39.4731 20.2275H39.4214ZM23.2497 5.29584C16.8778 7.26946 11.4477 11.5052 7.98231 17.205L18.3156 19.7883C19.0827 14.7018 20.7537 9.79366 23.2497 5.29584ZM43.6064 19.8658L54.069 17.2825C50.5677 11.6098 45.1375 7.3905 38.7756 5.39918C41.2374 9.894 42.8735 14.7937 43.6064 19.8658ZM38.7756 56.73C45.1475 54.7564 50.5778 50.5206 54.0432 44.8208L43.7099 42.2375C42.9505 47.3259 41.2789 52.2354 38.7756 56.73ZM22.9656 56.4975C20.6857 51.9931 19.1419 47.1527 18.3931 42.16L8.05973 44.7433C11.3993 50.3739 16.7116 54.5629 22.9656 56.4975Z" fill="#3A3A3A"/>
</g>
<defs>
<clipPath id="clip0_1434_816">
<rect width="62" height="62" fill="white"/>
</clipPath>
</defs>
</svg>
