<svg width="67" height="67" viewBox="0 0 67 67" fill="none" xmlns="http://www.w3.org/2000/svg">
<path d="M47.4585 5.58325H19.5418C11.8368 5.58325 5.5835 11.8087 5.5835 19.4858V36.1799V38.9716C5.5835 46.6487 11.8368 52.8741 19.5418 52.8741H23.7293C24.4831 52.8741 25.4881 53.3766 25.9627 53.9908L30.1502 59.5462C31.9927 62.0028 35.0077 62.0028 36.8502 59.5462L41.0377 53.9908C41.5681 53.2928 42.4056 52.8741 43.271 52.8741H47.4585C55.1635 52.8741 61.4168 46.6487 61.4168 38.9716V19.4858C61.4168 11.8087 55.1635 5.58325 47.4585 5.58325ZM22.3335 33.4999C20.7702 33.4999 19.5418 32.2437 19.5418 30.7083C19.5418 29.1728 20.7981 27.9166 22.3335 27.9166C23.8689 27.9166 25.1252 29.1728 25.1252 30.7083C25.1252 32.2437 23.8968 33.4999 22.3335 33.4999ZM33.5002 33.4999C31.9368 33.4999 30.7085 32.2437 30.7085 30.7083C30.7085 29.1728 31.9647 27.9166 33.5002 27.9166C35.0356 27.9166 36.2918 29.1728 36.2918 30.7083C36.2918 32.2437 35.0635 33.4999 33.5002 33.4999ZM44.6668 33.4999C43.1035 33.4999 41.8752 32.2437 41.8752 30.7083C41.8752 29.1728 43.1314 27.9166 44.6668 27.9166C46.2022 27.9166 47.4585 29.1728 47.4585 30.7083C47.4585 32.2437 46.2302 33.4999 44.6668 33.4999Z" fill="white"/>
</svg>
