<svg width="23" height="32" viewBox="0 0 23 32" fill="none" xmlns="http://www.w3.org/2000/svg">
<path d="M11.0875 0.468146C12.8494 0.453814 14.5901 0.852971 16.1696 1.63357C17.7492 2.41418 19.1236 3.55447 20.1825 4.96275C21.2413 6.37104 21.955 8.00806 22.2662 9.74229C22.5775 11.4765 22.4775 13.2596 21.9745 14.9481C20.9384 18.2508 19.3731 21.3634 17.3394 24.1643C15.7405 26.4639 13.962 28.6557 12.2373 30.8654C11.5367 31.7637 10.9438 31.7457 10.2252 30.8654C6.82305 27.0407 3.95265 22.7743 1.69165 18.1819C0.8371 16.4357 0.278593 14.5598 0.0388812 12.6306C-0.160426 10.2377 0.410127 7.84378 1.66731 5.79802C2.9245 3.75227 4.8025 2.16179 7.02734 1.25862C8.32333 0.757098 9.69803 0.489457 11.0875 0.468146ZM11.1953 17.3376C12.3118 17.3411 13.4042 17.0133 14.3342 16.3956C15.2643 15.7779 15.9901 14.8981 16.4198 13.8676C16.8495 12.8372 16.9638 11.7024 16.7481 10.6069C16.5325 9.5115 15.9967 8.50468 15.2085 7.71396C14.4203 6.92324 13.4152 6.3842 12.3204 6.16508C11.2257 5.94596 10.0905 6.05664 9.05869 6.48307C8.02686 6.90949 7.1448 7.63252 6.52415 8.56057C5.9035 9.48863 5.57216 10.58 5.57216 11.6964C5.58628 13.177 6.18195 14.5926 7.23058 15.6379C8.27921 16.6832 9.69672 17.2742 11.1773 17.2836L11.1953 17.3376Z" fill="#02141F"/>
</svg>
