<svg width="67" height="67" viewBox="0 0 67 67" fill="none" xmlns="http://www.w3.org/2000/svg">
<g clip-path="url(#clip0_2274_1723)">
<path d="M25.9943 30.4952C27.9836 30.4897 29.9523 30.0898 31.7878 29.3183C33.6232 28.5467 35.2894 27.4188 36.6909 25.999C38.0924 24.5792 39.2018 22.8954 39.9555 21.044C40.7092 19.1925 41.0925 17.2098 41.0835 15.2092C41.0515 6.69749 34.1923 -0.0643844 25.6547 -3.276e-05C17.3779 0.0618439 10.6615 6.94252 10.7107 15.3058C10.7039 17.3177 11.096 19.3107 11.8639 21.1685C12.6318 23.0263 13.7602 24.7115 15.1832 26.1257C16.6061 27.5399 18.2951 28.6547 20.1514 29.4049C22.0076 30.1552 23.994 30.5258 25.9943 30.4952ZM25.8762 3.71751C28.9208 3.71357 31.8424 4.92542 33.9989 7.08676C36.1554 9.24809 37.3705 12.1821 37.377 15.2439C37.3819 16.7597 37.0882 18.2615 36.5129 19.6626C35.9376 21.0637 35.0921 22.3363 34.0251 23.407C32.9581 24.4777 31.6909 25.3253 30.2965 25.9009C28.902 26.4764 27.4081 26.7685 25.9008 26.7604C19.4674 26.7604 14.4541 21.7434 14.4418 15.2686C14.4291 13.7525 14.7158 12.249 15.2853 10.8452C15.8547 9.44134 16.6957 8.16518 17.7593 7.09068C18.823 6.01619 20.0881 5.16474 21.4815 4.5857C22.8748 4.00666 24.3686 3.71156 25.8762 3.71751Z" fill="#1D1D1B"/>
<path d="M50.5686 36.5023C50.0764 36.5023 49.5842 36.5312 49.0919 36.589C47.5685 33.9332 45.3658 32.0249 42.3263 31.1191C39.9341 30.4087 37.6502 30.3246 35.5976 32.0447C35.0144 32.4999 34.3936 32.904 33.7419 33.2526C29.8041 35.5197 25.6793 36.2647 21.3969 34.4307C19.5314 33.6313 17.8504 32.4036 16.0218 31.4978C15.1407 31.0621 14.107 30.6736 13.1521 30.6983C8.55475 30.8146 5.31345 33.1734 3.13535 37.1632C1.38795 40.3634 0.590544 43.8459 0.265676 47.4248C0.0638636 49.6326 -0.145331 51.8972 0.12047 54.0802C0.81943 59.7952 4.93935 63.3122 10.7033 63.3543C15.9111 63.3914 21.1163 63.3543 26.3241 63.3543C31.1799 63.3543 36.0332 63.3865 40.8866 63.3543C43.6778 65.7532 47.2419 67.0483 50.9132 66.9976C52.9024 66.9924 54.871 66.5928 56.7065 65.8215C58.5419 65.0503 60.2081 63.9226 61.6096 62.503C63.0112 61.0834 64.1206 59.3997 64.8743 57.5485C65.6281 55.6972 66.0114 53.7145 66.0023 51.7141C65.9654 43.2122 59.1063 36.4405 50.5686 36.5023ZM8.48338 59.2878C5.65062 58.5007 3.93768 56.538 3.78263 53.6273C3.51436 48.6128 3.99182 43.6652 6.32989 39.0913C7.14699 37.4948 8.22496 36.0989 9.87391 35.2648C11.769 34.3094 13.5238 34.0273 15.4582 35.4801C16.1523 36.0014 16.8799 36.476 17.6363 36.9008C17.6753 37.0501 17.7306 37.1945 17.8012 37.3315L21.1902 43.7667L18.6429 59.6442C16.2285 59.6442 13.8117 59.6442 11.3973 59.6244C10.4194 59.644 9.44309 59.535 8.49322 59.3002L8.48338 59.2878ZM26.2749 59.6417H22.6324L25.1846 43.7419C25.2517 43.318 25.18 42.8837 24.9803 42.5044L23.068 38.8685C24.4649 39.1213 25.887 39.2044 27.3036 39.116C28.1307 39.0651 28.9532 38.9551 29.7647 38.7868L27.722 42.4697C27.5035 42.8596 27.4229 43.3124 27.4931 43.7543L30.0453 59.6516L26.2749 59.6417ZM34.0249 59.6541L31.4801 43.8013L35.4179 36.7474C35.4578 36.6784 35.4924 36.6064 35.5213 36.532C35.8495 36.3439 36.1702 36.1476 36.4836 35.943C37.6846 35.1633 38.7503 34.0372 40.4632 34.4579C42.4321 34.9529 44.0516 35.9108 45.2452 37.532C42.3961 38.6574 39.9521 40.6232 38.2342 43.1711C36.5163 45.719 35.605 48.7298 35.6197 51.8081C35.6257 54.5679 36.3695 57.2753 37.7732 59.6467C36.5246 59.6533 35.2785 59.6557 34.0348 59.6541H34.0249ZM50.8147 63.2603C44.3814 63.2603 39.3656 58.2433 39.3533 51.771C39.3402 50.2545 39.6268 48.7505 40.1963 47.3462C40.7657 45.9419 41.6069 44.6654 42.6708 43.5906C43.7347 42.5158 45.0003 41.6641 46.3941 41.0851C47.7879 40.5061 49.2821 40.2111 50.7901 40.2174C53.8349 40.2128 56.7569 41.4245 58.9136 43.5859C61.0703 45.7474 62.2851 48.6817 62.291 51.7438C62.2955 53.2595 62.0016 54.7612 61.4262 56.1621C60.8508 57.563 60.0052 58.8355 58.9383 59.9062C57.8714 60.9768 56.6043 61.8244 55.21 62.4001C53.8157 62.9758 52.3219 63.2681 50.8147 63.2603Z" fill="#1D1D1B"/>
<path d="M57.2311 49.7635H52.8011V45.3084C52.8011 44.7833 52.5936 44.2796 52.2244 43.9083C51.8552 43.537 51.3544 43.3284 50.8322 43.3284C50.31 43.3284 49.8092 43.537 49.44 43.9083C49.0707 44.2796 48.8633 44.7833 48.8633 45.3084V49.7635H44.4333C43.9111 49.7635 43.4103 49.9721 43.041 50.3435C42.6718 50.7148 42.4644 51.2184 42.4644 51.7436C42.4644 52.2687 42.6718 52.7724 43.041 53.1437C43.4103 53.515 43.9111 53.7236 44.4333 53.7236H48.8633V58.1788C48.8633 58.7039 49.0707 59.2075 49.44 59.5789C49.8092 59.9502 50.31 60.1588 50.8322 60.1588C51.3544 60.1588 51.8552 59.9502 52.2244 59.5789C52.5936 59.2075 52.8011 58.7039 52.8011 58.1788V53.7236H57.2311C57.7533 53.7236 58.2541 53.515 58.6233 53.1437C58.9926 52.7724 59.2 52.2687 59.2 51.7436C59.2 51.2184 58.9926 50.7148 58.6233 50.3435C58.2541 49.9721 57.7533 49.7635 57.2311 49.7635Z" fill="#1D1D1B"/>
</g>
<defs>
<clipPath id="clip0_2274_1723">
<rect width="66" height="67" fill="white"/>
</clipPath>
</defs>
</svg>
