<svg width="96" height="95" viewBox="0 0 96 95" fill="none" xmlns="http://www.w3.org/2000/svg">
<path d="M67.7915 7.91699H28.2082C17.2832 7.91699 8.4165 16.7441 8.4165 27.6295V51.3003V55.2587C8.4165 66.1441 17.2832 74.9712 28.2082 74.9712H34.1457C35.2144 74.9712 36.6394 75.6837 37.3123 76.5545L43.2498 84.4316C45.8623 87.9149 50.1373 87.9149 52.7498 84.4316L58.6873 76.5545C59.4394 75.5649 60.6269 74.9712 61.854 74.9712H67.7915C78.7165 74.9712 87.5832 66.1441 87.5832 55.2587V27.6295C87.5832 16.7441 78.7165 7.91699 67.7915 7.91699ZM32.1665 47.5003C29.9498 47.5003 28.2082 45.7191 28.2082 43.542C28.2082 41.3649 29.9894 39.5837 32.1665 39.5837C34.3436 39.5837 36.1248 41.3649 36.1248 43.542C36.1248 45.7191 34.3832 47.5003 32.1665 47.5003ZM47.9998 47.5003C45.7832 47.5003 44.0415 45.7191 44.0415 43.542C44.0415 41.3649 45.8228 39.5837 47.9998 39.5837C50.1769 39.5837 51.9582 41.3649 51.9582 43.542C51.9582 45.7191 50.2165 47.5003 47.9998 47.5003ZM63.8332 47.5003C61.6165 47.5003 59.8748 45.7191 59.8748 43.542C59.8748 41.3649 61.6561 39.5837 63.8332 39.5837C66.0103 39.5837 67.7915 41.3649 67.7915 43.542C67.7915 45.7191 66.0498 47.5003 63.8332 47.5003Z" fill="#104966"/>
</svg>
