<svg width="58" height="58" viewBox="0 0 58 58" fill="none" xmlns="http://www.w3.org/2000/svg">
<path d="M3.29316e-05 29.0837V8.47699C-0.0832737 7.35711 0.0759377 6.23244 0.466876 5.17971C0.857814 4.12698 1.47126 3.17097 2.26532 2.37691C3.05938 1.58285 4.01535 0.969415 5.06808 0.578477C6.1208 0.187539 7.24554 0.028296 8.36542 0.111603H49.6346C50.7545 0.028296 51.8791 0.187539 52.9318 0.578477C53.9845 0.969415 54.9407 1.58285 55.7347 2.37691C56.5288 3.17097 57.1422 4.12698 57.5332 5.17971C57.9241 6.23244 58.0833 7.35711 58 8.47699V49.6068C58.0833 50.7267 57.9241 51.8513 57.5332 52.9041C57.1422 53.9568 56.5288 54.9128 55.7347 55.7069C54.9407 56.5009 53.9845 57.1144 52.9318 57.5053C51.8791 57.8962 50.7545 58.0555 49.6346 57.9722H8.4769C7.3429 58.0538 6.20479 57.8877 5.14143 57.4854C4.07807 57.0831 3.11486 56.4541 2.31893 55.6423C1.523 54.8304 0.913257 53.8551 0.53206 52.784C0.150863 51.7129 0.00742444 50.5716 0.11151 49.4395L3.29316e-05 29.0837ZM4.48942 42.3289L15.3922 33.127C15.9842 32.4771 16.7106 31.9641 17.521 31.6235C18.3314 31.2829 19.2062 31.123 20.0847 31.1548C20.9631 31.1867 21.8242 31.4095 22.6078 31.8079C23.3914 32.2063 24.0787 32.7706 24.622 33.4616C26.6576 35.4972 28.749 37.5049 30.7288 39.5962C30.8948 39.8326 31.1113 40.0292 31.3626 40.1718C31.6138 40.3143 31.8936 40.3994 32.1817 40.4207C32.4698 40.442 32.7591 40.3992 33.0286 40.2952C33.2981 40.1912 33.5413 40.0286 33.7403 39.8193C35.6365 38.3414 37.6441 37.0308 39.5961 35.5251C40.1865 34.956 40.8843 34.5099 41.6486 34.2127C42.4129 33.9155 43.2287 33.7732 44.0485 33.7939C44.8683 33.8147 45.6759 33.9981 46.4242 34.3336C47.1726 34.6691 47.8468 35.1499 48.4077 35.7481L53.5384 39.8193V8.61641C53.5384 5.63275 52.3952 4.4616 49.4394 4.4616H8.61628C5.63263 4.4616 4.48942 5.63276 4.48942 8.58853V42.2174V42.3289ZM28.972 53.6501H49.8855C51.7259 53.6501 53.1201 52.8414 53.3432 51.2799C53.5382 49.4837 53.5941 47.6751 53.5105 45.8703C53.5105 45.5914 53.1201 45.2568 52.8412 45.0337C50.2759 42.9703 47.6826 40.9347 45.1451 38.8433C44.9738 38.6697 44.7699 38.5317 44.545 38.4376C44.32 38.3435 44.0785 38.295 43.8346 38.295C43.5907 38.295 43.3492 38.3435 43.1242 38.4376C42.8992 38.5317 42.6953 38.6697 42.5241 38.8433C40.4606 40.4885 38.3414 42.1058 36.25 43.6953C35.062 44.7245 33.5144 45.2407 31.9463 45.131C30.3783 45.0212 28.9177 44.2944 27.8846 43.1097C25.7096 40.9347 23.5903 38.7318 21.4431 36.5568C20.3556 35.4414 19.7422 35.4135 18.6547 36.3895L5.29801 47.5433C5.00807 47.7497 4.77735 48.0286 4.6288 48.352C4.38657 48.9655 4.30606 49.6311 4.39513 50.2847C4.4842 50.9383 4.73977 51.558 5.13734 52.0844C5.53492 52.6107 6.06119 53.026 6.66552 53.2905C7.26984 53.5549 7.93196 53.6595 8.58837 53.5943L28.972 53.6501Z" fill="#181818"/>
</svg>
