<svg width="63" height="64" viewBox="0 0 63 64" fill="none" xmlns="http://www.w3.org/2000/svg">
<g clip-path="url(#clip0_1434_797)">
<path d="M17.3012 56.319C13.0007 54.9929 10.9987 52.591 11.147 49.0883C11.2953 45.5856 13.4208 43.3588 18.1414 42.308C16.8068 34.8021 15.4474 27.2963 14.1128 19.7904C13.396 15.8623 12.6793 11.9343 12.012 7.98118C11.9861 7.65609 11.8563 7.3484 11.6423 7.10463C11.4282 6.86087 11.1416 6.69431 10.8257 6.63013C7.81042 5.67939 4.79506 4.70362 1.80448 3.70284C0.321541 3.22747 -0.271615 2.30175 0.123834 1.20089C0.519283 0.100028 1.50789 -0.275265 2.89197 0.175087C6.40158 1.30097 9.91111 2.50191 13.4702 3.57775C14.0196 3.72408 14.5072 4.04724 14.8593 4.49852C15.2115 4.94981 15.4093 5.50475 15.4228 6.0797C15.9171 9.03201 16.4609 11.9843 17.0046 15.0367H60.2569C62.7284 15.0367 63.2969 15.7873 62.852 18.1892L58.1807 44.1344C57.8841 45.7357 57.3157 46.2361 55.7091 46.2361H18.3887C17.5835 46.1364 16.7718 46.3613 16.1291 46.8622C15.4863 47.3631 15.064 48.0997 14.9532 48.9132C14.853 49.5347 14.9467 50.1724 15.2214 50.7375C15.4961 51.3025 15.9379 51.7668 16.4855 52.0656C17.0101 52.3801 17.6189 52.5203 18.2262 52.4665C18.8336 52.4126 19.409 52.1674 19.8716 51.7654C21.0891 50.7486 22.6184 50.1925 24.1968 50.1925C25.7752 50.1925 27.3044 50.7486 28.522 51.7654C29.0272 52.1559 29.6414 52.3748 30.2769 52.3909C34.4291 52.3909 38.5813 52.3909 42.6347 52.3909C43.2616 52.3696 43.8662 52.151 44.3646 51.7654C45.5997 50.7344 47.1508 50.1705 48.7517 50.1705C50.3526 50.1705 51.9037 50.7344 53.1388 51.7654C53.6409 52.1439 54.2433 52.3617 54.8687 52.3909C56.8213 52.3909 58.7492 52.3909 60.677 52.3909C62.1105 52.3909 62.9508 53.1415 62.9508 54.2924C62.9508 55.4433 62.0857 56.1438 60.6275 56.1688H55.6844C55.3384 61.1727 52.7432 64 48.6898 63.8999C44.6365 63.7998 42.2145 60.8975 42.0168 56.2439H30.8453C30.4993 61.2478 27.9041 64 23.8507 63.8999C19.7974 63.7998 17.4 60.8975 17.3012 56.319ZM54.6959 42.4081L58.9221 18.7896H17.6966L21.9477 42.4081H54.6959ZM24.1227 53.9921C23.7141 53.9788 23.3068 54.0483 22.9251 54.1967C22.5434 54.345 22.195 54.5692 21.9002 54.8559C21.6054 55.1427 21.3702 55.4863 21.2086 55.8665C21.0469 56.2466 20.9621 56.6557 20.959 57.0695C20.9458 57.8881 21.2527 58.6789 21.8129 59.2694C22.3731 59.8599 23.1412 60.2023 23.9497 60.222C24.3604 60.2321 24.769 60.1584 25.1511 60.0055C25.5331 59.8525 25.8809 59.6233 26.1737 59.3316C26.4665 59.0398 26.6984 58.6914 26.8555 58.3071C27.0127 57.9228 27.0919 57.5105 27.0885 57.0946C27.0952 56.2869 26.788 55.5089 26.2331 54.9285C25.6783 54.3481 24.9203 54.0118 24.1227 53.9921ZM48.8383 60.222C49.6468 60.2154 50.4199 59.8856 50.9893 59.3045C51.5587 58.7234 51.8783 57.9381 51.8783 57.1196C51.8817 56.7037 51.8025 56.2913 51.6453 55.907C51.4882 55.5227 51.2563 55.1743 50.9635 54.8826C50.6707 54.5908 50.3228 54.3616 49.9407 54.2087C49.5586 54.0557 49.1501 53.9821 48.7393 53.9921C48.3315 53.9954 47.9284 54.0803 47.5532 54.2421C47.178 54.4039 46.8381 54.6392 46.5532 54.9346C46.2683 55.23 46.044 55.5796 45.8932 55.9632C45.7424 56.3468 45.6681 56.7568 45.6746 57.1696C45.681 57.5814 45.7683 57.9877 45.9314 58.365C46.0945 58.7422 46.3301 59.0828 46.6245 59.367C46.919 59.6511 47.2663 59.873 47.6464 60.0198C48.0265 60.1666 48.4317 60.2353 48.8383 60.222Z" fill="#3A3A3A"/>
<path d="M28.5711 36.3283C28.5711 37.7544 27.9532 38.6551 26.8657 38.8303C25.7782 39.0054 25.012 38.1047 24.8637 36.7787C24.4436 33.0508 24.0482 29.2728 23.6527 25.62C23.6527 25.3447 23.6527 25.0445 23.6527 24.7443C23.6183 24.4866 23.6364 24.2245 23.706 23.9742C23.7756 23.7239 23.8951 23.4907 24.0573 23.2891C24.2194 23.0874 24.4207 22.9216 24.6486 22.8018C24.8766 22.682 25.1264 22.6108 25.3827 22.5926C25.6282 22.5791 25.874 22.6152 26.1056 22.6988C26.3371 22.7824 26.5499 22.9118 26.7316 23.0794C26.9133 23.2471 27.0603 23.4496 27.1639 23.6753C27.2676 23.901 27.3258 24.1453 27.3353 24.394C27.7308 28.3721 28.1509 32.3752 28.5711 36.3283Z" fill="#3A3A3A"/>
<path d="M53.0888 24.8696C52.6687 28.8477 52.2484 32.9009 51.7788 36.9541C51.7666 37.2042 51.7044 37.4491 51.596 37.6742C51.4876 37.8992 51.3352 38.0996 51.1481 38.2633C50.961 38.4271 50.743 38.5507 50.5073 38.6266C50.2716 38.7026 50.0231 38.7294 49.7769 38.7055C49.529 38.691 49.2869 38.6242 49.0661 38.5093C48.8452 38.3945 48.6504 38.2341 48.4945 38.0385C48.3385 37.8429 48.2247 37.6165 48.1603 37.3737C48.096 37.1309 48.0826 36.8772 48.121 36.6288C48.5164 32.4506 48.9614 28.2723 49.431 24.1191C49.4581 23.8671 49.5352 23.6233 49.658 23.4023C49.7807 23.1814 49.9465 22.988 50.1451 22.8336C50.3437 22.6793 50.5713 22.5674 50.8138 22.5045C51.0564 22.4416 51.309 22.4291 51.5565 22.4678C52.5451 22.6429 53.0888 23.3685 53.0888 24.8696Z" fill="#3A3A3A"/>
<path d="M36.2826 30.8739V36.6284C36.2826 37.9044 35.6153 38.7301 34.5525 38.7801C34.2945 38.7943 34.0365 38.7537 33.7949 38.661C33.5533 38.5683 33.3336 38.4254 33.1497 38.2417C32.9659 38.0579 32.822 37.8373 32.7273 37.5939C32.6327 37.3506 32.5893 37.0899 32.6 36.8286C32.427 32.7004 32.3034 28.5721 32.2045 24.3188C32.1912 24.0801 32.2249 23.8412 32.3037 23.6159C32.3826 23.3906 32.505 23.1834 32.6637 23.0064C32.8224 22.8294 33.0144 22.6862 33.2283 22.5851C33.4423 22.4839 33.6739 22.4269 33.9099 22.4173C34.159 22.3965 34.4097 22.4283 34.646 22.5108C34.8823 22.5932 35.099 22.7244 35.2826 22.8961C35.4662 23.0679 35.6126 23.2763 35.7124 23.5083C35.8122 23.7403 35.8633 23.9907 35.8625 24.2437C35.8625 26.4204 35.8625 28.5721 35.8625 30.7488L36.2826 30.8739Z" fill="#3A3A3A"/>
<path d="M44.0434 30.5989C44.0434 32.6255 44.0434 34.6771 44.0434 36.7037C44.0434 38.3299 42.511 39.2056 41.3494 38.43C41.0855 38.2216 40.8662 37.9612 40.7048 37.6644C40.5433 37.3677 40.4431 37.0408 40.4102 36.7037C40.4102 32.6755 40.6079 28.6224 40.7562 24.5942C40.7562 23.2181 41.6212 22.4175 42.7087 22.4675C43.7962 22.5176 44.4635 23.3432 44.4635 24.7193V30.5989H44.0434Z" fill="#3A3A3A"/>
</g>
<defs>
<clipPath id="clip0_1434_797">
<rect width="63" height="64" fill="white"/>
</clipPath>
</defs>
</svg>
