<svg width="45" height="62" viewBox="0 0 45 62" fill="none" xmlns="http://www.w3.org/2000/svg">
<g clip-path="url(#clip0_1432_733)">
<path d="M0.0244141 38.8955C0.0244141 32.1627 0.0244141 25.4057 0.0244141 18.6728C0.0565155 17.6835 0.316072 16.7145 0.783385 15.8393C1.90961 13.6838 3.23175 11.6252 4.35798 9.49394C4.65385 8.93998 4.82116 8.32773 4.84767 7.70175C4.84767 5.88535 4.84767 4.06894 4.84767 2.25253C4.84767 0.436128 5.53313 0.0244141 7.07557 0.0244141H37.8019C39.3443 0.0244141 40.0053 0.678311 40.0543 2.22831V2.34941C39.7427 4.48411 39.8752 6.65927 40.4436 8.74154C41.0119 10.8238 42.0042 12.7693 43.3596 14.4588C44.5322 16.1657 45.0925 18.2123 44.9509 20.2713C44.9509 33.1315 44.9509 46.0158 44.9509 58.876C44.9509 61.6853 44.5838 62.0486 41.6948 62.0486H2.79102C0.685471 62.0486 0.1468 61.4916 0.1468 59.3604L0.0244141 38.8955ZM31.4608 19.5205H3.77041V36.1588L7.10008 37.5393C7.92562 37.9447 8.83471 38.1556 9.7564 38.1556C10.6781 38.1556 11.5873 37.9447 12.4129 37.5393C14.0025 36.6589 15.7938 36.1967 17.6155 36.1967C19.4373 36.1967 21.2286 36.6589 22.8182 37.5393C23.6496 37.9397 24.5622 38.1478 25.4869 38.1478C26.4116 38.1478 27.3241 37.9397 28.1555 37.5393L31.4608 36.1588V19.5205ZM3.79476 40.058V58.3432H31.4363V40.058C30.8732 40.3244 30.4325 40.4939 30.0163 40.7119C28.6304 41.4172 27.0943 41.7852 25.5358 41.7852C23.9773 41.7852 22.4414 41.4172 21.0555 40.7119C20.0027 40.1352 18.819 39.8326 17.6155 39.8326C16.4121 39.8326 15.2285 40.1352 14.1757 40.7119C12.8056 41.3972 11.2917 41.7543 9.7564 41.7543C8.2211 41.7543 6.70731 41.3972 5.33721 40.7119L3.79476 40.058ZM38.2425 12.8603C37.4591 14.2166 36.8226 15.4518 36.0392 16.6385C35.4376 17.5858 35.1468 18.694 35.2067 19.8111C35.2067 32.2111 35.2067 44.5869 35.2067 56.9627V58.3432H41.1806C41.1942 58.1901 41.1942 58.0361 41.1806 57.883C41.1806 44.8533 41.1806 31.8236 41.1806 18.7939C41.1786 18.3964 41.0777 18.0055 40.8868 17.6557C40.1278 16.0814 39.2464 14.5799 38.2425 12.8119V12.8603ZM5.23933 15.6455C5.41072 15.6455 5.48418 15.7908 5.55763 15.7908H31.7301C31.8809 15.7907 32.0301 15.7606 32.1688 15.7023C32.3076 15.6441 32.4332 15.5589 32.5381 15.4517C33.4195 14.0228 34.2274 12.5455 35.1333 10.9471H8.42211C8.27073 10.9506 8.1221 10.9872 7.98666 11.0542C7.85123 11.1212 7.73233 11.2169 7.63863 11.3346C6.78172 12.7393 5.97383 14.1682 5.23933 15.6455ZM8.7159 7.26582H36.3329V3.77831H8.64253L8.7159 7.26582Z" fill="#3A3A3A"/>
</g>
<defs>
<clipPath id="clip0_1432_733">
<rect width="45" height="62" fill="white"/>
</clipPath>
</defs>
</svg>
