<svg width="28" height="26" viewBox="0 0 28 26" fill="none" xmlns="http://www.w3.org/2000/svg">
<path d="M9.4208 14.1865C10.9292 14.1865 12.4377 14.1943 13.9485 14.1865C14.6241 14.181 15.1102 13.807 15.2473 13.2449C15.3664 12.7403 15.0924 12.1627 14.5598 11.9646C14.2597 11.8661 13.9426 11.8199 13.6244 11.8285C10.7851 11.8186 7.9469 11.8131 5.10754 11.8285C4.64643 11.8285 4.4129 11.7179 4.23536 11.3007C2.90207 8.14828 1.53541 5.00799 0.184241 1.86328C-0.11721 1.16286 -0.0540623 0.654966 0.413008 0.289817C0.942037 -0.128445 1.49251 -0.0421374 2.07278 0.222319C10.3871 4.09143 18.7042 7.95353 27.0241 11.8086C27.5782 12.0653 28.0047 12.3962 28 13.0092C27.9952 13.6222 27.5627 13.9453 27.0086 14.2009C18.7062 18.0464 10.4054 21.8963 2.10614 25.7507C1.34834 26.1026 0.859823 26.0827 0.401092 25.6865C-0.0576376 25.2904 -0.111253 24.8245 0.19139 24.1108C1.54375 20.9661 2.90922 17.8258 4.24251 14.6734C4.41171 14.2728 4.62856 14.1688 5.06703 14.1766C6.51471 14.2031 7.96478 14.1865 9.4208 14.1865Z" fill="white"/>
</svg>
