<svg width="67" height="56" viewBox="0 0 67 56" fill="none" xmlns="http://www.w3.org/2000/svg">
<g clip-path="url(#clip0_1434_740)">
<path d="M0.449035 24.1301L2.16569 22.4362C2.3239 22.2819 2.53735 22.1953 2.75983 22.1953C2.98232 22.1953 3.19593 22.2819 3.35414 22.4362C5.30167 24.2903 7.13582 26.2569 8.84712 28.3255C10.0709 30.0225 10.6656 32.0834 10.5309 34.1619C10.3962 36.2404 9.54059 38.2098 8.10775 39.7392C7.18343 40.8076 6.20627 41.7978 5.28195 42.8402C4.30526 43.8958 3.78835 45.288 3.8427 46.7164C3.89705 48.1448 4.51825 49.4949 5.57241 50.4753C6.61864 51.4598 8.00893 52.0091 9.45464 52.0091C10.9004 52.0091 12.2905 51.4598 13.3367 50.4753C14.3036 49.6666 14.9951 48.584 15.3174 47.3744C17.9583 38.3841 20.5993 29.3939 23.029 20.4037C23.3468 19.3041 24.0854 18.3696 25.0888 17.7978C29.7368 15.1919 34.3584 12.3776 38.98 9.64147C39.8246 9.12412 40.6123 8.52153 41.3305 7.84341C43.9714 5.23755 46.6123 2.63169 49.0684 0.234299C49.1445 0.158662 49.2349 0.0986398 49.3346 0.0576744C49.4344 0.0167091 49.5413 -0.00439453 49.6493 -0.00439453C49.7573 -0.00439453 49.8642 0.0167091 49.9639 0.0576744C50.0636 0.0986398 50.1543 0.158662 50.2304 0.234299L66.7361 16.5209C66.8925 16.677 66.9803 16.8877 66.9803 17.1073C66.9803 17.3268 66.8925 17.5375 66.7361 17.6936C64.6762 19.7261 62.5634 21.8369 60.3978 23.9216C58.8061 25.4347 57.4768 27.1954 56.4629 29.1333C54.1917 33.3288 51.8149 37.446 49.5173 41.6154C49.2332 42.1054 48.8535 42.535 48.4002 42.8794C47.9469 43.2238 47.429 43.4762 46.8764 43.6219C37.7388 46.2278 28.6276 48.8337 19.4901 51.4395C18.2231 51.7601 17.0655 52.4077 16.1361 53.3157C14.9297 54.6069 13.3655 55.52 11.6378 55.9415C9.91003 56.3631 8.09476 56.2746 6.41753 55.6871C5.10568 55.3163 3.8975 54.6538 2.88572 53.7503C1.87394 52.8468 1.08561 51.7265 0.581209 50.4753C-0.102289 48.6637 -0.261732 46.7001 0.120693 44.8042C0.503118 42.9082 1.4122 41.1546 2.74662 39.7392L4.19925 38.1757C5.36935 36.9164 6.00288 35.2609 5.96846 33.5528C5.93403 31.8447 5.23427 30.2154 4.01437 29.003C2.82595 27.8043 1.58466 26.6578 0.317021 25.4591C0.224802 25.3691 0.154121 25.26 0.110055 25.1397C0.0659892 25.0194 0.049692 24.8909 0.0623431 24.7635C0.0749941 24.6362 0.116325 24.5133 0.183235 24.4037C0.250144 24.2941 0.340871 24.2006 0.449035 24.1301ZM20.6257 42.8923L20.969 43.0747C23.7684 40.2864 26.515 37.3939 29.4464 34.7099C30.3504 34.078 31.0555 33.2073 31.4806 32.1978C31.9057 31.1883 32.0335 30.081 31.8495 29.003C31.8282 28.7864 31.8282 28.5682 31.8495 28.3516H37.7125C37.9366 28.3516 38.1515 28.4394 38.31 28.5958C38.4685 28.7522 38.5574 28.9643 38.5574 29.1854V34.9444C37.8972 34.9444 37.2899 34.9444 36.7353 34.9444C36.0445 34.9142 35.3554 35.0338 34.7166 35.295C34.0778 35.5561 33.5047 35.9524 33.038 36.4558C30.1594 39.4004 27.2015 42.2408 24.2701 45.1333L23.2666 46.2017C30.6875 44.0649 37.7916 42.0323 44.8692 39.9477C45.4719 39.7279 45.9892 39.3268 46.3481 38.8011C48.7514 34.5535 51.1282 30.2799 53.4786 26.1105C53.5646 25.9508 53.5957 25.7679 53.5671 25.5893C53.5386 25.4107 53.4518 25.2461 53.3202 25.1203L41.4361 13.3939C41.3036 13.2622 41.1304 13.1779 40.9438 13.1543C40.7573 13.1307 40.568 13.1691 40.4061 13.2636C36.1014 15.8695 31.6911 18.4753 27.2015 21.0812C26.797 21.3937 26.5167 21.8364 26.4093 22.332C25.1944 26.3711 24.0588 30.4102 22.8968 34.4493L20.6257 42.8923ZM57.1231 21.446L61.0845 17.5633C61.2349 17.4041 61.3185 17.1946 61.3185 16.977C61.3185 16.7594 61.2349 16.5498 61.0845 16.3906L50.5208 5.96719C50.3595 5.81882 50.1472 5.73633 49.9267 5.73633C49.7062 5.73633 49.4937 5.81882 49.3324 5.96719L45.371 9.90205C45.2206 10.0612 45.1371 10.2708 45.1371 10.4884C45.1371 10.706 45.2206 10.9155 45.371 11.0747L55.9347 21.4981C56.0147 21.5745 56.1097 21.634 56.2139 21.6729C56.318 21.7119 56.429 21.7294 56.5403 21.7246C56.6515 21.7197 56.7607 21.6925 56.8609 21.6446C56.9611 21.5967 57.0503 21.5291 57.1231 21.446Z" fill="#3A3A3A"/>
</g>
<defs>
<clipPath id="clip0_1434_740">
<rect width="67" height="56" fill="white"/>
</clipPath>
</defs>
</svg>
