<svg width="61" height="61" viewBox="0 0 61 61" fill="none" xmlns="http://www.w3.org/2000/svg">
<g clip-path="url(#clip0_1434_750)">
<path d="M3.81107 30.5236C3.81107 25.9522 3.81107 21.3808 3.81107 16.8331C3.80142 16.3392 3.93299 15.8528 4.19036 15.431C4.44774 15.0092 4.82021 14.6697 5.26399 14.4522C13.2195 9.85696 21.1988 5.26172 29.0828 0.61886C29.4961 0.345478 29.9807 0.199707 30.4763 0.199707C30.9718 0.199707 31.4563 0.345478 31.8696 0.61886C39.8092 5.26965 47.7488 9.88077 55.6884 14.4522C56.1259 14.6753 56.4919 15.0168 56.7446 15.4378C56.9973 15.8588 57.1266 16.3423 57.1176 16.8331C57.1176 25.976 57.1176 35.103 57.1176 44.2141C57.1623 44.7051 57.0534 45.1978 56.8059 45.6243C56.5585 46.0508 56.1846 46.39 55.7361 46.5951C47.7965 51.2141 39.8013 55.849 31.7505 60.4998C31.3566 60.7659 30.8921 60.9082 30.4167 60.9082C29.9412 60.9082 29.4767 60.7659 29.0828 60.4998C21.1432 55.849 13.148 51.222 5.09724 46.6189C4.66112 46.3982 4.2985 46.0558 4.05327 45.6332C3.80804 45.2106 3.69071 44.7258 3.7157 44.2379C3.8348 39.6189 3.81107 35.0712 3.81107 30.5236ZM9.26553 16.2379C9.46222 16.4016 9.66908 16.5527 9.88484 16.6903C16.5065 20.4998 23.1519 24.2855 29.7735 28.1427C30.0068 28.3077 30.2857 28.3963 30.5715 28.3963C30.8573 28.3963 31.1361 28.3077 31.3695 28.1427L50.7579 16.9998C51.0437 16.8331 51.3058 16.6189 51.7107 16.357C44.708 12.3093 37.8719 8.33315 30.9883 4.45219C30.8242 4.37562 30.6454 4.33593 30.4643 4.33593C30.2833 4.33593 30.1043 4.37562 29.9402 4.45219C23.0804 8.14267 16.2683 12.0951 9.26553 16.1427V16.2379ZM28.6064 56.1427C28.6064 55.7141 28.6064 55.476 28.6064 55.2379C28.6064 47.6665 28.6064 40.0712 28.6064 32.4998C28.6111 32.19 28.5199 31.8864 28.345 31.6306C28.1701 31.3748 27.9203 31.1794 27.6299 31.0712L8.33656 19.9998L7.33621 19.4998V41.7141L8.67006 40.9998L21.5561 33.6189L22.3897 33.1427C22.7977 32.9209 23.2767 32.869 23.7227 32.9983C24.1687 33.1276 24.5456 33.4276 24.7716 33.8331C24.9854 34.2378 25.0381 34.7083 24.9187 35.1501C24.7994 35.5919 24.517 35.9721 24.1285 36.2141C23.8426 36.4284 23.533 36.5712 23.2233 36.7617L10.3136 44.1665L9.12262 44.8808L28.6064 56.1427ZM51.7345 44.9046L50.5674 44.1903L37.6575 36.7855L36.8478 36.3093C36.4429 36.0825 36.1392 35.7107 35.9977 35.2689C35.8563 34.827 35.8877 34.348 36.0855 33.9284C36.3198 33.5315 36.6985 33.2406 37.1424 33.1163C37.5863 32.9921 38.0611 33.0442 38.4674 33.2617C38.7294 33.3808 38.9676 33.5474 39.2058 33.6665L52.3062 41.1665C52.6634 41.3808 53.0208 41.5474 53.4019 41.7379V19.3808L52.2348 20.0236C45.9228 23.6427 39.6108 27.3093 33.1797 30.9046C32.8264 31.0595 32.5318 31.3233 32.339 31.6574C32.1462 31.9915 32.0652 32.3784 32.1078 32.7617C32.1078 40.0474 32.1078 47.349 32.1078 54.6665C32.1078 55.0712 32.1078 55.476 32.1078 56.0474L51.7345 44.9046Z" fill="#3A3A3A"/>
<path d="M3.57288 57.405H8.6463C9.93252 57.405 10.7185 58.1193 10.7185 59.1907C10.7185 60.2621 9.90868 60.9526 8.62246 60.9764C6.45495 60.9764 4.26361 60.9764 2.07228 60.9764C1.79314 61.0152 1.50891 60.9893 1.24144 60.9005C0.973975 60.8117 0.730542 60.6625 0.530107 60.4644C0.329672 60.2664 0.177598 60.0248 0.0856849 59.7585C-0.00622799 59.4922 -0.035577 59.2082 5.69569e-05 58.9288C5.69569e-05 56.6748 5.69569e-05 54.4129 5.69569e-05 52.1431C-0.0227876 51.8946 0.00537263 51.6441 0.0827774 51.4068C0.160182 51.1696 0.285281 50.9506 0.450294 50.7634C0.615307 50.5762 0.816748 50.4246 1.04242 50.3179C1.26809 50.2112 1.51329 50.1517 1.76277 50.1431C2.83462 50.1431 3.54906 50.905 3.57288 52.1907C3.5967 53.905 3.57288 55.5716 3.57288 57.405Z" fill="#3A3A3A"/>
<path d="M57.5226 57.405V52.2621C57.5226 50.9526 58.2133 50.1669 59.2852 50.1431C60.357 50.1193 61.0954 50.9288 61.0954 52.3098C61.0954 54.5002 61.0954 56.6669 61.0954 58.8574C61.0954 60.3098 60.4285 60.9526 58.9755 60.9764C56.808 60.9764 54.6167 60.9764 52.4492 60.9764C52.1918 61.0064 51.9309 60.9821 51.6835 60.9053C51.436 60.8285 51.2074 60.7008 51.0123 60.5304C50.8171 60.3599 50.6598 60.1506 50.5504 59.9158C50.441 59.681 50.3819 59.4259 50.377 59.1669C50.377 58.0955 51.1868 57.405 52.4969 57.405H57.5226Z" fill="#3A3A3A"/>
<path d="M3.57288 3.57137C3.57288 5.35708 3.57288 6.99994 3.57288 8.6666C3.57288 10.3333 2.88226 10.8333 1.76277 10.8095C0.643287 10.7857 0.0238758 10.0237 5.6956e-05 8.71422C5.6956e-05 6.49994 5.6956e-05 4.26184 5.6956e-05 2.04756C-0.035577 1.76809 -0.00622799 1.48418 0.0856849 1.21786C0.177598 0.95154 0.329672 0.709978 0.530107 0.511924C0.730542 0.31387 0.973975 0.164651 1.24144 0.0758584C1.50891 -0.0129337 1.79314 -0.0389115 2.07228 -6.3125e-05H8.62246C9.90867 -6.3125e-05 10.6947 0.714217 10.7185 1.76184C10.7423 2.80946 9.90875 3.57137 8.55108 3.57137H3.57288Z" fill="#3A3A3A"/>
<path d="M57.5226 3.57143H52.473C52.2157 3.60479 51.9543 3.58393 51.7056 3.51017C51.4568 3.4364 51.2263 3.31139 51.0288 3.14316C50.8314 2.97494 50.6714 2.76725 50.5591 2.53345C50.4468 2.29965 50.3848 2.04494 50.377 1.78571C50.377 0.738095 51.1868 0.0238095 52.473 0H58.9994C60.4523 0 61.0954 0.666661 61.0954 2.14285C61.0954 4.33333 61.0954 6.49999 61.0954 8.69047C61.0954 10.0476 60.3808 10.8333 59.2613 10.8095C58.1418 10.7857 57.5226 10.0238 57.5226 8.66666V3.57143Z" fill="#3A3A3A"/>
</g>
<defs>
<clipPath id="clip0_1434_750">
<rect width="61" height="61" fill="white"/>
</clipPath>
</defs>
</svg>
