<svg width="64" height="66" viewBox="0 0 64 66" fill="none" xmlns="http://www.w3.org/2000/svg">
<path d="M21.3611 52.0579C22.1174 48.3896 20.7629 45.6249 18.3626 42.8135C14.6272 38.4406 12.2586 33.2083 11.1204 27.4898C8.74691 15.5765 15.6973 3.56014 27.1198 0.623566C37.0906 -1.94226 47.4455 3.60679 51.5822 13.7645C54.5005 20.9193 53.6298 27.9121 50.5413 34.7699C48.7478 38.7641 46.3433 42.4488 43.4159 45.6887C42.9703 46.2332 42.714 46.9104 42.6863 47.6162C42.6061 50.2728 42.5575 52.9393 42.6742 55.596C42.876 60.1703 39.8678 63.5709 35.8649 64.5015C32.56 65.2724 29.2623 65.2847 26.1373 63.7452C23.0124 62.2057 21.3927 59.6571 21.3587 56.1214C21.3514 54.7587 21.3611 53.4083 21.3611 52.0579ZM25.2132 43.5256L25.5586 43.1843V41.851C25.5586 35.9992 25.5586 30.1481 25.5586 24.2979C25.5586 22.4981 26.383 21.6879 28.1631 21.6805C30.6761 21.6805 33.189 21.6805 35.702 21.6805C37.7058 21.6805 38.4573 22.4515 38.4573 24.5189C38.4573 30.3282 38.4573 36.1391 38.4573 41.9517V43.6704C39.2987 43.199 39.9724 43.0051 40.3785 42.5606C41.4113 41.4655 42.357 40.2898 43.2068 39.0446C46.9105 33.3973 49.7364 27.4628 48.8998 20.4086C48.2991 15.3482 46.0618 11.1422 42.1051 7.97728C36.755 3.70255 29.7487 3.15747 24.0265 6.50408C21.0447 8.24907 18.6121 10.8095 17.0093 13.89C15.4065 16.9705 14.6988 20.4457 14.9677 23.9148C15.5708 31.0844 18.8295 37.1515 23.5279 42.4551C23.9486 42.9338 24.6466 43.1745 25.2132 43.5256ZM38.3965 47.7979H25.6631V54.0369H38.3965V47.7979ZM34.0191 43.2432V26.1222H29.9992V43.2334L34.0191 43.2432ZM26.5897 58.5792C28.9024 61.695 36.164 61.1156 37.2486 58.5792H26.5897Z" fill="#3A3A3A"/>
<path d="M59.8062 42.9339C59.7648 44.7926 58.2741 45.8975 56.9754 45.3278C55.3096 44.5912 53.6827 43.7687 52.0946 42.8725C51.6296 42.6037 51.2885 42.1604 51.1455 41.6389C51.0025 41.1175 51.0692 40.5602 51.331 40.0882C51.4508 39.839 51.6183 39.6163 51.8238 39.4329C52.0292 39.2495 52.2687 39.109 52.5283 39.0195C52.7878 38.93 53.0624 38.8933 53.3361 38.9115C53.6098 38.9298 53.8772 39.0025 54.1228 39.1257C55.639 39.8014 57.1167 40.5621 58.5489 41.4042C59.1641 41.7946 59.5314 42.5877 59.8062 42.9339Z" fill="#3A3A3A"/>
<path d="M62.0489 4.77574C61.8057 5.07038 61.4045 5.82171 60.7868 6.19983C59.3897 7.01584 57.9513 7.75755 56.4775 8.42191C55.3515 8.95717 54.2012 8.57168 53.6467 7.56009C53.5009 7.31205 53.4073 7.03625 53.3719 6.74999C53.3365 6.46373 53.3601 6.17318 53.4412 5.89656C53.5222 5.61993 53.659 5.36319 53.8429 5.14243C54.0269 4.92168 54.254 4.74167 54.5101 4.61369C55.9935 3.7887 57.5037 2.99808 59.0528 2.30568C60.5047 1.66483 62.0513 2.72063 62.0489 4.77574Z" fill="#3A3A3A"/>
<path d="M6.37269 45.5171C5.39993 45.3796 4.64118 44.9302 4.33476 43.8867C4.02835 42.8432 4.38583 42.0305 5.20538 41.5542C6.75047 40.6629 8.34247 39.8571 9.97431 39.1406C11.0006 38.6888 11.8833 39.1553 12.4743 40.081C12.9874 40.8839 12.8512 42.2908 12.0438 42.7499C10.3294 43.732 8.52248 44.5693 6.75206 45.4508C6.62943 45.4912 6.50165 45.5136 6.37269 45.5171Z" fill="#3A3A3A"/>
<path d="M4.58774 2.24416C4.79511 2.28786 4.99728 2.3537 5.19084 2.44059C6.6062 3.13791 8.03372 3.81558 9.41747 4.56936C10.5872 5.20529 10.952 6.38631 10.4145 7.47648C9.87709 8.56664 8.67817 8.97177 7.51087 8.41196C6.05173 7.71219 4.60719 6.9805 3.1894 6.20216C2.19476 5.65707 1.92725 4.6995 2.24096 3.67071C2.55468 2.64193 3.31586 2.17542 4.58774 2.24416Z" fill="#3A3A3A"/>
<path d="M4.29106 21.683C5.02062 21.683 5.75019 21.6511 6.47976 21.683C7.00849 21.7148 7.50787 21.939 7.8853 22.3142C8.26273 22.6894 8.49259 23.1901 8.53226 23.7234C8.5882 24.7423 7.87566 25.8178 6.79833 25.9012C5.10848 26.0387 3.41041 26.0387 1.72055 25.9012C0.504606 25.8006 -0.105798 24.735 0.0182285 23.4926C0.130095 22.4564 0.952075 21.7223 2.10236 21.6732C2.83436 21.6584 3.56392 21.683 4.29106 21.683Z" fill="#3A3A3A"/>
<path d="M59.7186 26.0119C58.9893 26.0449 58.2588 26.0408 57.5299 25.9996C56.2678 25.8695 55.3947 24.8407 55.4798 23.694C55.5306 23.1406 55.786 22.6267 56.1953 22.2549C56.6045 21.8831 57.1375 21.6807 57.688 21.688C59.1034 21.6586 60.5212 21.6537 61.9365 21.688C62.4465 21.6791 62.941 21.8652 63.3208 22.209C63.7006 22.5528 63.9376 23.0289 63.9842 23.5418C64.1009 24.7867 63.4662 25.7516 62.2527 25.9358C61.4234 26.0585 60.5503 25.9579 59.7138 25.9579L59.7186 26.0119Z" fill="#3A3A3A"/>
</svg>
