<svg width="58" height="58" viewBox="0 0 58 58" fill="none" xmlns="http://www.w3.org/2000/svg">
<g clip-path="url(#clip0_1434_773)">
<path d="M3.29316e-05 29.0835V8.47674C-0.0832737 7.35686 0.0759377 6.23219 0.466876 5.17947C0.857814 4.12674 1.47126 3.17073 2.26532 2.37666C3.05938 1.5826 4.01535 0.969171 5.06808 0.578233C6.1208 0.187295 7.24554 0.0280519 8.36542 0.111359H49.6346C50.7545 0.0280519 51.8791 0.187295 52.9318 0.578233C53.9845 0.969171 54.9407 1.5826 55.7347 2.37666C56.5288 3.17073 57.1422 4.12674 57.5332 5.17947C57.9241 6.23219 58.0833 7.35686 58 8.47674V49.6066C58.0833 50.7264 57.9241 51.8511 57.5332 52.9038C57.1422 53.9566 56.5288 54.9126 55.7347 55.7066C54.9407 56.5007 53.9845 57.1141 52.9318 57.5051C51.8791 57.896 50.7545 58.0552 49.6346 57.9719H8.4769C7.3429 58.0536 6.20479 57.8875 5.14143 57.4851C4.07807 57.0828 3.11486 56.4539 2.31893 55.6421C1.523 54.8302 0.913257 53.8549 0.53206 52.7838C0.150863 51.7126 0.00742444 50.5714 0.11151 49.4392L3.29316e-05 29.0835ZM4.48942 42.3287L15.3922 33.1267C15.9842 32.4769 16.7106 31.9638 17.521 31.6233C18.3314 31.2827 19.2062 31.1227 20.0847 31.1546C20.9631 31.1864 21.8242 31.4093 22.6078 31.8077C23.3914 32.206 24.0787 32.7704 24.622 33.4614C26.6576 35.4969 28.749 37.5046 30.7288 39.596C30.8948 39.8324 31.1113 40.0289 31.3626 40.1715C31.6138 40.3141 31.8936 40.3991 32.1817 40.4205C32.4698 40.4418 32.7591 40.3989 33.0286 40.2949C33.2981 40.1909 33.5413 40.0284 33.7403 39.819C35.6365 38.3412 37.6441 37.0306 39.5961 35.5248C40.1865 34.9557 40.8843 34.5096 41.6486 34.2125C42.4129 33.9153 43.2287 33.7729 44.0485 33.7937C44.8683 33.8145 45.6759 33.9979 46.4242 34.3334C47.1726 34.6688 47.8468 35.1497 48.4077 35.7479L53.5384 39.819V8.61617C53.5384 5.63251 52.3952 4.46135 49.4394 4.46135H8.61628C5.63263 4.46135 4.48942 5.63252 4.48942 8.58828V42.2171V42.3287ZM28.972 53.6498H49.8855C51.7259 53.6498 53.1201 52.8412 53.3432 51.2796C53.5382 49.4834 53.5941 47.6748 53.5105 45.87C53.5105 45.5912 53.1201 45.2566 52.8412 45.0335C50.2759 42.97 47.6826 40.9344 45.1451 38.8431C44.9738 38.6694 44.7699 38.5315 44.545 38.4374C44.32 38.3432 44.0785 38.2948 43.8346 38.2948C43.5907 38.2948 43.3492 38.3432 43.1242 38.4374C42.8992 38.5315 42.6953 38.6694 42.5241 38.8431C40.4606 40.4883 38.3414 42.1056 36.25 43.695C35.062 44.7242 33.5144 45.2405 31.9463 45.1307C30.3783 45.021 28.9177 44.2941 27.8846 43.1094C25.7096 40.9344 23.5903 38.7316 21.4431 36.5565C20.3556 35.4412 19.7422 35.4133 18.6547 36.3892L5.29801 47.5431C5.00807 47.7495 4.77735 48.0283 4.6288 48.3517C4.38657 48.9653 4.30606 49.6308 4.39513 50.2844C4.4842 50.938 4.73977 51.5577 5.13734 52.0841C5.53492 52.6105 6.06119 53.0258 6.66552 53.2902C7.26984 53.5546 7.93196 53.6593 8.58837 53.5941L28.972 53.6498Z" fill="#3A3A3A"/>
<path d="M37.9231 28.2194C35.7832 28.2046 33.7364 27.3423 32.2311 25.8214C30.7258 24.3004 29.8849 22.2448 29.8923 20.1049C29.8844 19.012 30.0967 17.9286 30.5164 16.9194C30.9361 15.9102 31.5548 14.9958 32.3354 14.2308C33.1161 13.4657 34.0426 12.8657 35.0601 12.4665C36.0776 12.0672 37.1651 11.8769 38.2577 11.9069C39.3291 11.9104 40.3891 12.1268 41.3762 12.5435C42.3632 12.9603 43.2577 13.569 44.0075 14.3344C44.7573 15.0997 45.3475 16.0065 45.7438 17.0019C46.1402 17.9973 46.3349 19.0616 46.3164 20.1328C46.3172 21.2211 46.0983 22.2983 45.6729 23.2999C45.2474 24.3016 44.6241 25.2071 43.8404 25.9621C43.0567 26.7172 42.1288 27.3063 41.112 27.6941C40.0952 28.082 39.0106 28.2606 37.9231 28.2194ZM41.6039 20.1328C41.6229 19.6441 41.542 19.1567 41.3663 18.7003C41.1905 18.2438 40.9236 17.8281 40.5817 17.4783C40.2398 17.1286 39.83 16.8523 39.3777 16.6662C38.9254 16.4802 38.44 16.3883 37.951 16.3963C36.9943 16.3813 36.0704 16.7452 35.3809 17.4086C34.6914 18.072 34.2922 18.9811 34.2702 19.9376C34.2439 20.4252 34.3163 20.913 34.4831 21.3719C34.65 21.8308 34.9078 22.2512 35.2412 22.608C35.5745 22.9647 35.9765 23.2505 36.423 23.4481C36.8695 23.6457 37.3511 23.751 37.8394 23.7578C38.328 23.7806 38.8161 23.7035 39.2739 23.5312C39.7317 23.3589 40.1497 23.095 40.502 22.7557C40.8544 22.4164 41.1338 22.0088 41.3232 21.5578C41.5127 21.1068 41.6082 20.622 41.6039 20.1328Z" fill="#3A3A3A"/>
</g>
<defs>
<clipPath id="clip0_1434_773">
<rect width="58" height="58" fill="white"/>
</clipPath>
</defs>
</svg>
