<svg width="62" height="62" viewBox="0 0 62 62" fill="none" xmlns="http://www.w3.org/2000/svg">
<g clip-path="url(#clip0_1434_805)">
<path d="M30.4551 0.000108971C36.6822 -0.0711362 42.7905 1.7052 48.0068 5.10429C48.2323 5.29293 48.5069 5.41357 48.7984 5.45212C49.0899 5.49067 49.3863 5.44554 49.6531 5.322C50.6178 4.88634 51.6952 4.76406 52.7332 4.97236C53.7711 5.18067 54.7175 5.70906 55.4391 6.48314C56.2277 7.22025 56.7746 8.17852 57.0079 9.232C57.2412 10.2855 57.1501 11.3848 56.7465 12.3856C56.5982 12.8854 56.6503 13.4233 56.8918 13.8854C59.6936 18.1271 61.4075 22.9927 61.8821 28.0528C62.3568 33.1129 61.5776 38.212 59.6134 42.9001C57.6491 47.5881 54.5603 51.7209 50.6193 54.9338C46.6783 58.1468 42.0063 60.341 37.0159 61.3228C33.0813 62.1654 29.0171 62.2077 25.0658 61.4472C21.1145 60.6866 17.3568 59.1388 14.017 56.8959C13.773 56.6968 13.4776 56.5707 13.1649 56.5322C12.8522 56.4936 12.535 56.5443 12.2498 56.6782C11.2771 57.1015 10.1962 57.2102 9.15864 56.989C8.12106 56.7677 7.17879 56.2277 6.46376 55.4445C5.68405 54.7272 5.14821 53.7842 4.93118 52.7476C4.71414 51.711 4.82676 50.6325 5.2533 49.663C5.37803 49.3995 5.42813 49.1069 5.39825 48.8169C5.36838 48.5269 5.25966 48.2507 5.08382 48.0181C2.21358 43.6572 0.492219 38.6426 0.0794186 33.4395C-0.333382 28.2365 0.575836 23.0135 2.72258 18.2552C4.86933 13.497 8.18406 9.35766 12.3593 6.2213C16.5346 3.08495 21.435 1.05321 26.6059 0.314587C28.1311 0.0968732 29.753 0.0726802 30.4551 0.000108971ZM30.2373 3.65286C29.4142 3.65286 27.8163 3.84638 26.2185 4.11248C21.8155 4.91606 17.6769 6.78591 14.1648 9.55831C10.6528 12.3307 7.87445 15.9211 6.07308 20.0152C4.27171 24.1093 3.5022 28.5822 3.83198 33.0424C4.16175 37.5025 5.58078 41.8139 7.96473 45.599C8.08202 45.8643 8.29079 46.0786 8.55297 46.2029C8.81514 46.3272 9.11334 46.3533 9.39314 46.2764C10.2659 46.0837 11.1729 46.1126 12.0316 46.3604C12.8902 46.6081 13.6731 47.0669 14.3087 47.6948C14.9443 48.3226 15.4123 49.0996 15.6701 49.9547C15.9278 50.8098 15.9671 51.7159 15.7843 52.59C15.7024 52.9044 15.7385 53.2378 15.8856 53.5275C16.0328 53.8171 16.2809 54.043 16.5832 54.1624C22.3541 57.7589 29.2589 59.0784 35.9507 57.8636C40.3605 57.0661 44.5073 55.2002 48.0278 52.4293C51.5483 49.6584 54.335 46.0672 56.1438 41.9701C57.9526 37.8731 58.7282 33.3954 58.4028 28.9292C58.0773 24.4631 56.6607 20.1448 54.2771 16.3528C54.1597 16.0887 53.9497 15.8765 53.6867 15.7562C53.4236 15.6359 53.1255 15.6158 52.8487 15.6997C51.976 15.8923 51.0689 15.8634 50.2103 15.6157C49.3516 15.3679 48.5687 14.9091 47.9331 14.2813C47.2975 13.6534 46.8295 12.8764 46.5718 12.0213C46.314 11.1662 46.2747 10.2602 46.4576 9.38599C46.5461 9.06826 46.5134 8.72897 46.3658 8.43396C46.2182 8.13896 45.9661 7.90926 45.6586 7.78942C41.0188 4.96769 35.6676 3.53228 30.2373 3.65286ZM51.6625 12.1437C51.8946 12.1469 52.1251 12.1044 52.3407 12.0186C52.5563 11.9328 52.753 11.8054 52.9193 11.6436C53.0857 11.4819 53.2186 11.289 53.3103 11.0759C53.4021 10.8629 53.4508 10.6339 53.4539 10.402C53.4476 9.91218 53.2484 9.4446 52.8995 9.10049C52.5506 8.75639 52.0801 8.56347 51.5899 8.56351C51.3482 8.56949 51.1102 8.62428 50.8903 8.7246C50.6703 8.82492 50.473 8.96869 50.3102 9.14724C50.1473 9.3258 50.0223 9.53545 49.9427 9.76356C49.863 9.99167 49.8304 10.2335 49.8468 10.4746C49.8529 10.7044 49.9052 10.9306 50.0004 11.1399C50.0957 11.3492 50.232 11.5372 50.4013 11.6929C50.5706 11.8486 50.7695 11.9687 50.9862 12.0461C51.2028 12.1235 51.4328 12.1567 51.6625 12.1437ZM10.3857 53.4125C10.8526 53.4192 11.3038 53.2434 11.643 52.9226C11.9821 52.6018 12.1825 52.1613 12.2014 51.695C12.2251 51.4556 12.1983 51.214 12.1226 50.9856C12.0469 50.7573 11.9241 50.5474 11.7621 50.3695C11.6 50.1916 11.4024 50.0497 11.1819 49.953C10.9615 49.8563 10.7232 49.807 10.4824 49.8081C10.0112 49.7884 9.55122 49.9551 9.20223 50.2721C8.85324 50.5891 8.6435 51.0309 8.61843 51.5015C8.60514 51.9875 8.78248 52.4594 9.11269 52.8165C9.4429 53.1735 9.89975 53.3874 10.3857 53.4125Z" fill="#3A3A3A"/>
<path d="M42.8747 14.7561L47.2566 19.1104C47.4819 19.335 47.6257 19.6283 47.6652 19.9439C47.7046 20.2594 47.6376 20.5791 47.4745 20.8521L46.4336 22.5938C45.441 24.263 45.9735 25.5209 47.8618 26.0289C48.9028 26.295 50.2827 26.3192 50.8638 27.0207C51.4448 27.7222 51.0575 29.0769 51.0817 30.1654C51.1059 31.254 51.0817 32.899 51.0817 34.2778C51.0817 34.9068 50.9364 35.2454 50.2828 35.3664C49.6291 35.4873 48.7092 35.7292 47.8618 35.9228C45.8767 36.4308 45.4409 37.6645 46.3851 39.4304C46.9177 40.3496 47.8861 41.3656 47.7893 42.2365C47.6924 43.1073 46.4819 43.7605 45.7556 44.5104C45.0294 45.2603 43.7463 46.494 42.7779 47.51C42.7093 47.6181 42.6175 47.7098 42.5093 47.7785C42.4011 47.8472 42.2792 47.8912 42.152 47.9074C42.0249 47.9235 41.8957 47.9115 41.7738 47.8721C41.6518 47.8326 41.54 47.7668 41.4465 47.6793C40.7686 47.2197 40.0664 46.8326 39.3643 46.4214C37.6455 45.3812 36.3867 45.9134 35.8784 47.897C35.612 48.8888 35.612 50.316 34.9584 50.7999C34.3047 51.2837 32.8763 51.0176 31.8111 51.0418C30.7459 51.066 28.9786 51.0418 27.5744 51.0418C27.3879 51.0191 27.2095 50.9524 27.0537 50.8473C26.898 50.7421 26.7694 50.6015 26.6787 50.437C26.3795 49.6015 26.1448 48.7442 25.9767 47.8728C25.9005 47.5037 25.7337 47.1594 25.4913 46.8707C25.2489 46.582 24.9385 46.358 24.588 46.2188C24.2375 46.0797 23.8579 46.0298 23.4834 46.0736C23.1088 46.1174 22.7509 46.2535 22.4421 46.4698L19.8517 48.018L13.9205 42.0671L15.5183 39.382C16.5108 37.737 15.9541 36.4549 14.0658 35.9469C13.0248 35.6809 11.6448 35.6567 11.0638 34.9793C10.4828 34.302 10.8701 32.899 10.8701 31.8104C10.8701 30.7218 10.8701 29.0769 10.8701 27.7222C10.8701 27.0933 11.0395 26.7546 11.6931 26.6336C12.3468 26.5127 13.2667 26.2708 14.1141 26.0773C16.0992 25.5693 16.5351 24.3114 15.591 22.5697C15.0341 21.6504 14.0899 20.6344 14.1625 19.7394C14.2352 18.8443 15.4699 18.2154 16.1962 17.4655C16.9225 16.7156 18.2297 15.5061 19.1739 14.4659C19.247 14.3589 19.3425 14.269 19.4537 14.2025C19.565 14.136 19.6894 14.0944 19.8183 14.0806C19.9472 14.0668 20.0774 14.0811 20.2002 14.1226C20.3231 14.164 20.4355 14.2317 20.5296 14.3207C21.1832 14.7803 21.9095 15.1432 22.5873 15.5786C24.3304 16.6188 25.5651 16.0866 26.0977 14.103C26.364 13.087 26.3398 11.684 27.0177 11.2002C27.6955 10.7164 29.0754 10.9824 30.1648 10.9583C31.2543 10.9341 32.9731 10.9583 34.3772 10.9583C34.5633 10.9723 34.7428 11.0328 34.8993 11.1343C35.0558 11.2357 35.1844 11.3748 35.2731 11.5388C35.5805 12.3801 35.8153 13.246 35.9751 14.1272C36.0528 14.4981 36.2218 14.8438 36.4672 15.1328C36.7125 15.4218 37.0263 15.6449 37.3799 15.7819C37.7335 15.9189 38.1158 15.9655 38.492 15.9173C38.8681 15.8691 39.2262 15.7277 39.5338 15.5061L41.18 14.5384C41.4471 14.3834 41.758 14.3207 42.0644 14.3601C42.3708 14.3995 42.6556 14.5387 42.8747 14.7561ZM20.5296 18.5782C19.4886 18.5782 18.496 20.4651 19.0286 21.1666C20.2149 22.6906 20.7475 24.1904 19.3191 25.8595C19.1971 26.0217 19.1217 26.2141 19.1012 26.4159C18.9317 28.4963 17.5761 29.222 15.7362 29.3672C14.7678 29.3672 14.5256 29.9719 14.5498 30.8912C14.574 31.8104 14.5499 32.4635 15.7362 32.5603C17.5761 32.6812 18.9317 33.407 19.1012 35.4873C19.1096 35.6542 19.1688 35.8145 19.2707 35.9469C19.5701 36.2842 19.7996 36.6775 19.9459 37.104C20.0923 37.5304 20.1527 37.9817 20.1234 38.4316C20.0941 38.8815 19.9759 39.3211 19.7756 39.7251C19.5752 40.1291 19.2965 40.4893 18.9559 40.785C18.2054 41.6317 18.956 42.0429 19.4644 42.5509C19.9728 43.0589 20.3843 43.6153 21.1348 42.938C21.7972 42.3716 22.6209 42.0272 23.4896 41.9534C24.3582 41.8797 25.2281 42.0802 25.9767 42.5267C28.0587 43.3734 29.2691 44.341 29.3901 46.5423C29.3901 47.4858 30.1649 47.3648 30.7218 47.2923C31.2786 47.2197 32.2469 47.7277 32.3437 46.6149C32.4002 45.6408 32.7736 44.7118 33.4073 43.9694C34.041 43.227 34.9003 42.7119 35.8541 42.5025C36.5992 42.045 37.4713 41.8381 38.3427 41.9121C39.2141 41.9861 40.0389 42.3372 40.696 42.9138C41.5191 43.6153 41.9548 43.0589 42.4874 42.5025C43.02 41.9462 43.6252 41.5591 42.899 40.7366C41.4222 39.0675 41.7127 37.5435 42.7295 35.2696C43.1297 34.4968 43.7065 33.8291 44.4131 33.3206C45.1197 32.8121 45.9363 32.477 46.7966 32.3426C47.5713 32.1974 47.2808 31.4475 47.2808 30.9153C47.2808 30.3832 47.5713 29.6333 46.7966 29.4639C45.935 29.3332 45.1169 28.9996 44.4097 28.4907C43.7025 27.9818 43.1266 27.3121 42.7295 26.5369C41.7369 24.2872 41.4222 22.7632 42.899 21.094C43.6252 20.2716 42.899 19.8361 42.4874 19.3039C42.0759 18.7718 41.5191 18.1912 40.696 18.9169C40.0336 19.4833 39.2099 19.8277 38.3412 19.9014C37.4726 19.9752 36.6027 19.7747 35.8541 19.3281C33.7237 18.4815 32.5132 17.4655 32.3195 15.2158C32.2816 15.0584 32.2037 14.9134 32.0934 14.7948C31.9832 14.6762 31.8443 14.5879 31.69 14.5384C30.0196 14.1756 29.487 14.5384 29.2691 16.0866C29.0512 17.6348 28.3975 18.7234 26.6545 18.9411C25.9759 19.0615 25.3366 19.3436 24.7905 19.7636C24.4627 20.0714 24.0298 20.2428 23.58 20.2428C23.1302 20.2428 22.6973 20.0714 22.3695 19.7636C21.7782 19.3355 21.1639 18.9398 20.5296 18.5782Z" fill="#3A3A3A"/>
<path d="M40.1388 30.9877C40.126 33.4151 39.1505 35.7383 37.4259 37.4479C35.7014 39.1575 33.3686 40.1139 30.9393 40.1075C28.5308 40.0697 26.2327 39.0919 24.5362 37.3832C22.8397 35.6744 21.8795 33.3704 21.8608 30.9635C21.8863 28.536 22.8695 26.2165 24.5965 24.5089C26.3235 22.8014 28.655 21.8436 31.0846 21.8438C33.4908 21.8817 35.7864 22.8603 37.479 24.5697C39.1716 26.279 40.1265 28.5831 40.1388 30.9877ZM31.0363 25.5207C29.5871 25.5206 28.1965 26.0925 27.1673 27.1119C26.138 28.1313 25.5535 29.5156 25.5407 30.9635C25.5407 32.4093 26.1138 33.7962 27.1346 34.8208C28.1554 35.8454 29.5409 36.4242 30.9878 36.4306C31.7031 36.4338 32.4121 36.2961 33.0742 36.0255C33.7363 35.7549 34.3385 35.3567 34.8466 34.8535C35.3546 34.3504 35.7585 33.7521 36.0352 33.093C36.3119 32.4338 36.4559 31.7267 36.4591 31.0119C36.4656 29.5661 35.8985 28.1766 34.8822 27.1475C33.8659 26.1184 32.4831 25.5335 31.0363 25.5207Z" fill="#3A3A3A"/>
</g>
<defs>
<clipPath id="clip0_1434_805">
<rect width="62" height="62" fill="white"/>
</clipPath>
</defs>
</svg>
