<svg width="66" height="58" viewBox="0 0 66 58" fill="none" xmlns="http://www.w3.org/2000/svg">
<g clip-path="url(#clip0_2278_1823)">
<path d="M64.643 50.5984C63.9416 49.8604 63.2112 49.1491 62.4786 48.4398L62.1851 48.1536C61.823 47.802 61.4608 47.4504 61.1029 47.0968C61.0141 47.0068 60.9225 46.921 60.8281 46.8392L54.4304 40.6353C56.88 36.592 57.3442 32.0172 55.8103 26.8436C57.392 26.8436 58.8864 26.8436 60.389 26.8436C63.8709 26.8313 65.9958 24.7463 66.0083 21.3244C66.0166 16.0942 66.0166 10.8626 66.0083 5.62964C66.0083 2.05038 63.9104 0.0103449 60.2391 0.00830078H25.2745H7.67557C6.92008 0.00830078 6.16252 0.00830078 5.40704 0.00830078C2.18113 0.0369185 0.0208123 2.16689 0.0104062 5.35777C-0.00346872 10.7147 -0.00346872 16.0731 0.0104062 21.4328C0.0104062 24.7034 2.16864 26.8272 5.47364 26.8415C8.61005 26.8579 11.7465 26.8415 14.8829 26.8415H24.0299C23.751 28.3337 23.3597 29.7258 23.2494 31.1342C22.2671 43.6892 35.512 52.6609 47.0899 47.2603C48.1451 46.7677 48.6509 46.9802 49.3626 47.6936C52.37 50.7046 55.3982 53.7013 58.4784 56.6408C60.3703 58.4457 62.9572 58.4192 64.6992 56.7082C66.4412 54.9973 66.4495 52.4912 64.643 50.5984ZM24.4524 24.2864C18.1379 24.315 11.8249 24.3198 5.51318 24.3007C3.64007 24.3007 2.59946 23.3031 2.59946 21.5064C2.57865 16.1058 2.57865 10.7052 2.59946 5.30462C2.59946 3.57529 3.64007 2.57572 5.41744 2.54505C6.17085 2.53279 6.92425 2.53075 7.67765 2.53279H21.83C21.8904 2.53279 21.9528 2.53279 22.0153 2.53279H23.0559C35.4697 2.53279 47.8843 2.53279 60.2995 2.53279C62.4286 2.53279 63.4213 3.47104 63.4213 5.50904C63.4324 10.8238 63.4324 16.1385 63.4213 21.4532C63.4213 23.2786 62.4015 24.2598 60.5472 24.2843C58.8718 24.3068 57.1922 24.3457 55.5231 24.2557C55.034 24.2291 54.4637 23.8878 54.1099 23.5219C53.0818 22.4548 52.2826 21.1364 51.1421 20.2227C49.4771 18.8817 47.5728 17.8065 45.6643 16.5432L47.4125 13.0171C48.1659 14.4276 48.7424 15.6499 49.4584 16.7865C49.7601 17.2669 50.3512 17.8637 50.8195 17.8719C51.2878 17.8801 51.9205 17.2914 52.1806 16.809C53.1817 14.9509 54.0537 13.0253 54.9903 11.1324C55.4065 10.2862 55.573 9.4542 54.5387 8.98405C53.5501 8.53434 53.0423 9.22934 52.6656 10.0061C52.0745 11.1999 51.4897 12.3977 50.7924 13.8041C50.0432 12.4039 49.4792 11.1835 48.7549 10.0634C48.4302 9.5605 47.808 8.97997 47.2835 8.94522C46.8672 8.91864 46.2595 9.58707 45.9702 10.0797C45.3063 11.2162 44.7839 12.4345 44.1075 13.8143C43.275 12.2546 42.5986 10.9525 41.8764 9.65657C41.5101 9.00245 40.9399 8.62429 40.1657 8.99019C39.3457 9.37653 39.2791 10.0633 39.5913 10.8135C39.7536 11.2019 39.9825 11.5637 40.1782 11.9378C40.865 13.2563 41.5518 14.5747 42.2136 15.8401L35.5537 16.2877C36.4091 14.542 37.2332 12.8352 38.0803 11.1406C38.4965 10.2882 38.6526 9.46442 37.6203 8.99427C36.6297 8.54457 36.126 9.22934 35.7472 10.0061C35.152 11.2081 34.5568 12.412 33.8741 13.8C33.1186 12.3875 32.4984 11.0977 31.7429 9.8896C31.4682 9.44807 30.8709 8.92886 30.4276 8.93499C29.9843 8.94112 29.4078 9.47669 29.1435 9.92639C28.4463 11.1161 27.8947 12.3793 27.1809 13.8C26.4233 12.3793 25.7552 11.1181 25.0768 9.86098C24.6834 9.12918 24.1423 8.56092 23.2349 9.00654C22.3274 9.45216 22.3358 10.233 22.7749 11.0507C23.7885 12.9517 24.7438 14.8875 25.8281 16.7497C26.1236 17.2607 26.7709 17.8372 27.2849 17.8739C27.7012 17.9046 28.3256 17.2403 28.6024 16.7497C29.2788 15.6009 29.8095 14.3703 30.488 12.9926C31.3413 14.6279 32.0738 16.0281 32.8356 17.4896C29.8957 18.9215 27.4079 21.112 25.6387 23.8264C25.4368 24.1147 24.8541 24.2843 24.4524 24.2864ZM39.9014 46.3282C32.1342 46.2996 25.7636 39.9914 25.7906 32.3525C25.8177 24.7136 32.2424 18.4688 40.02 18.4933C47.7976 18.5179 54.1578 24.8301 54.1287 32.469C54.0995 40.1079 47.6748 46.3568 39.9014 46.3282ZM62.8719 54.8849C62.1705 55.631 61.2069 55.6412 60.3578 54.8849C59.6252 54.2348 58.9509 53.5235 58.2516 52.8407L50.5094 45.253C51.4124 44.4521 52.2476 43.5805 53.0069 42.6467L59.0737 48.7157C59.1361 48.7811 59.2027 48.8486 59.2693 48.9201L59.44 49.0877L59.4566 49.102C60.5805 50.2018 61.7147 51.2954 62.8136 52.4176C63.5837 53.1944 63.6524 54.057 62.8719 54.8849Z" fill="black"/>
<path d="M20.7062 9.02067C19.7197 8.55257 19.2036 9.20873 18.8165 9.98959C18.2192 11.1956 17.6239 12.4017 16.9205 13.8264C16.1546 12.3955 15.5552 11.1261 14.8268 9.94257C14.55 9.49286 13.9506 8.92051 13.5447 8.94708C13.0473 8.98797 12.4438 9.51739 12.1586 9.99367C11.4593 11.169 10.9099 12.4364 10.2293 13.8305C9.47175 12.3996 8.82657 11.1629 8.17307 9.9344C7.75682 9.16172 7.21362 8.5403 6.24793 9.03498C5.28224 9.52966 5.43625 10.2983 5.86082 11.0955C6.90144 13.0353 7.87337 14.9977 8.95978 16.9049C9.21577 17.3546 9.83805 17.9269 10.2418 17.8922C10.7351 17.8472 11.3261 17.3096 11.6113 16.8333C12.3106 15.6661 12.86 14.4151 13.5468 13.0333C14.3252 14.4928 14.9516 15.7826 15.6967 17.003C15.9506 17.4118 16.5292 17.931 16.9122 17.9024C17.3867 17.8717 18.009 17.4118 18.2441 16.9703C19.2848 15.0365 20.1963 13.0415 21.1579 11.0709C21.5533 10.2655 21.6594 9.47243 20.7062 9.02067Z" fill="black"/>
<path d="M40.0179 21.2691C33.7742 21.2548 28.6564 26.2138 28.621 32.2951C28.6081 33.7627 28.8901 35.2184 29.4509 36.5789C30.0117 37.9393 30.8402 39.1777 31.889 40.2232C32.9378 41.2687 34.1863 42.1007 35.5629 42.6716C36.9396 43.2424 38.4174 43.5409 39.9117 43.55C46.145 43.5664 51.2752 38.6053 51.3064 32.5261C51.3193 31.0585 51.0374 29.6028 50.4768 28.2424C49.9162 26.882 49.0879 25.6436 48.0394 24.5979C46.9908 23.5523 45.7426 22.7201 44.3661 22.1489C42.9897 21.5777 41.5121 21.2787 40.0179 21.2691ZM39.9533 41.0031C38.2225 41.0018 36.5309 40.4969 35.0921 39.5521C33.6532 38.6073 32.5317 37.2649 31.869 35.6945C31.2064 34.1241 31.0324 32.396 31.369 30.7285C31.7056 29.061 32.5377 27.5289 33.7603 26.3256C34.9828 25.1222 36.541 24.3017 38.238 23.9675C39.9351 23.6334 41.6949 23.8006 43.2952 24.448C44.8956 25.0955 46.2647 26.1942 47.2297 27.6053C48.1948 29.0165 48.7125 30.6769 48.7174 32.3768C48.7097 34.6592 47.7845 36.8461 46.1431 38.4617C44.5017 40.0773 42.2771 40.9907 39.9533 41.0031Z" fill="black"/>
<path d="M40.3219 26.7575C39.4894 26.7248 38.8338 26.9415 38.7089 27.8164C38.584 28.6912 39.1605 29.1512 39.9785 29.2472C41.9244 29.468 42.9609 30.5167 43.1898 32.4177C43.2855 33.2353 43.8142 33.869 44.6467 33.6012C45.1774 33.4336 45.5353 32.7325 45.7289 32.526C45.5874 29.2207 43.1815 26.8761 40.3219 26.7575Z" fill="black"/>
</g>
<defs>
<clipPath id="clip0_2278_1823">
<rect width="66" height="58" fill="black"/>
</clipPath>
</defs>
</svg>
