<svg width="56" height="63" viewBox="0 0 56 63" fill="none" xmlns="http://www.w3.org/2000/svg">
<path d="M48.1417 3.65854C46.8094 3.65854 45.5604 4.01817 44.4832 4.64293V1.82927C44.4832 0.819024 43.6642 0 42.6539 0H13.3856C12.3753 0 11.5563 0.819024 11.5563 1.82927V4.66524C10.4705 4.02659 9.20724 3.65854 7.85907 3.65854C3.82443 3.65854 0.541992 6.94098 0.541992 10.9756C0.541992 14.053 1.45394 17.0266 3.17919 19.5749C6.11626 23.913 9.73809 25.0388 12.735 26.2376C14.4631 30.541 17.9576 33.9515 22.3167 35.5662L20.9678 44.1463H20.7027C17.6767 44.1463 15.2149 46.6082 15.2149 49.6341V58.7805H13.3856C12.3754 58.7805 11.5564 59.5995 11.5564 60.6098C11.5564 61.62 12.3754 62.439 13.3856 62.439H42.6539C43.6642 62.439 44.4832 61.62 44.4832 60.6098C44.4832 59.5995 43.6642 58.7805 42.6539 58.7805H40.8247V49.6341C40.8247 46.6082 38.3628 44.1463 35.3369 44.1463H35.0717L33.723 35.5663C38.0885 33.9492 41.5869 30.5312 43.3124 26.219C46.1435 25.0866 49.8546 23.9576 52.8217 19.5749C54.547 17.0266 55.4589 14.0529 55.4589 10.9756C55.4588 6.94098 52.1764 3.65854 48.1417 3.65854ZM11.5427 21.8204C7.08248 20.0362 4.20053 15.7795 4.20053 10.9756C4.20053 8.95829 5.84175 7.31707 7.85907 7.31707C9.87638 7.31707 11.5176 8.95829 11.5176 10.9756C11.5176 11.1043 11.5311 11.2296 11.5564 11.3507V20.122C11.5564 20.7099 11.588 21.2905 11.6485 21.8627L11.5427 21.8204ZM37.1661 58.7805H18.8735V55.122H37.1661V58.7805ZM35.3369 47.8049C36.3455 47.8049 37.1661 48.6255 37.1661 49.6341V51.4634H18.8735V49.6341C18.8735 48.6255 19.6941 47.8049 20.7027 47.8049C21.6952 47.8049 33.0094 47.8049 35.3369 47.8049ZM24.6713 44.1463L25.8817 36.4467C26.5817 36.5379 27.2953 36.5854 28.0198 36.5854C28.7443 36.5854 29.4578 36.5378 30.1578 36.4467L31.3683 44.1463H24.6713ZM40.8247 20.122C40.8247 27.1826 35.0804 32.9268 28.0198 32.9268C20.9592 32.9268 15.2149 27.1826 15.2149 20.122V10.9756H40.8247V20.122ZM40.8247 7.31707H15.2149V3.65854H40.8247V7.31707ZM44.458 21.8204L44.393 21.8463C44.4522 21.2795 44.4831 20.7043 44.4831 20.122V10.9756C44.4832 8.95829 46.1244 7.31707 48.1417 7.31707C50.1591 7.31707 51.8003 8.95829 51.8003 10.9756C51.8003 15.7795 48.9183 20.0363 44.458 21.8204Z" fill="#3A3A3A"/>
</svg>
