<svg width="58" height="55" viewBox="0 0 58 55" fill="none" xmlns="http://www.w3.org/2000/svg">
<g clip-path="url(#clip0_1434_780)">
<path d="M51.6589 14.4144C52.4515 14.4144 53.063 14.4144 53.6745 14.4144C54.8361 14.4722 55.9308 14.9722 56.7319 15.8107C57.5329 16.6493 57.9789 17.7622 57.9774 18.9189C57.9774 21.5165 57.9774 24.1065 57.9774 26.6891C58.0058 27.309 57.9051 27.9281 57.6816 28.5075C57.4581 29.0869 57.1165 29.6141 56.6785 30.0561C56.2405 30.498 55.7155 30.8452 55.1361 31.0758C54.5568 31.3065 53.9358 31.4156 53.3121 31.3963H51.6589V43.536C51.6589 45.1801 51.0474 45.7882 49.3941 45.7882C47.1294 45.7882 44.706 45.9234 42.3733 45.7882C40.8819 45.5896 39.4114 45.2579 37.9797 44.7972L21.6511 40.2927C21.334 40.2927 20.9943 40.1576 20.5413 40.0675V52.2747C20.5413 54.6396 20.0884 55.0675 17.6651 55.0675H10.3047C8.42494 55.0675 7.85872 54.527 7.85872 52.6801C7.85872 47.7252 7.85872 42.7702 7.85872 37.8153C7.85872 36.7342 7.51906 36.3288 6.49993 36.1035C4.86932 35.7657 3.28401 35.2477 1.69869 34.7972C0.113375 34.3468 -0.0678711 33.9414 -0.0678711 32.545V13.2882C-0.0678711 11.9144 0.317179 11.4189 1.67602 11.036L40.9919 0.202637C41.3893 0.0872718 41.8009 0.0266516 42.2149 0.0224609H49.462C50.9567 0.0224609 51.5909 0.653092 51.5909 2.27471V14.527L51.6589 14.4144ZM40.0634 4.30174H39.5199L21.402 9.30174C20.632 9.50444 20.6319 9.95489 20.6319 10.5405C20.6319 18.7237 20.6319 26.9068 20.6319 35.09C20.6064 35.2491 20.6142 35.4118 20.6548 35.5677C20.6954 35.7237 20.7679 35.8697 20.8678 35.9965C20.9678 36.1234 21.0928 36.2283 21.2354 36.3049C21.378 36.3814 21.5349 36.4279 21.6964 36.4414L34.9904 40.0675L40.1539 41.4864L40.0634 4.30174ZM16.8498 10.6306L3.69168 14.2792V31.5765L16.8498 35.2026V10.6306ZM43.8455 3.69363V42.1621H47.9447V3.64859L43.8455 3.69363ZM16.9177 51.3513C16.9177 47.2972 16.9177 43.3783 16.9177 39.4369C16.8821 39.2912 16.8122 39.156 16.7138 39.0424C16.6154 38.9288 16.4912 38.8402 16.3515 38.7837C14.8115 38.3107 13.2489 37.9053 11.6183 37.4774V51.3513H16.9177ZM51.7267 18.018V27.7026H52.4741C54.2633 27.7026 54.3539 27.7026 54.3539 25.9234V19.6396C54.3539 18.2432 54.218 18.1306 52.7912 18.108L51.7267 18.018Z" fill="#3A3A3A"/>
</g>
<defs>
<clipPath id="clip0_1434_780">
<rect width="58" height="55" fill="white"/>
</clipPath>
</defs>
</svg>
