<svg width="18" height="17" viewBox="0 0 18 17" fill="none" xmlns="http://www.w3.org/2000/svg">
<path d="M14.6406 3.92114C14.6406 4.11478 14.5814 4.30406 14.4704 4.465C14.3595 4.62594 14.2018 4.75131 14.0173 4.82521C13.8328 4.89911 13.6299 4.91822 13.4342 4.88013C13.2386 4.84203 13.059 4.74845 12.9182 4.61122C12.7774 4.47399 12.6817 4.2993 12.6433 4.10928C12.6049 3.91926 12.6255 3.72246 12.7025 3.54381C12.7795 3.36516 12.9094 3.2127 13.0758 3.10575C13.2421 2.9988 13.4375 2.94217 13.637 2.94303C13.7692 2.94303 13.9001 2.96836 14.0221 3.01757C14.1442 3.06677 14.255 3.13889 14.3483 3.22977C14.4415 3.32066 14.5153 3.42852 14.5655 3.54716C14.6157 3.66581 14.6412 3.7929 14.6406 3.92114ZM13.3906 8.29439C13.3906 9.1048 13.1431 9.89702 12.6792 10.571C12.2154 11.2449 11.5561 11.7704 10.7846 12.0809C10.0131 12.3914 9.16408 12.4731 8.34477 12.3156C7.52547 12.1581 6.77264 11.7686 6.18142 11.1961C5.5902 10.6237 5.18712 9.89408 5.02309 9.09945C4.85906 8.30483 4.94145 7.48085 5.25985 6.73164C5.57825 5.98243 6.11836 5.34159 6.81196 4.89011C7.50557 4.43862 8.32153 4.19673 9.15676 4.19501C9.71217 4.19444 10.2623 4.30002 10.7756 4.50573C11.289 4.71143 11.7555 5.01323 12.1487 5.39389C12.5418 5.77455 12.8539 6.22662 13.067 6.72429C13.2801 7.22196 13.39 7.75548 13.3906 8.29439ZM11.8718 8.29439C11.8718 7.77852 11.7142 7.27423 11.4188 6.84529C11.1234 6.41636 10.7036 6.08205 10.2124 5.88463C9.72116 5.68722 9.18066 5.63557 8.65921 5.73621C8.13775 5.83685 7.65876 6.08527 7.28281 6.45004C6.90687 6.81482 6.65085 7.27957 6.54712 7.78553C6.4434 8.29149 6.49663 8.81594 6.70009 9.29254C6.90355 9.76915 7.24811 10.1765 7.69018 10.4631C8.13225 10.7497 8.65197 10.9027 9.18364 10.9027C9.89658 10.9027 10.5803 10.6279 11.0845 10.1387C11.5886 9.64958 11.8718 8.98615 11.8718 8.29439ZM17.6962 4.99924C17.6962 3.67336 17.1534 2.40178 16.1871 1.46424C15.2209 0.526703 13.9103 0 12.5439 0H5.53221C4.16573 0 2.85521 0.526703 1.88896 1.46424C0.922708 2.40178 0.379883 3.67336 0.379883 4.99924V11.8243C0.379883 13.1502 0.922708 14.4217 1.88896 15.3593C2.85521 16.2968 4.16573 16.8235 5.53221 16.8235H12.5618C13.9283 16.8235 15.2388 16.2968 16.205 15.3593C17.1713 14.4217 17.7141 13.1502 17.7141 11.8243L17.6962 4.99924ZM16.0071 11.746C16.0071 12.6569 15.6342 13.5304 14.9704 14.1744C14.3067 14.8185 13.4064 15.1803 12.4677 15.1803H5.60837C4.66965 15.1803 3.7694 14.8185 3.10563 14.1744C2.44185 13.5304 2.06894 12.6569 2.06894 11.746V5.07749C2.06894 4.16667 2.44185 3.29315 3.10563 2.6491C3.7694 2.00505 4.66965 1.64323 5.60837 1.64323H12.4856C13.4243 1.64323 14.3246 2.00505 14.9884 2.6491C15.6521 3.29315 16.025 4.16667 16.025 5.07749L16.0071 11.746Z" fill="#EAF6FF"/>
</svg>
