<svg width="18" height="25" viewBox="0 0 18 25" fill="none" xmlns="http://www.w3.org/2000/svg">
<path d="M8.64915 24.9919C8.30832 24.9919 7.96622 25.0034 7.62411 24.9919C6.89142 24.9688 6.19474 24.6693 5.6745 24.1538C5.15425 23.6382 4.84913 22.945 4.82064 22.2137C4.80463 21.9368 4.80463 21.6592 4.82064 21.3823C4.86549 20.8144 4.71558 20.3526 4.38244 19.8551C4.0726 19.3538 3.89823 18.7809 3.87633 18.1922C3.80329 16.72 3.28437 15.5241 2.26959 14.4228C-2.13422 9.64535 0.193891 1.87743 6.46839 0.276001C11.4847 -1.00309 16.4984 2.29697 17.212 7.41718C17.5734 10.0125 16.9186 12.389 15.1197 14.3345C14.0652 15.4742 13.454 16.7264 13.454 18.2792C13.4489 18.9887 13.1904 19.6731 12.7249 20.2094C12.5937 20.3927 12.518 20.6098 12.5071 20.8349C12.4751 21.3017 12.5071 21.7724 12.4917 22.2419C12.4595 22.962 12.1586 23.6441 11.6481 24.1539C11.1376 24.6638 10.4545 24.9645 9.73312 24.997C9.37564 25.006 9.01303 24.9919 8.64915 24.9919ZM8.60302 19.2424C9.15782 19.2424 9.71262 19.2424 10.2687 19.2424C11.19 19.2424 11.5141 18.9712 11.541 18.0439C11.5974 16.1252 12.3008 14.5123 13.6321 13.1219C14.766 11.9413 15.3042 10.4921 15.3683 8.84592C15.4187 7.32351 14.9493 5.8292 14.0371 4.60811C13.125 3.38701 11.8242 2.51164 10.3481 2.12557C7.25894 1.33253 4.0224 2.78942 2.645 5.59447C1.35346 8.22428 1.81985 11.0946 3.96089 13.4238C4.71429 14.2424 5.27422 15.157 5.52792 16.2288C5.67911 16.8684 5.70858 17.5322 5.78417 18.1859C5.86618 18.9341 6.18138 19.2309 6.94503 19.2411C7.49342 19.2475 8.04822 19.2424 8.60302 19.2424ZM10.5839 21.2007H6.74002C6.74002 21.4309 6.74002 21.6202 6.74002 21.8082C6.74002 22.7445 7.06675 23.0733 7.99441 23.0797C8.48386 23.0797 8.97203 23.0873 9.46149 23.0797C10.2303 23.0656 10.5711 22.7126 10.5852 21.9362C10.5877 21.7034 10.5839 21.4718 10.5839 21.2007Z" fill="#072AC8"/>
<path d="M9.61451 4.74965C9.62905 5.41133 9.27203 5.75196 8.42443 5.81852C7.962 5.84105 7.51192 5.97349 7.11248 6.20458C6.71305 6.43567 6.37608 6.75856 6.13023 7.14579C5.98044 7.40988 5.85306 7.68576 5.74941 7.9706C5.50214 8.5344 5.01685 8.78497 4.47735 8.5866C3.93785 8.38823 3.77785 7.9706 3.87041 7.4316C4.21554 5.44135 6.76494 3.59074 8.7722 3.87524C9.31302 3.95094 9.57352 4.27721 9.61451 4.74965Z" fill="#072AC8"/>
</svg>
