<svg width="22" height="34" viewBox="0 0 22 34" fill="none" xmlns="http://www.w3.org/2000/svg">
<g clip-path="url(#clip0_1280_279)">
<path d="M9.76075 19.2154H9.00374C6.45703 19.2154 3.90774 19.2154 1.35585 19.2154C0.0932962 19.2154 -0.272249 18.6577 0.182735 17.4494C2.236 11.9989 4.29013 6.54893 6.34512 1.09937C6.72363 0.0955018 6.86362 0.00254857 7.91618 0.0012207C10.6366 0.0012207 13.3587 0.0012207 16.0826 0.0012207C17.2129 0.0012207 17.6031 0.617348 17.1455 1.68362C16.0221 4.30749 14.8939 6.93091 13.761 9.55389C13.6586 9.79158 13.5717 10.0359 13.4473 10.3506H14.2017C16.4261 10.3506 18.6492 10.344 20.8735 10.3506C21.8911 10.3506 22.3072 11.1248 21.755 12.0065C17.3028 19.1344 12.8441 26.2558 8.37894 33.3705C8.07303 33.8578 7.6673 34.1672 7.07621 33.895C6.51623 33.6294 6.41123 33.1713 6.55771 32.5671C7.58693 28.3551 8.60665 24.1401 9.61686 19.9219C9.66742 19.7174 9.70242 19.5062 9.76075 19.2154ZM9.92408 26.9582L10.0537 27.0167L19.248 12.3477C16.8253 12.3477 14.5582 12.3477 12.2923 12.3477C11.0855 12.3477 10.707 11.7382 11.1996 10.591C12.0992 8.49115 13.0009 6.39269 13.9049 4.29554C14.2224 3.55327 14.5361 2.81099 14.8835 1.99435C12.7538 1.99435 10.7083 2.01294 8.66152 1.98107C8.19876 1.97311 8.03284 2.16166 7.88377 2.56002C6.13037 7.2288 4.36963 11.8945 2.60154 16.5571C2.52895 16.7509 2.47192 16.9554 2.39155 17.221H3.07338C5.64126 17.221 8.21043 17.221 10.7796 17.221C11.7842 17.221 12.1471 17.703 11.9138 18.6816C11.671 19.7094 11.4256 20.7367 11.1776 21.7636C10.7619 23.4969 10.3441 25.2285 9.92408 26.9582Z" fill="#072AC8"/>
</g>
<defs>
<clipPath id="clip0_1280_279">
<rect width="22" height="34" fill="white"/>
</clipPath>
</defs>
</svg>
