<svg width="17" height="15" viewBox="0 0 17 15" fill="none" xmlns="http://www.w3.org/2000/svg">
<path d="M1.16514 4.97316H4.37302V14.9716H1.16514V4.97316ZM2.76908 0C3.13682 0.00086082 3.49603 0.107507 3.8013 0.306456C4.10657 0.505405 4.34418 0.787723 4.48409 1.1177C4.624 1.44768 4.65992 1.8105 4.5873 2.16029C4.51469 2.51008 4.33681 2.83112 4.07616 3.08281C3.8155 3.33451 3.48378 3.50556 3.12293 3.57433C2.76209 3.64309 2.38833 3.60649 2.04893 3.46915C1.70952 3.33181 1.41971 3.0999 1.21614 2.80275C1.01257 2.50559 0.904394 2.15654 0.905279 1.79973C0.906465 1.32202 1.10288 0.864255 1.45144 0.526866C1.8 0.189476 2.27225 -1.38689e-06 2.7646 0M6.38019 14.9803H9.58807V10.0289C9.58807 8.72476 9.84344 7.45974 11.5101 7.45974C13.1768 7.45974 13.1768 8.95517 13.1768 10.1159V14.9803H16.3802V9.49421C16.3802 6.79462 15.7843 4.71233 12.5361 4.71233C11.9254 4.69317 11.3209 4.83506 10.7867 5.1229C10.2526 5.41073 9.80892 5.83374 9.50294 6.34686H9.46262V4.97751H6.38467L6.38019 14.9803Z" fill="#EAF6FF"/>
</svg>
