<svg width="12" height="16" viewBox="0 0 12 16" fill="none" xmlns="http://www.w3.org/2000/svg">
<path d="M6.0101 0C9.00832 0.0212033 11.583 2.29432 11.9553 5.2341C12.1427 6.7308 11.7192 8.08782 11.0846 9.40242C10.0852 11.4791 8.68664 13.2839 7.15817 14.9945C6.91581 15.2658 6.66908 15.5339 6.40861 15.7915C6.14065 16.0596 5.8708 16.074 5.61783 15.8064C3.56467 13.6381 1.69703 11.3382 0.550205 8.54057C-0.166871 6.79441 -0.232456 5.04265 0.648272 3.33578C1.60895 1.47363 3.14679 0.384776 5.23243 0.0804465C5.49228 0.0430289 5.75213 0.0286868 6.0101 0ZM6.02696 3.01336C4.37981 3.00588 3.015 4.35042 3.0075 5.98931C3.00001 7.6282 4.34671 8.99519 5.98886 9.00268C7.63101 9.01016 9.00083 7.66625 9.00832 6.02735C9.00903 5.23424 8.69634 4.47286 8.13814 3.90855C7.57994 3.34424 6.8213 3.02256 6.02696 3.01336Z" fill="white"/>
</svg>
