<svg width="81" height="81" viewBox="0 0 81 81" fill="none" xmlns="http://www.w3.org/2000/svg">
<path d="M61.4225 80.4965C45.5335 80.4965 30.0739 80.4965 14.1848 80.4965C14.1848 67.8282 14.1848 55.3747 14.1848 42.7064C9.89049 42.4917 6.45492 41.2035 3.87832 37.9827C0.228136 33.9031 -0.845447 29.1794 0.65757 24.0262C2.3753 18.873 6.02549 15.6522 11.3934 14.5786C12.6817 14.3639 13.1111 13.7197 13.7552 12.6461C20.1967 -2.16939 40.3802 -4.53132 50.0424 8.5664C50.9013 9.63998 51.5455 9.8547 52.8338 9.63998C59.4901 9.21055 64.8578 11.7871 68.508 17.3697C69.1522 18.4433 69.7965 18.8729 71.0848 19.0876C76.4527 19.9464 80.3174 24.885 80.3174 30.4677C80.3174 36.0503 76.6673 41.2033 71.2994 42.0622C68.7228 42.4916 65.7167 42.277 63.1401 42.4917C62.7106 42.4917 62.2813 42.4917 61.6372 42.4917C61.4225 55.3748 61.4225 67.8282 61.4225 80.4965ZM61.4225 37.9827C64.2138 37.9827 66.7903 38.1975 69.3669 37.9827C73.0171 37.5533 75.379 34.7618 75.5938 31.3263C75.8085 27.8909 73.4466 24.885 70.0112 24.2408C68.7229 24.0261 67.4345 24.2408 66.1462 24.2408C61.4224 15.008 58.6312 13.5049 48.5395 15.8668C48.1101 15.2227 47.6806 14.5785 47.4659 13.7197C43.8157 7.06343 36.5154 3.84279 29.215 5.77524C22.5588 7.49297 18.4791 11.5724 16.7613 18.4433C16.5466 19.3022 16.332 19.7318 15.2584 19.7318C14.1848 19.5171 13.3259 19.7318 12.2523 19.9465C7.74327 20.5906 4.30781 25.3143 4.73724 30.0381C5.16667 34.7618 9.24634 38.6267 14.1848 38.6267C14.1848 35.6207 14.1848 32.4001 14.1848 29.3941C30.0739 29.3941 45.5335 29.3941 61.4225 29.3941C61.4225 31.756 61.4225 34.762 61.4225 37.9827ZM56.4839 75.7728C56.4839 61.6015 56.4839 47.4301 56.4839 33.2588C43.8156 33.2588 31.3621 33.2588 18.9085 33.2588C18.9085 47.4301 18.9085 61.6015 18.9085 75.7728C31.5768 75.7728 44.0303 75.7728 56.4839 75.7728Z" fill="black"/>
<path d="M37.5894 71.0489C32.8656 71.0489 28.3566 71.0489 23.6328 71.0489C23.6328 66.3251 23.6328 61.8161 23.6328 57.0923C28.1419 57.0923 32.8656 57.0923 37.5894 57.0923C37.5894 61.8161 37.5894 66.3251 37.5894 71.0489ZM28.3565 61.8162C28.3565 63.3192 28.3565 64.8222 28.3565 66.3252C29.8595 66.3252 31.5772 66.3252 32.8655 66.3252C32.8655 64.8222 32.8655 63.3192 32.8655 61.8162C31.3625 61.8162 30.0742 61.8162 28.3565 61.8162Z" fill="black"/>
<path d="M23.6328 52.1539C23.6328 47.4301 23.6328 42.921 23.6328 38.1973C28.3566 38.1973 32.8656 38.1973 37.5894 38.1973C37.5894 42.7063 37.5894 47.4301 37.5894 52.1539C33.0803 52.1539 28.3566 52.1539 23.6328 52.1539ZM28.3565 47.4299C30.0742 47.4299 31.5771 47.4299 33.0801 47.4299C33.0801 45.9269 33.0801 44.424 33.0801 42.7063C31.5771 42.7063 30.0742 42.7063 28.3565 42.7063C28.3565 44.424 28.3565 45.9269 28.3565 47.4299Z" fill="black"/>
<path d="M42.7422 66.5398C45.7482 66.5398 48.7544 66.5398 51.9751 66.5398C51.9751 68.0428 51.9751 69.5458 51.9751 71.0488C48.9691 71.0488 45.9629 71.0488 42.7422 71.0488C42.7422 69.5458 42.7422 68.0428 42.7422 66.5398Z" fill="black"/>
<path d="M51.9751 57.0923C51.9751 58.5953 51.9751 60.0985 51.9751 61.6015C48.9691 61.6015 45.7482 61.6015 42.7422 61.6015C42.7422 60.0985 42.7422 58.5953 42.7422 57.0923C45.7482 57.0923 48.7544 57.0923 51.9751 57.0923Z" fill="black"/>
<path d="M42.7422 42.7065C42.7422 41.2035 42.7422 39.7005 42.7422 38.1975C45.7482 38.1975 48.7544 38.1975 51.9751 38.1975C51.9751 39.7005 51.9751 41.2035 51.9751 42.7065C48.7544 42.7065 45.7482 42.7065 42.7422 42.7065Z" fill="black"/>
<path d="M51.9751 47.645C51.9751 49.148 51.9751 50.4363 51.9751 52.154C48.9691 52.154 45.7482 52.154 42.7422 52.154C42.7422 50.651 42.7422 49.3628 42.7422 47.645C45.7482 47.645 48.7544 47.645 51.9751 47.645Z" fill="black"/>
</svg>
