<svg width="87" height="72" viewBox="0 0 87 72" fill="none" xmlns="http://www.w3.org/2000/svg">
<g clip-path="url(#clip0_1164_312)">
<path d="M43.5289 71.9356C31.9319 71.9356 20.3314 71.7999 8.73434 71.9966C3.37558 72.0882 -0.241073 68.1976 0.0136205 63.2658C0.224167 59.0938 0.0373917 54.9048 0.0611632 50.7158C0.0627794 47.372 1.38502 44.1638 3.74075 41.788C6.09648 39.4122 9.29548 38.0606 12.643 38.0267C16.3785 37.9995 20.0937 38.2336 23.819 38.2777C24.073 38.2632 24.3211 38.1952 24.547 38.0783C24.7728 37.9614 24.9715 37.7982 25.1298 37.5993C27.8941 33.4476 31.7349 31.4633 36.7201 31.5278C41.4166 31.5888 46.1132 31.5447 50.8097 31.5278C55.5063 31.5108 59.1977 33.5324 61.7616 37.4568C62.3083 38.298 62.8517 38.2743 63.704 38.2641C68.044 38.2132 72.435 37.8672 76.7138 38.3964C82.6125 39.1256 86.9253 44.5832 86.9763 50.5292C87.0102 54.993 87 59.4567 86.9763 63.9239C86.9525 68.6963 83.7739 71.9118 79.0027 71.922C67.1815 71.9525 55.3535 71.9356 43.5289 71.9356ZM58.4709 66.7595C58.5694 66.5797 58.6645 66.4814 58.6645 66.383C58.6645 58.9208 58.8581 51.4586 58.6068 44.0303C58.4438 39.2817 55.2109 36.6394 50.4566 36.6258C46.0419 36.6258 41.6272 36.8056 37.2295 36.5749C32.2545 36.3104 28.2099 39.475 28.3084 45.438C28.4171 51.9844 28.3322 58.5375 28.3322 65.0873V66.7595H58.4709ZM23.0447 66.8409C23.1169 66.6268 23.1692 66.4066 23.2009 66.1829C23.2009 58.948 23.2009 51.713 23.2417 44.4747C23.2417 43.3486 22.6644 43.1179 21.7882 43.1179C18.6199 43.1179 15.4447 42.9822 12.2797 43.1586C8.50341 43.3723 5.40634 46.269 5.23654 49.9662C5.01581 54.7589 5.11429 59.5686 5.17542 64.3716C5.17542 65.8538 6.12627 66.8104 7.66802 66.8205C12.7585 66.8646 17.8456 66.8409 23.0447 66.8409ZM63.8195 66.8409C69.1817 66.8409 74.2687 66.868 79.3524 66.8409C80.9553 66.8409 81.8756 65.7928 81.8858 64.0663C81.9164 59.6026 81.9537 55.1388 81.8858 50.6751C81.8883 48.7525 81.1509 46.9026 79.826 45.508C78.5011 44.1133 76.6902 43.2807 74.7679 43.1824C71.6131 42.9924 68.4346 43.1484 65.2594 43.1281C64.0708 43.1281 63.772 43.7013 63.7889 44.824C63.8467 48.8333 63.8127 52.8459 63.8127 56.8585L63.8195 66.8409Z" fill="#072AC8"/>
<path d="M58.6205 15.1041C58.6111 17.0972 58.2081 19.0688 57.4346 20.906C56.661 22.7432 55.532 24.4098 54.1124 25.8104C52.6928 27.2111 51.0104 28.3181 49.1617 29.0681C47.3129 29.8181 45.3342 30.1964 43.3388 30.1812C35.0766 30.1032 28.2881 23.1735 28.3968 14.9413C28.5258 6.46155 35.2328 -0.061086 43.7429 0.0169279C51.9679 0.0576307 58.6578 6.86179 58.6205 15.1041ZM43.4475 5.08446C42.1334 5.08705 40.8328 5.34978 39.621 5.85749C38.4092 6.3652 37.3101 7.10783 36.3874 8.0424C35.4647 8.97696 34.7366 10.0849 34.2452 11.3023C33.7538 12.5196 33.5089 13.8222 33.5246 15.1347C33.534 16.4456 33.8018 17.7418 34.3127 18.9493C34.8236 20.1569 35.5676 21.2521 36.5023 22.1724C37.437 23.0927 38.544 23.8202 39.7601 24.3132C40.9762 24.8062 42.2777 25.0552 43.5901 25.0458C44.9026 25.0365 46.2003 24.769 47.4093 24.2587C48.6183 23.7484 49.7148 23.0053 50.6362 22.0717C51.5576 21.1381 52.2859 20.0324 52.7795 18.8177C53.2731 17.603 53.5224 16.3031 53.513 14.9922C53.5113 13.6793 53.2487 12.3797 52.7405 11.1689C52.2323 9.95801 51.4884 8.85998 50.5522 7.93839C49.6159 7.0168 48.5058 6.28996 47.2863 5.80006C46.0667 5.31016 44.7619 5.06695 43.4475 5.08446Z" fill="#072AC8"/>
<path d="M28.2983 25.3477C28.2734 27.5707 27.59 29.7365 26.3342 31.5719C25.0784 33.4074 23.3064 34.8303 21.2419 35.661C19.1774 36.4918 16.9129 36.6932 14.7339 36.2399C12.5549 35.7866 10.5591 34.6989 8.99833 33.114C7.43755 31.5291 6.38168 29.5179 5.96392 27.3343C5.54617 25.1507 5.78525 22.8925 6.651 20.8444C7.51674 18.7964 8.97038 17.0503 10.8285 15.8264C12.6866 14.6026 14.866 13.9559 17.0918 13.9678C20.0886 13.9929 22.9527 15.2059 25.0543 17.3399C27.1558 19.474 28.3227 22.3544 28.2983 25.3477ZM23.2044 25.2493C23.1797 24.0392 22.7982 22.8632 22.1076 21.8686C21.4171 20.874 20.4481 20.1049 19.3221 19.6575C18.1961 19.2102 16.963 19.1046 15.7772 19.3538C14.5913 19.603 13.5054 20.196 12.6553 21.0586C11.8052 21.9212 11.2288 23.015 10.998 24.2033C10.7673 25.3915 10.8925 26.6213 11.3581 27.7388C11.8237 28.8563 12.6089 29.8118 13.6154 30.4857C14.622 31.1597 15.8053 31.5221 17.017 31.5277C17.8373 31.5255 18.649 31.361 19.4051 31.0434C20.1612 30.7259 20.8468 30.2618 21.4222 29.6779C21.9976 29.0941 22.4514 28.402 22.7573 27.6418C23.0632 26.8817 23.2152 26.0685 23.2044 25.2493Z" fill="#072AC8"/>
<path d="M58.7355 25.1341C58.8103 18.8997 63.9958 13.8288 70.1662 13.9679C72.4126 13.9856 74.6031 14.6691 76.46 15.9319C78.3169 17.1946 79.7566 18.9797 80.5965 21.0607C81.4364 23.1418 81.6387 25.4251 81.1778 27.6211C80.7168 29.8171 79.6134 31.827 78.0074 33.3958C76.4014 34.9647 74.3651 36.0219 72.1568 36.4333C69.9484 36.8448 67.6675 36.5921 65.6032 35.7071C63.5389 34.8221 61.7841 33.3448 60.5615 31.4625C59.3388 29.5802 58.7033 27.3776 58.7355 25.1341ZM76.1566 25.3579C76.1532 24.1397 75.7878 22.9499 75.1068 21.9393C74.4257 20.9287 73.4596 20.1428 72.3309 19.6811C71.2023 19.2194 69.9618 19.1028 68.7666 19.346C67.5715 19.5892 66.4756 20.1812 65.6177 21.0472C64.7598 21.9131 64.1786 23.0139 63.9476 24.2101C63.7167 25.4063 63.8465 26.644 64.3205 27.7665C64.7946 28.8889 65.5915 29.8455 66.6104 30.5151C67.6293 31.1847 68.8243 31.5372 70.0439 31.5278C71.6688 31.5038 73.2194 30.844 74.3624 29.6903C75.5054 28.5366 76.1497 26.981 76.1566 25.3579Z" fill="#072AC8"/>
</g>
<defs>
<clipPath id="clip0_1164_312">
<rect width="87" height="72" fill="white"/>
</clipPath>
</defs>
</svg>
