<svg width="104" height="45" viewBox="0 0 104 45" fill="none" xmlns="http://www.w3.org/2000/svg">
<g clip-path="url(#clip0_1614_210)">
<path d="M79.2456 18.2212L84.8752 28.306H92.5942C90.749 32.1989 87.6632 34.1453 83.3368 34.1453C79.6823 34.1453 76.901 33.152 74.9931 31.1654C73.0852 29.1788 72.129 26.277 72.1245 22.4601C72.1245 19.0717 73.0203 16.373 74.8117 14.3641C75.7289 13.3509 76.8587 12.5514 78.1207 12.0225C79.3828 11.4936 80.7462 11.2482 82.1142 11.3038H82.9539H95.0463L102.577 0.000225506H81.9059C77.8567 -0.0606621 73.8603 0.92196 70.3039 2.8529C66.9575 4.70014 64.2132 7.46587 62.3969 10.8217C60.5551 14.4397 59.5952 18.4397 59.5952 22.4969C59.5952 26.5541 60.5551 30.5541 62.3969 34.1721C64.2177 37.5336 66.9724 40.3004 70.3308 42.1409C73.9458 44.0902 78.0048 45.0751 82.1142 45.0002C85.4715 45.0612 88.8014 44.3869 91.8687 43.0248C94.5476 41.8337 96.9582 40.1165 98.9562 37.9757L99.0099 37.9154C101.744 34.8411 103.239 30.8671 103.209 26.7592V18.2212H79.2456Z" fill="#0B81C7"/>
<path d="M13.1538 0H0L7.53758 11.3036H13.1538H19.5896V43.7612H30.9229V11.3438L22.8479 0H13.1538Z" fill="#072D4F"/>
<path d="M65.4533 0H27.6982L35.7598 11.3036H44.3656V43.7679H55.6988V18.4821C55.6552 16.0668 56.0348 13.6624 56.8207 11.3772C56.9954 10.7813 57.2103 10.1786 57.4522 9.58259L57.5261 9.50893C59.2009 5.64826 61.9523 2.34794 65.4533 0Z" fill="#072D4F"/>
<path d="M22.8479 0H13.1538H0L3.76879 5.65179H26.8719L22.8479 0Z" fill="#104966"/>
<path d="M65.4533 0H27.6982L31.8164 5.65179H59.6893C61.2505 3.43472 63.2038 1.51956 65.4533 0Z" fill="#104966"/>
<path d="M25.4076 11.2632H19.5898V11.3034V43.761L25.4076 39.6694V11.2632Z" fill="#02141F"/>
<path d="M50.1365 11.2632H44.312V11.3034V43.761L50.1365 39.6694V11.2632Z" fill="#02141F"/>
<path d="M81.9057 0.00669275C77.8565 -0.0541949 73.8601 0.928438 70.3038 2.85938C68.9119 3.63781 67.6156 4.57491 66.4409 5.65179H98.8485L102.617 0H81.9057V0.00669275Z" fill="#1D9DDD"/>
<path d="M84.8749 28.3059H92.5939C93.1333 26.6238 93.454 24.8797 93.5479 23.1162H81.9795L84.8749 28.3059Z" fill="#026FA5"/>
</g>
<defs>
<clipPath id="clip0_1614_210">
<rect width="103.235" height="45" fill="white"/>
</clipPath>
</defs>
</svg>
