<svg width="82" height="72" viewBox="0 0 82 72" fill="none" xmlns="http://www.w3.org/2000/svg">
<g clip-path="url(#clip0_1164_318)">
<path d="M20.0212 12.7186C20.0212 10.969 19.9924 9.48715 20.0212 8.00847C20.1237 3.05614 23.2241 0.0127213 28.1981 0.00634766C36.7391 0.00634766 45.2801 0.00634766 53.8211 0.00634766C58.7792 0.00634766 61.8828 3.05933 61.9853 8.01804C62.0173 9.49991 61.9853 10.9818 61.9853 12.7186H63.7917C67.475 12.7186 71.1583 12.6931 74.8352 12.7186C78.906 12.7632 81.9648 15.8576 81.9936 19.9304C82.0192 23.5921 81.9936 27.2601 81.9936 30.9186C82.0128 33.4139 81.116 35.5427 79.6715 37.5408C79.1604 38.2393 78.8654 39.0711 78.8228 39.9341C78.7587 48.0542 78.7875 56.1869 78.7811 64.3006C78.7811 68.9406 75.7512 71.9777 71.0942 71.9808C51.0336 71.9808 30.974 71.9808 10.9154 71.9808C6.25203 71.9808 3.22852 68.9342 3.22852 64.2942C3.22852 56.171 3.25094 48.0414 3.18688 39.9277C3.14029 39.0655 2.84323 38.2352 2.33172 37.5376C0.887223 35.5395 -0.0063829 33.3947 0.0160372 30.9122C0.0448631 27.3047 0.0160372 23.694 0.0160372 20.077C0.0352545 15.8098 3.07478 12.7473 7.34741 12.7122C10.9763 12.6835 14.6019 12.7122 18.2372 12.7122L20.0212 12.7186ZM49.5197 43.3504C53.866 42.5983 58.129 41.9705 62.3312 41.1196C66.4148 40.2847 70.3384 38.9271 73.7847 36.486C76.0491 34.8925 77.3591 32.8434 77.2117 29.9051C77.0548 26.7821 77.1861 23.643 77.1733 20.5104C77.1733 18.3529 76.3406 17.518 74.1882 17.518C52.0393 17.518 29.8914 17.518 7.74458 17.518C5.61466 17.518 4.79472 18.3656 4.78832 20.5391C4.78832 23.7259 4.88761 26.9127 4.75309 30.0995C4.63779 32.7765 5.78762 34.7236 7.83105 36.2055C9.07056 37.1074 10.3934 38.0507 11.8154 38.516C15.8446 39.8289 19.9187 41.0654 24.044 42.0215C26.8017 42.6588 29.6779 42.815 32.5957 43.2006C32.6277 42.5633 32.6501 42.2446 32.6565 41.945C32.7046 39.147 33.3195 38.5542 36.1957 38.5542H44.3951C48.8791 38.5319 48.8791 38.5319 49.5197 43.3504ZM7.9976 42.0342C7.9976 49.7559 7.98158 57.1876 7.9976 64.6193C7.9976 66.3465 9.01611 67.207 10.9314 67.2102C30.943 67.2102 50.9535 67.2102 70.9629 67.2102C73.0896 67.2102 73.9608 66.321 73.9672 64.2018C73.9672 59.6351 73.9672 55.0683 73.9672 50.4984V42.2605C73.7334 42.2605 73.6149 42.2286 73.5348 42.2605C66.1682 45.7947 58.2731 47.1108 50.2243 47.8406C49.7375 47.8852 49.1001 48.5067 48.8951 49.007C47.4794 52.4233 44.7602 54.2494 40.9103 54.2366C37.1598 54.2366 34.3669 52.4105 33.1338 49.0102C32.8135 48.086 32.3555 47.8438 31.4459 47.7355C28.48 47.4168 25.5173 47.0694 22.5739 46.6137C17.5132 45.8304 12.6015 44.2863 8.00721 42.0342H7.9976ZM24.9152 12.6326H57.0721C57.0721 10.7205 57.1873 8.86252 57.0368 7.03647C56.9151 5.55459 55.7813 4.80569 54.3624 4.80569C45.4542 4.76957 36.5459 4.76957 27.6376 4.80569C26.2188 4.80569 25.0753 5.55141 24.96 7.03647C24.8095 8.86252 24.9248 10.7109 24.9248 12.6326H24.9152ZM37.4577 43.3854C37.605 45.5557 36.7594 47.8821 39.1712 49.0963C40.4972 49.7623 42.0153 49.791 43.2644 48.8285C45.167 47.3658 44.3823 45.3039 44.4879 43.3854H37.4577Z" fill="#072AC8"/>
</g>
<defs>
<clipPath id="clip0_1164_318">
<rect width="82" height="72" fill="white"/>
</clipPath>
</defs>
</svg>
