<svg width="83" height="71" viewBox="0 0 83 71" fill="none" xmlns="http://www.w3.org/2000/svg">
<g clip-path="url(#clip0_1164_301)">
<path d="M10.9646 65.6941H38.8978V63.8525C38.8978 49.525 38.8978 35.1964 38.8978 20.8668C38.8978 18.1494 39.73 17.3252 42.4736 17.2994C52.9842 17.2694 63.4947 17.2489 74.0053 17.2382C76.4141 17.2382 77.4673 18.2041 77.4738 20.4837C77.4966 30.5194 77.4738 58.4048 77.4738 68.4566C77.4508 68.792 77.4052 69.1254 77.3373 69.4547H72.1362V22.6988H44.3492V65.7489H80.3474C80.6956 65.7489 81.0404 65.8169 81.362 65.9489C81.6837 66.081 81.9759 66.2746 82.2219 66.5186C82.468 66.7626 82.6631 67.0522 82.796 67.371C82.929 67.6897 82.9972 68.0313 82.9967 68.3761C82.9967 68.7207 82.9282 69.0619 82.7951 69.3803C82.6619 69.6986 82.4668 69.9879 82.2208 70.2316C81.9748 70.4752 81.6827 70.6685 81.3613 70.8004C81.0398 70.9323 80.6953 71.0001 80.3474 71.0001H2.63631C1.93712 71.0001 1.26656 70.725 0.772159 70.2354C0.277754 69.7457 0 69.0815 0 68.389C0 67.6965 0.277754 67.0323 0.772159 66.5426C1.26656 66.053 1.93712 65.7779 2.63631 65.7779H5.49367V63.7398C5.49367 46.7829 5.49367 29.826 5.49367 12.8692C5.49367 9.83623 5.91301 9.30175 8.87439 8.51294L39.8535 0.289907C42.9677 -0.537546 44.2127 0.405813 44.2225 3.6287C44.2225 5.50576 44.2225 7.38285 44.2225 9.28889C44.2225 9.63179 44.1543 9.97132 44.0218 10.2881C43.8893 10.6049 43.6951 10.8928 43.4503 11.1352C43.2055 11.3777 42.9149 11.5701 42.595 11.7013C42.2752 11.8325 41.9323 11.9 41.5861 11.9C40.8875 11.8992 40.2178 11.6237 39.7241 11.1341C39.2304 10.6445 38.9531 9.98085 38.9531 9.28889V6.16901C38.3842 6.25273 37.9779 6.27527 37.5943 6.37508C29.1967 8.59664 20.8001 10.8193 12.4046 13.043C11.4294 13.2973 10.8606 13.5453 10.8638 14.7977C10.9191 31.379 10.8996 47.9603 10.9028 64.5447C10.9093 64.8989 10.9451 65.2595 10.9646 65.6941Z" fill="#072AC8"/>
<path d="M28.6352 17.5343H21.1228C19.7368 17.5343 18.6133 18.6464 18.6133 20.0183C18.6133 21.3901 19.7368 22.5022 21.1228 22.5022H28.6352C30.0212 22.5022 31.1447 21.3901 31.1447 20.0183C31.1447 18.6464 30.0212 17.5343 28.6352 17.5343Z" fill="#072AC8"/>
<path d="M28.6352 29.5532H21.1228C19.7368 29.5532 18.6133 30.6653 18.6133 32.0372C18.6133 33.409 19.7368 34.5212 21.1228 34.5212H28.6352C30.0212 34.5212 31.1447 33.409 31.1447 32.0372C31.1447 30.6653 30.0212 29.5532 28.6352 29.5532Z" fill="#072AC8"/>
<path d="M28.6352 41.5756H21.1228C19.7368 41.5756 18.6133 42.6877 18.6133 44.0595C18.6133 45.4314 19.7368 46.5435 21.1228 46.5435H28.6352C30.0212 46.5435 31.1447 45.4314 31.1447 44.0595C31.1447 42.6877 30.0212 41.5756 28.6352 41.5756Z" fill="#072AC8"/>
<path d="M28.6352 53.5945H21.1228C19.7368 53.5945 18.6133 54.7066 18.6133 56.0785C18.6133 57.4503 19.7368 58.5624 21.1228 58.5624H28.6352C30.0212 58.5624 31.1447 57.4503 31.1447 56.0785C31.1447 54.7066 30.0212 53.5945 28.6352 53.5945Z" fill="#072AC8"/>
<path d="M61.7533 29.5532H54.241C52.855 29.5532 51.7314 30.6653 51.7314 32.0372C51.7314 33.409 52.855 34.5212 54.241 34.5212H61.7533C63.1393 34.5212 64.2629 33.409 64.2629 32.0372C64.2629 30.6653 63.1393 29.5532 61.7533 29.5532Z" fill="#072AC8"/>
<path d="M61.7533 41.5756H54.241C52.855 41.5756 51.7314 42.6877 51.7314 44.0595C51.7314 45.4314 52.855 46.5435 54.241 46.5435H61.7533C63.1393 46.5435 64.2629 45.4314 64.2629 44.0595C64.2629 42.6877 63.1393 41.5756 61.7533 41.5756Z" fill="#072AC8"/>
<path d="M61.7533 53.5945H54.241C52.855 53.5945 51.7314 54.7066 51.7314 56.0785C51.7314 57.4503 52.855 58.5624 54.241 58.5624H61.7533C63.1393 58.5624 64.2629 57.4503 64.2629 56.0785C64.2629 54.7066 63.1393 53.5945 61.7533 53.5945Z" fill="#072AC8"/>
<path d="M72.1689 61.2186V56.5276H77.3701V61.2186H72.1689Z" fill="#072AC8"/>
</g>
<defs>
<clipPath id="clip0_1164_301">
<rect width="83" height="71" fill="white"/>
</clipPath>
</defs>
</svg>
