<svg width="104" height="45" viewBox="0 0 104 45" fill="none" xmlns="http://www.w3.org/2000/svg">
<g clip-path="url(#clip0_1285_3280)">
<path d="M79.2453 18.221L83.7397 26.2567L84.875 28.2991H92.594C90.7488 32.1919 87.663 34.1384 83.3366 34.1384C79.682 34.1384 76.9008 33.1451 74.9929 31.1585C73.085 29.1719 72.1288 26.2701 72.1243 22.4531C72.1243 19.0647 73.02 16.3661 74.8115 14.3571C75.7293 13.3452 76.8593 12.547 78.1214 12.0192C79.3834 11.4915 80.7465 11.2472 82.1139 11.3036H82.9537H95.0461L98.8081 5.65177L102.577 -1.86346e-05H81.9057C77.8564 -0.0609063 73.86 0.921716 70.3037 2.85266C69.9208 3.06694 69.558 3.28792 69.202 3.5223C68.9937 3.65623 68.7989 3.79686 68.5974 3.93748L68.1943 4.21873C67.9323 4.41293 67.6837 4.60713 67.4352 4.80802C67.3807 4.84675 67.329 4.88926 67.2806 4.93525C65.2924 6.56678 63.6387 8.56536 62.4101 10.8214C60.5683 14.4395 59.6084 18.4395 59.6084 22.4966C59.6084 26.5538 60.5683 30.5538 62.4101 34.1719C64.2309 37.5334 66.9856 40.3002 70.344 42.1406C73.955 44.0877 78.0091 45.0726 82.1139 45C85.4713 45.061 88.8012 44.3867 91.8685 43.0245C94.5474 41.8335 96.9579 40.1162 98.9559 37.9754L99.0097 37.9152C101.743 34.8408 103.239 30.8669 103.208 26.7589V18.221H79.2453Z" fill="white"/>
<path d="M26.8719 5.65179L22.8479 0H13.1538H0L7.53758 11.3036H13.1538H19.5896V43.7612H30.9229V11.3438L26.8719 5.65179Z" fill="white"/>
<path d="M60.1999 4.95532L60.2603 4.87497C60.4283 4.65399 60.6029 4.4397 60.7843 4.20532L60.8381 4.14506C61.2322 3.67184 61.6621 3.20309 62.1279 2.7388L62.2354 2.63167L62.8064 2.08925L63.0282 1.88837L63.5454 1.4397L63.8074 1.22542C63.9821 1.07809 64.1702 0.930777 64.3583 0.790152L64.6069 0.59595C64.8823 0.38836 65.1645 0.187465 65.4533 -0.0134277H27.6982L35.7598 11.2901H44.3051V43.7477L44.3656 43.7009V43.7477H55.6988V18.4821C55.6552 16.0668 56.0348 13.6624 56.8207 11.3772C56.9954 10.7812 57.2103 10.1785 57.4522 9.58256L57.5261 9.50889C58.1152 8.14836 58.8422 6.85144 59.696 5.63836C59.864 5.41068 60.0252 5.183 60.1999 4.95532Z" fill="white"/>
</g>
<defs>
<clipPath id="clip0_1285_3280">
<rect width="103.235" height="45" fill="white"/>
</clipPath>
</defs>
</svg>
