<svg width="64" height="82" viewBox="0 0 64 82" fill="none" xmlns="http://www.w3.org/2000/svg">
<path d="M15.7488 18.2714C15.34 12.5477 16.9752 7.84602 21.0636 4.16649C24.1299 1.50905 27.605 0.078125 31.8978 0.078125C36.8038 0.078125 40.6878 1.91784 43.9585 5.39295C47.2292 8.86806 48.4557 13.161 48.0468 18.067C49.8866 18.067 51.5219 18.067 53.1573 18.067C58.2677 18.067 61.5385 21.542 61.7429 26.6525C62.1517 36.4646 62.5606 46.2767 63.1738 56.0888C63.3783 61.6081 63.787 66.9229 63.9914 72.4422C64.1959 77.5527 60.7208 81.0277 55.6103 81.0277C39.8701 81.0277 24.1299 81.0277 8.38966 81.0277C3.2792 81.0277 -0.195856 77.5527 0.00856187 72.4422C0.417398 62.8346 0.82626 53.227 1.43951 43.6193C1.64393 38.1 2.05269 32.3762 2.25711 26.8569C2.46153 21.7464 5.73225 18.2714 10.8427 18.2714C12.2736 18.2714 13.909 18.2714 15.7488 18.2714ZM31.8978 75.7129C39.6656 75.7129 47.4336 75.7129 55.2015 75.7129C57.8589 75.7129 58.6765 74.6909 58.4721 72.2379C58.0633 62.4258 57.6545 52.4093 57.2457 42.5972C57.0412 37.2823 56.8368 32.1717 56.4279 26.8569C56.2235 24.4038 55.4059 23.7906 52.9529 23.7906C38.8481 23.7906 24.7432 23.7908 10.6383 23.9952C8.38973 23.9952 7.57199 24.8127 7.36757 26.8569C6.95873 32.1717 6.75439 37.4867 6.54997 42.8016C6.14113 52.6137 5.73222 62.4258 5.32339 72.2379C5.11897 75.0997 5.93674 75.9172 9.00301 75.9172C16.5665 75.7128 24.1299 75.7129 31.8978 75.7129ZM42.732 18.067C42.9364 13.161 41.5054 9.27705 37.4171 6.82403C33.5331 4.57543 29.4447 4.77969 25.7652 7.43713C22.0857 10.0946 21.0637 13.7742 21.2681 18.067C28.4227 18.067 35.373 18.067 42.732 18.067Z" fill="black"/>
<path d="M32.102 45.4589C24.743 45.4589 18.2016 40.5528 16.3618 33.3982C15.7486 31.354 16.5663 29.923 18.2016 29.5142C19.837 29.1053 21.0634 29.9229 21.6766 31.7627C22.6987 35.6467 24.9474 38.0998 28.6269 39.5307C34.3506 41.5749 40.4832 38.5086 42.3229 32.5804C42.5274 31.9672 42.5274 31.5582 42.7318 30.945C43.3451 29.5141 44.7759 28.9009 46.2068 29.5142C47.4333 29.923 48.2511 31.3539 47.8423 32.7848C46.2069 40.1439 39.6655 45.4589 32.102 45.4589Z" fill="black"/>
</svg>
