<svg width="75" height="75" viewBox="0 0 75 75" fill="none" xmlns="http://www.w3.org/2000/svg">
<path d="M13.0977 30.919C15.889 32.2073 17.392 34.3545 17.392 37.3605C17.392 40.5812 15.03 42.9434 11.5945 43.5876C9.01789 44.017 6.01191 42.2992 4.93833 39.7226C3.86474 36.9313 4.72356 33.4956 7.30016 31.9926C8.58846 31.3484 9.01795 30.4898 9.23266 28.9868C10.3062 20.6128 14.3858 14.1714 21.2567 9.23292C21.4715 9.23292 21.4716 9.01779 21.901 8.80307C18.895 8.80307 16.1037 8.80307 13.0977 8.80307C13.0977 9.44722 13.0977 10.0917 13.0977 10.7358C13.0977 12.2389 12.4535 13.0974 10.9505 13.0974C7.94447 13.0974 5.1532 13.0974 2.14717 13.0974C0.858867 13.0974 0 12.2389 0 10.7358C0 7.94452 0 5.15289 0 2.36157C0 0.858552 0.858815 0 2.36183 0C5.15315 0 7.94452 0 10.7358 0C12.2389 0 13.0977 0.858552 13.0977 2.36157C13.0977 3.00572 13.0977 3.43547 13.0977 4.29433C13.5271 4.29433 13.9565 4.29433 14.3859 4.29433C19.5391 4.29433 24.6922 4.29433 29.8454 4.29433C30.7043 4.29433 31.1338 4.0793 31.5633 3.43515C32.8516 1.28799 34.784 0 37.1458 0C39.7224 0 41.655 1.28799 42.9433 3.43515C43.1581 3.86459 43.8022 4.29433 44.2316 4.29433C49.5995 4.29433 54.9674 4.29433 60.55 4.29433C60.7647 4.29433 60.9795 4.29433 61.4089 4.29433C61.4089 3.65018 61.4089 3.00572 61.4089 2.36157C61.4089 0.858552 62.2678 0 63.5561 0C66.3474 0 69.3535 0 72.1448 0C73.4331 0 74.2919 0.858552 74.2919 2.36157C74.2919 5.15289 74.2919 7.94452 74.2919 10.7358C74.2919 12.2389 73.4331 13.0974 71.9301 13.0974C69.1388 13.0974 66.3474 13.0974 63.5561 13.0974C62.0531 13.0974 61.409 12.2389 61.1943 10.7358C61.1943 10.0917 61.1943 9.44722 61.1943 8.80307C58.1882 8.80307 55.3967 8.80307 52.3907 8.80307C52.6054 9.01779 52.8202 9.23261 53.0349 9.44733C60.1206 14.6005 63.9854 21.4717 65.059 30.0603C65.059 30.4898 65.4885 31.1336 65.9179 31.3483C68.7093 32.8513 69.9975 35.643 69.3533 38.649C68.7092 41.655 66.3473 43.5873 63.1265 43.802C60.5499 44.0167 57.7586 42.0843 56.685 39.5077C55.6114 36.7164 56.6852 33.4959 59.2618 31.7782C59.6912 31.5635 60.1206 31.3486 60.55 31.1339C60.3353 21.9011 52.8201 12.0241 42.7284 9.66225C42.299 10.0917 41.8696 10.7359 41.4402 11.3801C38.6489 14.1714 33.9251 13.9564 31.5633 10.5209C31.1338 9.87676 30.7043 9.66194 29.8454 9.87665C20.6126 12.4533 14.1713 20.6126 13.0977 30.919ZM4.07941 8.58867C5.58243 8.58867 6.87073 8.58867 8.37374 8.58867C8.37374 7.08565 8.37374 5.79704 8.37374 4.50874C6.87073 4.50874 5.58243 4.50874 4.07941 4.50874C4.07941 5.79704 4.07941 7.08565 4.07941 8.58867ZM69.568 8.58867C69.568 7.08565 69.568 5.79704 69.568 4.50874C68.065 4.50874 66.7769 4.50874 65.4886 4.50874C65.4886 6.01175 65.4886 7.30037 65.4886 8.58867C66.7769 8.58867 68.065 8.58867 69.568 8.58867ZM39.0783 6.4415C39.0783 5.36792 38.0048 4.29433 36.9312 4.29433C35.8576 4.29433 34.784 5.1532 34.784 6.4415C34.784 7.51509 35.8576 8.58867 36.9312 8.58867C38.0048 8.58867 39.0783 7.51509 39.0783 6.4415ZM12.883 37.1461C12.883 35.8578 12.0241 34.9989 10.7358 34.9989C9.44754 34.9989 8.58867 35.8578 8.58867 37.1461C8.58867 38.2197 9.44754 39.0785 10.7358 39.2933C12.0241 39.2933 12.883 38.4344 12.883 37.1461ZM62.9118 39.2933C64.2001 39.2933 65.059 38.4344 65.059 37.1461C65.059 36.0725 64.2001 34.9989 63.1265 34.9989C61.8382 34.9989 60.9794 35.8576 60.7647 36.9312C60.7647 38.2195 61.6235 39.2933 62.9118 39.2933Z" fill="black"/>
<path d="M36.7161 74.2921C32.6365 74.2921 28.342 74.2921 24.2624 74.2921C22.33 74.2921 21.4713 73.4337 21.4713 71.5012C21.686 68.7099 22.7596 66.3479 24.692 64.4155C25.3362 63.7713 25.5507 63.1272 25.336 62.2683C24.2624 57.1151 22.1154 52.3913 18.4652 48.3117C16.5327 46.3793 16.5326 45.7352 18.0356 43.588C23.4035 35.4288 28.9861 27.2693 34.1393 19.11C35.4276 17.1776 37.3603 16.9628 38.8633 19.11C44.2312 27.484 49.8137 35.6434 55.3964 44.0174C56.4699 45.7351 56.47 46.5938 54.967 48.0968C51.3168 51.9617 48.9549 56.6854 47.8813 62.0534C47.6666 63.1269 47.6667 63.771 48.5255 64.6299C50.458 66.5623 51.5316 69.1392 51.7463 71.9305C51.7463 73.6483 51.102 74.507 49.1695 74.507C45.3046 74.2923 41.0104 74.2921 36.7161 74.2921ZM43.8016 61.1947C43.8016 60.98 44.0165 60.5506 44.0165 60.1211C45.0901 54.9679 47.2372 50.4586 50.6727 46.3789C51.3168 45.7348 51.3168 45.3056 50.6727 44.4467C47.2372 39.2935 43.8017 34.1404 40.3662 28.9872C39.9367 28.343 39.5074 27.6989 39.0779 26.84C39.0779 31.3491 39.0779 35.4285 39.0779 39.5081C43.1576 41.4406 43.587 44.6615 43.1576 47.2381C42.5135 50.2442 39.7221 52.3914 36.9308 52.1767C34.1395 52.1767 31.5628 50.2442 30.7039 47.2381C29.8451 44.2321 31.1334 41.4409 34.7836 39.2937C34.7836 35.2141 34.7836 31.134 34.7836 27.0544C34.5689 27.0544 34.5689 27.0546 34.5689 27.2694C30.704 33.0667 26.8391 38.8643 22.9742 44.6616C22.7595 44.8763 22.9741 45.7349 23.1888 45.9496C25.7654 49.1704 27.6981 52.6061 28.9864 56.471C29.4158 57.9741 29.8452 59.4768 30.2746 60.9798C34.5689 61.1945 39.0778 61.1947 43.8016 61.1947ZM26.4096 69.9978C33.4952 69.9978 40.1514 69.9978 47.0223 69.9978C46.3782 67.8506 44.6606 65.9182 42.2987 65.7034C38.6485 65.4887 34.9984 65.4887 31.3482 65.7034C28.9863 65.9182 27.2685 67.6359 26.4096 69.9978ZM36.7161 47.8824C38.0044 47.8824 38.8632 47.0235 39.0779 45.7352C39.0779 44.6616 38.0044 43.588 36.9308 43.588C35.8572 43.588 34.7836 44.4467 34.7836 45.5203C34.5689 46.8086 35.6425 47.8824 36.7161 47.8824Z" fill="black"/>
</svg>
