<svg width="71" height="83" viewBox="0 0 71 83" fill="none" xmlns="http://www.w3.org/2000/svg">
<path d="M41.6327 65.5489C37.9825 65.5489 34.5471 65.5489 30.8969 65.5489C23.3818 65.5489 19.517 61.4695 19.3022 53.9544C19.3022 47.7276 19.3022 41.286 19.3022 35.0592C19.3022 32.9121 18.6581 30.9795 16.511 29.906C13.9343 28.6177 12.2166 29.6914 12.2166 32.6974C12.2166 38.0653 12.2166 43.4332 12.2166 48.8011C12.2166 51.8072 11.143 54.3837 9.21053 56.5309C7.49279 58.2486 5.77501 59.9664 4.05727 61.6841C2.98369 62.7577 1.69544 63.4018 0.621858 62.1135C-0.451726 61.0399 -0.022266 59.7516 1.05132 58.8927L1.26598 58.6781C9.63994 50.0894 8.13694 53.5249 8.13694 41.5007C8.13694 38.7094 8.13694 35.9181 8.13694 32.9121C8.13694 26.6853 12.0018 24.1088 17.7992 26.0412C18.2286 26.2559 18.4434 26.2558 19.3022 26.4705C19.3022 22.1762 19.517 18.0965 19.3022 14.0169C18.6581 3.92519 24.2407 -0.583866 33.2588 0.0602847C39.0562 0.489718 44.8536 0.0602847 50.8656 0.0602847C57.9513 0.0602847 62.2455 4.35467 62.4603 11.655C62.4603 12.9433 62.4603 14.2317 62.4603 15.52C62.4603 17.2378 62.4603 18.7406 63.7486 20.4584C65.4664 22.8203 65.2516 25.3969 63.9633 27.9735C68.2576 32.9119 68.4724 33.9856 67.1841 38.4946C68.4724 40.6418 69.9753 42.1448 70.6195 44.0772C71.6931 48.1568 69.3312 52.0219 65.2515 53.0955C63.5338 53.5249 62.675 54.1691 62.4603 56.1016C61.8161 61.8989 57.9512 65.1195 52.1539 65.5489C51.0803 65.5489 49.792 66.1933 48.7185 66.8374C43.5653 69.8434 39.0561 73.9231 33.044 75.4261C31.9704 75.6408 31.1117 76.2847 30.0381 76.2847C25.9585 76.07 23.1672 78.2173 20.8053 81.2233C19.9464 82.2969 18.658 83.1559 17.3697 81.8676C15.8667 80.5793 16.9403 79.2911 18.0139 78.2175C19.3022 77.1439 20.1611 75.6407 21.6641 74.7818C22.9524 73.923 24.6702 72.8493 26.1732 72.8493C31.9706 71.9904 37.1237 69.6285 41.6327 65.5489ZM48.0742 32.4827C45.0682 30.3356 43.5653 27.5442 44.4241 23.8941C45.283 20.4586 47.6448 18.7407 51.0803 17.8819C53.4422 17.4524 55.5893 16.8082 58.1659 16.164C58.1659 14.661 58.1659 12.9434 58.1659 11.2257C58.1659 6.93138 55.3746 4.35462 51.0803 4.35462C44.2094 4.35462 37.3385 4.35462 30.4675 4.35462C25.9585 4.35462 23.3818 6.71666 23.3818 11.2257C23.3818 25.6117 23.3818 39.9977 23.3818 54.3837C23.3818 59.1075 25.7437 61.2548 30.2527 61.4695C36.909 61.4695 43.5652 61.4695 50.4362 61.4695C55.1599 61.4695 57.5217 59.3223 57.7365 55.028C50.4361 52.8808 48.9331 50.7334 50.6508 43.0036C47.0006 39.7829 46.3565 37.2065 48.0742 32.4827ZM52.5833 29.262C54.3011 28.8325 56.6629 28.1883 58.81 27.3295C60.5278 26.6853 60.9573 24.9675 60.5279 23.4645C60.0984 21.7467 58.8101 20.6732 56.8777 21.1026C54.7305 21.5321 52.3686 21.9616 50.4362 22.8205C48.9332 23.4646 48.0742 24.9675 48.5037 26.6852C48.9331 28.4029 50.2215 29.262 52.5833 29.262ZM55.5893 39.9978C57.307 39.5684 59.669 38.9242 61.8161 38.0653C63.5339 37.4212 63.9633 35.7034 63.3192 33.9856C62.8897 32.2679 61.3867 31.4091 59.669 31.6238C57.5218 32.0532 55.3746 32.4825 53.2275 33.3414C51.5097 33.9855 50.8655 35.4887 51.295 37.2064C51.7244 38.9241 53.0127 39.9978 55.5893 39.9978ZM66.3251 45.7951C66.3251 43.6479 64.6075 42.1449 62.675 42.3596C60.5279 42.7891 58.3807 43.4331 56.4482 44.0772C54.5158 44.7214 53.8716 46.4391 54.5157 48.3716C55.1599 50.0893 56.6629 50.9482 58.5954 50.5187C60.3131 50.0893 62.0309 49.66 63.7486 49.0158C65.4664 48.5864 66.5398 47.5128 66.3251 45.7951Z" fill="black"/>
<path d="M40.9887 58.8928C42.4118 58.8928 43.5654 57.7393 43.5654 56.3163C43.5654 54.8932 42.4118 53.7395 40.9887 53.7395C39.5657 53.7395 38.4121 54.8932 38.4121 56.3163C38.4121 57.7393 39.5657 58.8928 40.9887 58.8928Z" fill="black"/>
</svg>
