<svg width="75" height="75" viewBox="0 0 75 75" fill="none" xmlns="http://www.w3.org/2000/svg">
<path d="M69.7829 19.9688C48.0965 19.9688 26.625 19.9688 4.93859 19.9688C4.93859 20.6129 4.93859 21.0422 4.93859 21.4717C4.93859 32.6369 4.93859 44.017 4.93859 55.1822C4.93859 58.6177 6.01217 59.6914 9.23292 59.6914C9.66236 59.6914 10.3064 59.6913 10.7358 59.906C11.8094 60.3354 12.4537 61.1943 12.4537 62.2678C12.4537 63.3414 11.8095 64.4151 10.5212 64.6298C5.58269 65.274 1.50323 63.1267 0.214926 58.403C0.000209681 57.9735 0 57.3294 0 56.6853C0 40.3668 0 24.263 0 7.94454C0 3.43549 3.65034 0 7.94468 0C27.4839 0 47.023 0 66.5622 0C71.0712 0 74.5069 3.43549 74.5069 7.94454C74.5069 24.263 74.5069 40.3668 74.5069 56.6853C74.5069 60.9796 71.0712 64.6298 66.5622 64.6298C63.3414 64.6298 60.3356 64.6298 57.1149 64.6298C55.6118 64.6298 54.5381 63.5561 54.5381 62.2678C54.5381 60.7648 55.3971 59.6914 57.1149 59.6914C59.9062 59.6914 62.9122 59.6914 65.7035 59.6914C68.0654 59.6914 69.3536 58.403 69.3536 56.0411C69.3536 44.2317 69.3536 32.4223 69.3536 20.6129C69.7831 20.6129 69.7829 20.1835 69.7829 19.9688ZM69.7829 14.8155C69.7829 12.8831 69.7829 11.1653 69.7829 9.44759C69.7829 6.01212 68.7094 4.93859 65.2739 4.93859C46.5936 4.93859 27.9132 4.93859 9.44759 4.93859C9.01816 4.93859 8.58877 4.93859 8.15934 4.93859C6.44161 5.15331 5.15325 6.01215 5.15325 7.72988C4.93854 10.0918 5.15325 12.4536 5.15325 14.8155C26.6249 14.8155 48.0965 14.8155 69.7829 14.8155Z" fill="black"/>
<path d="M27.6988 52.3908C25.5516 50.8878 23.4044 49.3848 21.472 47.8818C20.6131 47.2377 19.969 46.3788 20.1837 45.3052C20.3984 44.0169 21.0426 43.5875 22.3309 43.158C33.7109 39.2931 45.0909 35.643 56.4709 31.7781C57.5445 31.3486 58.6182 31.3486 59.2623 32.4222C59.6917 33.0663 60.1211 34.3546 59.6916 35.2135C55.8267 46.8082 52.1765 58.1882 48.0969 69.5682C47.8822 70.2123 47.0232 71.0711 46.1644 71.2859C45.0908 71.7153 44.232 71.0711 43.5879 70.2123C42.0849 68.0651 40.582 66.1327 38.8642 63.5561C38.2201 64.415 37.5759 65.0591 36.9317 65.9179C34.5698 68.2798 32.2078 70.6417 29.846 73.0036C28.3429 74.5066 27.0546 74.5066 25.5516 73.0036C23.1897 70.6417 20.828 68.2798 18.4661 65.9179C16.9631 64.4149 16.9631 63.1266 18.4661 61.6236C21.4722 58.4029 24.478 55.3969 27.6988 52.3908ZM53.2501 38.0048C44.6615 40.7961 36.2875 43.5874 27.6988 46.5934C29.4165 47.8817 30.9197 48.9553 32.4227 49.8142C34.3552 51.1025 34.3551 52.6056 32.852 54.3233C30.2754 56.8999 27.6989 59.4765 25.1223 62.0531C24.4781 62.6972 23.8339 63.1267 23.1898 63.5561C23.4045 63.5561 23.6193 63.5561 23.834 63.5561C25.1223 65.0591 26.4105 66.3474 27.6988 67.8504C30.7048 64.6297 33.9257 61.6237 36.9317 58.6177C38.6495 56.8999 40.1524 57.1145 41.4407 59.047C42.5143 60.55 43.5879 62.0531 44.6615 63.5561C47.6675 54.9674 50.4588 46.5934 53.2501 38.0048Z" fill="black"/>
<path d="M22.5456 9.87741C22.5456 11.1657 21.2574 12.454 19.9691 12.454C18.6808 12.454 17.3926 11.1657 17.3926 9.87741C17.3926 8.58911 18.6808 7.5155 19.7544 7.30078C21.0427 7.30078 22.3309 8.58911 22.5456 9.87741Z" fill="black"/>
<path d="M24.9072 9.87711C24.9072 8.3741 26.1954 7.30043 27.4837 7.51515C28.772 7.51515 29.8456 8.80348 29.8456 10.0918C29.8456 11.3801 28.5574 12.4537 27.2691 12.4537C25.9808 12.4537 24.9072 11.1654 24.9072 9.87711Z" fill="black"/>
<path d="M14.8153 9.87716C14.8153 11.1655 13.5271 12.4538 12.2388 12.4538C10.9505 12.4538 9.87695 11.1655 9.87695 9.87716C9.87695 8.58886 10.9504 7.30054 12.4534 7.30054C13.7417 7.30054 15.03 8.58886 14.8153 9.87716Z" fill="black"/>
</svg>
