<svg width="24" height="24" viewBox="0 0 24 24" fill="none" xmlns="http://www.w3.org/2000/svg">
<g clip-path="url(#clip0_1225_1617)">
<path d="M17.3058 15.5901L19.9045 18.1861C21.1312 19.4132 22.3635 20.6329 23.579 21.8703C24.3053 22.6096 24.0532 23.6858 23.1104 23.9522C22.5809 24.1014 22.1733 23.8725 21.8134 23.5066C20.439 22.1212 19.0589 20.7386 17.6732 19.3588C16.99 18.6739 16.3096 17.9853 15.6115 17.2797C13.04 19.1346 10.2417 19.7735 7.17726 18.9685C4.86816 18.3615 3.02857 17.0499 1.68566 15.0769C-1.05171 11.0529 -0.396651 5.74932 3.22537 2.43749C6.63748 -0.682015 12.0344 -0.808672 15.6621 2.06221C19.2897 4.93309 20.8416 10.7874 17.3058 15.5901ZM2.40538 9.64283C2.4045 10.5971 2.59206 11.5422 2.95726 12.4237C3.32246 13.3052 3.85811 14.1057 4.5334 14.7792C5.20869 15.4528 6.01031 15.986 6.89216 16.3483C7.77401 16.7106 8.71871 16.8948 9.67192 16.8904C10.6211 16.8935 11.5616 16.7089 12.4394 16.3471C13.3172 15.9853 14.1149 15.4536 14.7869 14.7824C15.4588 14.1111 15.9917 13.3137 16.355 12.4357C16.7183 11.5577 16.9048 10.6166 16.9038 9.66628C16.9111 8.71181 16.7292 7.76537 16.3685 6.88179C16.0079 5.99821 15.4757 5.19506 14.8028 4.51886C14.1299 3.84266 13.3296 3.30687 12.4484 2.9425C11.5672 2.57814 10.6225 2.39245 9.66911 2.3962C8.7163 2.39237 7.77212 2.57709 6.89086 2.93976C6.00959 3.30243 5.20861 3.8359 4.53395 4.50949C3.85929 5.18308 3.32427 5.98352 2.95962 6.8648C2.59497 7.74607 2.40789 8.69081 2.40913 9.64471L2.40538 9.64283Z" fill="#072AC8"/>
</g>
<defs>
<clipPath id="clip0_1225_1617">
<rect width="24" height="24" fill="white"/>
</clipPath>
</defs>
</svg>
