<svg width="54" height="54" viewBox="0 0 54 54" fill="none" xmlns="http://www.w3.org/2000/svg">
<g clip-path="url(#clip0_1117_184)">
<path d="M27.6302 0C29.586 0.0252967 31.9275 0.862199 33.8264 2.70464C35.3439 4.18028 37.0974 4.88437 39.2028 4.98977C44.8427 5.27436 48.7037 9.15951 48.9946 14.8344C49.0608 16.8143 49.8609 18.6988 51.2391 20.1214C53.0133 21.9671 54.0042 24.428 54.0042 26.9884C54.0042 29.5488 53.0133 32.0097 51.2391 33.8554C49.8629 35.279 49.0645 37.1632 48.9988 39.1424C48.71 44.8131 44.8427 48.6982 39.2007 48.9828C37.187 49.0489 35.2704 49.8646 33.8264 51.2701C31.9873 53.0243 29.5435 54.0029 27.0021 54.0029C24.4608 54.0029 22.017 53.0243 20.1779 51.2701C18.7315 49.8665 16.8136 49.0531 14.7993 48.9892C9.20798 48.7088 5.29635 44.8194 5.01604 39.2478C4.95207 37.199 4.12526 35.248 2.69772 33.7774C0.970442 31.9399 0.00878906 29.5127 0.00878906 26.9905C0.00878906 24.4683 0.970442 22.0411 2.69772 20.2036C4.12767 18.7303 4.95468 16.7751 5.01604 14.7227C5.29002 9.19956 9.19534 5.27225 14.6961 5.00453C16.8795 4.89491 18.6857 4.16131 20.2537 2.63929C22.043 0.887496 24.4583 0.00843223 27.6302 0ZM44.4907 27.0654C44.5202 17.4126 36.6927 9.5242 27.0822 9.49469C17.4717 9.46517 9.54098 17.2945 9.51358 26.9072C9.48618 36.52 17.3116 44.4505 26.9242 44.48C36.5368 44.5095 44.4507 36.6865 44.4886 27.0654H44.4907Z" fill="white"/>
<path d="M12.666 27.0316C12.6599 23.2305 14.1608 19.5821 16.8398 16.8863C19.5189 14.1904 23.1573 12.6672 26.9574 12.6504C30.757 12.6437 34.4043 14.1442 37.0995 16.8231C39.7947 19.5019 41.3179 23.1405 41.3352 26.9409C41.3414 30.7418 39.8408 34.3901 37.1623 37.0862C34.4838 39.7824 30.8459 41.3064 27.0459 41.3242C23.2461 41.3298 19.599 39.8287 16.9036 37.1497C14.2082 34.4707 12.6844 30.8323 12.666 27.0316ZM25.7034 32.7023L34.1505 24.2532C34.4222 23.9821 34.5758 23.6146 34.5778 23.2308C34.5797 22.847 34.43 22.478 34.1611 22.2041L34.14 22.183C34.0044 22.0462 33.8431 21.9376 33.6653 21.8635C33.4875 21.7893 33.2968 21.7512 33.1041 21.7512C32.9115 21.7512 32.7208 21.7893 32.543 21.8635C32.3652 21.9376 32.2039 22.0462 32.0683 22.183L24.6138 29.6561L22.0047 26.8313C21.7428 26.5482 21.3792 26.3806 20.9938 26.3656C20.6084 26.3506 20.2329 26.4893 19.9498 26.7512L19.8865 26.8081C19.7414 26.9414 19.6247 27.1028 19.5437 27.2825C19.4627 27.4622 19.419 27.6565 19.4153 27.8536C19.4115 28.0507 19.4478 28.2465 19.522 28.4291C19.5961 28.6118 19.7065 28.7775 19.8465 28.9162C21.1342 30.2042 22.4051 31.4733 23.6401 32.7107C23.7758 32.8462 23.937 32.9536 24.1144 33.0265C24.2917 33.0995 24.4818 33.1367 24.6735 33.1359C24.8653 33.1351 25.055 33.0964 25.2318 33.022C25.4085 32.9475 25.5688 32.8389 25.7034 32.7023Z" fill="white"/>
</g>
<defs>
<clipPath id="clip0_1117_184">
<rect width="54" height="54" fill="white"/>
</clipPath>
</defs>
</svg>
