<svg width="63" height="63" viewBox="0 0 63 63" fill="none" xmlns="http://www.w3.org/2000/svg">
<circle cx="31.5" cy="31.5" r="31.5" fill="#6DA1FF" fill-opacity="0.55"/>
<g clip-path="url(#clip0_58_8)">
<path d="M31.4713 46.9963C22.7904 47.1213 14.9861 40.1308 14.999 30.9894C15.0106 22.1781 22.441 14.9825 31.5332 15C40.6487 15.015 48.0287 22.2181 47.999 31.1145C47.9745 40.2109 40.1471 47.1626 31.4713 46.9963ZM31.4571 44.045C38.792 44.075 44.866 38.2575 44.9124 31.1645C44.9575 23.9264 38.9648 18.0226 31.5513 18.0026C24.1802 17.9813 18.1192 23.7988 18.0818 30.9306C18.0457 38.2025 23.974 44.0137 31.4584 44.045H31.4571Z" fill="#072AC8"/>
<path d="M29.1219 34.3433C29.2259 34.1739 29.3427 34.0122 29.4713 33.8594C32.2502 31.0156 35.0304 28.174 37.8118 25.3344C38.2463 24.8905 38.7221 24.5504 39.3835 24.6529C39.974 24.7442 40.4304 25.0681 40.6161 25.6296C40.7189 25.8952 40.7408 26.1838 40.6793 26.4611C40.6179 26.7385 40.4755 26.9929 40.2693 27.194C39.0676 28.4158 37.875 29.6438 36.6747 30.8668C34.5877 32.9952 32.4981 35.1211 30.406 37.2446C29.4764 38.1862 28.6654 38.1837 27.7088 37.2571L22.8777 32.5688C22.0538 31.7685 21.9752 30.8731 22.6637 30.2178C23.3522 29.5625 24.2392 29.6425 25.0902 30.4679C26.2471 31.5859 27.4023 32.7051 28.5558 33.8256C28.7041 33.9719 28.8614 34.107 29.1219 34.3433Z" fill="#072AC8"/>
</g>
<defs>
<clipPath id="clip0_58_8">
<rect width="33" height="32" fill="white" transform="translate(15 15)"/>
</clipPath>
</defs>
</svg>
