<svg width="24" height="24" viewBox="0 0 24 24" fill="none" xmlns="http://www.w3.org/2000/svg">
<g clip-path="url(#clip0_1175_11714)">
<path d="M11.9789 23.9972C5.66546 24.091 -0.0103418 18.8481 -0.00096496 11.992C0.00747419 5.38358 5.41134 -0.0131067 12.0239 2.39104e-05C18.6533 0.0112787 24.0206 5.4136 23.999 12.0858C23.9812 18.9081 18.2885 24.1219 11.9789 23.9972ZM11.9686 21.7838C17.303 21.8063 21.7205 17.4431 21.7542 12.1234C21.787 6.69478 17.4287 2.26694 12.037 2.25193C6.67628 2.23599 2.26823 6.59911 2.24104 11.948C2.21478 17.4019 6.52625 21.7603 11.9695 21.7838H11.9686Z" fill="#072AC8"/>
<path d="M10.2697 14.5077C10.3454 14.3806 10.4304 14.2593 10.5238 14.1447C12.5449 12.0119 14.5668 9.88068 16.5897 7.75102C16.9057 7.41806 17.2517 7.16295 17.7327 7.23986C18.1622 7.30833 18.4942 7.55124 18.6292 7.97236C18.7039 8.17155 18.7199 8.38803 18.6752 8.59603C18.6305 8.80404 18.5269 8.99483 18.3769 9.14568C17.503 10.062 16.6357 10.983 15.7627 11.9003C14.2449 13.4966 12.7252 15.091 11.2037 16.6836C10.5276 17.3898 9.93778 17.388 9.24202 16.693L5.72853 13.1768C5.12935 12.5765 5.07215 11.905 5.57287 11.4135C6.07359 10.9221 6.71872 10.9821 7.33759 11.6011C8.17901 12.4396 9.01917 13.279 9.85809 14.1194C9.96592 14.2291 10.0803 14.3304 10.2697 14.5077Z" fill="#072AC8"/>
</g>
<defs>
<clipPath id="clip0_1175_11714">
<rect width="24" height="24" fill="white"/>
</clipPath>
</defs>
</svg>
