<svg width="95" height="95" viewBox="0 0 95 95" fill="none" xmlns="http://www.w3.org/2000/svg">
<circle cx="47.25" cy="47.75" r="47.25" fill="#F6F6F6"/>
<g clip-path="url(#clip0_1758_303)">
<path d="M47.2084 70.9943C34.187 71.1819 22.4807 60.6961 22.5 46.984C22.5174 33.767 33.6629 22.9737 47.3013 22.9999C60.9744 23.0224 72.0445 33.8271 72 47.1716C71.9633 60.8162 60.2221 71.2438 47.2084 70.9943ZM47.1872 66.5674C58.1895 66.6124 67.3005 57.8862 67.3701 47.2466C67.4378 36.3894 58.4487 27.5338 47.3283 27.5037C36.2718 27.4718 27.1802 36.1981 27.1242 46.8958C27.07 57.8036 35.9624 66.5205 47.1891 66.5674H47.1872Z" fill="#072AC8"/>
<path d="M43.6862 52.015C43.8423 51.7609 44.0175 51.5182 44.2103 51.289C48.3787 47.0235 52.549 42.761 56.7212 38.5017C57.3729 37.8358 58.0865 37.3255 59.0787 37.4794C59.9644 37.6163 60.6491 38.1021 60.9276 38.9444C61.0817 39.3427 61.1147 39.7757 61.0224 40.1917C60.9302 40.6077 60.7167 40.9893 60.4073 41.291C58.6049 43.1237 56.8159 44.9657 55.0154 46.8002C51.8849 49.9929 48.7506 53.1817 45.6124 56.3668C44.218 57.7793 43.0016 57.7756 41.5666 56.3856L34.32 49.3532C33.0842 48.1527 32.9662 46.8096 33.9989 45.8267C35.0317 44.8438 36.3623 44.9638 37.6387 46.2018C39.3741 47.8788 41.1069 49.5577 42.8372 51.2384C43.0596 51.4579 43.2955 51.6604 43.6862 52.015Z" fill="#072AC8"/>
</g>
<defs>
<clipPath id="clip0_1758_303">
<rect width="49.5" height="48" fill="white" transform="translate(22.5 23)"/>
</clipPath>
</defs>
</svg>
