<svg width="95" height="95" viewBox="0 0 95 95" fill="none" xmlns="http://www.w3.org/2000/svg">
<circle cx="47.752" cy="47.75" r="47.25" fill="white"/>
<g clip-path="url(#clip0_1758_304)">
<path d="M47.7104 70.9943C34.689 71.1819 22.9826 60.6961 23.002 46.984C23.0194 33.767 34.1649 22.9737 47.8032 22.9999C61.4764 23.0224 72.5464 33.8271 72.502 47.1716C72.4652 60.8162 60.7241 71.2438 47.7104 70.9943ZM47.6891 66.5674C58.6915 66.6124 67.8024 57.8862 67.872 47.2466C67.9397 36.3894 58.9506 27.5338 47.8303 27.5037C36.7738 27.4718 27.6822 36.1981 27.6261 46.8958C27.572 57.8036 36.4644 66.5205 47.6911 66.5674H47.6891Z" fill="#072AC8"/>
<path d="M44.1843 52.015C44.3404 51.7609 44.5155 51.5182 44.7084 51.289C48.8767 47.0235 53.047 42.761 57.2192 38.5017C57.871 37.8358 58.5846 37.3255 59.5767 37.4794C60.4625 37.6163 61.1471 38.1021 61.4256 38.9444C61.5798 39.3427 61.6127 39.7757 61.5205 40.1917C61.4282 40.6077 61.2147 40.9893 60.9054 41.291C59.1029 43.1237 57.314 44.9657 55.5134 46.8002C52.383 49.9929 49.2487 53.1817 46.1105 56.3668C44.7161 57.7793 43.4996 57.7756 42.0646 56.3856L34.818 49.3532C33.5822 48.1527 33.4642 46.8096 34.497 45.8267C35.5297 44.8438 36.8603 44.9638 38.1367 46.2018C39.8721 47.8788 41.605 49.5577 43.3352 51.2384C43.5576 51.4579 43.7936 51.6604 44.1843 52.015Z" fill="#072AC8"/>
</g>
<defs>
<clipPath id="clip0_1758_304">
<rect width="49.5" height="48" fill="white" transform="translate(23.002 23)"/>
</clipPath>
</defs>
</svg>
