<svg width="26" height="32" viewBox="0 0 26 32" fill="none" xmlns="http://www.w3.org/2000/svg">
<g clip-path="url(#clip0_1280_366)">
<path d="M21.2717 13.7245C22.4174 13.7245 23.4936 13.7245 24.5699 13.7245C25.5709 13.7245 25.9975 14.1414 25.9975 15.1164C25.9975 20.2803 25.9975 25.4433 25.9975 30.6053C25.9975 31.5818 25.5723 31.9958 24.5684 31.9972C16.8648 31.9972 9.16024 31.9972 1.45468 31.9972C0.413854 31.9972 0.00195312 31.5861 0.00195312 30.5582C0.00195312 25.4191 0.00195312 20.2799 0.00195312 15.1407C0.00195312 14.1271 0.422713 13.7245 1.4783 13.7245C6.96737 13.7245 12.4564 13.7245 17.9455 13.7245H18.8697C18.8874 13.4704 18.9155 13.2635 18.9125 13.0579C18.8712 10.9922 19.0144 8.90228 18.7324 6.86659C18.3382 4.01148 15.4342 2.04146 12.4579 2.3127C9.5126 2.57965 7.15634 4.99792 7.09581 7.83019C7.07957 8.61391 7.09582 9.4005 7.08843 10.1842C7.08105 10.9679 6.6219 11.439 5.89554 11.4305C5.19575 11.4205 4.73365 10.9708 4.7366 10.227C4.74546 8.61534 4.60226 6.99793 5.1677 5.42476C6.40341 1.97437 9.95846 -0.285443 13.7158 0.0300456C17.4731 0.345535 20.5837 3.11356 21.1285 6.691C21.2924 7.76452 21.2511 8.87087 21.2762 9.96152C21.288 11.1921 21.2717 12.4226 21.2717 13.7245ZM2.39512 29.6689H23.5807V16.0429H2.39512V29.6689Z" fill="#072AC8"/>
<path d="M14.1789 22.8837C14.1789 23.6217 14.1922 24.3597 14.1789 25.0978C14.1656 25.8358 13.705 26.2869 12.9978 26.2869C12.2906 26.2869 11.8285 25.8387 11.8167 25.0992C11.802 23.6003 11.802 22.1014 11.8167 20.6024C11.8256 19.8801 12.3276 19.4276 13.0273 19.449C13.7006 19.469 14.1479 19.9029 14.1656 20.5996C14.1937 21.3562 14.1789 22.1171 14.1789 22.8837Z" fill="#072AC8"/>
</g>
<defs>
<clipPath id="clip0_1280_366">
<rect width="26" height="32" fill="white"/>
</clipPath>
</defs>
</svg>
