<svg width="30" height="30" viewBox="0 0 30 30" fill="none" xmlns="http://www.w3.org/2000/svg">
<g clip-path="url(#clip0_1280_271)">
<path d="M14.7873 0C19.9285 0.0913634 23.9984 1.68085 27.0438 5.44549C28.9943 7.85491 30.0411 10.6157 29.9989 13.7502C29.9391 18.2094 26.6816 21.4809 22.2143 21.5747C21.0632 21.5981 19.911 21.666 18.7599 21.6543C16.9594 21.6367 15.3136 23.9571 16.7835 25.843C17.2794 26.479 17.5771 27.1876 17.3919 28.0181C17.1211 29.2375 16.1353 29.9988 14.7779 30C11.5731 30 8.65671 29.0559 6.10953 27.1267C1.83453 23.8904 -0.22033 19.5459 0.0141091 14.1953C0.321224 7.20131 5.6512 1.31071 12.5566 0.249493C13.4229 0.115962 14.295 0.0527097 14.7873 0ZM1.72083 15.1218C1.77006 15.7036 1.82007 16.2861 1.87087 16.8694C1.87692 16.9664 1.88827 17.063 1.90486 17.1588C3.05244 22.876 6.42719 26.513 12.0948 27.9525C12.9716 28.1751 13.9081 28.2102 14.8201 28.2278C15.6125 28.243 15.8751 27.6737 15.4613 27.0119C15.3992 26.9136 15.3312 26.8187 15.2655 26.7215C14.3172 25.3323 14.1684 23.8681 14.9291 22.3594C15.6805 20.8683 16.9043 20.0168 18.5864 19.9219C19.7363 19.8551 20.8886 19.8434 22.0408 19.8224C25.7286 19.7532 28.2042 17.2958 28.2371 13.6143C28.2605 10.7797 27.2466 8.30119 25.3851 6.20217C22.1205 2.52069 17.9088 1.30955 13.1626 1.92918C6.53855 2.79596 1.72903 8.43472 1.72083 15.1218Z" fill="#072AC8"/>
<path d="M9.64261 18.6534C9.63334 18.9989 9.55604 19.3393 9.41511 19.655C9.27419 19.9707 9.0724 20.2556 8.82128 20.4934C8.57015 20.7312 8.27462 20.9172 7.95154 21.0408C7.62846 21.1644 7.28418 21.2232 6.93835 21.2139C6.25025 21.1858 5.60039 20.8901 5.12753 20.3898C4.65468 19.8895 4.3963 19.2243 4.40758 18.5362C4.41195 18.1853 4.48686 17.8388 4.62787 17.5173C4.76889 17.1959 4.97312 16.906 5.22844 16.665C5.48375 16.4239 5.78495 16.2366 6.11413 16.1142C6.44331 15.9918 6.79376 15.9367 7.14466 15.9523C7.83257 15.9845 8.48016 16.2859 8.94755 16.7913C9.41494 17.2967 9.6646 17.9656 9.64261 18.6534ZM7.88431 18.5995C7.88745 18.4836 7.86729 18.3683 7.82503 18.2603C7.78277 18.1523 7.71927 18.054 7.63828 17.971C7.55729 17.888 7.46047 17.822 7.35353 17.7771C7.2466 17.7321 7.13173 17.7091 7.01572 17.7093C6.79063 17.7138 6.57609 17.8055 6.41733 17.965C6.25857 18.1245 6.168 18.3394 6.1647 18.5643C6.16206 18.6806 6.18259 18.7962 6.2251 18.9044C6.26761 19.0126 6.33125 19.1113 6.41231 19.1947C6.49337 19.2781 6.59023 19.3445 6.69725 19.3902C6.80427 19.4358 6.9193 19.4597 7.03564 19.4604C7.26096 19.4538 7.47505 19.3606 7.63335 19.2003C7.79165 19.0399 7.88196 18.8247 7.88549 18.5995H7.88431Z" fill="#072AC8"/>
<path d="M23.9749 8.92432C24.6749 8.93295 25.3434 9.21689 25.8353 9.7146C26.3272 10.2123 26.6031 10.8837 26.603 11.5832C26.5871 12.2717 26.3052 12.9274 25.8165 13.413C25.3277 13.8985 24.6699 14.1763 23.9808 14.1883C23.2805 14.187 22.6089 13.9096 22.1122 13.4163C21.6155 12.923 21.3337 12.2537 21.3281 11.5539C21.3328 10.8553 21.6136 10.1869 22.1094 9.69426C22.6052 9.20168 23.2758 8.92492 23.9749 8.92432ZM23.9644 10.6813C23.7387 10.6854 23.5229 10.7746 23.3603 10.931C23.1977 11.0874 23.1003 11.2995 23.0876 11.5247C23.0832 11.7603 23.1721 11.9882 23.335 12.1586C23.4979 12.3291 23.7216 12.4283 23.9574 12.4348C24.1835 12.4299 24.3995 12.3405 24.5627 12.1841C24.726 12.0277 24.8245 11.8158 24.8389 11.5903C24.8417 11.3544 24.7516 11.1268 24.588 10.9568C24.4244 10.7867 24.2004 10.6877 23.9644 10.6813Z" fill="#072AC8"/>
<path d="M16.0527 6.29466C16.0555 5.59579 16.3342 4.92628 16.8283 4.43166C17.3224 3.93705 17.992 3.65733 18.6913 3.65332C19.391 3.661 20.0595 3.94325 20.5528 4.43916C21.046 4.93507 21.3243 5.60488 21.3276 6.30403C21.3153 6.99412 21.0359 7.6526 20.548 8.14119C20.0602 8.62978 19.4018 8.91046 18.7113 8.92429C18.0108 8.92432 17.3387 8.64814 16.8409 8.15575C16.3431 7.66336 16.0598 6.99455 16.0527 6.29466ZM18.6738 5.41031C18.4482 5.41897 18.2343 5.51231 18.0746 5.67167C17.9149 5.83103 17.8212 6.04472 17.8122 6.27007C17.8125 6.50599 17.906 6.73225 18.0724 6.89962C18.2388 7.06699 18.4646 7.16193 18.7007 7.16378C18.9268 7.15484 19.1412 7.06119 19.3013 6.90144C19.4614 6.74169 19.5554 6.52757 19.5646 6.30169C19.5631 6.06595 19.4688 5.84029 19.3021 5.67349C19.1354 5.50669 18.9097 5.41215 18.6738 5.41031Z" fill="#072AC8"/>
<path d="M11.4109 3.65332C12.1107 3.65699 12.781 3.93578 13.2768 4.42941C13.7725 4.92304 14.0539 5.59184 14.06 6.29115C14.0505 6.98025 13.7741 7.63884 13.2888 8.12854C12.8036 8.61825 12.1472 8.90096 11.4578 8.91726C10.758 8.92198 10.0847 8.65048 9.58422 8.16177C9.08374 7.67307 8.79657 7.00669 8.78516 6.30754C8.78511 5.60884 9.06077 4.93831 9.55233 4.44141C10.0439 3.94452 10.7117 3.66134 11.4109 3.65332ZM11.4261 7.1673C11.544 7.16456 11.6602 7.13862 11.768 7.09097C11.8758 7.04332 11.9732 6.97489 12.0545 6.88959C12.1358 6.8043 12.1995 6.70381 12.242 6.59389C12.2844 6.48396 12.3047 6.36675 12.3017 6.24898C12.2867 6.02341 12.1871 5.8118 12.0229 5.65636C11.8586 5.50091 11.6418 5.41305 11.4156 5.41031C11.1796 5.41615 10.9555 5.51497 10.7921 5.68524C10.6287 5.85551 10.5394 6.08341 10.5434 6.31926C10.5562 6.54589 10.6542 6.75931 10.818 6.91663C10.9817 7.07395 11.199 7.16351 11.4261 7.1673Z" fill="#072AC8"/>
<path d="M6.16928 8.92432C6.86885 8.9348 7.53603 9.22067 8.02591 9.71983C8.51578 10.219 8.78879 10.8911 8.78562 11.5903C8.76901 12.2787 8.48609 12.934 7.99627 13.4184C7.50645 13.9028 6.84783 14.1788 6.15873 14.1883C5.45848 14.1843 4.78798 13.9049 4.29238 13.4105C3.79678 12.9161 3.51597 12.2466 3.51074 11.5469C3.51908 10.8481 3.80292 10.1807 4.30066 9.68968C4.7984 9.19867 5.46986 8.92365 6.16928 8.92432ZM6.12943 12.4383C6.35756 12.4388 6.57733 12.3525 6.7441 12.197C6.91088 12.0414 7.01214 11.8283 7.02733 11.6008C7.03397 11.3646 6.94687 11.1354 6.78503 10.9631C6.62318 10.7909 6.39973 10.6896 6.16342 10.6813C5.93751 10.6812 5.71989 10.7664 5.55407 10.9197C5.38826 11.073 5.28646 11.2832 5.26904 11.5083C5.26174 11.7444 5.34804 11.9738 5.50917 12.1467C5.6703 12.3195 5.89322 12.4218 6.12943 12.4313V12.4383Z" fill="#072AC8"/>
</g>
<defs>
<clipPath id="clip0_1280_271">
<rect width="30" height="30" fill="white"/>
</clipPath>
</defs>
</svg>
