<svg width="25" height="27" viewBox="0 0 25 27" fill="none" xmlns="http://www.w3.org/2000/svg">
<g clip-path="url(#clip0_1225_1596)">
<path d="M0.00190543 13.4777C0.00190543 10.4375 -0.00897359 7.39731 0.00190543 4.35818C0.0138724 2.10782 1.47058 0.444841 3.74429 0.0472862C3.99627 0.0106061 4.25113 -0.00422053 4.50582 0.00299165C8.87484 0.00299165 13.2439 0.00299165 17.6129 0.00299165C20.1956 0.00299165 22.0733 1.80095 22.0852 4.31071C22.0994 6.38391 22.0852 8.45815 22.0852 10.5324C22.0852 11.2843 21.6892 11.7335 21.0398 11.7483C20.3598 11.763 19.916 11.3043 19.9127 10.5419C19.904 8.52038 19.9127 6.49991 19.9127 4.47839C19.9127 2.93984 19.0511 2.11098 17.4595 2.11098C13.1992 2.11098 8.93902 2.11098 4.6788 2.11098C3.07197 2.11098 2.18641 2.95987 2.18533 4.51951C2.18097 10.5113 2.18097 16.5035 2.18533 22.496C2.18533 24.0493 3.07632 24.8918 4.6875 24.8939C5.7395 24.8939 6.79042 24.8939 7.84242 24.8939C8.57349 24.8939 9.08807 25.3221 9.10547 25.9253C9.12288 26.5285 8.58872 26.9967 7.83262 26.9988C6.74472 26.9988 5.65682 26.9988 4.56892 26.9988C1.90247 26.9988 0.016046 25.1892 -0.000272495 22.5983C-0.00571201 19.5581 0.00190543 16.5179 0.00190543 13.4777Z" fill="#072AC8"/>
<path d="M21.8067 14.3374C23.0687 14.4144 24.0815 14.9817 24.6559 16.1459C25.2195 17.2858 25.0791 18.3973 24.31 19.4213C24.1556 19.6165 23.9857 19.7999 23.8019 19.9696C21.9938 21.7212 20.1945 23.4822 18.3624 25.2095C18.0236 25.5167 17.6175 25.7457 17.1744 25.8791C15.8983 26.264 14.6037 26.5888 13.3113 26.9231C12.3137 27.1815 11.612 26.4918 11.897 25.5248C12.2923 24.2144 12.7061 22.9089 13.1383 21.6083C13.2236 21.361 13.3657 21.1357 13.5539 20.9493C15.5078 19.042 17.4696 17.1414 19.4394 15.2475C20.0791 14.6369 20.8624 14.3617 21.8067 14.3374ZM19.1588 18.4627C18.0915 19.5067 17.1026 20.5876 15.9886 21.5292C15.0791 22.2938 14.8757 23.3029 14.5461 24.4028C15.0334 24.2731 15.436 24.1339 15.8515 24.0633C16.4662 23.9578 16.9318 23.6604 17.3594 23.2249C18.2678 22.298 19.2153 21.4048 20.1575 20.5095C20.3521 20.3469 20.5586 20.1982 20.7754 20.0645L19.1588 18.4627ZM22.2941 18.4079C22.676 18.1042 22.8957 17.7562 22.7663 17.2669C22.721 17.0602 22.6105 16.8723 22.45 16.7292C22.2896 16.5862 22.0872 16.4951 21.8709 16.4686C21.4042 16.3937 21.0561 16.612 20.7678 16.9611L22.2941 18.4079Z" fill="#072AC8"/>
<path d="M11.0914 6.32933C12.8842 6.32933 14.6774 6.32933 16.471 6.32933C17.275 6.32933 17.7363 6.72267 17.7319 7.38913C17.7276 8.05558 17.2685 8.43415 16.4558 8.4352C12.8519 8.4352 9.24809 8.4352 5.64423 8.4352C4.8827 8.4352 4.35398 7.99441 4.35942 7.38068C4.36486 6.76695 4.89031 6.33566 5.65837 6.3346C7.47154 6.32968 9.28254 6.32792 11.0914 6.32933Z" fill="#072AC8"/>
<path d="M11.0903 10.5485C12.8831 10.5485 14.676 10.5485 16.4688 10.5485C17.275 10.5485 17.7352 10.9408 17.7319 11.603C17.7286 12.2653 17.2685 12.6502 16.458 12.6502C12.8541 12.6502 9.24989 12.6502 5.6453 12.6502C4.88377 12.6502 4.35505 12.2104 4.3594 11.5956C4.36375 10.9809 4.88921 10.5496 5.65727 10.5485C7.47116 10.5457 9.28216 10.5457 11.0903 10.5485Z" fill="#072AC8"/>
<path d="M8.91224 14.7675C9.98056 14.7675 11.0489 14.7675 12.1172 14.7675C12.8374 14.7675 13.3542 15.2178 13.3542 15.822C13.3542 16.4263 12.8363 16.8765 12.1172 16.8765C9.9414 16.8808 7.76777 16.8808 5.59632 16.8765C4.87722 16.8765 4.35938 16.4263 4.35938 15.822C4.35938 15.2178 4.87831 14.7738 5.59741 14.7675C6.70163 14.7633 7.80694 14.7675 8.91224 14.7675Z" fill="#072AC8"/>
</g>
<defs>
<clipPath id="clip0_1225_1596">
<rect width="25" height="27" fill="white"/>
</clipPath>
</defs>
</svg>
