<svg viewBox="0 0 43 42" fill="none" xmlns="http://www.w3.org/2000/svg">
<g clip-path="url(#clip0_1698_5142)">
<path d="M1.84804 41.9981C0.844172 42.0112 0.302869 41.2535 0.563677 40.2957C1.5752 36.5912 2.59438 32.8884 3.62121 29.1872C4.65788 25.433 5.70931 21.6837 6.73779 17.9246C6.89866 17.2621 7.30264 16.6843 7.8696 16.3058C11.0961 14.0604 14.3127 11.7987 17.4982 9.49273C18.5769 8.70654 19.5987 7.84497 20.5557 6.91448C22.6766 4.8627 24.7401 2.74859 26.8299 0.665644C27.7124 -0.215097 28.2471 -0.223297 29.1165 0.645963C33.3725 4.89385 37.6253 9.14558 41.8747 13.4011C42.7047 14.2327 42.7392 14.8346 41.8502 15.6235C35.7449 21.0358 30.9126 27.493 26.4444 34.2502C25.8588 35.1375 25.142 35.5984 24.1332 35.8707C16.8765 37.8388 9.63456 39.8545 2.38769 41.8554L1.84804 41.9981ZM4.19531 36.4496C4.3184 36.3713 4.43722 36.2864 4.55126 36.1954C7.77938 32.9709 11.0124 29.7498 14.2176 26.5023C14.3996 26.3186 14.4587 25.8775 14.3898 25.6019C13.9601 23.9077 14.6178 22.2184 16.0924 21.3737C16.7948 20.971 17.6103 20.8111 18.4128 20.9188C19.2152 21.0264 19.9597 21.3956 20.5311 21.9691C21.0998 22.5469 21.4626 23.2957 21.5637 24.1001C21.6648 24.9045 21.4985 25.7198 21.0905 26.4203C20.6777 27.1356 20.0328 27.6882 19.2627 27.9865C18.4927 28.2848 17.6438 28.3109 16.8568 28.0604C16.4254 27.9342 16.1777 28.0178 15.8726 28.3245C12.7583 31.467 9.63128 34.6001 6.49174 37.724C6.35888 37.8568 6.25062 38.0159 6.08166 38.2242C6.20133 38.2225 6.32076 38.2132 6.43925 38.1963C11.2142 36.8744 15.953 35.4262 20.7788 34.2798C23.1704 33.7123 24.9813 32.6938 26.0639 30.478C26.1204 30.3843 26.1846 30.2954 26.2558 30.2123L31.467 22.8318L19.6388 11.0066C16.3172 13.3552 12.9037 15.7629 9.51154 18.1886C9.25893 18.369 9.09162 18.7446 9.0014 19.0628C8.18125 21.9428 7.3775 24.8278 6.58031 27.7144C5.79461 30.5731 5.01547 33.4302 4.19531 36.4496ZM27.9961 3.16846L21.9401 9.22375L33.2697 20.5602L39.3224 14.4918L27.9961 3.16846ZM19.1385 24.5752C19.1289 24.2474 18.9936 23.9359 18.7606 23.7051C18.5276 23.4743 18.2148 23.3419 17.8869 23.3353C17.5734 23.3497 17.277 23.4825 17.0576 23.7068C16.8381 23.9311 16.7118 24.2303 16.7043 24.544C16.7013 24.8566 16.819 25.1582 17.0329 25.3861C17.2468 25.6141 17.5404 25.7507 17.8525 25.7676C18.0159 25.775 18.1791 25.75 18.3328 25.694C18.4864 25.638 18.6275 25.552 18.7477 25.4411C18.8679 25.3302 18.9649 25.1966 19.0331 25.048C19.1013 24.8993 19.1394 24.7386 19.1451 24.5752H19.1385Z" fill="#072AC8"/>
</g>
<defs>
<clipPath id="clip0_1698_5142">
<rect width="42" height="42" fill="white" transform="translate(0.5)"/>
</clipPath>
</defs>
</svg>
