<svg width="38" height="41" viewBox="0 0 38 41" fill="none" xmlns="http://www.w3.org/2000/svg">
<g clip-path="url(#clip0_1698_4848)">
<path d="M25.506 20.2656C25.506 25.2127 25.5169 30.1599 25.506 35.1052C25.506 37.7803 24.1975 39.6458 21.8763 40.2754C21.2312 40.4292 20.5688 40.5005 19.9054 40.4877C15.459 40.5045 11.0127 40.5045 6.56628 40.4877C2.99103 40.4877 1.00015 38.5088 0.996517 34.9811C0.986838 25.1468 0.986838 15.3124 0.996517 5.47812C0.996517 1.98813 2.99286 0.0128755 6.50458 0.00208178C11.0102 -0.0111106 15.5171 -0.0111106 20.0252 0.00208178C23.4915 0.0128755 25.4897 1.98094 25.5024 5.41695C25.5187 10.3731 25.506 15.3202 25.506 20.2656ZM22.7838 20.3105C22.7838 15.3934 22.7838 10.4762 22.7838 5.55907C22.7838 3.47768 22.0251 2.71312 19.9617 2.70952C15.485 2.70952 11.0084 2.70952 6.5318 2.70952C4.51006 2.70952 3.72969 3.48307 3.72969 5.48532C3.72969 15.3196 3.72969 25.1539 3.72969 34.9883C3.72969 37.0373 4.50462 37.791 6.59533 37.7928C11.0127 37.7928 15.4288 37.7928 19.8437 37.7928C22.0469 37.7928 22.7838 37.0733 22.7838 34.8803C22.7826 30.0243 22.7807 25.1677 22.7783 20.3105H22.7838Z" fill="#072AC8"/>
<path d="M38 20.2562C37.9583 23.1634 37.4883 26.0021 36.1761 28.6664C35.8131 29.3967 35.305 29.8159 34.4538 29.6216C33.5609 29.4183 33.2451 28.5135 33.697 27.533C35.6789 23.2425 35.7188 18.8566 34.3213 14.4006C34.1358 13.8948 33.9201 13.4004 33.6753 12.9201C33.296 12.0854 33.4774 11.3388 34.1598 10.9736C34.8422 10.6084 35.6934 10.8818 36.1144 11.7094C37.4737 14.3934 37.9583 17.2628 38 20.2562Z" fill="#072AC8"/>
<path d="M32.9762 20.1376C32.9762 22.2621 32.6132 24.187 31.6459 25.9644C31.1305 26.9124 30.3428 27.2237 29.5915 26.8027C28.8401 26.3817 28.7748 25.6837 29.2412 24.6925C30.6405 21.7278 30.635 18.7559 29.2321 15.7877C28.773 14.8198 28.8837 14.0804 29.6133 13.6865C30.3737 13.2763 31.1341 13.5965 31.6586 14.559C32.6277 16.3399 32.9671 18.2648 32.9762 20.1376Z" fill="#072AC8"/>
<path d="M13.2194 8.08439C12.5878 8.08439 11.949 8.12576 11.3228 8.07359C10.5533 8.00883 10.1123 7.5339 10.1051 6.77114C10.0978 6.00838 10.5189 5.48669 11.292 5.45071C12.586 5.39314 13.8836 5.39494 15.1776 5.45071C15.9471 5.47949 16.3699 5.9814 16.399 6.74776C16.428 7.51411 15.9344 8.02142 15.1177 8.08618C14.4879 8.13655 13.8473 8.09698 13.2194 8.09698V8.08439Z" fill="#072AC8"/>
<path d="M13.23 35.0833C12.6257 35.0833 12.0214 35.1193 11.4152 35.0833C10.5858 35.0222 10.1012 34.5149 10.0867 33.7773C10.0753 33.6051 10.0997 33.4324 10.1584 33.2699C10.2171 33.1075 10.3088 32.9587 10.428 32.8328C10.5471 32.707 10.691 32.6068 10.8509 32.5384C11.0107 32.47 11.183 32.4349 11.3571 32.4353C12.6275 32.3831 13.8979 32.3867 15.152 32.4353C15.9215 32.4658 16.3498 32.957 16.3843 33.7251C16.4187 34.4663 15.9269 35.006 15.1139 35.0725C14.4859 35.1229 13.8435 35.0833 13.2173 35.0833H13.23Z" fill="#072AC8"/>
</g>
<defs>
<clipPath id="clip0_1698_4848">
<rect width="37.5" height="40.5" fill="white" transform="translate(0.5)"/>
</clipPath>
</defs>
</svg>
