<svg width="15" height="14" viewBox="0 0 15 14" fill="none" xmlns="http://www.w3.org/2000/svg">
<path d="M11.3728 13.9993C10.5753 13.9659 9.62412 13.6484 8.71574 13.2134C6.57214 12.1886 4.78414 10.7474 3.20446 9.07181C2.1482 7.95198 1.24159 6.73815 0.597276 5.36638C0.293897 4.72148 0.0691499 4.05472 0.0104693 3.34916C-0.0452773 2.65945 0.113161 2.03368 0.689992 1.53798C1.09195 1.19203 1.46516 0.817666 1.85539 0.459147C2.50088 -0.134924 3.37346 -0.158971 4.02657 0.424716C4.72018 1.04283 5.40029 1.67243 6.06045 2.31842C6.81214 3.05513 6.56334 4.09243 5.56459 4.48156C4.72663 4.80947 4.41328 5.42267 4.71372 6.22169C5.12449 7.30763 5.90963 8.13834 6.87904 8.81111C7.34017 9.1295 7.84401 9.3904 8.37774 9.58718C9.12299 9.86044 9.90872 9.53252 10.1657 8.82751C10.4726 7.98368 11.712 7.54373 12.5939 8.39029C13.2189 8.99147 13.8667 9.57515 14.4993 10.1709C15.1659 10.7988 15.1665 11.6284 14.5034 12.2569C14.1261 12.6138 13.7306 12.9549 13.3662 13.3227C12.8885 13.8091 12.3011 14.014 11.3728 13.9993Z" fill="white"/>
</svg>
