<svg viewBox="0 0 44 44" fill="none" xmlns="http://www.w3.org/2000/svg">
<g clip-path="url(#clip0_1698_5144)">
<path d="M7.56256 34.5237C6.49554 34.3895 5.54915 34.3691 4.65883 34.138C3.32212 33.7825 2.14073 32.9944 1.29912 31.8966C0.457515 30.7989 0.00306528 29.4533 0.00672816 28.0701C-0.00346635 24.7294 0.00672816 21.3888 0.00672816 18.0447C0.00672816 14.3523 2.55536 11.6692 6.24747 11.4721C6.63826 11.45 7.03245 11.4721 7.56426 11.4721C7.56426 10.6684 7.54727 9.94282 7.56426 9.21895C7.59824 7.97682 7.4997 6.7024 7.73417 5.49766C8.31526 2.54102 10.9352 0.512148 13.963 0.507051C19.143 0.500254 24.324 0.500254 29.5063 0.507051C32.9214 0.507051 35.6451 2.98622 35.8761 6.39485C35.9883 8.0261 35.8965 9.66924 35.8965 11.3922C36.5762 11.4381 37.1589 11.4636 37.7366 11.5163C39.3022 11.6551 40.7597 12.3732 41.8238 13.5301C42.8878 14.6869 43.4819 16.1993 43.4897 17.7711C43.5033 21.1118 43.4897 24.4524 43.4897 27.7965C43.4897 31.5348 40.9241 34.2196 37.1878 34.398C36.8225 34.415 36.4555 34.398 35.9849 34.398C35.9645 34.7565 35.9356 35.0539 35.9356 35.3512C35.9356 36.8516 35.9475 38.3521 35.9356 39.8525C35.9016 42.4829 34.3589 44.0003 31.7406 44.002C25.0575 44.002 18.3744 44.002 11.6913 44.002C9.17669 44.002 7.61354 42.4812 7.56256 39.9612C7.53708 38.1465 7.56256 36.3453 7.56256 34.5237ZM7.51159 27.681C7.25163 27.6504 7.03245 27.6249 6.81497 27.596C5.97901 27.4873 5.52366 27.02 5.54405 26.291C5.56444 25.562 6.05378 25.1219 6.89312 25.0608C7.09022 25.0472 7.28901 25.0608 7.4878 25.0608C17.0027 25.0608 26.5125 25.0608 36.0172 25.0608C36.3279 25.0524 36.6389 25.0706 36.9466 25.1151C37.5956 25.2307 37.9354 25.6623 37.9473 26.3046C37.9592 26.9843 37.6194 27.4329 36.9279 27.5637C36.6288 27.6215 36.3247 27.6453 35.9356 27.6963V31.7387C38.8546 32.2655 40.9428 30.5492 40.9462 27.7489C40.953 24.4932 40.953 21.2381 40.9462 17.9835C40.9462 16.6547 40.4365 15.5757 39.3712 14.755C38.5318 14.1161 37.5667 14.0107 36.5609 14.0107C26.6824 14.0107 16.8039 14.0107 6.92541 14.0107C6.58493 14.0098 6.24464 14.0268 5.90596 14.0617C4.05565 14.2639 2.58084 15.7609 2.55706 17.6301C2.51118 21.1679 2.49079 24.7073 2.55706 28.2434C2.60803 30.6988 5.20084 32.4422 7.4963 31.6741L7.51159 27.681ZM33.387 27.6895H10.1265C10.1265 31.9052 10.1112 36.0377 10.1384 40.1685C10.1384 41.0283 10.6804 41.4514 11.603 41.4514C18.3688 41.4582 25.1351 41.4582 31.902 41.4514C32.8857 41.4514 33.3479 40.9926 33.3802 39.9986C33.4074 39.1218 33.3802 38.2433 33.3802 37.3648L33.387 27.6895ZM10.1588 11.377H33.3411C33.3411 9.68793 33.4176 8.07367 33.3207 6.46961C33.2632 5.55432 32.861 4.69484 32.1951 4.06426C31.5293 3.43367 30.6492 3.07882 29.7322 3.07117C24.4084 3.03492 19.0886 3.03492 13.7727 3.07117C12.8547 3.07713 11.9732 3.43128 11.3062 4.06207C10.6392 4.69287 10.2364 5.55331 10.1792 6.46961C10.0823 8.07027 10.1588 9.68623 10.1588 11.3787V11.377Z" fill="#072AC8"/>
<path d="M8.84373 19.4379C8.16409 19.4379 7.48446 19.4719 6.80482 19.4379C5.99096 19.3886 5.50163 18.8721 5.5424 18.1448C5.58488 17.3717 6.04024 16.9435 6.79293 16.9248C8.1522 16.8925 9.50128 16.8857 10.8554 16.9248C11.6693 16.9486 12.1586 17.4855 12.1179 18.2145C12.0737 18.9859 11.62 19.4039 10.8673 19.4362C10.1996 19.4651 9.51996 19.4379 8.84373 19.4379Z" fill="#072AC8"/>
<path d="M21.7566 33.0487C20.6828 33.0487 19.609 33.0674 18.5369 33.0487C17.6024 33.0266 17.0774 32.527 17.0977 31.7454C17.1181 30.9977 17.6228 30.5237 18.5233 30.5152C20.6687 30.4936 22.8152 30.4936 24.9628 30.5152C25.899 30.5254 26.4223 31.0351 26.4019 31.8185C26.3815 32.5644 25.8769 33.0283 24.9764 33.0504C23.9043 33.0606 22.8305 33.0487 21.7566 33.0487Z" fill="#072AC8"/>
<path d="M21.8297 35.9371C22.8746 35.9371 23.9196 35.9184 24.9645 35.9371C25.899 35.9592 26.424 36.4605 26.4019 37.2421C26.3799 37.9881 25.8752 38.4622 24.9747 38.4707C22.8293 38.4922 20.6828 38.4922 18.5352 38.4707C17.6007 38.4605 17.0774 37.9473 17.0977 37.1657C17.1181 36.4197 17.6245 35.9558 18.525 35.9354C19.626 35.9117 20.7287 35.9371 21.8297 35.9371Z" fill="#072AC8"/>
</g>
<defs>
<clipPath id="clip0_1698_5144">
<rect width="43.5" height="43.5" fill="white" transform="translate(0 0.5)"/>
</clipPath>
</defs>
</svg>
