<svg width="32" height="32" viewBox="0 0 32 32" fill="none" xmlns="http://www.w3.org/2000/svg">
<g clip-path="url(#clip0_1225_1585)">
<path d="M14.1974 26.8315C12.6502 27.2278 11.4499 26.8031 10.4095 25.7151C9.05488 24.2948 7.65921 22.9199 6.25787 21.5493C5.33214 20.6431 4.87919 19.5921 5.12548 18.2939C5.19484 17.9332 5.1 17.7386 4.74755 17.598C3.83031 17.2329 2.92298 16.8409 2.01989 16.439C0.571848 15.7956 0.110397 14.4505 0.856361 13.0515C1.29092 12.2405 1.73255 11.4323 2.19117 10.6369C3.68026 8.0491 6.62024 7.05486 9.38752 8.19112C10.7804 8.75925 10.7549 8.74079 11.7132 7.59601C14.8485 3.85486 18.8756 1.5866 23.6033 0.585269C25.2412 0.258488 26.9027 0.0646853 28.5717 0.00576436C29.0284 -0.0190769 29.4853 0.0529489 29.9125 0.217149C30.3397 0.38135 30.7276 0.634044 31.0509 0.958747C31.3742 1.28345 31.6257 1.67288 31.789 2.10165C31.9523 2.53042 32.0237 2.98892 31.9986 3.44723C31.7155 10.4637 29.3091 16.4858 23.6302 20.9045C23.2749 21.18 23.2296 21.4059 23.4207 21.7808C24.1284 23.1628 24.488 24.5973 24.1284 26.1583C23.966 26.9117 23.6491 27.623 23.1981 28.2469C22.747 28.8709 22.1716 29.394 21.5084 29.783C20.6591 30.2943 19.7928 30.7672 18.918 31.2317C17.5577 31.9532 16.2286 31.4774 15.6001 30.0528C15.1188 28.9961 14.6744 27.9337 14.1974 26.8315ZM18.0687 22.1629C20.032 20.6716 22.0958 19.3805 23.8255 17.7357C27.8314 13.9278 29.4875 9.03195 29.7366 3.59494C29.7791 2.68309 29.3219 2.24138 28.4061 2.25842C25.0755 2.31706 21.8033 3.14627 18.8444 4.68149C14.8924 6.70404 12.3855 10.1 10.1745 13.783C10.1038 13.9008 10.1745 14.2091 10.2793 14.3127C12.8158 16.8864 15.3666 19.4458 18.0687 22.1629ZM8.72649 16.1563C8.316 16.8779 7.9055 17.5909 7.5035 18.3095C7.22041 18.8223 7.25863 19.3279 7.6677 19.7441C9.19077 21.2903 10.7242 22.8281 12.268 24.3573C12.6304 24.7167 13.0834 24.8544 13.5618 24.5988C14.346 24.1727 15.1188 23.7295 15.8648 23.3091L8.72649 16.1563ZM17.7347 29.3029C18.7467 28.7191 19.7376 28.2249 20.6449 27.6084C21.9783 26.7008 22.6379 24.5391 21.2111 22.6685L16.2144 25.7634C16.7226 26.9451 17.2124 28.0871 17.7333 29.3029H17.7347ZM6.28477 15.7956C7.34639 14.0642 8.36837 12.401 9.39035 10.7364C7.78943 9.71372 6.00309 9.67111 4.90891 10.8784C4.03555 11.847 3.44529 13.0728 2.70641 14.2218C3.03197 14.3738 3.17918 14.4448 3.32922 14.5059C4.296 14.9377 5.2642 15.3553 6.28335 15.7956H6.28477Z" fill="#072AC8"/>
<path d="M7.24714 26.0288C7.015 26.4123 6.89185 26.7262 6.68094 26.9506C5.6901 27.9832 4.66811 28.9973 3.64471 30.0043C3.11249 30.527 2.40191 30.5412 1.95745 30.0753C1.51298 29.6095 1.51723 28.9689 2.0353 28.4391C3.07144 27.3781 4.09201 26.2987 5.19609 25.3144C5.47919 25.0659 6.0836 24.9991 6.46154 25.1127C6.76728 25.2065 6.97112 25.6851 7.24714 26.0288Z" fill="#072AC8"/>
<path d="M10.2845 29.04C10.2845 30.0016 8.29431 32.0838 7.59506 31.9986C7.23128 31.9546 6.75851 31.6847 6.60422 31.3807C6.53111 31.1938 6.50214 30.9923 6.51958 30.7922C6.53701 30.5922 6.60038 30.3988 6.70472 30.2274C7.22203 29.5578 7.8207 28.9556 8.48682 28.435C8.75576 28.2248 9.31205 28.1807 9.63903 28.31C9.96601 28.4392 10.1557 28.8838 10.2845 29.04Z" fill="#072AC8"/>
<path d="M2.92046 21.6387C3.19082 21.873 3.6282 22.0832 3.75135 22.4099C3.8745 22.7366 3.81505 23.2948 3.6098 23.5703C3.09406 24.2109 2.51709 24.7994 1.88715 25.3273C1.42995 25.7278 0.87932 25.7107 0.41787 25.2918C-0.0166858 24.8969 -0.148326 24.3458 0.226779 23.8998C0.848796 23.1967 1.51044 22.53 2.20847 21.9029C2.33586 21.7722 2.58074 21.7566 2.92046 21.6387Z" fill="#072AC8"/>
<path d="M18.4309 9.60996C18.4256 9.08994 18.5237 8.57409 18.7194 8.09257C18.9152 7.61105 19.2047 7.17355 19.571 6.80562C19.9372 6.4377 20.3729 6.14675 20.8526 5.9498C21.3323 5.75286 21.8463 5.65386 22.3645 5.65861C23.4108 5.65252 24.4171 6.06183 25.1638 6.79727C25.9105 7.5327 26.3371 8.5346 26.3505 9.5844C26.3732 11.7575 24.5104 13.6238 22.3546 13.6011C21.3079 13.5906 20.3078 13.165 19.5727 12.4173C18.8375 11.6695 18.4271 10.6603 18.4309 9.60996ZM22.3942 7.93398C22.1707 7.92516 21.9478 7.96244 21.7393 8.04354C21.5307 8.12463 21.341 8.2478 21.1817 8.40543C21.0225 8.56306 20.8972 8.75179 20.8136 8.95996C20.73 9.16812 20.6899 9.39129 20.6957 9.61564C20.6982 10.0675 20.8778 10.5003 21.1956 10.8205C21.5134 11.1407 21.9439 11.3227 22.3942 11.3271C22.8336 11.3106 23.2507 11.1292 23.5631 10.8188C23.8756 10.5085 24.0605 10.0918 24.0815 9.65115C24.0836 9.42697 24.0415 9.20458 23.9578 8.99673C23.874 8.78888 23.7503 8.59964 23.5935 8.43987C23.4368 8.28009 23.2502 8.15292 23.0444 8.06563C22.8386 7.97833 22.6177 7.93262 22.3942 7.93114V7.93398Z" fill="#072AC8"/>
</g>
<defs>
<clipPath id="clip0_1225_1585">
<rect width="32" height="32" fill="white"/>
</clipPath>
</defs>
</svg>
