<svg width="63" height="62" viewBox="0 0 63 62" fill="none" xmlns="http://www.w3.org/2000/svg">
<g clip-path="url(#clip0_1285_3357)">
<path d="M58.1153 32.1386V3.90561C58.1153 2.89837 57.2856 2.08179 56.2621 2.08179H6.60987C5.58638 2.08179 4.75663 2.89837 4.75663 3.90561V34.3893C3.86262 34.5175 2.98864 34.859 2.21546 35.4239C-0.221916 37.1248 -0.798397 40.9313 1.24326 43.2788L9.59062 53.2377C14.7577 59.1891 20.2466 59.9182 28.4066 59.9182C35.409 59.9182 38.5396 59.9486 44.6423 58.5802L50.5848 57.1814C51.5483 58.5056 53.078 59.3634 54.7977 59.3634H57.725C60.6336 59.3634 63 56.9102 63 53.8946V37.591C63.0001 34.7117 60.8422 32.3465 58.1153 32.1386ZM49.7854 35.8904L47.3161 34.6561C43.2562 32.6393 38.5622 32.5647 34.4381 34.4516C33.3129 34.8871 30.8589 36.3484 29.586 36.2995H21.0176C18.1754 36.2995 15.8631 38.575 15.8631 41.3722V42.7022C15.8471 42.6857 15.8305 42.67 15.8148 42.6532L9.696 36.117C9.32573 35.7215 8.90973 35.3905 8.46323 35.125V17.0303H23.6293V23.716C23.6293 24.7232 24.459 25.5398 25.4825 25.5398H37.1766C38.2001 25.5398 39.0298 24.7232 39.0298 23.716V17.0303H54.409V32.1385C52.2437 32.3031 50.4381 33.8276 49.7854 35.8904ZM27.3356 17.0303H35.3232V21.8921H27.3356V17.0303ZM54.4089 13.3827H39.0298V5.72943H54.409V13.3827H54.4089ZM35.3233 5.72943V13.3828H27.3358V5.72943H35.3233ZM23.6291 5.72943V13.3828H8.4631V5.72943H23.6291ZM43.7821 55.032C38.1446 56.3027 34.7493 56.2513 28.473 56.2513C20.813 56.2513 17.1118 56.1294 12.45 50.9165L4.10268 40.9575C2.65073 39.0969 5.2806 36.9004 6.97001 38.5883L13.0888 45.1246C14.7059 46.8039 16.7409 47.7281 19.2491 47.7824H36.2134C37.2369 47.7824 38.0666 46.9658 38.0666 45.9586C38.0666 44.9513 37.2369 44.1348 36.2134 44.1348H19.5694V41.3719C19.5694 40.5862 20.2189 39.9469 21.0174 39.9469H29.5858C31.5162 40.083 34.3023 38.4967 36.0006 37.759C39.0894 36.3457 42.6051 36.4016 45.6418 37.91L49.523 39.8501V53.6805L43.7821 55.032ZM59.2936 53.8945C59.2936 54.8987 58.59 55.7157 57.7252 55.7157H54.7978C53.9329 55.7157 53.2295 54.8987 53.2295 53.8945V37.591C53.2295 36.5868 53.9331 35.7697 54.7978 35.7697H57.7252C58.59 35.7697 59.2936 36.5867 59.2936 37.591V53.8945Z" fill="#3A3A3A"/>
</g>
<defs>
<clipPath id="clip0_1285_3357">
<rect width="63" height="62" fill="white"/>
</clipPath>
</defs>
</svg>
