<svg width="35" height="41" viewBox="0 0 35 41" fill="none" xmlns="http://www.w3.org/2000/svg">
<g clip-path="url(#clip0_1698_4854)">
<path d="M9.69285 10.0248C9.77427 8.73062 9.75636 7.54084 9.93875 6.38586C10.5103 2.72634 13.917 -0.00762359 17.7796 0.0034515C21.5967 0.0034515 24.9952 2.75165 25.5619 6.36055C25.7427 7.52343 25.7248 8.7148 25.8095 10.028C26.6807 10.028 27.5893 10.028 28.4964 10.028C29.2829 10.028 30.0711 10.0027 30.856 10.0406C31.8591 10.0897 32.3346 10.5153 32.4323 11.4978C32.758 14.8203 33.0707 18.1571 33.3817 21.4859C33.7432 25.3422 34.102 29.1968 34.4581 33.0499C34.6372 34.9643 34.8326 36.8787 34.9906 38.7947C35.0785 39.8469 34.445 40.4971 33.3491 40.4971C22.9564 40.5034 12.5649 40.5034 2.17437 40.4971C1.03447 40.4971 0.409147 39.8405 0.51011 38.7314C0.850453 34.9801 1.22011 31.2336 1.57022 27.4839C1.86823 24.2832 2.15158 21.0841 2.44795 17.8834C2.64173 15.7854 2.82412 13.6875 3.0521 11.5927C3.17912 10.4346 3.65462 10.0454 4.86617 10.0311C6.46529 10.0122 8.06442 10.0248 9.69285 10.0248ZM3.63997 37.5432H31.8575C31.0986 29.3239 30.3463 21.179 29.5939 13.0198H25.728C25.728 13.7919 25.728 14.5007 25.728 15.2111C25.728 16.3329 25.1679 16.9736 24.2169 16.9657C23.2658 16.9578 22.7675 16.3772 22.7513 15.2665C22.7399 14.5118 22.7513 13.7571 22.7513 13.0167H12.8406C12.8095 13.0829 12.7865 13.1525 12.7722 13.2239C12.7641 13.909 12.7722 14.5941 12.7527 15.2807C12.7299 16.3882 12.2137 16.9673 11.2708 16.9673C10.3279 16.9673 9.78405 16.3345 9.7759 15.2792C9.7759 14.5245 9.7759 13.7698 9.7759 13.0278H5.90186C5.14627 21.2249 4.39556 29.3508 3.63997 37.5432ZM22.6715 9.98527C22.6715 8.97743 22.761 8.05029 22.6552 7.14688C22.2725 3.91612 18.7714 1.98114 15.7474 3.32598C13.1777 4.47304 12.3814 6.72919 12.883 9.9821L22.6715 9.98527Z" fill="#0F34DB"/>
</g>
<defs>
<clipPath id="clip0_1698_4854">
<rect width="34.5" height="40.5" fill="white" transform="translate(0.5)"/>
</clipPath>
</defs>
</svg>
