<svg width="25" height="25" viewBox="0 0 25 25" fill="none" xmlns="http://www.w3.org/2000/svg">
<g clip-path="url(#clip0_1225_1603)">
<path d="M18.6549 16.8702C18.6549 14.5424 18.6549 12.2146 18.6549 9.88673C18.6549 8.99783 18.9098 8.74243 19.7956 8.74243C21.1947 8.74243 22.5945 8.74243 23.9949 8.74243C24.7118 8.74243 24.9989 9.04172 24.9989 9.771C24.9989 14.5091 24.9989 19.2473 24.9989 23.9855C24.9989 24.6978 24.7147 24.9951 24.035 24.9971C22.5701 24.9971 21.1052 24.9971 19.6403 24.9971C18.9567 24.9971 18.6578 24.6978 18.6568 23.9994C18.6529 21.6244 18.6523 19.248 18.6549 16.8702ZM20.2887 23.3679C21.1804 23.3679 22.0085 23.346 22.8357 23.3769C23.2664 23.3929 23.4217 23.2861 23.4217 22.8072C23.4012 18.8546 23.41 14.9019 23.409 10.9492C23.409 10.7866 23.3963 10.624 23.3875 10.4354H20.2917L20.2887 23.3679Z" fill="#072AC8"/>
<path d="M15.6677 18.8126C15.6677 20.5086 15.6677 22.2046 15.6677 23.9006C15.6677 24.7516 15.4197 24.998 14.5935 24.998C13.1611 24.998 11.7288 24.998 10.2964 24.998C9.62452 24.998 9.33447 24.7227 9.3335 24.0393C9.32633 20.5655 9.32633 17.092 9.3335 13.6189C9.3335 12.9674 9.62647 12.6632 10.2564 12.6582C11.7538 12.6449 13.2513 12.6449 14.7487 12.6582C15.3953 12.6652 15.6619 12.9744 15.6648 13.6778C15.6716 15.3897 15.6677 17.1017 15.6677 18.8126ZM14.0309 23.339V14.3601H10.9566V23.339H14.0309Z" fill="#072AC8"/>
<path d="M20.1874 1.87051H20.1777C19.9848 1.88878 19.7926 1.82931 19.642 1.7048C19.4915 1.58028 19.3946 1.40059 19.372 1.20407L19.3583 1.08436C19.3354 0.882952 19.3911 0.68043 19.5134 0.520737C19.6357 0.361045 19.8147 0.257063 20.0116 0.231369L21.3037 0.0647701C21.4648 0.0448172 21.6269 0.0358374 21.792 0.0138892C22.3662 -0.0659225 22.7686 0.206437 22.8369 0.77709C22.916 1.4096 22.9786 2.0441 23.044 2.69756C23.0641 2.89467 23.0074 3.09192 22.8862 3.24669C22.7651 3.40145 22.5891 3.50128 22.3965 3.5246L22.2441 3.54356C22.058 3.56597 21.8705 3.51449 21.7203 3.39976C21.5702 3.28503 21.469 3.1158 21.4375 2.92701V2.91903C17.0721 7.59101 11.8492 10.6009 5.77768 12.2091C5.67364 12.2365 5.56524 12.2421 5.45902 12.2255C5.3528 12.209 5.25099 12.1706 5.15971 12.1127C5.06843 12.0547 4.98958 11.9785 4.92795 11.8886C4.86631 11.7987 4.82315 11.697 4.80108 11.5896V11.5736C4.7592 11.37 4.79584 11.1577 4.90335 10.981C5.01087 10.8042 5.18098 10.6767 5.37825 10.6248C11.0728 9.11042 16.0242 6.323 20.1874 1.87051Z" fill="#072AC8"/>
<path d="M0.00086809 20.4646C0.00086809 19.2854 0.00086809 18.1072 0.00086809 16.928C0.00086809 16.2296 0.293842 15.9303 0.977463 15.9254C2.44041 15.9214 3.90304 15.9214 5.36533 15.9254C6.04896 15.9254 6.34194 16.2296 6.34194 16.928C6.34584 19.2851 6.34584 21.6425 6.34194 24.0003C6.34194 24.6987 6.04896 24.9979 5.36533 24.9979C3.90304 24.9979 2.44041 24.9979 0.977463 24.9979C0.293842 24.9979 0.00086809 24.6987 0.00086809 24.0003C-0.00108511 22.8221 0.00086809 21.6429 0.00086809 20.4646ZM4.71004 17.5715C3.7393 17.5715 2.7998 17.5625 1.86129 17.5854C1.76949 17.5854 1.60738 17.785 1.6064 17.8927C1.58947 19.604 1.58947 21.3146 1.6064 23.0246C1.6064 23.1373 1.72847 23.3438 1.80172 23.3448C2.76953 23.3668 3.73734 23.3598 4.71785 23.3598L4.71004 17.5715Z" fill="#072AC8"/>
<path d="M2.2321 11.1996L2.28483 11.1936C2.48906 11.1678 2.6951 11.2243 2.8592 11.3512C3.0233 11.478 3.13255 11.6652 3.16377 11.873V11.889C3.17972 11.9957 3.17459 12.1046 3.14866 12.2092C3.12274 12.3139 3.07655 12.4122 3.01283 12.4983C2.94911 12.5844 2.86913 12.6566 2.77764 12.7106C2.68616 12.7646 2.585 12.7994 2.48015 12.8128L2.42742 12.8198C2.32225 12.8337 2.21542 12.8258 2.11328 12.7967C2.01113 12.7676 1.91574 12.7179 1.83277 12.6504C1.74979 12.583 1.68091 12.4992 1.63023 12.404C1.57955 12.3089 1.54811 12.2043 1.53774 12.0965V12.0795C1.51817 11.8693 1.57985 11.6596 1.70958 11.4952C1.83932 11.3308 2.02684 11.2247 2.2321 11.1996Z" fill="#072AC8"/>
</g>
<defs>
<clipPath id="clip0_1225_1603">
<rect width="25" height="25" fill="white"/>
</clipPath>
</defs>
</svg>
