<svg width="27" height="27" viewBox="0 0 27 27" fill="none" xmlns="http://www.w3.org/2000/svg">
<g clip-path="url(#clip0_1280_267)">
<path d="M12.9127 18.5161C12.3115 19.1263 11.724 19.7027 11.164 20.3076C11.0539 20.4511 11.0033 20.6315 11.0227 20.8113C11.3876 23.8209 9.26344 26.5502 6.1152 26.9443C3.17578 27.3131 0.525352 25.2203 0.0739455 22.373C-0.511406 18.6689 2.45648 15.5771 6.21434 15.9702C6.36492 15.9866 6.51603 15.9443 6.63621 15.8522C7.16356 15.3579 7.66137 14.8426 8.17078 14.3326C8.2541 14.2483 8.33215 14.1577 8.4102 14.0734C7.46098 12.9058 7.46098 12.9058 8.35113 11.714C7.3766 10.7403 6.34723 9.80768 5.43281 8.7697C4.72617 7.96356 3.96785 7.59052 2.88258 7.70644C1.96395 7.80338 1.85531 7.65164 1.56528 6.78122C1.08856 5.35334 0.629767 3.91915 0.124572 2.50181C-0.0726549 1.94858 0.00750066 1.55341 0.43043 1.1319C1.93125 -0.3297 1.48512 -0.144241 3.30762 0.434286C4.50996 0.815755 5.70281 1.22462 6.89356 1.62717C7.57383 1.85584 7.77528 2.0392 7.68668 2.72626C7.53059 3.94233 7.96512 4.80538 8.88586 5.58834C9.88465 6.43768 10.76 7.4314 11.6829 8.35557C12.9485 7.49147 12.9485 7.49147 14.1087 8.47148C14.693 7.86345 15.291 7.25436 15.8679 6.62525C15.9523 6.53252 15.9734 6.33757 15.9523 6.19847C15.4429 2.02444 19.6922 -1.20118 23.5629 0.427963C24.4066 0.78098 24.5121 1.34475 23.874 2.00864C23.3467 2.55133 22.8468 3.12038 22.2857 3.62303C21.8111 4.04454 21.6529 4.52402 21.8174 5.16261C22.3205 5.26799 22.7919 5.30382 23.2212 4.84648C23.7939 4.22896 24.4204 3.66097 25.03 3.07823C25.6396 2.49549 26.2207 2.60613 26.5255 3.348C27.3229 5.28485 27.132 7.14688 25.8927 8.82766C24.6534 10.5084 22.9174 11.2071 20.8302 11.0532C20.634 11.0367 20.4385 11.0926 20.2807 11.2103C19.6859 11.7551 19.1205 12.3336 18.4276 13.0143C18.6283 13.1378 18.8194 13.2763 18.9993 13.4285C21.3526 15.77 23.7021 18.1157 26.0477 20.4656C27.3134 21.7302 27.3134 23.0432 26.0372 24.3151C25.417 24.9368 24.799 25.5617 24.1725 26.1771C23.0735 27.2562 21.7193 27.2984 20.6235 26.2161C18.0996 23.7218 15.6053 21.198 13.0993 18.6868C13.0582 18.6436 13.0181 18.6099 12.9127 18.5161ZM23.6705 24.5912C23.3952 24.4078 23.2106 24.3235 23.0767 24.1897C20.885 22.0119 18.6966 19.8281 16.5113 17.6383C16.3942 17.5323 16.2842 17.4186 16.1822 17.298C15.9132 16.9439 15.9164 16.5782 16.2064 16.2442C16.4712 15.9386 16.9616 15.928 17.2991 16.2062C17.4183 16.3102 17.532 16.4203 17.6398 16.5361C19.8272 18.7202 22.0143 20.9054 24.201 23.0917C24.3328 23.2223 24.471 23.3467 24.6028 23.471C25.6575 22.5553 25.6691 22.3266 24.7368 21.3961C22.4755 19.1368 20.2206 16.8649 17.9414 14.6266C17.6555 14.3527 17.3062 14.1536 16.9247 14.047C15.3585 13.6255 14.3323 12.6571 13.9536 11.0965C13.7849 10.3967 13.3398 9.99947 12.9053 9.61168L9.58512 12.9237C9.99328 13.3621 10.392 13.812 11.0944 13.9775C12.6416 14.3442 13.5877 15.3685 14.0264 16.9017C14.1485 17.3131 14.3652 17.6902 14.6592 18.0029C15.851 19.2443 17.085 20.4467 18.3011 21.6638C19.4317 22.7934 20.5591 23.9273 21.695 25.0517C22.1876 25.5396 22.5504 25.528 23.0566 25.0517C23.199 24.9179 23.3667 24.8188 23.6684 24.5912H23.6705ZM5.47078 25.4131C6.42949 25.3784 7.24793 25.137 7.93348 24.5701C9.1527 23.5616 9.68321 22.2771 9.38051 20.6975C9.28348 20.1906 9.38051 19.7933 9.77918 19.4266C10.4531 18.8101 11.0786 18.1431 11.7251 17.4971C12.4286 16.7932 12.4064 16.5002 11.5795 15.8975C11.4106 15.7724 11.2244 15.6723 11.0269 15.6003C10.6664 15.4655 10.2958 15.3598 9.9184 15.2842C9.73699 15.2526 9.47332 15.2905 9.34781 15.4064C8.74137 15.966 8.14442 16.5403 7.59387 17.1536C7.20469 17.5878 6.78387 17.6879 6.23227 17.5867C4.62809 17.2948 3.30656 17.8364 2.34785 19.121C1.38914 20.4056 1.28473 21.8197 2.00824 23.2381C2.73176 24.6565 3.95942 25.3446 5.46867 25.4131H5.47078ZM25.32 5.01087C24.7927 5.5209 24.3244 5.99931 23.8192 6.4282C23.6003 6.62181 23.3292 6.74679 23.0398 6.78754C22.3725 6.82753 21.7035 6.83104 21.0359 6.79808C20.46 6.77911 20.2111 6.52199 20.1816 5.94452C20.1605 5.523 20.2153 5.10149 20.1657 4.67998C20.0677 3.85592 20.3408 3.22049 20.9747 2.69255C21.3259 2.4017 21.618 2.0392 22.0157 1.62717C20.8671 1.50704 19.9453 1.73255 19.1511 2.33531C17.8518 3.31322 17.2812 4.62413 17.5744 6.24906C17.6746 6.80019 17.5881 7.23118 17.1409 7.60843C16.7264 7.95829 16.4026 8.4188 15.9702 8.74441C15.2868 9.26393 15.0895 9.814 15.4355 10.6486C15.678 11.2334 15.9248 11.7572 16.4406 12.1397C16.7116 12.341 16.8994 12.3441 17.1493 12.0817C17.8876 11.3072 18.6776 10.579 19.4085 9.79714C19.7776 9.40092 20.17 9.33031 20.6804 9.38511C21.2328 9.45968 21.7932 9.45293 22.3437 9.36509C24.2653 8.99626 25.667 6.96458 25.32 5.01087ZM10.6018 9.50735C9.52184 8.42828 8.49879 7.31443 7.37449 6.31334C6.47379 5.51246 5.88738 4.6589 6.11731 3.40701C6.16688 3.14145 6.04664 3.00973 5.77348 2.92332C4.65551 2.5682 3.5502 2.17303 2.43117 1.82107C2.33967 1.80035 2.24465 1.80068 2.15329 1.82204C2.06193 1.8434 1.97663 1.88522 1.90383 1.94436C1.8477 2.02023 1.80913 2.1076 1.79089 2.20017C1.77265 2.29275 1.7752 2.38821 1.79836 2.47968C2.0768 3.38172 2.39426 4.27111 2.69484 5.16788C3.02285 6.14157 3.02391 6.1774 4.03641 6.12998C4.72723 6.09731 5.23031 6.31755 5.70387 6.82021C6.70266 7.88242 7.76262 8.88562 8.78461 9.9257C8.99153 10.1595 9.18385 10.4059 9.36047 10.6633L10.6018 9.50735Z" fill="#072AC8"/>
<path d="M5.54039 19.084C6.16965 19.0956 6.76898 19.3546 7.20845 19.8047C7.64791 20.2548 7.89212 20.8599 7.88812 21.4887C7.87373 22.1174 7.61168 22.7151 7.15888 23.1519C6.70609 23.5887 6.0991 23.8294 5.46973 23.8218C4.85019 23.8027 4.26221 23.5443 3.82946 23.1009C3.39672 22.6575 3.15294 22.0637 3.14941 21.4445C3.15827 20.8162 3.41391 20.2167 3.8612 19.7751C4.30849 19.3335 4.91159 19.0853 5.54039 19.084ZM5.53301 20.6647C5.32944 20.6662 5.13387 20.744 4.98503 20.8828C4.83618 21.0215 4.74493 21.2111 4.72934 21.4139C4.72333 21.6261 4.8012 21.8321 4.94609 21.9873C5.09098 22.1425 5.29123 22.2344 5.50348 22.2432C5.70695 22.242 5.90251 22.1643 6.05138 22.0258C6.20025 21.8872 6.29154 21.6977 6.30715 21.495C6.31289 21.2827 6.235 21.0767 6.09022 20.9212C5.94544 20.7657 5.74535 20.6732 5.53301 20.6636V20.6647Z" fill="#072AC8"/>
</g>
<defs>
<clipPath id="clip0_1280_267">
<rect width="27" height="27" fill="white"/>
</clipPath>
</defs>
</svg>
