<svg width="18" height="17" viewBox="0 0 18 17" fill="none" xmlns="http://www.w3.org/2000/svg">
<path d="M11.8634 9.41965C11.6939 9.28773 11.4957 9.19491 11.2839 9.14822C11.072 9.10153 10.8519 9.10219 10.6403 9.15013C10.3222 9.2762 10.1206 9.75873 9.9145 10.0196C9.87124 10.0773 9.80765 10.1176 9.73579 10.1328C9.66394 10.148 9.58883 10.1371 9.52471 10.1022C8.36443 9.66075 7.39189 8.85191 6.76486 7.80686C6.71501 7.74238 6.69154 7.66227 6.69899 7.58199C6.70644 7.50171 6.74427 7.42695 6.80518 7.37214C7.04209 7.15649 7.21533 6.88334 7.30698 6.58095C7.32413 6.25519 7.2465 5.93131 7.08296 5.64632C6.95664 5.2379 6.71071 4.87392 6.37508 4.59865C6.20174 4.52229 6.00939 4.49602 5.82107 4.523C5.63275 4.54999 5.45643 4.62908 5.31325 4.7508C5.0704 4.95509 4.87761 5.2094 4.74894 5.49518C4.62027 5.78097 4.55898 6.09102 4.56952 6.40272C4.57394 6.57978 4.59645 6.75597 4.63673 6.92872C4.75273 7.33334 4.92774 7.71981 5.15644 8.07638C5.32221 8.35025 5.50142 8.61977 5.69407 8.87626C6.32992 9.71598 7.12523 10.4301 8.03726 10.9803C8.49791 11.2577 8.98937 11.4837 9.50231 11.6541C10.0354 11.8876 10.6235 11.9777 11.2048 11.9149C11.5357 11.8652 11.849 11.7378 12.1176 11.5439C12.3862 11.3499 12.6019 11.0953 12.746 10.802C12.8292 10.6237 12.8542 10.425 12.8177 10.2326C12.7371 9.84133 12.1905 9.60658 11.8634 9.41965Z" fill="#EAF6FF"/>
<path d="M8.69175 5.27279e-06C7.20933 -0.00161978 5.75216 0.372409 4.46449 1.08507C3.17681 1.79773 2.10326 2.82432 1.3501 4.06323C0.596938 5.30213 0.190277 6.71039 0.170362 8.14864C0.150448 9.58689 0.517971 11.0053 1.23656 12.2634L0 16.7409L4.64157 15.5368C5.78199 16.1308 7.04702 16.4648 8.34044 16.5131C9.63386 16.5615 10.9216 16.323 12.1058 15.8158C13.2899 15.3086 14.3393 14.5461 15.174 13.5862C16.0087 12.6264 16.6069 11.4945 16.923 10.2766C17.2391 9.05866 17.2647 7.78686 16.9981 6.55789C16.7314 5.32891 16.1794 4.17512 15.384 3.18428C14.5886 2.19344 13.5709 1.39164 12.4081 0.839854C11.2454 0.288069 9.96821 0.000842192 8.67383 5.27279e-06H8.69175ZM8.69175 14.976C7.4487 14.9726 6.2294 14.6453 5.16129 14.0283L4.87007 13.8588L2.28046 14.5326L2.97043 12.033L2.79122 11.746C2.00088 10.4792 1.66543 8.99397 1.83732 7.52253C2.00921 6.05109 2.67874 4.67639 3.74125 3.61332C4.80376 2.55026 6.19936 1.85876 7.70987 1.64692C9.22038 1.43508 10.7607 1.71485 12.0899 2.44249C13.4192 3.17012 14.4625 4.3046 15.0568 5.66859C15.651 7.03258 15.7627 8.54918 15.3745 9.98132C14.9862 11.4134 14.1198 12.6804 12.9107 13.5841C11.7016 14.4877 10.218 14.9772 8.69175 14.976Z" fill="#EAF6FF"/>
</svg>
