<?xml version="1.0" encoding="utf-8"?>
<!-- Generator: Adobe Illustrator 25.1.0, SVG Export Plug-In . SVG Version: 6.00 Build 0)  -->
<svg version="1.1" id="color" xmlns="http://www.w3.org/2000/svg" xmlns:xlink="http://www.w3.org/1999/xlink" x="0px" y="0px"
	 viewBox="0 0 158 100" style="enable-background:new 0 0 158 100;" xml:space="preserve">
<style type="text/css">
	.st0{clip-path:url(#SVGID_2_);fill:#FFFFFF;}
	.st1{fill:#B12028;}
</style>
<g>
	<g>
		<defs>
			<rect id="SVGID_1_" x="0.3" y="24.3" width="157.3" height="51.4"/>
		</defs>
		<clipPath id="SVGID_2_">
			<use xlink:href="#SVGID_1_"  style="overflow:visible;"/>
		</clipPath>
		<path class="st0" d="M156.6,27.6c-1.1-1.5-3.4-3.4-8.6-3.3H23.2c-6,0.1-9.6,4.2-10.9,7.8c0,0-11.5,33.5-11.5,33.5
			c-0.3,1.1-0.4,1.8-0.4,2.3c0,4.4,3.2,7.8,7.3,7.8h125.4c4.6,0,10.3-2.4,12.4-7.8l0-0.1l1.3-3.8c0,0,10.1-29,10.1-29
			C158.3,31.4,157.5,29,156.6,27.6L156.6,27.6z"/>
	</g>
	<path class="st1" d="M63.3,45.2c-0.7,0-1.8,0.7-2.6,1.6c-0.6,0.6-1,1.4-1.4,2.2l5.6,0C65.2,46.8,64.6,45.2,63.3,45.2L63.3,45.2z
		 M41.8,45.6c-0.8,0-1.8,0.6-2.7,1.6c-0.9,1-1.6,2.2-2.1,3.6c-1,2.8-0.5,5.1,1.2,5.1c1.8,0,3.8-2.2,4.9-5.1
		C44,47.9,43.5,45.6,41.8,45.6L41.8,45.6z M134.7,55.7h4.3c0.1,0,0.1-0.1,0.1-0.1c0-0.4,0-1.9,0-3.1c0-1.4-1.4-1.7-1.8-1.7
		c-0.5,0-2.6,0-2.6,0s-2.1,0-2.6,0c-0.4,0-1.8,0.3-1.8,1.7c0,1.2,0,2.7,0,3.1c0,0,0,0.1,0.1,0.1H134.7L134.7,55.7z M139.3,56.3h-9.2
		c-0.1,0-0.1,0.1-0.1,0.1v0.7c0,0,0.1,0.1,0.1,0.1l0,0h4.6h4.6l0,0c0,0,0.1-0.1,0.1-0.1L139.3,56.3
		C139.3,56.3,139.3,56.3,139.3,56.3L139.3,56.3z M137.8,46.6c0,0.1-0.1,0.2-0.2,0.2h-5.8h0c-0.1,0-0.2-0.1-0.2-0.2V40
		c0-0.1,0.1-0.2,0.2-0.2h5.8c0.1,0,0.2,0.1,0.2,0.2V46.6L137.8,46.6z M139.4,39.3c-0.2-0.1-0.4-0.2-0.7-0.4
		c-0.2-0.1-0.5-0.5-0.6-0.7l0,0c-0.1-0.2-0.1-0.2-0.3-0.2h0h-0.3c-0.1,0-0.2-0.1-0.3-0.2c-0.1-0.1-0.2-0.3-0.3-0.4
		c0-0.1,0-0.1,0.1-0.1h0.3c0.1,0,0.2-0.1,0.1-0.2c-0.1-0.1-0.1-0.2-0.2-0.3c-0.1-0.2-0.1-0.2-0.3-0.2h-0.1h-0.3
		c-0.1,0-0.2,0-0.3-0.2c-0.1-0.1-0.2-0.2-0.2-0.4l0-0.1c0,0,0,0,0,0c-0.1-0.1-0.3-0.1-0.3-0.1h-2c0,0-0.2,0-0.3,0.1c0,0,0,0-0.1,0
		l0,0.1c-0.1,0.1-0.2,0.3-0.2,0.4c-0.1,0.1-0.2,0.2-0.3,0.2h-0.4h-0.1c-0.2,0-0.2,0-0.3,0.2c-0.1,0.1-0.2,0.2-0.2,0.3
		c-0.1,0.1,0,0.2,0.1,0.2h0.3c0.1,0,0.2,0,0.1,0.1c0,0.1-0.2,0.3-0.3,0.4c-0.1,0.1-0.2,0.2-0.3,0.2h-0.3h0c-0.2,0-0.2,0-0.3,0.2l0,0
		c-0.1,0.2-0.4,0.6-0.6,0.7c-0.3,0.2-0.6,0.3-0.7,0.4c-0.2,0.1-0.2,0.2-0.2,0.3c0,0.1,0.1,0.2,0.2,0.2c0,0,0.2,0,0.6,0
		c0.4,0,0.4,0.1,0.4,0.5c0,0,0,6,0,6.5c0,0.5,0.1,0.6,0.6,0.8c0.5,0.2,1,0.2,1,1c0,0.8,0,1.6,0,1.6h4.5c0,0,0-0.8,0-1.6
		c0-0.8,0.5-0.8,1-1c0.4-0.2,0.5-0.3,0.5-0.8c0-0.5,0-6.5,0-6.5c0-0.4,0-0.5,0.4-0.5c0.3,0,0.6,0,0.6,0c0.1,0,0.2,0,0.2-0.2
		C139.6,39.4,139.6,39.3,139.4,39.3L139.4,39.3z M9.2,64.5H8.9V65h0.5c0.3,0,0.4,0,0.4-0.3C9.7,64.5,9.4,64.5,9.2,64.5L9.2,64.5z
		 M10.1,66.3H9.6l-0.5-0.9H8.9v0.9H8.4v-2.3h1c0.5,0,0.9,0.1,0.9,0.7c0,0.4-0.2,0.7-0.6,0.7L10.1,66.3L10.1,66.3z M9.2,63.3
		c-1.1,0-1.9,0.9-1.9,1.9c0,1,0.9,1.9,1.9,1.9c1,0,1.9-0.9,1.9-1.9C11.1,64.2,10.2,63.3,9.2,63.3L9.2,63.3z M144.8,50.5L144.8,50.5
		l-4-2.4l0,0c-0.2-0.1-0.4,0-0.5,0.2c-0.1,0.2,0,0.4,0.2,0.6h0l4.1,2.5v0.1c-1.5,5.2-5.4,8.9-9.9,8.9c-4.6,0-8.4-3.7-9.9-8.9v0
		l4.2-2.6h0c0.2-0.1,0.2-0.4,0.1-0.6c-0.1-0.2-0.3-0.3-0.5-0.2l0,0l-4,2.5v-0.1c-0.3-1.1-0.4-2.4-0.4-3.6c0-0.6,0-1.2,0.1-1.8v0h4.6
		h0c0.2,0,0.4-0.2,0.4-0.4c0-0.2-0.2-0.4-0.4-0.4h0h-4.5v-0.1c0.2-1.7,0.8-3.2,1.5-4.6l0,0l2.6,1.5l0,0c0.2,0.1,0.4,0,0.5-0.2
		c0.1-0.2,0-0.5-0.2-0.5l0,0l-2.6-1.5l0,0c1.9-3.3,5-5.4,8.4-5.4c3.4,0,6.5,2.1,8.4,5.4l0,0l-2.6,1.5l0,0c-0.2,0.1-0.3,0.3-0.2,0.5
		c0.1,0.2,0.3,0.3,0.5,0.2l0,0l2.6-1.5l0,0.1c0.7,1.4,1.2,2.9,1.5,4.6v0.1h-4.4h0c-0.2,0-0.4,0.2-0.4,0.4c0,0.2,0.2,0.4,0.4,0.4h0
		h4.6v0.1c0,0.6,0.1,1.1,0.1,1.7C145.2,48.2,145.1,49.4,144.8,50.5L144.8,50.5z M120.8,45.8l-4.6,13.8H112l4.1-12.1
		c0.5-1.5-0.8-2.2-1.8-2.1c-0.9,0.1-1.9,0.7-2.6,2.5l-4,11.7h-4.2l6-17.7h4.2l-0.4,1.1c1-0.8,2.5-1.4,3.8-1.4
		C119.1,41.6,121.4,43.3,120.8,45.8L120.8,45.8z M97.4,59.6l0.4-1.4l0.1-0.1c-1.2,1.6-3.1,2-4.3,1.7c-3.1-0.7-4-5.3-2-10.3
		c1.9-5,5.9-8.7,9-8c1,0.2,1.8,0.7,2.5,1.4l0,0l0.3-1h4.2l-6,17.7H97.4L97.4,59.6z M82.3,59.6l4.2-12.5c0.3-0.8-0.2-1.7-1.2-1.7
		c-0.9,0-2,0.8-2.3,1.7l-4.2,12.5h-4.2l4.2-12.5c0.3-0.9-0.2-1.7-1.1-1.7c-0.9,0-2,0.6-2.4,1.7l-4.2,12.5h-4.2l6-17.7h4.2L76.7,43
		c0.9-0.8,2.1-1.4,3.5-1.4c1.5,0,2.3,1,2.6,1.7c1-1,2.9-1.8,4.6-1.7c1.9,0,4.6,1.7,3.2,5.8l-4.1,12.2H82.3L82.3,59.6z M58.9,59.9
		c-3.7,0-5.6-4.1-4.1-9.1c1.5-5.1,5.7-9.3,9.5-9.3c3.7,0,5.4,4.2,3.9,9.1c-0.1,0.5-0.4,1.1-0.6,1.6h-9.4c-0.3,2.1,0.2,3.7,1.5,3.7
		c1,0,2.1-0.8,3-2h4.1l-0.2,0.5C65,57.4,61.6,59.9,58.9,59.9L58.9,59.9z M45.5,59.6l9-26.9h4.2l-9,26.9H45.5L45.5,59.6z M37.4,60
		c-3.7,0-5.6-4.2-4.1-9.2c1.5-5.2,5.8-9.2,9.6-9.2c3.8,0,5.5,4.2,4,9.2C45.4,55.9,41.2,60,37.4,60L37.4,60z M24.3,61.7
		c-5.4,0-8.4-7.6-6.5-15C19.8,38.7,26,32,31.6,32c3.2,0,6.3,2.2,7.5,5.9l-4,2.2c-0.2-2.4-2-3.7-3.8-3.7c-3.2,0-7,4.7-8.5,10.2
		c-1.4,5.2-0.4,10,2.8,10.1c1.2,0,2.4-0.7,3.6-1.7l2.3,3.8C29.1,60.6,26.5,61.7,24.3,61.7L24.3,61.7z M9.2,67.4
		c-1.2,0-2.2-1-2.2-2.2C7,64,8,63,9.2,63c1.2,0,2.2,1,2.2,2.2C11.4,66.4,10.4,67.4,9.2,67.4L9.2,67.4z M153.5,29.4
		c-1-1.4-3.1-2.1-6.2-2.1H23.8c-5.8,0.1-7.9,4.9-8.2,5.8L4.2,66.3C4,67,4,67.4,4,67.7c0,2.8,1.9,4.9,4.4,4.9h124.2
		c3.5,0,7.8-1.8,9.5-5.7H12.8l1-3.5h129.3c0.1-0.3,0.2-0.5,0.2-0.5s10.1-28.7,10.1-28.8c0.3-0.8,0.6-1.8,0.6-2.7
		C154,30.7,153.9,30,153.5,29.4L153.5,29.4z M99.7,45.9c-1.3-0.6-3,1.4-4.3,4c-1.3,2.5-1.4,5.5-0.2,5.8c1.2,0.3,2.8-1.4,3.8-3.3
		C99.9,50.6,101.4,46.6,99.7,45.9L99.7,45.9z"/>
</g>
</svg>
