<?xml version="1.0" encoding="UTF-8" standalone="no"?>
<svg
   xmlns:dc="http://purl.org/dc/elements/1.1/"
   xmlns:cc="http://creativecommons.org/ns#"
   xmlns:rdf="http://www.w3.org/1999/02/22-rdf-syntax-ns#"
   xmlns:svg="http://www.w3.org/2000/svg"
   xmlns="http://www.w3.org/2000/svg"
   xmlns:sodipodi="http://sodipodi.sourceforge.net/DTD/sodipodi-0.dtd"
   xmlns:inkscape="http://www.inkscape.org/namespaces/inkscape"
   id="Layer_1"
   data-name="Layer 1"
   viewBox="0 0 478.3091 282.68027"
   version="1.1"
   sodipodi:docname="brand-logo.svg"
   width="478.30911"
   height="282.68027"
   inkscape:version="1.0.1 (c497b03c, 2020-09-10)">
  <metadata
     id="metadata100">
    <rdf:RDF>
      <cc:Work
         rdf:about="">
        <dc:format>image/svg+xml</dc:format>
        <dc:type
           rdf:resource="http://purl.org/dc/dcmitype/StillImage" />
        <dc:title></dc:title>
      </cc:Work>
    </rdf:RDF>
  </metadata>
  <sodipodi:namedview
     pagecolor="#ffffff"
     bordercolor="#666666"
     borderopacity="1"
     objecttolerance="10"
     gridtolerance="10"
     guidetolerance="10"
     inkscape:pageopacity="0"
     inkscape:pageshadow="2"
     inkscape:window-width="1440"
     inkscape:window-height="847"
     id="namedview98"
     showgrid="false"
     fit-margin-top="0"
     fit-margin-left="0"
     fit-margin-right="0"
     fit-margin-bottom="0"
     inkscape:zoom="2.2914967"
     inkscape:cx="190.50929"
     inkscape:cy="141.33921"
     inkscape:window-x="0"
     inkscape:window-y="25"
     inkscape:window-maximized="0"
     inkscape:current-layer="Layer_1"
     inkscape:document-rotation="0" />
  <defs
     id="defs69">
    <style
       id="style67">.cls-1{fill:#005596;}.cls-2{fill:#fff;}.cls-3{fill:#f58220;}</style>
  </defs>
  <path
     class="cls-1"
     d="M 462.74244,137.39921 252.08244,6.3992123 a 25.58,25.58 0 0 0 -25.84,0 L 15.602438,137.39921 c -10.42,6.51 -12.79,13.29 -12.7,18.22 v 107.86 a 16.55,16.55 0 0 0 16.77,16.33 H 458.67244 a 16.58,16.58 0 0 0 16.79,-16.33 v -107.75 c 0.13,-4.95 -2.19,-11.76 -12.7,-18.33"
     id="path71" />
  <path
     class="cls-2"
     d="M 458.65244,282.67921 H 19.652438 a 19.45,19.45 0 0 1 -19.64999999,-19.2 v -107.88 c -0.09,-5.33 2.26999999,-13.29 14.04999999,-20.66 L 224.73244,3.9292123 a 28.48,28.48 0 0 1 28.87,0 l 210.65,130.9999977 c 11.89,7.43 14.2,15.44 14.05,20.85 v 107.7 a 19.45,19.45 0 0 1 -19.65,19.2 z M 239.16244,5.7392123 a 21.76,21.76 0 0 0 -11.4,3.07 L 17.112438,139.80921 c -7.51,4.71 -11.44,10.15 -11.34,15.74 v 107.93 a 13.7,13.7 0 0 0 13.9,13.46 H 458.67244 a 13.71,13.71 0 0 0 13.91,-13.46 v -107.75 c 0.16,-5.69 -3.77,-11.16 -11.34,-15.9 L 250.58244,8.8292123 a 21.76,21.76 0 0 0 -11.42,-3.09 z"
     id="path73" />
  <path
     class="cls-3"
     d="m 452.16244,159.54921 c 12.09,0 13.67,-5.19 3.48,-11.55 l -207.19,-129.109998 c -5.1,-3.2 -13.46,-3.2 -18.57,0 L 22.682438,148.02921 c -10.18,6.36 -8.61,11.55 3.5,11.55 H 452.18244"
     id="path75" />
  <path
     class="cls-1"
     d="m 321.34244,93.959212 c -6.31,-11.2 -13.85,-16.89 -23.11,-21.65 7.08,-1.6 9.66,-5 11.21,-9.7 2.18,-7.81 1.12,-17.86 -15.71,-22.71 l -1.38,-0.4 0.4,1.21 c 1.39,4.2 1.43,6.92 0,8.39 -2,2 -6.92,1.37 -12.15,0.76 -1.35,-0.17 -2.67,-0.3 -4.08,-0.44 a 4.12,4.12 0 0 0 -1.16,-2.83 c -2.7,-2.89 -9.22,-3.41 -10.44,-3.48 a 14.22,14.22 0 0 1 -7.17,-2 14.22,14.22 0 0 0 -7.67,-2.15 11.65,11.65 0 0 0 -4.72,0.81 6.36,6.36 0 0 1 -2.43,0.46 6,6 0 0 1 -3.16,-0.93 4.18,4.18 0 0 0 -2.17,-0.77 l -2.31,-0.14 c -2.56,-0.17 -6.5,1.78 -9.61,3.33 a 25.37,25.37 0 0 1 -3.88,1.71 c -3.07,-0.12 -4.91,-0.14 -5.49,-0.08 a 11.55,11.55 0 0 0 -6.91,2.13 6.84,6.84 0 0 0 -2.88,4.55 c -2.82,0 -5.62,0.08 -8.39,0.17 -6.59,0.33 -12.29,0.61 -13.89,-1.65 -1.08,-1.44 -0.36,-4 2.22,-7.88 l 0.78,-1.23 -1.64,0.26 c -20.88,3.55 -25.32,14.43 -25.29,23.19 v 0.06 h 0.06 c 1.22,6.64 3.47,12.34 17.62,13.39 -11.47,5.14 -21.62,10.67 -32.5,22.7 a 8.61,8.61 0 0 0 -3.62,6.729998 c 0,3.25 2.34,6 6.51,7.33 13,3.15 22.46,4.48 32.66,1.75 0.49,1.35 -1.58,8.85 -5.31,13.72 -17,13.24 -25.32,31.54 -26.59,36.45 0,0 -1.53,5.25 -1.7,6 -1.7,4.91 17.85,-4.32 22.35,-2.66 1.68,0.54 6.08,0 8.52,1.06 0.67,0.32 10.25,-0.06 18.81,0.48 a 36.88,36.88 0 0 0 7.07,-0.21 59.66,59.66 0 0 1 8.83,-0.24 c 5.85,0.28 16,3.56 25.73,6.63 8.57,2.75 16.64,5.32 21.12,5.68 0.36,0.09 8.23,1.59 13.11,-0.17 6.19,-2.18 21.85,-5.75 22.47,-11 0.67,-5.8 -10.36,-15.06 -14,-16.68 1.94,-1.75 0.26,-0.09 2.14,-1.72 9.15,-7.8 16.76,-14.23 17,-23.2 a 21.31,21.31 0 0 0 -0.66,-5.21 7.19,7.19 0 0 1 -0.28,-3.6 6.07,6.07 0 0 1 1.05,-1.5 19.26,19.26 0 0 0 4.74,-10.27 c 2.8,0.48 5.75,-0.58 8.21,-1.35 0.82,-0.32 1.6,-0.61 2.25,-0.79 h 0.06 0.05 c 3,-1.15 5.08,-3 6,-5.37 a 8.22,8.22 0 0 0 -0.59,-6.899998"
     id="path77" />
  <path
     class="cls-2"
     d="m 276.13244,53.539212 c 11.92,2 21.12,2.38 21.81,-6.76 9.3,4.34 8.25,16 1.44,19.29 a 32.66,32.66 0 0 1 -15.12,0.91 c 1.66,-1.07 3.42,-4.31 0.38,-6.67 -3.04,-2.36 -5.28,-3.98 -8.51,-6.77 z m -5,7.36 c 1.88,-0.39 4.71,0.8 5.79,0.15 a 0.84,0.84 0 0 0 0.3,-1.07 c -0.27,-0.34 -4.51,-2.68 -6.81,-4.86 -2.79,-2.64 0,-7.87 -5.63,-7.67 a 32.86,32.86 0 0 1 -6.24,0 c -3.81,-0.6 -5.89,-3.6 -8.63,-3.74 -3.67,-0.23 -3.82,2.26 -7.59,2 -3,-0.18 -3.59,-1.76 -6.06,-1.89 -5.07,-0.3 -6.88,4.08 -10.33,3.85 l -3.46,-0.15 c -3,-0.19 -5.87,-0.11 -8,2.13 -2.45,2.43 2.87,1.63 3.46,5.67 0.17,1.29 -2.15,5.72 0.25,4.67 4.91,-1.43 9.87,-0.38 12,0.84 4.66,2.64 5.83,-1.82 10.39,-2.13 a 10.71,10.71 0 0 1 6.95,2.12 c 1.54,1.26 2.45,3.36 4.64,3.9 1.56,0.38 3,-1.64 5.91,-1.79 2.91,-0.15 4.57,1.11 6.38,1 2.73,-0.13 3.65,-2.44 6.64,-3.03 z m -8.63,9 c -3,-1.5 -5.22,-0.85 -8.26,1.51 -2.37,1.87 -5.52,-0.15 -6.25,-1.13 a 17,17 0 0 0 -4.06,-4.38 c -1.76,-1.39 -4.59,-0.36 -6.77,1.08 -2.18,1.44 -6.55,2.51 -10.29,0.63 -6,-3.11 -14.16,-2 -17,2.41 -2.35,2.73 -4.26,4.67 -11.3,5.79 -15.94,4 -29.53,10.14 -43.54,23.37 -1.93,2.389998 -3.57,5.999998 2.8,7.589998 12.28,3.18 21.33,5.11 35.9,-3.3 5.86,-4.059998 5.45,0 1.63,4.16 a 38.39,38.39 0 0 1 -4.53,3.74 c -0.79,6.79 -0.17,7.89 -5.39,16.8 -32.82,35.42 -4.78,31.29 6.51,31.29 a 153,153 0 0 1 26.46,2.19 c 7.94,1.27 29.74,8.88 42.13,10 3.93,0.33 8.52,0.13 10.06,-0.53 a 10.09,10.09 0 0 0 4.24,-3.44 c 2.57,-4.44 -1.78,-4.8 -3.84,-4.78 -3,0 -2.61,4.06 -5.17,4.06 -2,0 -3.06,-2.45 -2.82,-4.29 0.17,-1.68 3.53,-5 6,-7.8 10,-11.17 24.63,-14.8 24.82,-29.78 0,-4.17 -5.18,-0.92 -5,-3.12 0.1,-1.76 9.07,-8.14 9.45,-15.22 l 0.1,-1.93 c 0.12,-2 -3.87,-5.189998 -7.59,-5.369998 l -18.85,-0.42 a 11.56,11.56 0 0 0 -5.26,2.049998 c -5.11,6.43 -7.56,4.08 -4.55,-1.359998 1.38,-2.5 3.52,-4.54 7,-4.64 2.19,-0.05 4.12,-0.94 6.28,-0.91 -0.86,-3.5 -0.18,-7 3.88,-7.93 2.25,-0.63 2.75,-2.9 3,-6.11 l 0.14,-1.77 c 0,-0.39 0.06,-3.51 -2.24,-3.61 -4.06,-0.13 -8.14,7.52 -9.52,7.48 a 1.65,1.65 0 0 1 -1.53,-2.45 c 0.47,-1.94 4.75,-8.13 9.95,-10.39 1.21,-0.49 -1.25,-2.18 -2.12,-2.24 -3.13,-1.44 -5.09,0.6 -7.5,1.48 -1.99,1.26 -4.73,2.4 -7.01,1.31 z m -25.82,13.4 c -4.09,-0.42 -7,-2.37 -9.36,-3.91 -1.73,-1.11 -3.18,-2.05 -4.51,-2.09 -6.4,-0.27 -8.35,5.71 -10.17,11.16 a 35.88,35.88 0 0 1 -1.79,4.75 l -0.37,0.44 a 1.8,1.8 0 0 1 -1.52,0.52 1.94,1.94 0 0 1 -1.7,-0.76 c -0.72,-0.77 -1,-6.69 -0.15,-10.35 1.7,-8 8.48,-11.11 10.76,-12.11 l 1,-0.35 c 6,-1.41 11.14,3 12.78,4.46 0.47,0.39 1.18,1 1.92,1.5 4.53,3.6 5.81,5 5.2,6.06 -0.38,0.64 -1.15,0.83 -2.13,0.72 z m -7.14,28.259998 a 90.83,90.83 0 0 0 6.18,8 c 0.19,0.23 0.37,0.46 0.64,0.75 2,2.22 5.46,5.92 15.84,5.38 1.13,-0.06 3.1,-0.31 5.44,-0.61 5.85,-0.68 13.8,-1.7 17.35,-0.62 l -0.18,0.85 c -8.77,0.71 -13.24,2.07 -15.14,2.68 a 6.1,6.1 0 0 1 -1,0.3 l -9,1.69 c -6.5,1.18 -23.49,-3.55 -26.95,-7.59 a 5.25,5.25 0 0 1 -1,-4.46 6.23,6.23 0 0 1 1.23,-2.71 c 1.57,-1.13 5.62,-3.66 5.82,-3.79 z m -19.51,-47.229998 c -3.55,6.46 -24.75,11.66 -39,3.07 -6.82,-4.15 -4.39,-17 7.8,-20.76 -2.09,9.89 6.51,9.7 20.31,8.39 14.57,-1.39 12.91,5.81 10.89,9.3 z m -14.66,30.39 c -8.19,-0.23 -17.43,0.19 -31.81,7.489998 l -1.12,-1.24 c 9.84,-9.879998 26.3,-15.489998 38.21,-17.399998 l 1.57,-0.3 -6.16,11.46 z m 90.46,-22.24 c 2,3.37 1.82,6.42 0.68,7.9 a 43.12,43.12 0 0 1 18.69,15.3 47.23,47.23 0 0 0 -19.59,-7.44 c 1,0.65 1.08,3.52 -0.65,5 3.69,-1.13 15.88,2.44 17.44,5.52 4,3.679998 7.34,2.649998 10.06,1.939998 4.14,-1.129998 2.44,-5.579998 0.07,-9.089998 -6.58,-8.3 -16.51,-15.74 -26.7,-19.13 z m -36.45,20.72 c -0.47,0.43 -1.24,0.55 -2.85,0.28 a 71.34,71.34 0 0 0 -7.39,0.45 c -0.42,3.26 -3.71,5.86 -7.31,5.83 a 6.19,6.19 0 0 1 -4.7,-2.06 4.42,4.42 0 0 1 -1,-4 6.36,6.36 0 0 1 1.34,-2.73 7.18,7.18 0 0 0 -6.87,2.56 c -1.37,1.62 -2.87,1.82 -3.72,1.41 -0.85,-0.41 -0.87,-1.34 -0.36,-2.19 3.41,-5 8.21,-8.22 13,-8.61 a 11.17,11.17 0 0 1 10,4.57 c 2.94,0.85 9.14,2.71 9.81,3.13 l 0.27,0.41 a 0.93,0.93 0 0 1 -0.26,0.95 z m 19.28,47.829998 c -1.94,8.17 -7.65,17.15 -17.68,17.2 h -2.34 c -2.57,0.05 -5.38,-1.82 -7,-3.75 -0.78,-0.84 -1.74,-2.19 -1.53,-3.48 a 2,2 0 0 1 0.65,-1.23 3.48,3.48 0 0 1 2.28,-0.59 h 0.36 6.17 a 8.79,8.79 0 0 0 2.41,0 h 0.75 c 2.35,0 6.69,-0.23 14.35,-8.84 l 2.48,-2.76 z m -69.95,-12.12 c 2.58,0.15 2.2,2.57 1.92,4.13 -0.28,1.56 -0.44,3.12 0.24,4.57 1,2.32 3.34,4.23 6.86,5.53 0.44,0.17 13.53,4.34 17.52,8.14 l 0.55,0.48 -0.73,3.29 -3.69,-0.42 c -2.35,-1.63 -6.29,-2.6 -10.44,-3.55 -9.15,-2.14 -20.48,-4.79 -17.09,-17.26 0.64,-2.55 2.41,-5.1 4.86,-4.92 z m 96.6,-23.18 v 0.07 c -0.25,7 -6.58,12.89 -14.19,12.89 -7.61,0 -13.47,-6 -12.9,-13.1 v -0.08 a 3.07,3.07 0 0 1 3.11,-2.68 2.58,2.58 0 0 1 2.68,2.73 v 0.08 a 7.17,7.17 0 0 0 7.42,7.49 8.1,8.1 0 0 0 8.24,-7.37 v -0.08 a 2.8,2.8 0 0 1 2.92,-2.64 2.66,2.66 0 0 1 2.71,2.69"
     id="path79" />
  <path
     class="cls-2"
     d="m 82.042438,238.40921 c 0.85,0 2.76,0 2.76,1.69 0,0.95 -1.17,5.2 -1.27,6.05 -1.17,5.31 -1.27,5.83 -4.78,5.83 l -40.93,0.1 c -4.66,0 -5.41,-0.1 -5.41,-2 0,-1 7.75,-37.84 8.8,-43 1.91,-9 2.13,-10.08 4,-19.62 1.07,-5.41 2.23,-5.73 5.19,-5.73 5.53,0 29.91,-0.31 34.79,-0.31 1,0 4.66,0 5.31,0.1 1,0 2.12,0.21 2.12,1.59 0,0.95 -2.12,10.49 -2.77,11.14 -0.65,0.65 -0.74,0.74 -6.35,0.74 l -19.09,-0.11 c -1.38,6.69 -1.49,7.54 -3.07,14.43 8.58,-0.33 12.08,-0.43 21.52,-0.43 2.54,0 3.92,0 3.92,1.8 0,0.65 -1.91,10 -2.64,10.92 -0.73,0.92 -1.81,1 -4.56,1 -6.9,-0.11 -14.11,-0.11 -21,-0.11 -1.04,5.54 -2.31,11.24 -3.75,16.76 6.79,-0.31 11.45,-0.52 17.7,-0.62 l 9.55,-0.22"
     id="path81" />
  <path
     class="cls-2"
     d="m 141.43244,236.92921 c 2.23,0 2.87,0.63 2.87,1.91 0,1.28 -1.91,10.91 -2.87,12.18 -0.31,0.53 -0.84,0.74 -2.22,0.86 -11.67,0.2 -26.29,0.2 -38.18,0.2 -6.360002,0 -7.310002,0 -7.310002,-2.11 0,-0.54 0.84,-4.35 1.79,-9 7.530002,-35.84 11.470002,-54.09 12.300002,-57.26 0.54,-1.49 1,-1.91 2.66,-2.13 1.66,-0.22 7,-0.2 9.11,-0.2 a 53.86,53.86 0 0 1 7.33,0.31 c 0.94,0.22 1.06,1.06 1.06,1.91 0,2.13 -9.43,45.38 -11.14,54 6.47,-0.21 18.46,-0.63 24.6,-0.63"
     id="path83" />
  <path
     class="cls-2"
     d="m 217.89244,252.51921 c -1.8,0 -2.65,-0.23 -2.65,-2 0,-0.44 1.28,-17.72 3.73,-40.73 -2.45,4.15 -19.2,31.29 -20.59,33.52 -3.18,5.41 -4.77,6.77 -7.84,8.05 a 13.6,13.6 0 0 1 -4,1.07 c -2.43,0 -3,-2.56 -4.13,-8.69 -1.37,-6.68 -4.44,-22.49 -6,-35.43 -1.8,6.8 -9.87,40.83 -11,42.73 -0.53,1.08 -1,1.08 -4.67,1.17 -1.16,0 -7.1,0.22 -7.74,0.22 -1.59,0 -3,0 -3,-1.7 0,-1.7 5.61,-22.38 8.38,-32.35 4.44,-15.48 5,-17.17 7.94,-27.78 2.23,-7.63 2.45,-7.74 3,-8.27 0.55,-0.53 1.5,-0.75 5,-0.95 2.77,-0.21 10,-0.75 12.52,-0.75 2.12,0 2.76,0.42 3.39,3.19 0.43,1.91 5.2,31.39 6.16,37.32 2,-3.28 20.36,-34.26 22.37,-37.43 1.7,-2.66 3.5,-3.08 7,-3.08 2.12,0 9.75,0 11.24,0.22 1.49,0.22 1.48,1.9 1.48,3.17 0,6.26 -2,33.63 -2.32,39.23 -0.22,4.14 -1.38,24.93 -2.13,27.06 -0.32,0.85 -1,1.59 -3.29,1.69 l -12.73,0.54"
     id="path85" />
  <path
     class="cls-2"
     d="m 295.22244,238.40921 c 0.84,0 2.74,0 2.74,1.69 0,1 -1.16,5.2 -1.26,6.05 -1.17,5.31 -1.27,5.83 -4.77,5.83 l -40.94,0.12 c -4.66,0 -5.41,-0.12 -5.41,-2 0,-1 7.74,-37.83 8.81,-43 1.9,-9 2.12,-10.07 4,-19.62 1.05,-5.41 2.22,-5.73 5.19,-5.73 5.5,0 29.91,-0.31 34.79,-0.31 1,0 4.66,0 5.3,0.1 1.05,0 2.11,0.21 2.11,1.59 0,0.95 -2.11,10.49 -2.75,11.14 -0.64,0.65 -0.73,0.74 -6.36,0.74 l -19.08,-0.1 c -1.39,6.68 -1.49,7.53 -3.09,14.42 8.59,-0.33 12.1,-0.42 21.53,-0.42 2.53,0 3.93,0 3.93,1.79 0,0.65 -1.92,10 -2.65,10.93 -0.73,0.93 -1.81,1 -4.57,1 -6.89,-0.11 -14.11,-0.11 -21,-0.11 -1.06,5.63 -2.34,11.36 -3.83,16.87 6.8,-0.32 11.46,-0.53 17.72,-0.63 l 9.55,-0.22"
     id="path87" />
  <path
     class="cls-2"
     d="m 311.83244,252.51921 c -4.58,-0.11 -5.52,-0.11 -5.52,-1.92 0,-3.71 13.88,-65 14.84,-67.34 0.54,-1.48 1.38,-1.7 3.09,-1.9 3.81,-0.64 12.72,-0.64 17.08,-0.64 8.47,0 18.94,0.21 25.73,4.35 5.2,3.18 7.85,9.12 7.85,15.17 0,7 -3.47,13.91 -9.54,19.3 a 38.55,38.55 0 0 1 -9.32,5.71 c 2,2.77 9.09,12.86 16.13,21.95 1.16,1.57 1.25,2 1.21,2.41 -0.06,1 -0.5,1.14 -5.16,2.52 -1.41,0.34 -7.6,2.37 -8.9,2.71 a 18.33,18.33 0 0 1 -2.57,0.45 c -0.42,0 -0.95,-0.15 -2.12,-1.83 -1.75,-2.34 -13.34,-19.91 -15.18,-23.24 a 72.22,72.22 0 0 1 -8.32,1 c -0.75,3.07 -3.71,17.59 -4,19.17 -0.29,1.58 -0.94,2 -3.82,2 z m 36.27,-38.49 a 16.43,16.43 0 0 0 7.22,-13 c 0,-5.72 -5.08,-7.53 -10.6,-7.53 a 44.4,44.4 0 0 0 -5.18,0.22 c -0.84,4.36 -4.13,18.24 -5.41,23.87 3.19,-0.11 8.67,-0.22 14,-3.61"
     id="path89" />
  <path
     class="cls-2"
     d="m 392.72244,200.56921 c -1.94,3.43 -2.56,4.55 -3.68,4.7 -0.86,0.11 -7.28,-2.2 -8.06,-3.06 a 3.42,3.42 0 0 1 -0.3,-0.73 c -0.17,-1.4 5.29,-13.69 6.62,-16.65 0.75,-1.61 2.52,-5.69 3.84,-5.85 a 31.47,31.47 0 0 1 4.85,0.6 c 4.24,0.89 4.72,0.92 4.93,2.52 0.13,1 -3.42,9.63 -8.2,18.47"
     id="path91" />
  <path
     class="cls-2"
     d="m 394.88244,252.81921 c -1.9,-0.53 -2,-1.06 -2,-2 0,-1.81 0.52,-4.15 1.69,-8.39 0.64,-2.55 1,-3.6 2.33,-3.6 0.64,0 3.61,0.63 4.14,0.74 a 66.09,66.09 0 0 0 10,0.94 c 5.93,0 10,-3.07 10,-6.89 0,-2.86 -1.38,-4.45 -7.2,-10.71 -7.53,-8.16 -11.24,-12.71 -11.24,-19.4 0,-11.34 10.71,-23.65 34.36,-23.65 2.43,0 7.95,0.1 10,0.74 0.84,0.32 1.26,0.64 1.26,1.59 0,0.53 0,0.75 -1.16,5.3 -1.7,6.57 -1.7,6.79 -3.5,6.79 -0.1,0 -6.36,-0.42 -7.64,-0.42 -10.29,0 -12.29,5.52 -12.29,7.84 0,2.65 1,4.35 5.83,9.34 10,10.29 13.14,13.46 13.14,20.06 0,12 -13.14,23.42 -33.41,23.42 a 65.9,65.9 0 0 1 -14.2,-1.71"
     id="path93" />
  <path
     class="cls-2"
     d="m 452.31244,251.61921 a 4.68,4.68 0 1 1 -4.63,-4.9 4.76,4.76 0 0 1 4.63,4.9 z m -8.18,0 a 3.69,3.69 0 0 0 3.55,3.91 3.63,3.63 0 0 0 3.47,-3.88 3.53,3.53 0 1 0 -7,0 z m 2.8,2.54 h -1.1 v -4.9 a 11.48,11.48 0 0 1 1.75,-0.15 2.31,2.31 0 0 1 1.56,0.39 1.29,1.29 0 0 1 0.47,1 1.25,1.25 0 0 1 -0.94,1.17 v 0.06 c 0.44,0.15 0.66,0.54 0.8,1.19 a 4.91,4.91 0 0 0 0.33,1.2 h -1.07 a 4.11,4.11 0 0 1 -0.36,-1.2 c -0.08,-0.5 -0.36,-0.74 -0.94,-0.74 h -0.5 z m 0,-2.75 h 0.5 c 0.58,0 1.05,-0.21 1.05,-0.72 0,-0.51 -0.3,-0.74 -1,-0.74 a 2.29,2.29 0 0 0 -0.58,0.06 z"
     id="path95" />
</svg>
