<svg id="color" xmlns="http://www.w3.org/2000/svg" xmlns:xlink="http://www.w3.org/1999/xlink" viewBox="0 0 123 100"><defs><style>.cls-1{fill:none;}.cls-2{clip-path:url(#clip-path);}.cls-3{fill:#004fa3;}</style><clipPath id="clip-path"><rect class="cls-1" y="31.18" width="122.57" height="50.87"/></clipPath></defs><title>color_expo</title><g class="cls-2"><path class="cls-3" d="M119.29,62.93V61.88h.85c.36,0,.77.06.77.52s-.64.54-1.06.54Zm1.05.28c.53,0,.94-.23.94-.81a.73.73,0,0,0-.33-.64,1.36,1.36,0,0,0-.72-.15h-1.29v3h.36V63.21H120l.85,1.37h.43l-.89-1.37Zm-.42,2.55a2.66,2.66,0,1,0-2.67-2.66,2.65,2.65,0,0,0,2.67,2.66Zm0-.32a2.34,2.34,0,1,1,2.33-2.34,2.33,2.33,0,0,1-2.33,2.34Z"/><path class="cls-3" d="M43.67,38.49s1.1-2-.18-3.29,0-1.83-.37-2.74-1.83-1.28-1.83-1.28-15.53.37-24.84,2.92L0,63.52S-.18,67,1.46,66.66c0,0,5.4-1.41,7.85-1.89C12,64.22,19.86,63.41,25.95,63c4.19-.3,5.85,1.28,6.76.73a2,2,0,0,0,.91-2.37A4.78,4.78,0,0,1,33.07,60s.73-.18.55-2.19S32.89,56,32.89,56s-4.93-1.28-19.55.73l1.83-3.84s5.85-1.28,11.14-2a27.13,27.13,0,0,1,7.86-.18A2.88,2.88,0,0,0,36.54,50c.73-.73.37-2.38.37-2.38l.37-1.83a1.77,1.77,0,0,0,.18-1.64c-.37-.92-.73-1.1-2.37-1.28s-15,1.28-15.53,1.28,1.65-2.92,1.65-2.92S31.79,38.49,40.93,39v.73a20.53,20.53,0,0,0-2.56,3.29c-.37.91,1.46,3.65,2.74,5.11S45.5,53.1,45.5,53.1,32.89,67.54,31.25,69.73s-6.21,8-3.84,9.68,2.74,1.46,3.65,2.19,1.46.55,2.74-.37,9.86-13.15,13.34-16.62l4.75-4.75s4,3.65,4.93,4.2a2.27,2.27,0,0,0,2.38.18,7.13,7.13,0,0,0,1.64-1.46l-.55,2.37s-.18-.18,1.28.91,2.92,2.38,2.92,2.38,0-.36.91,0a1.36,1.36,0,0,0,1.83-.55C67.6,67.35,71.8,58,71.8,58S80,60,85.68,55.84s7.86-12.05,5.12-16.62S80.57,30.63,72.9,33a57,57,0,0,0-6.4,2.92c-.92.73-.92,2.74-.18,3.1s.55,1.64,1.28,2.19.55,2,1.64,2.19c.9.15,3.52-2.65,6.55-3.26a5.3,5.3,0,0,1,2,0c3.83.73,7.12,2.56,5.84,5.85S80.2,50.91,76,50.36c0,0,2.19-2.92,3.47-4.2s2.19-1.46,1.1-2.56a12.06,12.06,0,0,0-2.19-1.83A14,14,0,0,0,77.1,41S73.81,38.67,70,45.43s-6.76,12.42-6.76,12.42l-5.3-4.38s6.21-5.85,6.94-6.39A2.18,2.18,0,0,0,65,44.15c-.73-1.1-2.19-2.92-2.19-2.92a1.35,1.35,0,0,0-.73-1.46c-.92-.37-1.46-.37-2.74.55s-7.12,6.58-7.67,7.13a47.83,47.83,0,0,0-3.47-4c-.73-.55-.73-1.28-1.28-1.83A5.58,5.58,0,0,1,46,40.32s-.18-2.38-2.38-1.83Z"/></g><path class="cls-3" d="M116.47,33.66s.18,3.11.18,4,.18,2-.92,2.92-1.64.55-4.38,1.46-8.4,3.11-11.14,8-4,10.23,0,9.32,7.67-4.38,9.68-8A31.5,31.5,0,0,0,113,44.25a26.21,26.21,0,0,0,.18-3.29s4.38-3.83,5.85-2.56a6.18,6.18,0,0,1,1.82,3.1,26.06,26.06,0,0,1-3.29,14.8C113.36,63.43,104,68,99.3,67.27S88.52,63.43,88.52,56.86s5.66-14.07,9.68-17.72,9.86-6.39,18.27-5.48Z"/></svg>