<?xml version="1.0" encoding="UTF-8" standalone="no"?>
<svg
   xmlns:dc="http://purl.org/dc/elements/1.1/"
   xmlns:cc="http://creativecommons.org/ns#"
   xmlns:rdf="http://www.w3.org/1999/02/22-rdf-syntax-ns#"
   xmlns:svg="http://www.w3.org/2000/svg"
   xmlns="http://www.w3.org/2000/svg"
   xmlns:sodipodi="http://sodipodi.sourceforge.net/DTD/sodipodi-0.dtd"
   xmlns:inkscape="http://www.inkscape.org/namespaces/inkscape"
   version="1.1"
   id="Layer_1"
   x="0px"
   y="0px"
   viewBox="0 0 426.19999 146.59999"
   xml:space="preserve"
   sodipodi:docname="graco_brand_logo.svg"
   width="426.19998"
   height="146.59999"
   inkscape:version="1.0.1 (c497b03c, 2020-09-10)"><metadata
   id="metadata299"><rdf:RDF><cc:Work
       rdf:about=""><dc:format>image/svg+xml</dc:format><dc:type
         rdf:resource="http://purl.org/dc/dcmitype/StillImage" /><dc:title></dc:title></cc:Work></rdf:RDF></metadata><defs
   id="defs297" /><sodipodi:namedview
   pagecolor="#ffffff"
   bordercolor="#666666"
   borderopacity="1"
   objecttolerance="10"
   gridtolerance="10"
   guidetolerance="10"
   inkscape:pageopacity="0"
   inkscape:pageshadow="2"
   inkscape:window-width="1440"
   inkscape:window-height="847"
   id="namedview295"
   showgrid="false"
   fit-margin-top="0"
   fit-margin-left="0"
   fit-margin-right="0"
   fit-margin-bottom="0"
   inkscape:zoom="2.5470603"
   inkscape:cx="230.76743"
   inkscape:cy="58.292617"
   inkscape:window-x="0"
   inkscape:window-y="25"
   inkscape:window-maximized="0"
   inkscape:current-layer="Layer_1" />
<style
   type="text/css"
   id="style264">
	.st0{fill:#FFFFFF;}
	.st1{fill:#294388;}
	.st2{fill:none;stroke:#F7941D;stroke-width:0.25;}
</style>






<path
   class="st0"
   d="M 424.7,73.299996 C 424.7,112.9 330.1,145 213.4,145 96.7,145 2.1,112.9 2.1,73.299996 2.1,33.699996 96.7,1.6 213.4,1.6 330.1,1.7 424.7,33.799996 424.7,73.299996"
   id="path266"
   style="fill:#ffffff" /><path
   class="st1"
   d="M 213.1,0 C 95.4,0 0,32.799996 0,73.299996 0,113.8 95.4,146.6 213.1,146.6 330.8,146.6 426.2,113.8 426.2,73.299996 426.1,32.799996 330.7,0 213.1,0 m 8,134 C 113.7,134 26.7,105.3 26.7,69.799996 c 0,-35.4 87,-64.2 194.4,-64.2 107.4,0 194.4,28.7 194.4,64.2 C 415.5,105.3 328.5,134 221.1,134"
   id="path270"
   style="fill:#294388" /><g
   id="g288"
   transform="translate(-2,-1.8)"><path
     class="st1"
     d="m 136,72.8 h -32.2 c -0.3,0 -0.7,0.1 -0.7,0.9 0,0.9 0.4,1.9 1.1,1.9 l 8.4,1.1 c 0.6,0.1 0.6,0.3 0.7,1 0.5,4 0.8,12.9 0.9,18.8 0,1.3 -0.2,1.8 -0.3,2 -0.5,0.5 -1.9,0.9 -3.4,0.9 -15.6,0 -25,-13.9 -25,-27.3 0,-9.2 2.8,-17.3 8.2,-24.3 4.7,-6 11.5,-9.5 18.9,-9.5 2.7,0 4.6,0.6 6.3,2 0.6,0.6 1.2,1.3 1.5,2 l 5.9,12.4 c 0.2,0.5 0.7,0.5 0.9,0.5 0.7,0 1.6,-0.9 1.6,-1.5 l -0.6,-14.6 c 0,-0.7 -0.4,-1.2 -1,-1.5 -2.2,-1.1 -7.4,-2.4 -14.8,-2.4 -14.7,0 -26.1,4 -34.9,12.2 -7.2,6.6 -11.1,15.8 -11.1,25.8 0,19.5 13.5,29.4 40,29.4 10.9,0 17.6,-0.5 21.7,-1.5 0.7,-0.2 1.1,-0.7 1.1,-1.5 l 0.1,-5.7 c 0.2,-6.1 0.3,-13.1 0.6,-16 0.1,-1.2 0.4,-1.2 0.8,-1.3 l 5.2,-1.1 c 0.7,-0.2 0.9,-1.2 0.9,-2 -0.1,-0.5 -0.5,-0.7 -0.8,-0.7"
     id="path272" /><path
     class="st1"
     d="M 261.2,99.5 257,98.6 c -0.6,-0.1 -1,-0.5 -1.3,-1.1 C 252,89.4 242.6,65.1 237.6,52 l -2.2,-5.7 c -0.2,-0.6 -0.9,-0.8 -1.1,-0.8 -2.1,-0.2 -4.8,-0.2 -8,-0.2 h -0.1 c -4.8,0 -5.8,0.2 -6.9,2.5 L 213,62.1 c -5.4,12.5 -12.2,28 -16,35.2 -0.4,0.7 -1,1.4 -1.8,1.4 -0.8,0 -1.4,-0.6 -1.8,-1.2 -3.8,-6.1 -9.5,-15.1 -15,-22.1 6.1,-2.4 12.3,-7.5 12.3,-14.6 v -0.1 c 0,-10.4 -9,-15.4 -27.4,-15.4 -12.1,0 -22.6,1 -25.6,1.3 -0.3,0 -0.6,0.2 -0.6,0.7 0,0.9 0.4,1.6 0.9,1.6 -0.1,0 4.2,0.7 4.2,0.7 0.4,0.1 0.4,0.2 0.5,1.3 0.1,1.5 0,0.9 0.1,2 l 0.6,43.4 c 0,0 0,0.7 0,1.4 0,0.8 -0.3,1 -0.7,1.1 l -5.3,0.9 c -0.6,0 -0.8,0.9 -0.8,1.6 0,0.7 0.4,0.8 0.6,0.8 1.9,-0.1 7.1,-0.2 12.8,-0.2 l 13.1,0.2 c 0.3,0 0.7,-0.1 0.7,-0.8 0,-0.6 -0.5,-1.4 -0.9,-1.6 l -4.8,-1 c -0.5,-0.1 -0.7,-0.2 -0.7,-0.8 0,-4.3 0.4,-15.3 0.5,-18.7 1.1,0.1 2.6,0.1 3.2,0.1 0.3,0 0.5,0.1 0.8,0.4 6,5.8 12.2,12 17.3,18.6 l 0.1,0.3 c 0,0 -0.2,0.2 -0.9,0.3 l -4.4,0.8 c -0.6,0.2 -1,1.1 -1,1.7 0,0.4 0.3,0.7 0.7,0.7 0,0 16.7,-0.3 20.5,-0.3 3.8,0 17,0.2 18.8,0.3 0.5,0 0.7,-0.2 0.7,-0.7 0,-0.6 -0.3,-1.7 -0.9,-1.7 l -6.3,-1.1 c -0.2,0 -0.3,-0.1 -0.4,-0.2 0,-0.1 -0.1,-0.2 -0.1,-0.3 0,-0.1 0,-0.1 0,-0.2 0.6,-3.1 3.6,-11.3 3.6,-11.3 l 25,-1 c 0,0 4.2,9.6 5.3,12.3 0,0.1 0,0.2 0,0.3 0,0.1 0,0.2 -0.1,0.3 -0.1,0.1 -0.2,0.2 -0.3,0.2 l -6.2,0.9 c -0.6,0 -0.9,1 -0.9,1.8 0,0.5 0.2,0.7 0.7,0.7 1.7,-0.1 8.1,-0.2 14.8,-0.2 L 259,102 h 2 c 0.2,0 0.7,0 0.7,-0.6 0.3,-1.1 0,-1.8 -0.5,-1.9 m -100.6,-23 v 0 c -2.3,0 -2.5,-0.6 -2.5,-1.4 0,-0.3 0.1,-2.7 0.1,-2.7 l 0.7,-21.8 c 0,0 0.1,-1.2 0.1,-1.7 0.1,-0.8 0.4,-1.2 2.9,-1.2 7.4,0 12.2,5 12.2,12.8 0,6.4 -3.6,15.8 -13.6,15.8 M 220,56.6 c 0,0 1.2,-3.3 1.3,-3.7 h 0.1 c 0.1,0.2 0.2,0.5 0.2,0.5 l 1.4,3.4 c 2.8,6.8 10.7,25.8 10.7,25.8 l -22.6,0.2"
     id="path274" /><path
     class="st1"
     d="m 312.5,93.9 c -0.3,-0.2 -0.5,-0.1 -0.6,-0.1 -4.4,1.6 -6.9,2.4 -10.5,2.9 -1.6,0.3 -4.1,0.6 -5.5,0.6 -10.2,0 -21.1,-6.6 -21.1,-21.1 0,-8.6 3,-16.4 8.5,-22 4.7,-4.9 10.5,-6.7 14.3,-6.7 2.6,0 4.2,1 4.9,1.7 0.4,0.4 1.1,1.2 1.5,2.1 1.7,3.2 4.6,10.1 5.5,12.2 0.2,0.4 0.4,0.6 0.8,0.6 0.6,0 1.7,-0.7 1.7,-1.5 l -0.6,-14 c 0,-0.6 -0.2,-0.9 -0.6,-1.2 -2.6,-1.6 -7.6,-2.5 -13.5,-2.5 -11.2,0 -21.2,3.4 -28.9,9.7 -2.5,2.1 -10.8,9.9 -10.8,22.5 v 0.1 c 0,16.5 11.4,25.3 32.8,25.3 2.6,0 6.6,-0.5 8.7,-1 3.9,-0.8 10.8,-3.7 13.4,-5 0.4,-0.3 0.6,-0.6 0.6,-1.1 -0.3,-0.9 -0.4,-1.3 -0.6,-1.5"
     id="path276" /><path
     class="st1"
     d="m 350.7,44.1 c -21.3,0 -36.1,12.5 -36.1,30.3 0,7.8 2.3,14 6.7,18.6 5.6,5.8 13.9,8.8 26,8.8 h 0.1 c 12.1,0 20.3,-3.4 26.2,-9.7 5.2,-5.4 7.9,-12.8 7.9,-21.5 C 381.6,54.5 369.4,44 350.7,44.1 m 13,29.5 c 0,9.4 -1.9,25.1 -14.6,25.1 H 349 c -3.5,0 -6.6,-1.4 -9.3,-4.2 -4.6,-4.8 -7.5,-12.9 -7.5,-21.6 0,-16.2 6.1,-26.2 15.9,-26.2 10.2,0 15.5,13.5 15.6,26.9"
     id="path278" /><g
     id="g286"><path
       class="st1"
       d="m 382.5,45.3 c 2.4,0 4.3,2 4.3,4.5 0,2.4 -1.9,4.4 -4.3,4.4 -2.4,0 -4.3,-2 -4.3,-4.4 0,-2.5 1.9,-4.5 4.3,-4.5 m 0,8 c 1.9,0 3.5,-1.6 3.5,-3.6 0,-2 -1.6,-3.6 -3.5,-3.6 -1.9,0 -3.5,1.6 -3.5,3.6 0,2 1.6,3.6 3.5,3.6"
       id="path280" /><g
       id="g284"><path
         class="st1"
         d="m 380.8,47.4 h 1.9 c 0.5,0 1,0.2 1.3,0.4 0.2,0.2 0.4,0.6 0.4,0.9 v 0 c 0,0.7 -0.4,1.1 -1,1.3 l 1.2,1.7 h -0.9 l -1.1,-1.5 v 0 h -0.9 v 1.6 h -0.8 v -4.4 z m 1.9,2.2 c 0.5,0 0.9,-0.3 0.9,-0.7 v 0 c 0,-0.5 -0.3,-0.7 -0.9,-0.7 h -1.1 v 1.5 z"
         id="path282" /></g></g></g></svg>
