<svg id="color" xmlns="http://www.w3.org/2000/svg" xmlns:xlink="http://www.w3.org/1999/xlink" viewBox="0 0 120 100"><defs><style>.cls-1{fill:none;}.cls-2{fill:#5e6367;}.cls-3{clip-path:url(#clip-path);}</style><clipPath id="clip-path"><rect class="cls-1" y="30.6" width="120.01" height="46.08"/></clipPath></defs><title>color_yankeecandle</title><path class="cls-2" d="M23.77,45l4.65-9,4.65,9ZM39.48,52.4S29.83,34,29.64,33.64A1,1,0,0,0,28.7,33a1.07,1.07,0,0,0-.88.63c-.16.29-9.93,18.81-9.93,18.81h1.29a1,1,0,0,0,1-.5c.26-.45,2.77-5.32,2.77-5.32h11s2.55,4.94,2.73,5.25.47.57,1.12.57h1.74"/><g class="cls-3"><path class="cls-2" d="M81,41.51a7.34,7.34,0,0,1,7.43-6.61c4.55,0,6.79,2.67,7.26,6,0,.33,0,.63-.33.63Zm16.76-.09C97.2,36.53,94.31,33,88.42,33s-9.73,4.88-9.73,10c0,6.37,4,10.49,9.92,10.49A10.72,10.72,0,0,0,96.9,49.7c.26-.41.27-.69.16-.85s-.39-.16-.65,0a10.13,10.13,0,0,1-7.2,2.76,8.15,8.15,0,0,1-8.29-8.31H97.3a.54.54,0,0,0,.55-.55,13.29,13.29,0,0,0-.09-1.37"/><path class="cls-2" d="M103.16,41.51a7.21,7.21,0,0,1,7.42-6.61c4.55,0,6.79,2.67,7.26,6,0,.33,0,.63-.33.63Zm16.73-.3c-.57-4.86-3.48-8.22-9.31-8.22-6.09,0-9.72,4.61-9.72,9.83,0,5.49,3.45,9.86,9.92,9.86a10.18,10.18,0,0,0,8.14-3.63c.26-.41.27-.69.16-.85s-.39-.16-.65,0a10.53,10.53,0,0,1-7.2,2.58c-4.61,0-7.89-3-8.14-7.48h16.37a.55.55,0,0,0,.55-.56c0-.37,0-.91-.12-1.57"/><path class="cls-2" d="M56.49,34.16V47.86L41,32.84h-.09V52.4H42.8V37.79L58.25,52.7h.18V33.25H57.36a.82.82,0,0,0-.87.92"/><path class="cls-2" d="M21.72,30.93c-.12.13-9.32,10.58-9.32,10.58S3.27,31.22,3.08,31a1.45,1.45,0,0,0-1.18-.42H0L10.94,43.07V52.4h2.38V43l11-12.44H22.54a1.19,1.19,0,0,0-.82.33"/></g><path class="cls-2" d="M99.69,52.32c-.61.5-4,4.17-11.71,4.12-12.1-.09-17.37-11.06-18.85-14.33l11.05-8.86H78.5a2.22,2.22,0,0,0-1.57.54c-.41.34-8.91,7-12.68,10.07,0,0,0-9.14,0-9.74s-.39-.87-.93-.87h-1V52.4h1.93V45.93l3.26-2.5c1.42,2.71,6.43,14.77,20.68,14.77,8.07,0,11.51-4.6,11.94-5.23s.09-1.08-.43-.65"/><path class="cls-2" d="M116.74,61.55c.27,0,.52,0,.52-.35s-.26-.3-.48-.3h-.44v.65Zm-.41,1.26H116V60.59h.84c.54,0,.81.19.81.64a.57.57,0,0,1-.58.61l.62,1h-.41l-.57-1h-.34v1Zm.4-2.81a1.66,1.66,0,1,0,1.54,1.66A1.56,1.56,0,0,0,116.73,60Zm0,3.67a2,2,0,1,1,2-2,1.93,1.93,0,0,1-2,2Z"/><path class="cls-2" d="M33,69.83l4-7.66,4,7.66Zm13.45,6.34S38.21,60.45,38,60.12a.85.85,0,0,0-.81-.58.92.92,0,0,0-.76.54c-.14.24-8.5,16.1-8.5,16.1h1.11a.86.86,0,0,0,.85-.43c.22-.39,2.37-4.55,2.37-4.55h9.38s2.19,4.22,2.34,4.49a.9.9,0,0,0,1,.49h1.49"/><path class="cls-2" d="M98.88,66.7A6.17,6.17,0,0,1,105.24,61c3.9,0,5.82,2.28,6.22,5.12,0,.28,0,.54-.28.54Zm14.33-.25c-.49-4.16-3-7-8-7a8.1,8.1,0,0,0-8.33,8.42c0,4.7,3,8.45,8.49,8.45a8.73,8.73,0,0,0,7-3.11c.23-.35.24-.59.14-.73s-.34-.14-.55,0a9,9,0,0,1-6.16,2.21,6.6,6.6,0,0,1-7-6.4h14a.47.47,0,0,0,.47-.48c0-.32,0-.78-.1-1.34"/><path class="cls-2" d="M96.18,74.65h-9.8V60.74c0-.71-.3-1-.93-1h-1v16.4H97.06v-.82c0-.52-.28-.7-.88-.7"/><g class="cls-3"><path class="cls-2" d="M61.13,60.57V72.29L47.77,59.37h-.08V76.18h1.66V63.62L62.64,76.45h.15V59.78h-.92a.7.7,0,0,0-.74.79"/><path class="cls-2" d="M26.89,72.6c-.29-.3-.73.23-1,.41a8.48,8.48,0,0,1-1.42.92,9.75,9.75,0,0,1-3.41,1.2,8.48,8.48,0,0,1-6.56-1.88,8.18,8.18,0,0,1-2.25-7.45,7.53,7.53,0,0,1,4.85-5.51A8.2,8.2,0,0,1,26,62.56c.31-.26.77-.6.87-1s-.29-.74-.56-1a7.28,7.28,0,0,0-1.06-.86,9.66,9.66,0,0,0-5.35-1.62,9.46,9.46,0,0,0-8.35,14.26,8.66,8.66,0,0,0,3.3,3.26,9.59,9.59,0,0,0,4.23,1.09c2.74.11,5.81-.77,7.48-3.08.15-.21.59-.73.34-1h0"/></g><path class="cls-2" d="M70.31,74.39H68.16V61.55h2.15c5.22,0,10,.7,10,6.43h0c0,5.73-4.74,6.39-10,6.39Zm1.34-14.62H66.52v16.4h5.13c7.25,0,10.44-2.89,10.51-8.2s-3.25-8.2-10.51-8.2Z"/></svg>