<svg width="171" height="50" viewBox="0 0 171 50" fill="none" xmlns="http://www.w3.org/2000/svg">
<path d="M58.3135 28.4375H65.6746V30.8539H61.2006V32.825H65.0726V35.2311H61.2006V37.2695H65.6746V39.7084H58.3135V28.4375Z" fill="#33BAD9"/>
<path d="M71.4831 33.5154V39.7135H68.8115V28.4375H71.4831L74.8549 34.6511V28.4375H77.5248V39.7135H74.7652L71.4831 33.5154Z" fill="#33BAD9"/>
<path d="M95.5395 39.7135H92.6523V28.4375H95.5395V39.7135Z" fill="#33BAD9"/>
<path d="M101.749 33.5154V39.7135H99.0791V28.4375H101.749L105.121 34.6511V28.4375H107.792V39.7135H105.033L101.749 33.5154Z" fill="#33BAD9"/>
<path d="M111.329 28.4375H118.69V30.8539H114.218V32.825H118.09V35.2311H114.218V37.2695H118.69V39.7084H111.329V28.4375Z" fill="#33BAD9"/>
<path d="M121.835 28.4375H129.196V30.8539H124.717V32.825H128.589V35.2311H124.717V37.2695H129.191V39.7084H121.835V28.4375Z" fill="#33BAD9"/>
<path d="M139.406 28.4375C139.743 28.4375 140.065 28.5712 140.303 28.8091C140.54 29.047 140.674 29.3697 140.674 29.7061V34.8686C140.669 35.2034 140.533 35.523 140.297 35.7598C140.06 35.9965 139.741 36.1319 139.406 36.1372H139.322L140.702 39.7135H137.875L136.473 36.1372H135.238V39.7135H132.328V28.4375H139.406ZM137.787 31.0265C137.787 30.9844 137.772 30.9436 137.745 30.9118C137.717 30.88 137.679 30.8594 137.637 30.8539H135.233V33.8606H137.637C137.675 33.8559 137.71 33.8386 137.738 33.8114C137.765 33.7842 137.782 33.7487 137.787 33.7105V31.0265Z" fill="#33BAD9"/>
<path d="M146.882 39.7135H143.995V28.4375H146.882V39.7135Z" fill="#33BAD9"/>
<path d="M153.092 33.5154V39.7135H150.422V28.4375H153.092L156.464 34.6511V28.4375H159.135V39.7135H156.376L153.092 33.5154Z" fill="#33BAD9"/>
<path d="M85.0187 35.1859H86.5382V37.0846C86.5399 37.1086 86.5363 37.1327 86.5276 37.1551C86.5188 37.1776 86.5052 37.1978 86.4877 37.2143C86.4702 37.2308 86.4493 37.2433 86.4264 37.2507C86.4035 37.2581 86.3792 37.2603 86.3553 37.2572H84.0184C83.9726 37.2572 83.9287 37.239 83.8964 37.2066C83.8641 37.1742 83.8459 37.1303 83.8459 37.0846V31.0435C83.8454 30.9964 83.863 30.951 83.8951 30.9166C83.9273 30.8822 83.9714 30.8615 84.0184 30.8588H89.2373V28.4424H82.266C81.9261 28.4405 81.599 28.5725 81.3553 28.8098C81.1117 29.0472 80.9711 29.3708 80.9639 29.711V38.4205C80.9629 38.5912 80.9961 38.7603 81.0614 38.918C81.1267 39.0756 81.2228 39.2186 81.3441 39.3386C81.4655 39.4586 81.6095 39.553 81.7678 39.6165C81.9261 39.6799 82.0955 39.7111 82.266 39.7081H87.9076C88.0772 39.7107 88.2456 39.6791 88.4027 39.6153C88.5599 39.5515 88.7026 39.4567 88.8225 39.3366C88.9423 39.2165 89.0369 39.0735 89.1004 38.9161C89.164 38.7588 89.1953 38.5902 89.1925 38.4205V32.7971H85.0187V35.1859Z" fill="#33BAD9"/>
<path d="M166.629 35.1859H168.148V37.0845C168.148 37.1081 168.144 37.1314 168.134 37.1531C168.125 37.1747 168.111 37.1942 168.094 37.2104C168.077 37.2266 168.057 37.2391 168.035 37.2471C168.013 37.2551 167.989 37.2586 167.965 37.2571H165.628C165.583 37.2571 165.539 37.239 165.507 37.2066C165.474 37.1742 165.456 37.1303 165.456 37.0845V31.0435C165.455 30.9964 165.473 30.951 165.505 30.9166C165.537 30.8822 165.582 30.8615 165.628 30.8588H170.853V28.4424H163.874C163.535 28.441 163.208 28.5731 162.964 28.8103C162.721 29.0476 162.58 29.371 162.572 29.711V38.4205C162.571 38.5911 162.604 38.7603 162.67 38.918C162.735 39.0756 162.831 39.2186 162.953 39.3386C163.074 39.4585 163.218 39.553 163.376 39.6165C163.535 39.6799 163.704 39.7111 163.874 39.7081H169.518C169.687 39.7107 169.856 39.6791 170.013 39.6153C170.17 39.5514 170.313 39.4567 170.433 39.3366C170.552 39.2165 170.647 39.0735 170.711 38.9161C170.774 38.7587 170.805 38.5902 170.803 38.4205V32.7971H166.629V35.1859Z" fill="#33BAD9"/>
<path d="M44.5346 23.9893C44.5388 24.3417 44.4982 24.6931 44.4139 25.0353C42.8616 29.9786 39.0121 33.7395 34.3708 34.751L34.2311 34.7752C33.935 35.254 33.4909 35.6231 32.9662 35.8266C32.4415 36.03 31.8648 36.0568 31.3236 35.9027C30.7823 35.7486 30.3061 35.4221 29.9669 34.9728C29.6278 34.5234 29.4443 33.9756 29.4443 33.4125C29.4443 32.8493 29.6278 32.3016 29.9669 31.8522C30.3061 31.4028 30.7823 31.0763 31.3236 30.9222C31.8648 30.7682 32.4415 30.7949 32.9662 30.9984C33.4909 31.2018 33.935 31.571 34.2311 32.0498C39 30.7777 42.4839 25.8776 42.4839 20.2145C42.4814 19.8885 42.4607 19.563 42.4218 19.2393C42.1971 17.3656 41.6021 15.5553 40.6714 13.914C39.7408 12.2726 38.4931 10.833 37.001 9.67891C33.4597 6.89608 29.0696 5.41698 24.5676 5.48988C13.9105 5.64176 5.22143 14.4047 5.14899 25.0784C5.13114 27.4604 5.54486 29.8258 6.37009 32.0601C6.26581 31.7727 6.19351 31.4746 6.1545 31.1712C6.11138 30.8381 6.08551 30.4998 6.06999 30.1632C6.04584 29.6109 6.0355 29.1276 6.03205 29.0206C6.03205 21.8508 9.62118 15.3333 15.1834 12.3732C15.1834 12.3732 15.2644 12.3283 15.3662 12.2783C15.4088 11.7119 15.6363 11.1752 16.0137 10.7509C16.3911 10.3266 16.8974 10.0384 17.4547 9.93048C18.0119 9.8226 18.5892 9.90112 19.0975 10.1539C19.6057 10.4068 20.0168 10.8198 20.2674 11.3295C20.5179 11.8392 20.594 12.4172 20.484 12.9744C20.3739 13.5317 20.0838 14.0372 19.6583 14.4132C19.2328 14.7891 18.6956 15.0146 18.1294 15.0549C17.5632 15.0952 16.9996 14.948 16.5252 14.636C11.7978 17.0801 8.65706 22.7535 8.65706 29.012C8.65706 29.1846 8.65706 29.3572 8.65706 29.5298C8.85713 37.1571 14.5504 43.4898 21.9563 44.7187C23.6531 45.0103 25.3785 45.0978 27.096 44.9793C22.7842 44.2372 20.5421 42.6026 18.657 40.6643C13.2207 34.5197 13.3811 28.2646 13.419 27.5466C13.4397 20.4561 18.669 14.6947 25.0953 14.6947C30.423 14.6947 35.028 18.6973 36.3732 24.243C36.9514 24.4299 37.4511 24.8039 37.7934 25.3063C38.1357 25.8086 38.3013 26.4107 38.2641 27.0176C38.2269 27.6245 37.9889 28.2017 37.5877 28.6583C37.1865 29.115 36.6449 29.4251 36.0482 29.5397C35.4515 29.6544 34.8337 29.5671 34.292 29.2916C33.7504 29.0161 33.3157 28.5681 33.0565 28.0182C32.7973 27.4682 32.7284 26.8476 32.8605 26.2541C32.9926 25.6606 33.3182 25.128 33.7862 24.7401C32.6875 20.4251 29.1622 17.3321 25.0988 17.3321C20.1126 17.3321 16.0561 21.9319 16.0561 27.588V27.6778C16.0371 27.9833 15.8112 32.9818 20.0488 38.2168C24.7331 44.0007 33.4309 44.4995 38.724 39.2662L38.7413 39.249C38.5372 39.3842 38.3105 39.4818 38.0721 39.5372C36.8302 39.8865 35.55 40.0812 34.2605 40.1172C27.4392 40.1172 21.8908 34.7372 21.8908 28.1231C21.8905 26.8417 22.1021 25.5692 22.5169 24.3569C22.5169 24.3293 22.5376 24.2913 22.5514 24.2516C22.2677 23.7623 22.152 23.1935 22.2219 22.6322C22.2918 22.0708 22.5435 21.5478 22.9385 21.1432C23.3335 20.7385 23.85 20.4745 24.4092 20.3914C24.9683 20.3083 25.5392 20.4108 26.0347 20.6832C26.5301 20.9555 26.9228 21.3828 27.1526 21.8996C27.3825 22.4164 27.4368 22.9944 27.3074 23.545C27.178 24.0957 26.872 24.5888 26.4361 24.9489C26.0001 25.3091 25.4583 25.5164 24.8935 25.5393C24.6425 26.3792 24.5158 27.2515 24.5175 28.1283C24.5175 33.2925 28.888 37.4936 34.2587 37.4936C34.2674 37.4936 34.4105 37.4936 34.6589 37.4746C36.9471 37.3111 39.1191 36.4026 40.8431 34.888C42.5671 33.3733 43.7485 31.3357 44.2069 29.0862C44.457 27.8185 44.5824 26.5294 44.5812 25.2372C44.576 24.804 44.5346 24.0842 44.5346 23.9893Z" fill="#33BAD9"/>
<path d="M60.9833 15.5506V21.7487H58.3135V10.4727H60.9833L64.3552 16.6863V10.4727H67.0267V21.7487H64.2672L60.9833 15.5506Z" fill="#E5E8E8"/>
<path d="M77.5747 10.4736C77.75 10.4646 77.9252 10.4926 78.0889 10.5558C78.2526 10.6189 78.4013 10.7158 78.5252 10.8401C78.6491 10.9645 78.7455 11.1135 78.8082 11.2775C78.8709 11.4415 78.8984 11.6169 78.889 11.7923V20.4223C78.8984 20.5982 78.8708 20.7741 78.8078 20.9386C78.7448 21.1031 78.648 21.2525 78.5235 21.377C78.3991 21.5016 78.2498 21.5985 78.0855 21.6615C77.9211 21.7245 77.7453 21.7522 77.5696 21.7427H71.7831C71.6074 21.7522 71.4316 21.7245 71.2673 21.6615C71.1029 21.5985 70.9536 21.5016 70.8292 21.377C70.7047 21.2525 70.6079 21.1031 70.5449 20.9386C70.4819 20.7741 70.4543 20.5982 70.4637 20.4223V11.7923C70.4543 11.6165 70.4819 11.4406 70.5449 11.2762C70.6079 11.1118 70.7048 10.9625 70.8292 10.8381C70.9537 10.7137 71.103 10.6169 71.2674 10.5541C71.4317 10.4913 71.6075 10.4639 71.7831 10.4736H77.5747ZM75.9897 13.0954C75.9888 13.0469 75.969 13.0006 75.9346 12.9664C75.9001 12.9323 75.8537 12.9129 75.8052 12.9124H73.5182C73.4756 12.9202 73.4371 12.9429 73.4096 12.9764C73.3822 13.0099 73.3675 13.0521 73.3682 13.0954V19.1606C73.371 19.1995 73.3877 19.2361 73.4152 19.2637C73.4428 19.2913 73.4793 19.308 73.5182 19.3108H75.8052C75.8493 19.3142 75.8931 19.3006 75.9275 19.2726C75.9618 19.2447 75.9841 19.2046 75.9897 19.1606V13.0954Z" fill="#E5E8E8"/>
<path d="M89.4102 10.4736C89.5767 10.4734 89.7417 10.5061 89.8956 10.5697C90.0495 10.6334 90.1893 10.7268 90.3071 10.8447C90.4248 10.9625 90.5182 11.1025 90.5818 11.2565C90.6455 11.4105 90.6781 11.5756 90.6779 11.7423V16.9048C90.6725 17.2396 90.5373 17.5591 90.3007 17.7959C90.0641 18.0327 89.7447 18.168 89.4102 18.1734H89.3274L90.7072 21.7497H87.8752L86.4782 18.1734H85.2364V21.7497H82.3389V10.4736H89.4102ZM87.7907 13.0627C87.791 13.0205 87.776 12.9797 87.7484 12.9479C87.7207 12.9161 87.6824 12.8955 87.6406 12.8901H85.2364V15.9019H87.6406C87.6788 15.8972 87.7143 15.8799 87.7415 15.8527C87.7687 15.8255 87.786 15.79 87.7907 15.7518V13.0627Z" fill="#E5E8E8"/>
<path d="M100.965 10.4727V12.9115H98.406V21.7487H95.5016V12.9115H92.9473V10.4727H100.965Z" fill="#E5E8E8"/>
<path d="M112.004 21.7487H109.106V17.2714H106.347V21.7487H103.447V10.4727H106.352V14.7877H109.111V10.4727H112.004V21.7487Z" fill="#E5E8E8"/>
<path d="M126.836 10.4727C127.003 10.4724 127.168 10.5051 127.322 10.5688C127.476 10.6324 127.615 10.7259 127.733 10.8437C127.851 10.9616 127.944 11.1015 128.008 11.2555C128.072 11.4095 128.104 11.5746 128.104 11.7413V17.5355C128.096 17.8693 127.96 18.1872 127.724 18.4234C127.488 18.6595 127.17 18.7958 126.836 18.8041H122.844V21.7384H119.938V10.4727H126.836ZM125.046 16.4188C125.085 16.4163 125.122 16.3997 125.149 16.3721C125.177 16.3444 125.194 16.3076 125.196 16.2686V13.0617C125.197 13.0195 125.181 12.9787 125.154 12.9469C125.126 12.9151 125.088 12.8946 125.046 12.8891H122.844V16.4188H125.046Z" fill="#E5E8E8"/>
<path d="M137.833 10.4736C138.008 10.4639 138.184 10.4913 138.348 10.5541C138.512 10.6169 138.662 10.7137 138.786 10.8382C138.91 10.9626 139.007 11.1119 139.07 11.2763C139.133 11.4407 139.16 11.6165 139.15 11.7923V20.4223C139.16 20.5981 139.133 20.774 139.07 20.9385C139.007 21.103 138.91 21.2524 138.786 21.377C138.662 21.5015 138.513 21.5985 138.348 21.6615C138.184 21.7246 138.008 21.7522 137.833 21.7427H132.039C131.864 21.7522 131.688 21.7246 131.524 21.6615C131.359 21.5985 131.21 21.5015 131.086 21.377C130.962 21.2524 130.865 21.103 130.802 20.9385C130.739 20.774 130.712 20.5981 130.722 20.4223V11.7923C130.712 11.6165 130.739 11.4407 130.802 11.2763C130.865 11.1119 130.962 10.9626 131.086 10.8382C131.21 10.7137 131.359 10.6169 131.524 10.5541C131.688 10.4913 131.864 10.4639 132.039 10.4736H137.833ZM136.246 13.0954C136.245 13.047 136.226 13.0008 136.192 12.9665C136.158 12.9323 136.111 12.9129 136.063 12.9125H133.776C133.733 12.9199 133.695 12.9425 133.667 12.976C133.64 13.0096 133.625 13.052 133.626 13.0954V19.1606C133.629 19.1996 133.645 19.2364 133.673 19.2641C133.7 19.2917 133.737 19.3083 133.776 19.3108H136.063C136.107 19.3138 136.15 19.2999 136.184 19.272C136.218 19.2441 136.24 19.2043 136.246 19.1606V13.0954Z" fill="#E5E8E8"/>
<path d="M142.59 10.4727H145.477V19.3098H149.066V21.7487H142.59V10.4727Z" fill="#E5E8E8"/>
<path d="M151.87 10.4736H159.231V12.8901H154.757V14.8663H158.631V17.2724H154.757V19.3108H159.231V21.7497H151.87V10.4736Z" fill="#E5E8E8"/>
<path d="M24.8625 3.13228C29.2223 3.13057 33.4847 4.42282 37.1106 6.8456C40.7365 9.26838 43.563 12.7128 45.2326 16.7433C46.9022 20.7738 47.34 25.2093 46.4905 29.4888C45.6409 33.7683 43.5423 37.6996 40.4601 40.7854C37.3778 43.8712 33.4503 45.9729 29.1744 46.8247C24.8985 47.6765 20.4661 47.2402 16.438 45.5709C12.4099 43.9016 8.96691 41.0743 6.54453 37.4467C4.12216 33.819 2.82921 29.5539 2.82921 25.1907C2.82921 19.3405 5.15147 13.7298 9.28512 9.59305C13.4188 5.45628 19.0252 3.13228 24.8711 3.13228H24.8625ZM24.8711 0.456954C19.9824 0.455479 15.2031 1.90492 11.1377 4.62195C7.07224 7.33899 3.90327 11.2016 2.0316 15.7211C0.15992 20.2407 -0.33039 25.2143 0.622681 30.0127C1.57575 34.8112 3.92939 39.219 7.38591 42.6787C12.0212 47.3173 18.3079 49.9231 24.8631 49.9229C31.4182 49.9228 37.7048 47.3166 42.3399 42.6778C46.9749 38.0391 49.5788 31.7476 49.5786 25.1875C49.5785 18.6275 46.9743 12.3361 42.339 7.69758C40.0498 5.39262 37.3264 3.56506 34.3265 2.32071C31.3266 1.07635 28.1098 0.439942 24.8625 0.448324L24.8711 0.456954Z" fill="#E5E8E8"/>
</svg>
