<svg id="color" xmlns="http://www.w3.org/2000/svg" xmlns:xlink="http://www.w3.org/1999/xlink" viewBox="0 0 128 100"><defs><style>.cls-1{fill:none;}.cls-2{clip-path:url(#clip-path);}.cls-3{fill:#01549f;}</style><clipPath id="clip-path"><rect class="cls-1" y="20.84" width="127.81" height="48.38"/></clipPath></defs><title>color_oster</title><g class="cls-2"><path class="cls-3" d="M85.1,40.06H79.59l-6.9,15.14c-.39.85-1.64,3.65.45,4.19,1.51.4,4.17-.84,5.55-2.05l1.38.81c-2.27,2.27-7.56,4.79-11,4.86-2.53.05-3.92-.51-4.8-1.61-1.14-1.44-.93-3.71.34-6.5l6.81-14.83h-3l.76-1.63c4.77-.73,7.8-2.16,13.77-9.94h2l-4.35,9.43h5.5l-1,2.13Z"/><path class="cls-3" d="M59.38,48c-2.84-1.76-5.11-2.11-6.2-3.76l-19.39-1c-5.24-.38-6.09-2.1-5-6.7l.57-2.35c.07-.24-.08-.33-.21-.06L28.09,36c-2.11,3.71-3.7,6.27-10.84,6.92-1.66.15-2.17.17-2.75.23-.28,0-.34.14-.08.16.65.07,1.8.22,2.75.4,3.12.57,4.58,3,3.75,6.5-.51,2.16-.93,3.53-1.08,4.16-.06.25,0,.26.16,0a50.79,50.79,0,0,1,2.91-4.25c3.22-4.46,6-4.79,10.07-5l.39,0C31,51.19,24.37,67,14.24,67S10,50.94,12.32,45c3.91-10,10.84-21.94,19.18-21.93,7.53,0,6.22,9.77,3,19l10.25.77c4.44-13.57-1.45-22-12.39-22C20.89,20.83,8,29.75,2.1,44.3-3,56.92,1.47,68.88,13.36,69.21c12.23.34,25-9.86,30.63-24.17l.15-.4,2.18-.11c-2.37,9,11.11,8.05,9,13.49-.61,1.56-2.35,3.1-5.28,3.1-4.91,0-7-2.6-6.35-5.93H42.3c-1.24,2.73-1.65,3.6-2.47,5.36,2.58,1.89,6.08,2.58,10.17,2.58,4.55,0,9.32-1.89,11.44-6.77,1.54-3.55.49-6.79-2.06-8.38"/></g><path class="cls-3" d="M58.18,37.13c-4.37,0-8.83,1.48-11.17,5.93l5.82.34A2.64,2.64,0,0,1,53,42c.59-1.64,2.46-3.14,5.74-3,3.8.16,5.65,1.92,4.83,5.43h1.33l2.64-5.87a28.56,28.56,0,0,0-9.33-1.46"/><path class="cls-3" d="M109.66,62.39s5.52-12.12,6.21-13.6c2.52-5.44,6.78-4.59,8.55-3.89l3.4-7.45a12.71,12.71,0,0,0-10.34,6.3c.62-1.73,2.6-6.52-2.33-6.52-5.11,0-9.24,3.38-11.91,6l1.19.57c1.16-1.13,3.4-3.23,5.1-3.23s1.19,1.6.59,2.89l-8.62,18.89Z"/><path class="cls-3" d="M100,40.83c-.2,2.78-2.81,7.46-12.19,9.59,2.11-4.84,5.85-11.22,10.26-11.36,1.84-.06,2,1.29,1.94,1.77m-.53-3.57c-9.76,0-18.26,7-20.66,13.9C76.22,58.66,81.53,62.88,87,63c7.09.13,12-4.52,14.53-7.38l-1.14-1c-1.92,2-5.74,4.85-9.64,5.1-1.77.11-5.61-.08-4.33-5.64A10,10,0,0,1,87.13,52c14.57-1.61,19.14-7.12,19.35-10.07.27-3.86-4.5-4.63-7-4.63"/><path class="cls-3" d="M115.34,60.08c.35,0,.87.07.87-.45s-.32-.44-.62-.44h-.72v.89Zm1.18,1.4h-.37l-.71-1.15h-.57v1.15h-.31V59h1.1c.66,0,.89.26.89.67s-.34.68-.79.69l.76,1.15Zm.76-1.26a1.89,1.89,0,1,0-1.88,2,1.87,1.87,0,0,0,1.88-2m-4.14,0a2.25,2.25,0,1,1,2.26,2.26,2.26,2.26,0,0,1-2.26-2.26"/></svg>