<?xml version="1.0" encoding="utf-8"?>
<!-- Generator: Adobe Illustrator 22.0.1, SVG Export Plug-In . SVG Version: 6.00 Build 0)  -->
<svg version="1.1" id="Layer_1" xmlns="http://www.w3.org/2000/svg" xmlns:xlink="http://www.w3.org/1999/xlink" x="0px" y="0px"
	 viewBox="0 0 283.5 283.5" style="enable-background:new 0 0 283.5 283.5;" xml:space="preserve">
<style type="text/css">
	.st0{fill:#B39141;}
</style>
<g>
	<polygon class="st0" points="104,235.5 97.1,235.5 97.1,239.6 103.3,239.6 103.3,240.8 97.1,240.8 97.1,245 104.1,245 104.1,246.3 
		95.8,246.3 95.8,234.2 104,234.2 104,235.5 	"/>
	<path class="st0" d="M113.1,239.6c2.5,0.6,3.7,1.6,3.7,3.4c0,2.1-1.6,3.4-3.9,3.4c-1.8,0-3.3-0.6-4.6-1.9l0.8-1
		c1.2,1.1,2.3,1.7,3.9,1.7c1.5,0,2.5-0.8,2.5-2.1c0-1.1-0.6-1.8-2.9-2.3c-2.6-0.6-3.8-1.5-3.8-3.5c0-1.9,1.6-3.3,3.7-3.3
		c1.6,0,2.8,0.5,4,1.5l-0.7,1c-1-0.9-2.1-1.3-3.3-1.3c-1.5,0-2.4,0.9-2.4,2C110,238.4,110.6,239,113.1,239.6L113.1,239.6z"/>
	<polygon class="st0" points="126,246.3 124.7,246.3 124.7,235.5 120.9,235.5 120.9,234.2 129.8,234.2 129.8,235.5 126,235.5 
		126,246.3 	"/>
	<polygon class="st0" points="132.6,246.3 132.6,244.5 134.1,244.5 134.1,246.3 132.6,246.3 	"/>
	<polygon class="st0" points="148,234.1 149,234.1 149,246.3 147.7,246.3 147.7,235.6 145.6,236.3 145.3,235.2 148,234.1 	"/>
	<path class="st0" d="M158.2,246.5c-2.4,0-4.2-1.4-4.2-3.4c0-1.4,1-2.5,2.3-3c-1-0.5-1.9-1.4-1.9-2.8c0-1.9,1.8-3.2,3.9-3.2
		c2.1,0,3.9,1.3,3.9,3.2c0,1.4-0.9,2.3-1.9,2.8c1.3,0.5,2.3,1.5,2.3,3C162.5,245.1,160.6,246.5,158.2,246.5L158.2,246.5z
		 M158.2,240.7c-1.6,0-3,0.9-3,2.3c0,1.2,1.1,2.3,3,2.3c1.9,0,3-1,3-2.3C161.2,241.6,159.9,240.7,158.2,240.7L158.2,240.7z
		 M158.2,235.2c-1.5,0-2.6,0.9-2.6,2.1c0,1.3,1.1,2.2,2.6,2.2s2.6-0.9,2.6-2.2C160.8,236.1,159.7,235.2,158.2,235.2L158.2,235.2z"/>
	<path class="st0" d="M171.1,246.5c-2.4,0-4.2-1.4-4.2-3.4c0-1.4,1-2.5,2.3-3c-1-0.5-1.9-1.4-1.9-2.8c0-1.9,1.8-3.2,3.9-3.2
		c2.1,0,3.9,1.3,3.9,3.2c0,1.4-0.9,2.3-1.9,2.8c1.3,0.5,2.3,1.5,2.3,3C175.3,245.1,173.5,246.5,171.1,246.5L171.1,246.5z
		 M171.1,240.7c-1.6,0-3,0.9-3,2.3c0,1.2,1.1,2.3,3,2.3c1.9,0,3-1,3-2.3C174,241.6,172.7,240.7,171.1,240.7L171.1,240.7z
		 M171.1,235.2c-1.5,0-2.6,0.9-2.6,2.1c0,1.3,1.1,2.2,2.6,2.2c1.4,0,2.6-0.9,2.6-2.2C173.7,236.1,172.6,235.2,171.1,235.2
		L171.1,235.2z"/>
	<path class="st0" d="M183.9,246.5c-2.4,0-4.3-1.4-4.3-3.4c0-1.4,1-2.5,2.3-3c-1.1-0.5-1.9-1.4-1.9-2.8c0-1.9,1.8-3.2,3.9-3.2
		c2.1,0,3.9,1.3,3.9,3.2c0,1.4-0.9,2.3-1.9,2.8c1.3,0.5,2.3,1.5,2.3,3C188.2,245.1,186.3,246.5,183.9,246.5L183.9,246.5z
		 M183.9,240.7c-1.6,0-3,0.9-3,2.3c0,1.2,1.1,2.3,3,2.3c1.9,0,3-1,3-2.3C186.9,241.6,185.6,240.7,183.9,240.7L183.9,240.7z
		 M183.9,235.2c-1.5,0-2.6,0.9-2.6,2.1c0,1.3,1.1,2.2,2.6,2.2c1.4,0,2.6-0.9,2.6-2.2C186.5,236.1,185.4,235.2,183.9,235.2
		L183.9,235.2z"/>
	<path class="st0" d="M44,178.5c-1.8,0-14,0-14,0s0.4,2.3,0.4,16.8c0,14.5-0.4,17.9-0.4,17.9h5.6c0,0-0.2-1.7-0.2-7.8
		c0-6.1,0.2-8,0.2-8c1.7,0.1,3.3,0.2,5.2,0.2c6.1,0,17-1.7,17-10.5C57.8,178.7,47.8,178.5,44,178.5L44,178.5z M40.2,195.8
		c-1.4,0-3.2-0.2-4.5-0.4v-14.9h5.8c6.6,0,10.7,1.2,10.7,6.9C52.1,194.2,45.4,195.8,40.2,195.8L40.2,195.8z"/>
	<path class="st0" d="M89.5,213.2H96c0,0-2-2.7-9.2-17.3c-7.3-14.7-8.5-17.4-8.5-17.4h-1.3l-18.4,34.7h0l0,0h4l6.4-13.1l14.3,0
		L89.5,213.2L89.5,213.2z M70.1,197.8l6.1-12.5l6,12.5H70.1L70.1,197.8z"/>
	<path class="st0" d="M117.7,196.3c4.6-0.6,12.1-3.2,12.1-9.7c0-6.1-5.8-8-12.5-8h-13.7l0,0h0c0,0,0.4,2.3,0.4,16.8
		c0,14.5-0.4,17.9-0.4,17.9h0l0,0h5.6v0h0l0-2.6v-14.1l2.1,0.1c5,5.3,12.7,13.5,15.4,16.6l0,0h7.3l-0.2-0.1
		C130.5,210,120.8,199.5,117.7,196.3L117.7,196.3z M109.2,194.5v-2.8c0-3.6,0-7.3,0-10.9c1.5-0.1,3.3-0.1,6-0.1c4,0,9.2,1.3,9.2,6.5
		c0,5.9-6.4,7.6-11.3,7.6C111.6,194.7,110.3,194.7,109.2,194.5L109.2,194.5z"/>
	<path class="st0" d="M235.9,196.1c4.6-0.6,12.1-3.2,12.1-9.7c0-6.1-5.8-8-12.5-8h-13.7l0,0h0c0,0,0.4,2.3,0.4,16.8
		c0,14.5-0.4,17.9-0.4,17.9h0l0,0h5.6v0h0l0-2.6v-14.1l2.1,0.1c5,5.3,12.7,13.5,15.4,16.6l0,0h7.3l-0.2-0.1
		C248.7,209.9,238.9,199.3,235.9,196.1L235.9,196.1z M227.4,194.3v-2.8c0-3.6,0-7.3,0-10.9c1.5-0.1,3.3-0.1,6-0.1
		c4,0,9.2,1.3,9.2,6.5c0,5.9-6.4,7.6-11.3,7.6C229.8,194.5,228.4,194.5,227.4,194.3L227.4,194.3z"/>
	<path class="st0" d="M209.9,210.7l-16.1,0l-0.1-14.8h14.4v-2.4h-14.4c0-1.3,0-3.6,0-6.2c0-2.4,0.2-4.2,0.2-6.3l15.7,0.1v-2.5l0-0.1
		h-21.5v34.7h21.8l0-0.1V210.7L209.9,210.7z"/>
	<path class="st0" d="M138.5,130.8L134,136c0,1-0.1,2-0.1,2.9l4.6-5.3V130.8L138.5,130.8z"/>
	<path class="st0" d="M138.5,135l-4.7,5.4c-0.1,1.1-0.1,2-0.1,2.9l4.8-5.5L138.5,135L138.5,135z"/>
	<path class="st0" d="M138.5,126.8l-4.4,5c0,0.9-0.1,1.8-0.1,2.7l4.4-5.1L138.5,126.8L138.5,126.8z"/>
	<path class="st0" d="M144.8,149.6v-0.1l-5.6-6.5l-5.6,6.5c0,0,0,0.1,0,0.1c0,0.7,0.5,1.1,1.6,1.1h3.5c0.6,0,1.1,0,1.1,0h3.5
		C144.3,150.7,144.8,150.2,144.8,149.6L144.8,149.6z"/>
	<path class="st0" d="M133.6,147.7l4.9-5.6l0-2.8l-4.8,5.5C133.6,145.9,133.6,146.9,133.6,147.7L133.6,147.7z"/>
	<path class="st0" d="M138.6,118.4l-4,4.7c0,0.9-0.1,1.7-0.1,2.6l4.1-4.8V118.4L138.6,118.4z"/>
	<path class="st0" d="M138.6,122.6l-4.2,4.8c0,0.9-0.1,1.8-0.1,2.7l4.3-4.9L138.6,122.6L138.6,122.6z"/>
	<path class="st0" d="M143.8,123.1l-4.1-4.7l0,2.5l4.1,4.8C143.9,124.8,143.8,123.9,143.8,123.1L143.8,123.1z"/>
	<path class="st0" d="M144.6,140.4l-4.7-5.4v2.8l4.8,5.5C144.6,142.4,144.6,141.5,144.6,140.4L144.6,140.4z"/>
	<path class="st0" d="M144,127.5l-4.2-4.8v2.5l4.3,5C144.1,129.2,144,128.3,144,127.5L144,127.5z"/>
	<path class="st0" d="M144.8,147.7c0-0.8,0-1.8-0.1-2.9l-4.8-5.6l0,2.8L144.8,147.7L144.8,147.7z"/>
	<path class="st0" d="M144.5,139c-0.1-0.9-0.1-1.9-0.1-2.9l-4.5-5.3l0,2.8L144.5,139L144.5,139z"/>
	<path class="st0" d="M144.3,134.5c0-0.9-0.1-1.8-0.1-2.7l-4.4-5l0,2.6L144.3,134.5L144.3,134.5z"/>
	<path class="st0" d="M134.7,121.3L134.7,121.3l3.9-4.6l0.5-72.7h0.1l0.5,72.7l4,4.6v0c48.4-0.7,85.7-13.2,85.7-29
		c0-16.1-38.7-28.7-88.5-29v0c0-4.3-0.1-7.1-0.1-7.1s1.9-0.9,2-2.4c0.1-1.5-1.5-10.3-2.2-12.7c-0.7-2.4-1-2.7-1.5-2.7
		c-0.5,0-0.7,0.3-1.5,2.7c-0.8,2.4-2.4,11.2-2.2,12.7c0.1,1.5,2,2.4,2,2.4s0,2.8-0.1,7.1v0c-49.8,0.3-88.4,12.9-88.4,29
		C48.9,108.1,86.2,120.6,134.7,121.3L134.7,121.3z M141,66.1c46.6,0.3,82.3,12.2,82.3,26.2c0,13.8-34.3,25.4-79.7,26.1l0,0
		c-0.1-1.4-0.1-2.5-0.1-3.1c0-4.6-1.1-7-1.6-11.8C141.6,100.2,141.2,79,141,66.1l0-2.2L141,66.1L141,66.1z M137.3,66.1l0-2.3
		L137.3,66.1c-0.2,12.9-0.5,34.1-0.8,37.4c-0.5,4.8-1.6,7.2-1.6,11.8c0,0.6-0.1,1.7-0.1,3.1l0,0C89.3,117.8,55,106.1,55,92.3
		C55,78.3,90.7,66.4,137.3,66.1L137.3,66.1z"/>
	<polygon class="st0" points="157.9,193.7 176.3,178.5 171.5,178.5 152.4,194.9 170.6,213.2 177.8,213.2 157.9,193.7 	"/>
	<path class="st0" d="M145.3,178.5L145.3,178.5L145.3,178.5c0,0,0.4,2.3,0.4,16.8c0,14.5-0.4,17.9-0.4,17.9h0l0,0h2.8h2.8h0.5v-34.7
		h0l0-0.1H145.3L145.3,178.5z"/>
</g>
</svg>
