<?xml version="1.0" encoding="utf-8"?>
<!-- Generator: Adobe Illustrator 25.1.0, SVG Export Plug-In . SVG Version: 6.00 Build 0)  -->
<svg version="1.1" id="color" xmlns="http://www.w3.org/2000/svg" xmlns:xlink="http://www.w3.org/1999/xlink" x="0px" y="0px"
	 viewBox="0 0 151 100" style="enable-background:new 0 0 151 100;" xml:space="preserve">
<style type="text/css">
	.st0{clip-path:url(#SVGID_2_);fill:#231F20;}
	.st1{fill:#231F20;}
</style>
<g>
	<g>
		<defs>
			<rect id="SVGID_1_" x="1.2" y="20.2" width="148.7" height="59.7"/>
		</defs>
		<clipPath id="SVGID_2_">
			<use xlink:href="#SVGID_1_"  style="overflow:visible;"/>
		</clipPath>
		<path class="st0" d="M148.1,37.6c0.9,0,1.7-0.7,1.7-1.6c0-0.9-0.7-1.7-1.6-1.7c-0.9,0-1.7,0.7-1.7,1.6
			C146.5,36.8,147.2,37.5,148.1,37.6 M148.3,34.5c0.8,0,1.3,0.7,1.3,1.4c0,0.8-0.7,1.4-1.4,1.3c-0.8,0-1.4-0.7-1.3-1.4
			C146.9,35.1,147.5,34.5,148.3,34.5"/>
		<path class="st0" d="M147.8,36l0.4,0l0.5,0.8l0.3,0l-0.5-0.9c0.3,0,0.6-0.1,0.6-0.5c0-0.4-0.3-0.5-0.6-0.5l-0.8,0l-0.1,1.8l0.3,0
			L147.8,36L147.8,36z M147.9,35.2l0.5,0c0.2,0,0.4,0,0.4,0.3c0,0.2-0.1,0.3-0.5,0.3l-0.5,0L147.9,35.2L147.9,35.2z"/>
		<path class="st0" d="M24.2,50.4c-8.9-1.2-10.7-2.5-10.7-4.7c0-4,17.9-13.8,24.3-10.5c1.9,1-0.7,4.5-7.3,8.6
			c-1.3,2.5,1.2,3.9,3.4,2.9c2.5-1.6,11.1-7.4,8.6-12.8c-1.7-3.7-9.4-3.3-13.7-2.2c-6.3,1.6-23.3,8.7-19.1,18.1
			c3.3,7.4,27.4,4.8,26.8,12c-0.4,5.8-12,15-32.1,12.9c-1-0.1-1.5-0.1-2.5,0.4c-1.1,0.6-0.7,2.6,0.2,3.4c0.7,1,4.4,1.7,8.5,1.4
			c8.2-1,26.2-4.2,30.8-16.6C43.9,54.5,33.9,52.1,24.2,50.4"/>
		<path class="st0" d="M105.7,35.7c-0.4-1.6,0.9-3.7-0.3-5.3c-3.4-4.4-3.7,5.3-4,13.2c-0.4,9-4.7,12.1-5.8,11.5
			c-3-2.2,2.9-11.6,1-17.2c-1.1-3.1-4.2-2.8-8.2-1c0-1.7,0.2-4.5-1.1-4.1c-2.3,0.6-2.8,2-3.2,5.5c-1.1,0.6-3.5,1.1-3.7,1.8
			c-0.4,2.1,1.6,2.8,3.7,2.4c0.7-0.3-0.6,8.4-0.9,9.7C82.6,55.3,81.5,59,79,58c-3.2-1.3,2.7-15.1-1.8-15.3c-2.4-5.7-8-4.5-11,0.8
			c-1.9,3.1-2.2,6.6-2.3,9.8c0,0.7,0,2.6-0.1,3.3c-0.1,1.8-3.8,7.3-4.7,6.1C56.7,59.8,62,49,59.2,44.7c-2-3.2-5-1.7-9.6,0.7
			c0,0,1.4-14.5-0.8-15.9c-0.9-1-2.2,0.3-2.9,0.7c-1.2,1.6,0.3,8.6-0.8,17.2c-0.2,1.6-4.1,1.2-4.3,2.1c-0.9,3.1,1.7,4.6,4,3.4
			c1.1-0.1-4.2,21.2,3.8,16.6c0.5-0.5-0.7-2.7,0.8-18.9c0.4-1.5,4.6-3.3,5.4-2.9c0.6,0.3,0.7,0.6,0.7,1.1c0,8.5-3.4,15.3,0.3,18.1
			c0.5,0.3,0.9,0.6,1.3,0.7c0.7,0.2,2,0.1,3.4-0.7c2.2-1.2,3.6-3.4,4.9-5c0.4,1,0.9,2,1.6,2.6c3,2.3,6.6,0.1,9-4.1
			c3.5,4.9,8.1,3.1,10.1-3.3c2-6.2,2.1-13.4,2.6-15.8c0.1-0.3,2.4-1.3,3.4-1.2c3.2,0.3-3.8,13.9,0,18.1c3.8,4.7,8-1.4,9.2-2.7
			c0.4,11,1.1,13.6,4.3,12c1.9-0.9-2.9-16,1.3-26.2c1-2.5,2.3-5,5-5.1c5.1,0.5,1,22.4-2.5,15.6c-0.1-0.3-0.2-0.7-0.2-1.1
			c0-1.2,0.5-3.7-1.1-2.5c-3.1,4.5-0.5,8.9,2.6,8.8c1.8-0.1,3.6-1.2,4.7-2.7c1.2-1.7,1.9-4.2,2.3-7.7c1.1-10.5-2-13.1-2.7-14.1
			C111.1,28.3,105.8,35.7,105.7,35.7 M74.2,44.8c-0.4,6.9-1,16.4-4.2,15.3c-3.4-3.1-2.1-14.9,2.2-16.8c0.8-0.4,1.7-0.1,2.6,0.1
			C74.3,43.8,74.1,44.2,74.2,44.8"/>
		<path class="st0" d="M125.5,27.7c1.5,0.2,3-1.3,3.4-3.4c0.4-2.1-0.4-4-1.9-4.2c-1.5-0.2-3,1.3-3.4,3.4
			C123.2,25.7,124,27.5,125.5,27.7"/>
	</g>
	<path class="st1" d="M148.3,40.6c-0.3-0.1-1-0.1-1.4,0.1c-0.5,0.3-0.7,4.1-2.1,6.6c-1.2,2.2-6,4.7-9.3,1.3c0,0,4.4-4.4,5.5-10.7
		c1.4-7.9-2.3-13.1-6.7-11c-4.9,2.3-6.3,9.4-6.1,14.4c0.2,3,1.1,5.1,2,6.9c-3,2.4-6.1,2.1-6.2-2.9c-0.2-8.1,5.4-16.1,1.1-15.7
		c-2.3,0.2-4.2,5.1-5.1,11.2c-0.8,6.6-0.5,9.1,2,11.5c4,3.6,10.1-0.9,10.4-1c0.5,0.4,1.3,1,1.8,1.3c2.7,1.6,6,1.6,8.7,0.7
		c1.3-0.5,2.7-1.3,3.6-2.2c1.6-1.6,2.8-4.3,3-6.9C149.7,42.5,149.3,40.9,148.3,40.6 M133.5,45.4c-2.4-3.3-0.3-11.7,1.5-13.6
		c0.6-0.7,1.4-0.6,1.7-0.4C137.7,32.4,138.4,39,133.5,45.4"/>
</g>
</svg>
